<?xml version="1.0" encoding="utf-8"?>
<!-- Generator: Adobe Illustrator 22.0.1, SVG Export Plug-In . SVG Version: 6.00 Build 0)  -->
<svg version="1.1" id="Layer_1" xmlns="http://www.w3.org/2000/svg" xmlns:xlink="http://www.w3.org/1999/xlink" x="0px" y="0px"
	 viewBox="0 0 472.7 347.9" style="enable-background:new 0 0 472.7 347.9;" xml:space="preserve">
<style type="text/css">
	.st0{opacity:0.69;}
	.st1{enable-background:new    ;}
	.st2{clip-path:url(#SVGID_2_);enable-background:new    ;}
	.st3{fill:#828282;}
	.st4{fill:#808080;}
	.st5{clip-path:url(#SVGID_4_);enable-background:new    ;}
	.st6{fill:#8A8A8A;}
	.st7{fill:#878787;}
	.st8{fill:#858585;}
	.st9{fill:#838383;}
	.st10{clip-path:url(#SVGID_6_);enable-background:new    ;}
	.st11{clip-path:url(#SVGID_8_);enable-background:new    ;}
	.st12{clip-path:url(#SVGID_10_);enable-background:new    ;}
	.st13{clip-path:url(#SVGID_12_);enable-background:new    ;}
	.st14{clip-path:url(#SVGID_14_);enable-background:new    ;}
	.st15{fill:#B0B0B0;}
	.st16{clip-path:url(#SVGID_16_);enable-background:new    ;}
	.st17{clip-path:url(#SVGID_18_);}
	.st18{display:none;}
	.st19{display:inline;fill:none;stroke:#58595B;stroke-miterlimit:10;}
	.st20{fill:#CBD4D5;}
	.st21{fill:#B7B8AC;}
	.st22{fill:#9D9D9E;}
	.st23{fill:#BCBCBC;}
	.st24{fill:#B9C1C3;}
	.st25{fill:#231F20;}
	
		.st26{display:inline;fill:none;stroke:#AA3639;stroke-width:3.2574;stroke-linecap:round;stroke-linejoin:round;stroke-miterlimit:10;stroke-dasharray:8.143418e-02,4.8861;}
	
		.st27{display:inline;fill:none;stroke:#12A64D;stroke-width:1.6288;stroke-linecap:round;stroke-linejoin:round;stroke-miterlimit:10;}
	
		.st28{display:inline;fill:none;stroke:#F8EC28;stroke-width:1.6288;stroke-linecap:round;stroke-linejoin:round;stroke-miterlimit:10;}
</style>
<g>
	<g class="st0">
		
			<image style="overflow:visible;enable-background:new    ;" width="2033" height="908" xlink:href="71B3093858BE9099.png"  transform="matrix(0.2395 0 0 0.2395 -2.6778 87.8181)">
		</image>
	</g>
	<g>
		<g id="_x33_BENHAM">
			<g>
				<g class="st1">
					<g>
						<defs>
							<path id="SVGID_1_" d="M23.2,132.1v-0.8c0,1.6,0.5,3.2,1.5,4.5v0.8C23.7,135.2,23.2,133.6,23.2,132.1z"/>
						</defs>
						<clipPath id="SVGID_2_">
							<use xlink:href="#SVGID_1_"  style="overflow:visible;"/>
						</clipPath>
						<g class="st2">
							<path class="st3" d="M24.7,135.7v0.8c-1-1.3-1.5-2.9-1.5-4.5v-0.8C23.2,132.8,23.7,134.4,24.7,135.7"/>
						</g>
					</g>
				</g>
				<g>
					<polygon class="st4" points="62.4,185.9 62.4,186.8 24.7,136.5 24.7,135.7 					"/>
				</g>
				<g class="st1">
					<g>
						<defs>
							<path id="SVGID_3_" d="M459.3,230.2v0.8c0,1.1-0.2,2.2-0.7,3.2v-0.8C459,232.4,459.3,231.3,459.3,230.2z"/>
						</defs>
						<clipPath id="SVGID_4_">
							<use xlink:href="#SVGID_3_"  style="overflow:visible;"/>
						</clipPath>
						<g class="st5">
							<path class="st6" d="M459.3,230.2v0.8c0,0.4,0,0.7-0.1,1.1v-0.8C459.2,231,459.3,230.6,459.3,230.2"/>
							<path class="st7" d="M459.2,231.3v0.8c-0.1,0.4-0.2,0.8-0.3,1.2v-0.8C459,232.2,459.1,231.7,459.2,231.3"/>
							<path class="st8" d="M458.9,232.6v0.8c-0.1,0.3-0.2,0.6-0.4,0.9v-0.8C458.7,233.2,458.8,232.9,458.9,232.6"/>
						</g>
					</g>
				</g>
				<g>
					<polygon class="st9" points="458.5,233.5 458.5,234.3 457.7,236.1 457.7,235.3 					"/>
				</g>
				<g class="st1">
					<g>
						<defs>
							<path id="SVGID_5_" d="M457.7,235.3v0.8c-0.4,0.9-1,1.6-1.7,2.3c-1.2,1.1-2.8,1.9-4.6,2v-0.8c1.7-0.1,3.3-0.8,4.6-2
								C456.7,236.9,457.3,236.1,457.7,235.3z"/>
						</defs>
						<clipPath id="SVGID_6_">
							<use xlink:href="#SVGID_5_"  style="overflow:visible;"/>
						</clipPath>
						<g class="st10">
							<path class="st8" d="M457.7,235.3v0.8c-0.1,0.2-0.2,0.3-0.2,0.5v-0.8C457.5,235.6,457.6,235.4,457.7,235.3"/>
							<path class="st3" d="M457.4,235.7v0.8c-0.4,0.7-0.9,1.3-1.4,1.8c-1.2,1.1-2.8,1.9-4.6,2v-0.8c1.7-0.1,3.3-0.8,4.6-2
								C456.6,237,457,236.4,457.4,235.7"/>
						</g>
					</g>
				</g>
				<g>
					<polygon class="st4" points="451.4,239.5 451.4,240.3 332.1,248.8 332.1,247.9 					"/>
				</g>
				<g>
					<polygon class="st4" points="332.1,247.9 332.1,248.8 317.7,249.8 317.7,249 					"/>
				</g>
				<g>
					<polygon class="st4" points="282.7,251.4 282.7,252.3 256.4,254.1 256.4,253.3 					"/>
				</g>
				<g class="st1">
					<g>
						<defs>
							<path id="SVGID_7_" d="M318.3,251.8v0.8c0,1.1-0.3,2.3-0.8,3.3v-0.8C318,254.1,318.3,253,318.3,251.8z"/>
						</defs>
						<clipPath id="SVGID_8_">
							<use xlink:href="#SVGID_7_"  style="overflow:visible;"/>
						</clipPath>
						<g class="st11">
							<path class="st6" d="M318.3,251.8v0.8c0,0.4,0,0.7-0.1,1.1v-0.8C318.3,252.6,318.3,252.2,318.3,251.8"/>
							<path class="st7" d="M318.2,252.9v0.8c-0.1,0.4-0.2,0.8-0.3,1.2v-0.8C318.1,253.8,318.2,253.4,318.2,252.9"/>
							<path class="st8" d="M317.9,254.2v0.8c-0.1,0.3-0.2,0.7-0.4,1v-0.8C317.7,254.8,317.8,254.5,317.9,254.2"/>
						</g>
					</g>
				</g>
				<g>
					<polygon class="st9" points="317.5,255.2 317.5,256 316.6,257.9 316.6,257.1 					"/>
				</g>
				<g>
					<polygon class="st4" points="288.8,259.4 288.8,260.2 282.7,252.3 282.7,251.4 					"/>
				</g>
				<g>
					<polygon class="st4" points="117.7,259.7 117.7,260.5 62.4,186.8 62.4,185.9 					"/>
				</g>
				<g class="st1">
					<g>
						<defs>
							<path id="SVGID_9_" d="M316.6,257.1v0.8c-1.2,2.4-3.5,3.9-6.2,4.1v-0.8C313,261,315.4,259.5,316.6,257.1z"/>
						</defs>
						<clipPath id="SVGID_10_">
							<use xlink:href="#SVGID_9_"  style="overflow:visible;"/>
						</clipPath>
						<g class="st12">
							<path class="st8" d="M316.6,257.1v0.8c-0.1,0.1-0.1,0.2-0.2,0.4v-0.8C316.4,257.3,316.5,257.2,316.6,257.1"/>
							<path class="st3" d="M316.4,257.5v0.8c-1.2,2.2-3.5,3.6-6,3.8v-0.8C312.9,261,315.1,259.6,316.4,257.5"/>
						</g>
					</g>
				</g>
				<g>
					<polygon class="st4" points="310.4,261.2 310.4,262.1 305.5,262.4 305.5,261.6 					"/>
				</g>
				<g>
					<polygon class="st4" points="305.5,261.6 305.5,262.4 301.2,262.8 301.2,261.9 					"/>
				</g>
				<g class="st1">
					<g>
						<defs>
							<path id="SVGID_11_" d="M295.3,262.3v0.8c-5.6-1.9-6.1-2.4-6.5-3v-0.8C289.3,260,289.8,260.5,295.3,262.3z"/>
						</defs>
						<clipPath id="SVGID_12_">
							<use xlink:href="#SVGID_11_"  style="overflow:visible;"/>
						</clipPath>
						<g class="st13">
							<path class="st3" d="M295.3,262.3v0.8c-5.6-1.9-6.1-2.4-6.5-3v-0.8C289.3,260,289.8,260.5,295.3,262.3"/>
						</g>
					</g>
				</g>
				<g>
					<polygon class="st4" points="301.2,261.9 301.2,262.8 295.3,263.2 295.3,262.3 					"/>
				</g>
				<g>
					<polygon class="st4" points="256.4,253.3 256.4,254.1 124.3,263.5 124.3,262.6 					"/>
				</g>
				<g class="st1">
					<g>
						<defs>
							<path id="SVGID_13_" d="M124.3,262.6v0.8c-3,0-5.2-1.1-6.7-3v-0.8C119.1,261.5,121.3,262.7,124.3,262.6z"/>
						</defs>
						<clipPath id="SVGID_14_">
							<use xlink:href="#SVGID_13_"  style="overflow:visible;"/>
						</clipPath>
						<g class="st14">
							<path class="st3" d="M124.3,262.6v0.8c-3,0-5.2-1.1-6.7-3v-0.8C119.1,261.5,121.3,262.7,124.3,262.6"/>
						</g>
					</g>
				</g>
				<g>
					<path class="st15" d="M411.5,167.4l46.2,58.1c1.8,2.2,2.1,5.3,0.9,7.9l-0.9,1.8c-0.4,0.9-1,1.6-1.7,2.3c-1.2,1.1-2.8,1.9-4.6,2
						l-119.3,8.4l-14.4,1c0.8,2,0.8,4.2-0.2,6.2l-1,1.9c-1.2,2.4-3.5,3.9-6.2,4.1l-4.9,0.4l-4.3,0.4l-5.8,0.4
						c-5.6-1.9-6.1-2.4-6.5-3l-6.1-7.9l-26.3,1.9l-132.1,9.3c-3,0-5.2-1.1-6.7-3l-55.3-73.7l-37.7-50.2c-1.9-2.5-2-5.9-0.3-8.5
						l1.2-1.9c1.3-2.1,3.6-3.4,6-3.5l81.9-4.1l1.3-2.3c0.5-0.9,1.2-1.6,2-2.2c1-0.7,2.1-1.3,3.4-1.5c0.3-0.1,6.5-1.1,15.2-2.4
						l4.7-0.7c18.6-2.9,30.9-4.6,36.6-5c10.3-0.8,16-1,16.2-1.1c0.3,0,20.9-0.8,26.8-1c0.5,0,1.1,0,1.6-0.1c1,0,1.4,0,1.7-0.1
						c1.1,0,1.4,0,1.8,0c3.2,0,3.9,0,4.6,0c1.3,0,2.1,0,3,0.1c1.4,0,2.2,0.1,2.9,0.1c1.5,0,2.4,0.1,3.4,0.1c1.4,0.1,2.2,0.1,3,0.1
						c1.9,0.1,2.9,0.2,3.9,0.2c1.3,0.1,2.3,0.1,3.3,0.2c1.9,0.1,3,0.2,4.2,0.3l2.8,0.2l1.8,0.2c8.6,0.7,14.8,1.4,15,1.4
						c2,0.2,3.8,1.2,5.1,2.8l1.8,2.3l78.9-4l43.3,49.4c0.3,0.3,0.6,0.6,0.8,0.9l6.1,7.8l2.3,2.9C411,166.7,411.3,167.1,411.5,167.4z
						"/>
					<g class="st1">
						<g>
							<defs>
								<path id="SVGID_15_" d="M411.5,167.4l46.2,58.1c1.8,2.2,2.1,5.3,0.9,7.9l-0.9,1.8c-0.4,0.9-1,1.6-1.7,2.3
									c-1.2,1.1-2.8,1.9-4.6,2l-119.3,8.4l-14.4,1c0.8,2,0.8,4.2-0.2,6.2l-1,1.9c-1.2,2.4-3.5,3.9-6.2,4.1l-4.9,0.4l-4.3,0.4
									l-5.8,0.4c-5.6-1.9-6.1-2.4-6.5-3l-6.1-7.9l-26.3,1.9l-132.1,9.3c-3,0-5.2-1.1-6.7-3l-55.3-73.7l-37.7-50.2
									c-1.9-2.5-2-5.9-0.3-8.5l1.2-1.9c1.3-2.1,3.6-3.4,6-3.5l81.9-4.1l1.3-2.3c0.5-0.9,1.2-1.6,2-2.2c1-0.7,2.1-1.3,3.4-1.5
									c0.3-0.1,6.5-1.1,15.2-2.4l4.7-0.7c18.6-2.9,30.9-4.6,36.6-5c10.3-0.8,16-1,16.2-1.1c0.3,0,20.9-0.8,26.8-1
									c0.5,0,1.1,0,1.6-0.1c1,0,1.4,0,1.7-0.1c1.1,0,1.4,0,1.8,0c3.2,0,3.9,0,4.6,0c1.3,0,2.1,0,3,0.1c1.4,0,2.2,0.1,2.9,0.1
									c1.5,0,2.4,0.1,3.4,0.1c1.4,0.1,2.2,0.1,3,0.1c1.9,0.1,2.9,0.2,3.9,0.2c1.3,0.1,2.3,0.1,3.3,0.2c1.9,0.1,3,0.2,4.2,0.3
									l2.8,0.2l1.8,0.2c8.6,0.7,14.8,1.4,15,1.4c2,0.2,3.8,1.2,5.1,2.8l1.8,2.3l78.9-4l43.3,49.4c0.3,0.3,0.6,0.6,0.8,0.9l6.1,7.8
									l2.3,2.9C411,166.7,411.3,167.1,411.5,167.4z"/>
							</defs>
							<clipPath id="SVGID_16_">
								<use xlink:href="#SVGID_15_"  style="overflow:visible;"/>
							</clipPath>
							<g class="st16">
								<g>
									<g>
										<g>
											<defs>
												<polyline id="SVGID_17_" points="459.2,231.4 458.9,232.5 458.5,233.5 457.7,235.3 457.5,235.6 457.3,235.9 
													457.1,236.2 456.9,236.5 456.7,236.7 456.5,237 456.2,237.3 456,237.5 455.5,237.9 455,238.3 454.5,238.6 453.9,238.9 
													453.3,239.1 452.7,239.3 452.1,239.4 451.4,239.5 332.1,247.9 317.7,249 318,249.7 318.2,250.5 318.3,251.3 
													318.3,252.1 318.2,252.9 318.1,253.6 317.8,254.4 317.5,255.2 316.6,257.1 316.1,257.9 315.5,258.7 314.8,259.4 
													314,260 313.2,260.5 312.3,260.8 311.4,261.1 310.4,261.2 305.5,261.6 301.2,261.9 295.3,262.3 293.5,261.7 292,261.2 
													291,260.7 290.2,260.4 289.6,260.1 289.2,259.8 289,259.6 288.8,259.4 282.7,251.4 256.4,253.3 124.3,262.6 
													123.2,262.6 122.2,262.4 121.3,262.2 120.4,261.9 119.6,261.4 118.9,260.9 118.2,260.3 117.7,259.7 62.4,185.9 
													24.7,135.7 24.1,134.7 23.6,133.7 23.3,132.6 23.2,131.5 23.2,130.4 23.4,129.3 23.8,128.2 24.3,127.2 25.5,125.3 
													26.1,124.6 26.7,123.9 27.4,123.3 28.1,122.8 28.9,122.4 29.8,122.1 30.7,121.9 31.6,121.8 113.4,117.8 114.8,115.5 
													115,115.2 115.2,114.8 115.4,114.6 115.6,114.3 115.9,114 116.2,113.7 116.4,113.5 116.7,113.3 117.1,113 117.5,112.8 
													117.9,112.5 118.3,112.3 118.7,112.2 119.2,112 119.6,111.9 120.1,111.8 120.5,111.8 121.4,111.6 122.7,111.4 
													124.5,111.1 126.7,110.7 129.3,110.3 132.1,109.9 135.2,109.4 140,108.6 146.7,107.6 152.7,106.7 158.2,105.9 
													163.1,105.2 167.4,104.6 171.1,104.2 174.2,103.8 176.6,103.6 180.3,103.4 183.5,103.1 186.2,103 188.5,102.8 
													190.3,102.7 191.6,102.6 192.5,102.6 192.8,102.6 193.8,102.5 196.3,102.4 199.9,102.3 204.1,102.2 208.6,102 
													212.9,101.8 216.7,101.7 219.6,101.5 219.8,101.5 220,101.5 220.2,101.5 220.4,101.5 220.6,101.5 220.8,101.5 
													221,101.5 221.2,101.5 221.5,101.5 221.8,101.4 222.1,101.4 222.3,101.4 222.5,101.4 222.6,101.4 222.7,101.4 
													222.9,101.4 223.3,101.4 223.6,101.4 223.8,101.4 224,101.4 224.2,101.4 224.4,101.4 224.5,101.4 224.7,101.4 
													225.8,101.4 226.6,101.4 227.3,101.4 227.9,101.4 228.3,101.4 228.7,101.4 229,101.4 229.2,101.4 229.7,101.4 
													230.1,101.4 230.5,101.4 230.9,101.4 231.2,101.4 231.6,101.4 231.9,101.4 232.2,101.4 232.7,101.5 233.2,101.5 
													233.6,101.5 233.9,101.5 234.3,101.5 234.6,101.5 234.9,101.5 235.1,101.5 235.7,101.5 236.2,101.6 236.6,101.6 
													237,101.6 237.4,101.6 237.8,101.6 238.1,101.6 238.5,101.7 239,101.7 239.5,101.7 239.9,101.7 240.2,101.7 
													240.6,101.7 240.9,101.8 241.2,101.8 241.5,101.8 242.2,101.8 242.8,101.9 243.3,101.9 243.8,101.9 244.2,101.9 
													244.6,102 245,102 245.4,102 245.9,102 246.3,102.1 246.8,102.1 247.2,102.1 247.5,102.1 247.9,102.2 248.3,102.2 
													248.7,102.2 249.3,102.3 249.9,102.3 250.5,102.3 251,102.4 251.5,102.4 251.9,102.4 252.4,102.5 252.8,102.5 
													255.6,102.7 257.4,102.9 260.5,103.1 263.3,103.4 265.8,103.6 268,103.8 269.8,104 271.2,104.2 272,104.3 272.4,104.3 
													273.1,104.4 273.9,104.6 274.6,104.9 275.2,105.2 275.9,105.6 276.4,106.1 277,106.6 277.5,107.1 279.2,109.4 
													358.2,105.4 401.4,154.8 401.5,154.9 401.6,155 401.8,155.1 401.9,155.2 402,155.3 402.1,155.5 402.2,155.6 
													402.3,155.7 408.4,163.5 410.7,166.4 410.8,166.5 410.9,166.6 411,166.8 411.1,166.9 411.2,167 411.3,167.2 
													411.4,167.3 411.5,167.4 457.6,225.6 458.2,226.4 458.7,227.4 459,228.4 459.2,229.4 459.3,230.4 459.2,231.4 
																									"/>
											</defs>
											<clipPath id="SVGID_18_">
												<use xlink:href="#SVGID_17_"  style="overflow:visible;"/>
											</clipPath>
											<g class="st17">
												
													<image style="overflow:visible;enable-background:new    ;" width="1821" height="679" xlink:href="71B3093858BE909B.png"  transform="matrix(0.2394 0 0 0.2394 23.4131 100.7601)">
												</image>
											</g>
										</g>
									</g>
								</g>
							</g>
						</g>
					</g>
				</g>
			</g>
			<g class="st18">
				<polygon class="st19" points="404.1,94.5 432.6,78.4 446.8,86.5 418.3,102.7 				"/>
				<polygon class="st19" points="361.6,70 390.1,53.8 432.6,78.4 404.1,94.5 				"/>
				<polygon class="st19" points="312,41.4 340.5,25.2 390.1,53.8 361.6,70 				"/>
				<polygon class="st19" points="290.7,70 319,53.7 354.5,74.1 326.2,90.5 				"/>
				<polygon class="st19" points="361.6,110.9 389.9,94.5 425.2,115.1 397,131.4 				"/>
				<polygon class="st19" points="333.2,127.3 361.6,110.9 397,131.4 368.5,147.9 				"/>
				<polygon class="st19" points="283.6,98.6 312,82.3 354.5,106.8 326.2,123.2 				"/>
				<polygon class="st19" points="258.3,113.2 283.6,98.6 326.2,123.2 301,137.7 				"/>
				<polygon class="st19" points="234,127.3 258.3,113.2 301,137.7 276.6,151.8 				"/>
				<polygon class="st19" points="141.9,180.5 184.4,155.9 227,180.5 184.5,205 				"/>
				<polygon class="st19" points="308.3,141.7 333.2,127.3 368.5,147.9 343.7,162.1 				"/>
				<polygon class="st19" points="276.6,160 308.3,141.7 343.7,162.1 312,180.4 				"/>
				<polygon class="st19" points="259.1,170 276.6,160 312,180.4 294.6,190.5 				"/>
				<polygon class="st19" points="234,184.6 259.1,170 294.6,190.5 269.4,205.1 				"/>
				<polygon class="st19" points="108.7,261.1 136.7,244.9 146.1,250.3 118.1,266.5 				"/>
				<polygon class="st19" points="159.4,290.8 187.8,274.4 197.3,279.9 168.9,296.2 				"/>
				<polygon class="st19" points="118.1,266.5 146.1,250.3 187.8,274.4 159.4,290.8 				"/>
				<polygon class="st19" points="84.8,246.8 112.9,230.4 127.1,238.7 98.8,255 				"/>
				<polygon class="st19" points="70.2,238.5 98.7,222.2 112.9,230.4 84.8,246.8 				"/>
				<polygon class="st19" points="42,222.2 70.4,205.8 98.7,222.2 70.2,238.5 				"/>
				<polygon class="st19" points="64.3,274.7 92.8,258.5 177.9,307.3 149.3,323.9 				"/>
				<polygon class="st19" points="50.3,266.7 78.7,250.3 92.6,258.4 64.3,274.7 				"/>
				<polygon class="st19" points="21.5,250.3 50.1,233.8 64.3,242 36.1,258.5 				"/>
				<polygon class="st19" points="219.9,192.7 234,184.6 269.5,205 255.3,213.2 				"/>
				<polygon class="st19" points="163.3,225.6 191.6,209.3 215.4,223 187,239.3 				"/>
				<polygon class="st19" points="255.3,213.2 219.9,192.7 191.6,209.3 215.4,223 187,239.3 198.7,246.1 				"/>
				<polygon class="st19" points="375.8,94.5 382.8,90.5 354.5,74.1 333.2,86.4 347.4,94.5 361.6,86.4 				"/>
				<line class="st19" x1="417.8" y1="103" x2="411.5" y2="106.7"/>
				<line class="st19" x1="105.7" y1="226" x2="127.9" y2="213.4"/>
				<line class="st19" x1="155" y1="255.1" x2="184" y2="238.2"/>
				<line class="st19" x1="50.3" y1="233.7" x2="56.2" y2="230.3"/>
				<line class="st19" x1="164.1" y1="298.8" x2="169" y2="296.1"/>
			</g>
			<polygon class="st20" points="278.4,215 330.5,211.6 319.1,197 301.9,198 292.8,186.1 257.1,187.5 			"/>
			<polygon class="st20" points="225.4,206.2 254.4,204.3 242.1,188.4 211.8,190.3 			"/>
			<polygon class="st20" points="248.3,176.1 300.4,173 279.7,146.4 227.6,149.3 			"/>
			<polygon class="st20" points="248.3,176.1 230.2,177.2 209.2,150.3 227.6,149.3 			"/>
			<polygon class="st20" points="180.4,180.6 230,177.1 209.2,150.3 159.3,153 			"/>
			<path class="st20" d="M202.5,178.8l-22.6,0.8L159.3,153l60.7-3.4l-29.3-37.9c0,0-5.7,0.3-16,1.1c-12.5,0.9-55.9,8.1-55.9,8.1
				l4.2,5.5l-93.7,4.8l93,124.1l132.2-9.4L202.5,178.8z"/>
			<path class="st20" d="M400.2,169.9l-43.9-55.3l-82.9,4.2l-4.2-5.3c0,0-32.7-3.7-51.7-2.7c-6,0.3-26.8,1-26.8,1l29.3,37.9
				l59.6-3.3l23,29.4l27.9,35.8l-22.2,1.5l21.4,27.6l119.8-8.5L400.2,169.9z"/>
			<polygon class="st21" points="329.8,240.7 308.3,213.1 278.5,215.1 257.2,187.5 309.3,184.3 300.2,172.7 203,178.8 211.8,190.3 
				242.1,188.4 263.4,216.1 233.1,218.1 254.5,246 284.9,243.9 293.5,255 308.5,253.9 299.9,242.8 			"/>
			<polygon class="st22" points="355.9,115.4 356.8,113.6 449.1,230 447,230.1 			"/>
			<path class="st23" d="M268.8,114.3l1-1.8c0,0-35.6-3.7-51.4-3c-6.7,0.3-27,1.4-27,1.4l-1.1,1.8c0,0,20.1-0.8,26.8-1.1
				C235,110.7,268.8,114.3,268.8,114.3z"/>
			<polygon class="st22" points="268.8,114.3 269.8,112.5 274,117.8 273,119.6 			"/>
			<polygon class="st22" points="190.3,112.6 191.4,110.8 219.5,147.2 218.5,149.1 			"/>
			<polygon class="st23" points="279.7,146.4 280.9,144.2 161.4,151.7 160.3,153.6 			"/>
			<path class="st23" d="M190.4,112.5l1.1-1.8c0,0-12.2,0.5-16.2,0.9c-13.9,1.4-55.4,8.4-55.4,8.4l0.8,1.3c0,0,39.7-6.3,53.7-7.8
				C178.3,113.1,190.4,112.5,190.4,112.5z"/>
			<polygon class="st23" points="355.9,115.4 356.8,113.6 274,117.9 273,119.6 			"/>
			<polygon class="st22" points="118.8,121.1 119.9,119.3 124.1,124.7 123,126.6 			"/>
			<polygon class="st23" points="124.7,127.3 125.8,125.5 32.2,130.2 31,132 			"/>
			<polygon class="st22" points="227.6,149.3 228.6,147.4 249.7,174.7 248.2,176 			"/>
			<polygon class="st22" points="209.3,150.2 210.3,148.4 231.4,175.7 229.8,176.8 			"/>
			<polygon class="st22" points="160.3,153.6 161.4,151.7 181.8,178.2 180.7,180.1 			"/>
			<polygon class="st22" points="301.7,171.6 280.7,144.5 279.7,146.4 300.8,173.4 330.3,211.5 331.5,209.8 			"/>
			<polygon class="st23" points="300.4,173 301.4,171.2 181.8,178.2 180.7,180.1 			"/>
			<polygon class="st23" points="309.9,185.1 310.9,183.2 258.9,186.3 258.3,188.2 			"/>
			<polygon class="st23" points="331.3,211.6 332.4,209.7 279.5,213.1 278.4,215 			"/>
			<polygon class="st22" points="242.1,188.4 243.1,186.5 264.4,214.1 263.4,216 			"/>
			<polygon class="st22" points="257.2,187.5 258.2,185.8 279.5,213.1 278.4,215 			"/>
			<polygon class="st23" points="242.1,188.4 243.1,186.5 212.9,188.3 211.8,190.3 			"/>
			<polygon class="st23" points="263.4,216 264.4,214.1 234.2,216.1 233.1,218 			"/>
			<polygon class="st23" points="255.8,206.2 256.9,204.3 226.6,206.2 225.5,208.2 			"/>
			<polygon class="st22" points="202.2,178.8 203,177.3 254.3,243.9 253.1,245.9 			"/>
			<polygon class="st22" points="29.3,131.2 30.5,129.3 123.6,253.3 122.3,255.4 			"/>
			<polygon class="st22" points="308.3,213.1 309.3,211.1 330.8,238.7 329.7,240.7 			"/>
			<polygon class="st23" points="449.6,232.2 450.4,230.4 300.9,240.8 299.9,242.8 			"/>
			<polygon class="st22" points="298.5,242.2 299.5,240.3 308.1,251.5 307.1,253.4 			"/>
			<polygon class="st22" points="284.8,243.8 285.9,241.8 294.5,253.1 293.4,255 			"/>
			<polygon class="st23" points="284.8,243.8 285.9,241.8 123.5,253.3 122.4,255.3 			"/>
			<polygon class="st23" points="308.5,253.9 309.5,252 294.5,253 293.4,255 			"/>
			<path class="st24" d="M310.8,183.5l19.4,25.2l-50.2,3.5l-19.8-25.6L310.8,183.5 M311.2,182.4l-53.1,3.3l21.3,27.5l52.6-3.6
				L311.2,182.4L311.2,182.4z"/>
			<polygon class="st22" points="257.2,187.5 258.2,185.8 279.5,213.1 278.4,215 			"/>
			<polygon class="st22" points="292.8,186.1 293.7,184.3 303,196.1 301.9,198 			"/>
			<polygon class="st23" points="303,196.1 301.9,198 319.1,197 320.1,195 			"/>
			<path class="st24" d="M310.8,183.5l19.4,25.2l-50.2,3.5l-19.8-25.6L310.8,183.5 M311.2,182.4l-53.1,3.3l21.3,27.5l52.6-3.6
				L311.2,182.4L311.2,182.4z"/>
			<path class="st24" d="M310.8,183.5l8.2,10.6l-15.5,1l-8.3-10.7L310.8,183.5 M311.2,182.4l-18.1,1.1l9.8,12.6l17.9-1.1
				L311.2,182.4L311.2,182.4z"/>
			<path class="st24" d="M242.7,187.5l20,25.8l-29.1,1.9l-20.1-26L242.7,187.5 M243.1,186.5l-31.7,1.9l21.6,27.9l31.5-2.1
				L243.1,186.5L243.1,186.5z"/>
			<path class="st24" d="M242.7,187.5l12.7,16.4l-29.2,1.9l-12.8-16.5L242.7,187.5 M243.1,186.5l-31.7,1.9l14.3,18.5l31.6-2
				L243.1,186.5L243.1,186.5z"/>
			<path class="st24" d="M280.7,144.5l20,25.9l-50.3,3l-20-26L280.7,144.5 M281.2,143.5h-0.5l-50.3,2.9l-1.9,0.1l1.2,1.5l20,26
				l0.3,0.4h0.5l50.3-3l1.9-0.1l-1.2-1.5l-20-25.9L281.2,143.5L281.2,143.5z"/>
			<path class="st24" d="M228.8,147.7l20.1,25.9l-16.3,1l-19.7-25.7L228.8,147.7 M229.2,146.6h-0.5l-15.9,1.1l-1.9,0.1l1.1,1.5
				l19.7,25.7l0.3,0.4h0.5l16.3-1l1.9-0.1l-1.2-1.5L229.6,147L229.2,146.6L229.2,146.6z"/>
			<path class="st24" d="M210.6,148.7l20,25.9l-48.3,2.8L163,152.2L210.6,148.7 M211,147.7h-0.5l-47.6,3.6l-1.8,0.1l1.1,1.5
				l19.3,25.2l0.3,0.4h0.5l48.3-2.8l1.9-0.1l-1.2-1.5l-20-25.9L211,147.7L211,147.7z"/>
			<path class="st24" d="M191.4,111.1l27.8,36l-56.3,4.2l-1.8,0.1l1.1,1.5l19.3,25.2l0.3,0.4h0.5l20.8-0.9l50.5,65.8l-129.4,9.1
				l-48.9-65.2l-42.8-56.8l91.8-4.6l1.9-0.1l-1.2-1.5l-3.2-4.1c8-1.3,43.2-7,54.1-7.8C184.4,111.5,189.7,111.2,191.4,111.1
				 M191.8,110c0,0-5.7,0.3-16,1c-12.5,0.9-55.9,8.1-55.9,8.1l4.2,5.5l-93.6,4.7l43.9,58.3l49.2,65.7l131.8-9.3l-51.9-67.7l-21.4,1
				L163,152.2l58.1-4.3L191.8,110L191.8,110z"/>
			<path class="st24" d="M301.3,171.5l29.2,37.3l-20.4,1.3l-1.9,0.1l1.2,1.5l20.4,26.1l-29,2l-1.9,0.1l1.1,1.5l7.5,9.7l-12.6,0.9
				l-8.3-10.7l-0.3-0.4h-0.5l-30.8,2.2l-50.8-66L301.3,171.5 M301.8,170.5l-99.5,5.8l52.3,67.9l31.3-2.2l8.7,11.1l15-1l-8.6-11.2
				l30.8-2.1l-21.5-27.6l22.3-1.4L301.8,170.5L301.8,170.5z"/>
			<path class="st24" d="M225.5,108.8v1c17.5,0,40.9,2.5,44.3,2.8l3.9,5l0.3,0.4h0.5l82.3-4.2l43.6,54.9l48.2,60.7l-117.3,8.3
				l-20.5-26.4L331,210l1.9-0.1l-1.2-1.5l-27.3-35l-23-29.4l-0.3-0.4h-0.5l-59,3.2L193.8,111c5.3-0.2,20-0.7,24.8-1
				c2-0.1,4.3-0.1,6.8-0.1L225.5,108.8 M225.5,108.8c-2.4,0-4.7,0-6.8,0.2c-6,0.3-26.8,1-26.8,1l29.2,37.9l59.5-3.3l22.9,29.4
				l27.3,35l-22.2,1.5l22,28.3l119.7-8.4l-49.4-62.2L357,112.9l-82.8,4.2l-4.2-5.3C270.2,111.7,244.5,108.8,225.5,108.8L225.5,108.8
				z"/>
			<g>
				<polygon class="st23" points="307.9,177.7 306.5,177.7 305.5,179.6 303.2,176.7 305,175.2 305.5,174.5 				"/>
				<polygon class="st22" points="305.2,174.8 304.2,174.9 303.3,176.7 304.3,176.6 				"/>
				<g>
					<polygon class="st22" points="305.5,179.6 306.5,177.7 306.6,177.9 305.6,179.7 					"/>
				</g>
			</g>
			<g>
				<polygon class="st20" points="275.8,206.6 274.4,206.7 273.4,208.6 271.1,205.6 272.9,204.2 273.5,203.4 				"/>
				<polygon class="st22" points="273.2,203.7 272.1,203.8 271.2,205.6 272.2,205.5 				"/>
				<g>
					<polygon class="st22" points="273.4,208.6 274.4,206.7 274.5,206.8 273.5,208.7 					"/>
				</g>
			</g>
			<g>
				<polygon class="st20" points="403.6,171.2 402.4,171.2 401.6,173 393.1,162.3 395,160.4 401.2,168.3 				"/>
				<polygon class="st22" points="395,160.5 394,160.6 393.1,162.3 394.1,162.2 				"/>
				<g>
					<polygon class="st25" points="401.5,173 402.4,171.2 402.5,171.3 401.6,173.1 					"/>
				</g>
			</g>
			<g>
				<polygon class="st20" points="78.1,190.7 76.7,190.8 75.5,192.8 67,181.5 69.3,179.5 70.8,179.6 				"/>
				<polygon class="st22" points="69.3,179.5 68.2,179.5 67,181.5 68.1,181.5 				"/>
			</g>
			<g>
				<polygon class="st20" points="240.3,173.5 241.3,174.8 240.2,176.6 243.6,176.4 243.9,174.1 244.1,173.4 				"/>
				<polygon class="st22" points="244,173.8 244.6,174.6 243.6,176.4 243.1,175.6 				"/>
			</g>
			<g>
				<polygon class="st20" points="224.4,174.5 225.3,175.7 224.3,177.6 227.7,177.4 228,175 228.2,174.4 				"/>
				<polygon class="st22" points="228.1,174.8 228.6,175.5 227.7,177.3 227.1,176.6 				"/>
			</g>
			<g>
				<polygon class="st20" points="248.1,213.9 249.1,215.2 248.1,217.1 251.5,216.8 251.8,214.4 252,213.8 				"/>
				<polygon class="st22" points="251.9,214.2 252.4,215 251.5,216.8 250.9,216 				"/>
				<g>
					<polygon class="st23" points="248.1,217 247.9,217 248.9,215.2 249.1,215.2 					"/>
				</g>
			</g>
			<g>
				<polygon class="st23" points="252.5,172.8 253.5,174 252.5,175.9 255.9,175.7 256.1,173.3 256.3,172.7 				"/>
				<polygon class="st22" points="256.3,173.1 256.8,173.8 255.8,175.6 255.3,174.9 				"/>
				<g>
					<polygon class="st25" points="252.5,175.8 252.3,175.8 253.3,174 253.5,174 					"/>
				</g>
			</g>
			<g>
				<polygon class="st20" points="250.9,110 251.6,110.9 250.6,112.7 254.8,113.1 255.4,110.3 253.7,110.2 				"/>
				<polygon class="st22" points="255.4,110.3 255.9,111.1 254.8,113 254.3,112.3 				"/>
			</g>
			<g>
				<polygon class="st20" points="135.1,116.8 135.6,117.5 134.5,119.2 139.4,118.5 139.9,116 137.5,116.4 				"/>
				<polygon class="st22" points="139.9,116.1 140.4,116.8 139.5,118.4 138.9,117.7 				"/>
			</g>
			<g>
				<polygon class="st21" points="209.6,184.2 208.5,184.4 207.5,186 205.5,183.3 205.7,183.2 207.6,181.5 208.5,181.9 				"/>
				<polygon class="st22" points="207.4,181.6 206.5,181.6 205.6,183.2 206.5,183.2 				"/>
			</g>
			<g>
				<polygon class="st21" points="248.9,193.9 247.8,194.1 247.2,195.2 245.1,192.5 245.3,192.4 246.8,191.1 247.9,191.5 				"/>
				<polygon class="st22" points="246.7,191.2 245.8,191.3 245.2,192.4 246.1,192.3 				"/>
			</g>
			<g>
				<polygon class="st21" points="302.2,182.4 303,183.8 302.1,185.6 305.4,185.4 305.7,182.9 305.7,182.1 				"/>
				<polygon class="st22" points="305.7,182.8 306.2,183.6 305.4,185.3 304.8,184.6 				"/>
				<g>
					<polygon class="st23" points="302.1,185.5 301.9,185.6 302.9,183.8 303,183.8 					"/>
				</g>
			</g>
			<g>
				<polygon class="st21" points="299.5,251.3 300.4,252.7 299.3,254.7 302.7,254.4 303.1,251.7 302.6,251.1 				"/>
				<polygon class="st22" points="303.1,251.7 303.6,252.4 302.7,254.4 302.2,253.6 				"/>
			</g>
		</g>
		<g id="Paths_1_" class="st18">
			<line class="st26" x1="327.5" y1="245.2" x2="297" y2="229.2"/>
			<line class="st26" x1="297" y1="229.2" x2="274" y2="213.8"/>
			<line class="st26" x1="274" y1="213.8" x2="256.7" y2="204.4"/>
			<line class="st26" x1="256.7" y1="204.4" x2="241.9" y2="194.9"/>
			<line class="st26" x1="241.9" y1="194.9" x2="224.3" y2="185.2"/>
			<line class="st26" x1="252.1" y1="188" x2="236" y2="178.5"/>
			<line class="st26" x1="303.8" y1="174.9" x2="292.8" y2="165"/>
			<line class="st26" x1="226" y1="202.6" x2="208.5" y2="194.5"/>
			<line class="st26" x1="209.7" y1="213.4" x2="191.6" y2="225.6"/>
			<line class="st26" x1="226" y1="202.6" x2="209.7" y2="213.4"/>
			<line class="st26" x1="241.9" y1="194.9" x2="226" y2="202.6"/>
			<line class="st26" x1="252.1" y1="188" x2="241.9" y2="194.9"/>
			<line class="st26" x1="292.8" y1="165" x2="252.1" y2="188"/>
			<line class="st26" x1="317.1" y1="150.7" x2="292.8" y2="165"/>
			<line class="st26" x1="362.1" y1="118.9" x2="381.6" y2="107.8"/>
			<line class="st26" x1="223.8" y1="121.6" x2="213.6" y2="115.7"/>
			<line class="st26" x1="121" y1="189.3" x2="104.5" y2="178.9"/>
			<line class="st26" x1="99.7" y1="270.4" x2="85.3" y2="278.8"/>
			<line class="st26" x1="284.8" y1="207.3" x2="274" y2="213.8"/>
			<line class="st26" x1="256.7" y1="204.4" x2="244.3" y2="211.6"/>
			<line class="st26" x1="274" y1="238.3" x2="258" y2="228.2"/>
			<line class="st26" x1="297" y1="229.2" x2="274" y2="238.3"/>
		</g>
		<g id="Doors_1_" class="st18">
			<line id="_x33_BENHAMG.05.1" class="st27" x1="233.4" y1="177.2" x2="236" y2="178.5"/>
			<line id="_x33_BENHAMG.05.2" class="st27" x1="362.1" y1="118.9" x2="359.2" y2="120.7"/>
			<line id="_x33_BENHAMG.05.1_1_" class="st27" x1="319.9" y1="148.9" x2="317.1" y2="150.7"/>
			<line id="_x33_BENHAMG.06.1" class="st27" x1="306.7" y1="176.8" x2="303.8" y2="174.9"/>
			<line id="_x33_BENHAMG.05.3" class="st27" x1="223.8" y1="121.6" x2="226.5" y2="122.9"/>
			<line id="_x33_BENHAMG.04.1" class="st27" x1="221.7" y1="183.7" x2="224.3" y2="185.2"/>
			<line id="_x33_BENHAMG.03.1_1_" class="st27" x1="205.6" y1="192.8" x2="208.5" y2="194.5"/>
			<line id="_x33_BENHAMG.01.1" class="st27" x1="255.5" y1="226.8" x2="258" y2="228.2"/>
			<line id="_x33_BENHAMG.02.1" class="st27" x1="191.6" y1="225.6" x2="188.5" y2="227.3"/>
			<line id="_x33_BENHAMG.02.2" class="st27" x1="102.8" y1="268.8" x2="99.7" y2="270.4"/>
			<line id="_x33_BENHAMG.02.3" class="st27" x1="124.1" y1="190.9" x2="121" y2="189.3"/>
		</g>
		<g id="Portals_1_" class="st18">
			<line id="Elev.2.3BENHAMG" class="st28" x1="241.2" y1="213.4" x2="244.3" y2="211.6"/>
			<line id="Elev.3.3BENHAMG" class="st28" x1="85.3" y1="278.8" x2="82.1" y2="280.7"/>
			<line id="Elev.5.3BENHAMG_1_" class="st28" x1="384.5" y1="106.1" x2="381.6" y2="107.8"/>
			<line id="Elev.4.3BENHAMG" class="st28" x1="327.5" y1="245.2" x2="330.4" y2="246.9"/>
			<line id="Stair.1.3BENHAMG" class="st28" x1="284.8" y1="207.3" x2="287.3" y2="205.9"/>
			<line id="Elev.1.3BENHAMG_1_" class="st28" x1="210.6" y1="113.8" x2="213.6" y2="115.7"/>
			<line id="Elev.1.3BENHAMG_2_" class="st28" x1="101.5" y1="177" x2="104.5" y2="178.9"/>
		</g>
	</g>
</g>
<polygon class="st20" points="296.5,186.1 309.9,185.1 317,194.2 303.5,195.1 "/>
<polygon class="st20" points="228.2,208 255.8,206.2 261.4,213.4 233.6,215.2 "/>
</svg>
