<?xml version="1.0" encoding="UTF-8"?>
<!DOCTYPE svg PUBLIC "-//W3C//DTD SVG 1.1//EN" "http://www.w3.org/Graphics/SVG/1.1/DTD/svg11.dtd">
<!-- Creator: CorelDRAW X5 -->
<svg xmlns="http://www.w3.org/2000/svg" xml:space="preserve" width="11.6929in" height="8.26772in" style="shape-rendering:geometricPrecision; text-rendering:geometricPrecision; image-rendering:optimizeQuality; fill-rule:evenodd; clip-rule:evenodd"
viewBox="0 0 11.6929 8.26772"
 xmlns:xlink="http://www.w3.org/1999/xlink">
 <defs>
  <style type="text/css">
   <![CDATA[
    .fil6 {fill:#A9ABAE}
    .fil0 {fill:#666666}
    .fil3 {fill:#949494}
    .fil1 {fill:#A7AFB0}
    .fil2 {fill:#CCCCCC}
    .fil4 {fill:#E0E0E0}
    .fil5 {fill:#EBEBEB}
   ]]>
  </style>
 </defs>
 <g id="Layer_x0020_1">
  <metadata id="CorelCorpID_0Corel-Layer"/>
  <path class="fil0" d="M8.46999 1.58952l0 0zm2.45884 1.85633l0 0zm-0.0157677 -0.0349882l0 0.0236181 4.33071e-005 -0.000125984 0.000106299 -0.000149606 0.000177165 -0.000169291 0.0161693 -0.00672835 0.0161614 -0.00672047 0.0161496 -0.00671654 0.0161417 -0.00670866 0.0161299 -0.00670079 0.016122 -0.00669685 0.0161102 -0.00668898 0.0161024 -0.0066811 0.0160906 -0.00667717 0.0160787 -0.00667323 0.0160709 -0.00666535 0.0160591 -0.00666142 0.0160512 -0.00665354 0.0160394 -0.00664961 0.0160276 -0.00664567 0.0160197 -0.0066378 0.0160079 -0.00663386 0.0159961 -0.00662992 0.0159843 -0.00662598 0.0159764 -0.00661811 0.0159646 -0.00661811 0.0159528 -0.00661024 0.0159409 -0.0066063 0.0159331 -0.00660236 0.0159173 -0.00659843 0.0159094 -0.00659449 0.0158976 -0.00659055 0.0158858 -0.00658661 0.015878 -0.00658268 0.0158622 -0.00657874 0.0158504 -0.0065748 0.0158425 -0.0065748 0.00675984 -0.00306299 0.00624016 -0.00334646 0.0057126 -0.00362598 0.00519685 -0.00388583 0.00467323 -0.0041378 0.00416142 -0.00438189 0.00364173 -0.0046063 0.00313386 -0.00482283 0.00261811 -0.00502756 0.00211024 -0.00522047 0.00160236 -0.00540157 0 -0.0236181 -0.00160236 0.00540157 -0.00211024 0.00522047 -0.00261811 0.00502756 -0.00313386 0.00482283 -0.00364173 0.0046063 -0.00416142 0.00438189 -0.00467323 0.0041378 -0.00519685 0.00388583 -0.0057126 0.00362598 -0.00624016 0.00334646 -0.00675984 0.00306299 -0.0158425 0.0065748 -0.0158504 0.0065748 -0.0158622 0.00657874 -0.015878 0.00658268 -0.0158858 0.00658661 -0.0158976 0.00659055 -0.0159094 0.00659449 -0.0159173 0.00659843 -0.0159331 0.00660236 -0.0159409 0.0066063 -0.0159528 0.00661024 -0.0159646 0.00661811 -0.0159764 0.00661811 -0.0159843 0.00662598 -0.0159961 0.00662992 -0.0160079 0.00663386 -0.0160197 0.0066378 -0.0160276 0.00664567 -0.0160394 0.00664961 -0.0160512 0.00665354 -0.0160591 0.00666142 -0.0160709 0.00666535 -0.0160787 0.00667323 -0.0160906 0.00667717 -0.0161024 0.0066811 -0.0161102 0.00668898 -0.016122 0.00669685 -0.0161299 0.00670079 -0.0161417 0.00670866 -0.0161496 0.00671654 -0.0161614 0.00672047 -0.0161693 0.00672835 -0.000177165 0.000169291 -0.000106299 0.000149606 -4.33071e-005 0.000125984zm0.0157677 0.0349882l0 0zm0 0l0 0zm0 0l0 0zm-3.11094 1.5332l0.0548661 -0.0234055 0.0547087 -0.0233386 0.0545472 -0.0232677 0.0543898 -0.0231969 0.0542362 -0.0231299 0.0540748 -0.0230591 0.0539213 -0.0229882 0.0537638 -0.0229213 0.0536063 -0.0228543 0.0534528 -0.0227874 0.0532992 -0.0227165 0.0531417 -0.0226496 0.0529882 -0.0225827 0.0528346 -0.0225157 0.0526811 -0.0224488 0.0525315 -0.0223819 0.052374 -0.022315 0.0522244 -0.022252 0.0520748 -0.022185 0.0519213 -0.0221181 0.0517677 -0.0220551 0.051622 -0.0219882 0.0514685 -0.0219252 0.0513228 -0.0218622 0.0511693 -0.0217992 0.0510236 -0.0217323 0.050874 -0.0216693 0.0507244 -0.0216063 0.0505787 -0.0215433 0.0504331 -0.0214803 0.0502835 -0.0214173 0.0501378 -0.0213583 0.0476378 -0.0202913 0.0475157 -0.0202441 0.0473976 -0.0201929 0.0472717 -0.0201457 0.0471535 -0.0200906 0.0470315 -0.0200433 0.0469094 -0.0199921 0.0467913 -0.0199409 0.0466654 -0.0198937 0.0465433 -0.0198386 0.0464213 -0.0197874 0.0462953 -0.0197362 0.0461772 -0.019689 0.0460512 -0.0196339 0.0459252 -0.0195787 0.0458071 -0.0195315 0.0456772 -0.0194764 0.0455591 -0.0194213 0.0454291 -0.019374 0.0453071 -0.0193189 0.0451811 -0.0192638 0.0450591 -0.0192126 0.0449291 -0.0191575 0.0448071 -0.0191024 0.0446811 -0.0190512 0.0445512 -0.0189961 0.0444291 -0.0189409 0.0442992 -0.0188858 0.0441772 -0.0188346 0.0440472 -0.0187756 0.0439213 -0.0187244 0.0437913 -0.0186654 0.00714961 -0.0033189 0.00660236 -0.00361417 0.00606299 -0.00390551 0.00551969 -0.0041811 0.00498425 -0.00444488 0.00444488 -0.00469685 0.00391339 -0.00493307 0.00338189 -0.00516142 0.00285039 -0.00537402 0.0023189 -0.0055748 0.00179528 -0.00576378 0 -0.0236181 -0.00179528 0.00576378 -0.0023189 0.0055748 -0.00285039 0.00537402 -0.00338189 0.00516142 -0.00391339 0.00493307 -0.00444488 0.00469685 -0.00498425 0.00444488 -0.00551969 0.0041811 -0.00606299 0.00390551 -0.00660236 0.00361417 -0.00714961 0.0033189 -0.0437913 0.0186654 -0.0439213 0.0187244 -0.0440472 0.0187756 -0.0441772 0.0188346 -0.0442992 0.0188858 -0.0444291 0.0189409 -0.0445512 0.0189961 -0.0446811 0.0190512 -0.0448071 0.0191024 -0.0449291 0.0191575 -0.0450591 0.0192126 -0.0451811 0.0192638 -0.0453071 0.0193189 -0.0454291 0.019374 -0.0455591 0.0194213 -0.0456772 0.0194764 -0.0458071 0.0195315 -0.0459252 0.0195787 -0.0460512 0.0196339 -0.0461772 0.019689 -0.0462953 0.0197362 -0.0464213 0.0197874 -0.0465433 0.0198386 -0.0466654 0.0198937 -0.0467913 0.0199409 -0.0469094 0.0199921 -0.0470315 0.0200433 -0.0471535 0.0200906 -0.0472717 0.0201457 -0.0473976 0.0201929 -0.0475157 0.0202441 -0.0476378 0.0202913 -0.0501378 0.0213583 -0.0502835 0.0214173 -0.0504331 0.0214803 -0.0505787 0.0215433 -0.0507244 0.0216063 -0.050874 0.0216693 -0.0510236 0.0217323 -0.0511693 0.0217992 -0.0513228 0.0218622 -0.0514685 0.0219252 -0.051622 0.0219882 -0.0517677 0.0220551 -0.0519213 0.0221181 -0.0520748 0.022185 -0.0522244 0.022252 -0.052374 0.022315 -0.0525315 0.0223819 -0.0526811 0.0224488 -0.0528346 0.0225157 -0.0529882 0.0225827 -0.0531417 0.0226496 -0.0532992 0.0227165 -0.0534528 0.0227874 -0.0536063 0.0228543 -0.0537638 0.0229213 -0.0539213 0.0229882 -0.0540748 0.0230591 -0.0542362 0.0231299 -0.0543898 0.0231969 -0.0545472 0.0232677 -0.0547087 0.0233386 -0.0548661 0.0234055 -0.0473386 0.0201339 -0.0474646 0.020189 -0.0475945 0.020248 -0.0477205 0.0203031 -0.0478504 0.0203583 -0.0479764 0.0204173 -0.0481024 0.0204764 -0.0482323 0.0205276 -0.0483543 0.0205866 -0.0484843 0.0206417 -0.0486063 0.0206969 -0.0487362 0.020752 -0.0488583 0.0208071 -0.0489843 0.0208622 -0.0491063 0.0209173 -0.0492323 0.0209724 -0.0493543 0.0210276 -0.0494803 0.0210787 -0.0496024 0.0211339 -0.0497244 0.021189 -0.0498465 0.0212402 -0.0499724 0.0212953 -0.0500906 0.0213504 -0.0502126 0.0214016 -0.0503346 0.0214528 -0.0504528 0.0215079 -0.0505748 0.0215591 -0.0506969 0.0216102 -0.050815 0.0216654 -0.0509331 0.0217126 -0.0510551 0.0217677 -0.0511732 0.0218189 -0.0535433 0.0228268 -0.0537047 0.0228976 -0.0538701 0.0229646 -0.0540315 0.0230315 -0.0541969 0.0231024 -0.0543543 0.0231693 -0.0545157 0.0232362 -0.0546732 0.0233031 -0.0548346 0.0233701 -0.0549921 0.023437 -0.0551457 0.0235039 -0.0553071 0.0235709 -0.0554567 0.0236378 -0.0556142 0.0237047 -0.0557677 0.0237677 -0.0559213 0.0238386 -0.0560709 0.0239016 -0.0562244 0.0239646 -0.056378 0.0240315 -0.0565236 0.0240984 -0.0566732 0.0241614 -0.0568189 0.0242283 -0.0569685 0.0242913 -0.0571142 0.0243543 -0.0572638 0.0244213 -0.0574055 0.0244803 -0.0575472 0.0245512 -0.0576929 0.0246102 -0.0578346 0.0246732 -0.0579803 0.0247362 -0.0581142 0.0248031 -0.0582598 0.0248622 -0.013189 0.00525197 -0.0134764 0.00467323 -0.0137362 0.00409449 -0.0139724 0.00352756 -0.0141772 0.00296063 -0.0143543 0.00240551 -0.0145118 0.00185039 -0.0146339 0.00130315 -0.0147323 0.00076378 -0.0148071 0.000228346 -0.0148465 -0.000299213 -0.0148661 -0.000822835 -0.0148543 -0.00134252 -0.0148189 -0.00185039 -0.0147559 -0.00235827 -0.0146614 -0.00285827 -0.0145433 -0.00335039 -0.0143976 -0.00383858 -0.0142244 -0.0043189 -0.0140276 -0.00479528 -0.0137953 -0.00526772 -0.0135472 -0.00573228 -0.0132638 -0.00618898 -0.0129528 -0.00664173 -0.012622 -0.00709055 -0.0122559 -0.00752756 -0.0118661 -0.00796457 -0.0114528 -0.00839764 -0.0110079 -0.00881496 -0.0105354 -0.00923622 -0.0100394 -0.00964567 -0.00951181 -0.0100512 -0.0021811 -0.00251969 -0.0021811 -0.00249606 -0.00217717 -0.00247244 -0.0021811 -0.00245669 -0.00217717 -0.00244094 -0.0021811 -0.00243307 -0.00217323 -0.00242126 -0.00217717 -0.00242126 -0.029811 0.0123543 -0.0298465 0.0123701 -0.0298819 0.0123898 -0.0299173 0.0124055 -0.0299567 0.0124252 -0.0299921 0.0124409 -0.0300315 0.0124567 -0.0300669 0.0124764 -0.0301063 0.0124921 -0.0301417 0.0125118 -0.0301772 0.0125276 -0.0302205 0.0125433 -0.0302559 0.012563 -0.0302913 0.0125787 -0.0303346 0.0125984 -0.0303701 0.0126142 -0.0304094 0.0126339 -0.0304488 0.0126496 -0.0304882 0.0126654 -0.0305236 0.012685 -0.0305669 0.0127008 -0.0306063 0.0127205 -0.0306457 0.0127362 -0.030685 0.0127559 -0.0307244 0.0127756 -0.0307638 0.0127874 -0.0308071 0.0128071 -0.0308465 0.0128268 -0.0308858 0.0128425 -0.0309291 0.0128622 -0.0309685 0.012878 -0.0310079 0.0128976 -0.014248 0.00554724 -0.0145079 0.00493307 -0.0147323 0.00432677 -0.0149331 0.00372441 -0.0151063 0.00313386 -0.015248 0.00254331 -0.0153661 0.00196457 -0.0154567 0.00138976 -0.0155157 0.000818898 -0.0155472 0.000259843 -0.0155512 -0.000295276 -0.0155315 -0.000846457 -0.0154803 -0.00138976 -0.0153976 -0.00192126 -0.0152913 -0.00245669 -0.0151614 -0.00297638 -0.0149921 -0.00349606 -0.0148071 -0.00400394 -0.0145827 -0.00451181 -0.0143425 -0.00500787 -0.014063 -0.00549606 -0.0137638 -0.00598425 -0.0134331 -0.00646457 -0.0130748 -0.00693307 -0.012689 -0.00740157 -0.0122756 -0.0078622 -0.0118307 -0.00831102 -0.0113622 -0.00875984 -0.0108661 -0.00920079 -0.0103386 -0.0096378 -0.0097874 -0.0100591 -0.00920472 -0.0104843 -0.017622 -0.0211299 -0.0176063 -0.0211063 -0.0175906 -0.0210906 -0.0175748 -0.0210669 -0.0175591 -0.0210472 -0.0175433 -0.0210276 -0.0175236 -0.0210079 -0.0175079 -0.0209843 -0.0174921 -0.0209646 -0.0174724 -0.0209409 -0.0174567 -0.0209252 -0.017437 -0.0208976 -0.0174173 -0.020878 -0.0174016 -0.0208583 -0.0173819 -0.0208307 -0.0173622 -0.020811 -0.0173425 -0.0207913 -0.0173228 -0.0207638 -0.0173071 -0.0207441 -0.0172795 -0.0207205 -0.0172638 -0.0206969 -0.0172441 -0.0206732 -0.0172205 -0.0206496 -0.0172008 -0.020626 -0.0171772 -0.0205984 -0.0171575 -0.0205787 -0.0171339 -0.0205512 -0.0171102 -0.0205276 -0.0170906 -0.0205039 -0.0170669 -0.0204764 -0.0170433 -0.0204528 -0.0170197 -0.0204291 -0.0167283 -0.0200787 -0.0167126 -0.020063 -0.0167008 -0.0200394 -0.0166772 -0.0200197 -0.0166654 -0.02 -0.0166496 -0.0199843 -0.0166339 -0.0199567 -0.0166142 -0.0199409 -0.0165984 -0.0199213 -0.0165827 -0.0199016 -0.0165669 -0.019878 -0.0165472 -0.0198583 -0.0165315 -0.0198386 -0.0165157 -0.0198189 -0.0164961 -0.0197953 -0.0164803 -0.0197795 -0.0164646 -0.0197559 -0.0164488 -0.0197323 -0.0164252 -0.0197165 -0.0164134 -0.0196929 -0.0163937 -0.0196732 -0.016378 -0.0196496 -0.0163583 -0.0196339 -0.0163425 -0.0196063 -0.0163228 -0.0195906 -0.0163071 -0.0195669 -0.0162874 -0.0195433 -0.0162677 -0.0195276 -0.016252 -0.0195 -0.0162323 -0.0194843 -0.0162165 -0.0194606 -0.0161969 -0.019437 -0.0158819 -0.0190236 -0.0158661 -0.0190079 -0.0158504 -0.0189921 -0.0158386 -0.0189724 -0.0158189 -0.0189606 -0.0158031 -0.0189449 -0.0157913 -0.0189252 -0.0157756 -0.0189094 -0.0157559 -0.0188937 -0.0157441 -0.018874 -0.0157244 -0.0188583 -0.0157126 -0.0188386 -0.0156929 -0.0188228 -0.0156811 -0.0188031 -0.0156614 -0.0187835 -0.0156457 -0.0187677 -0.0156299 -0.0187441 -0.0156142 -0.0187283 -0.0155984 -0.0187087 -0.0155827 -0.018685 -0.015563 -0.0186693 -0.0155472 -0.0186457 -0.0155315 -0.018626 -0.0155118 -0.0186063 -0.0154961 -0.0185866 -0.0154803 -0.018563 -0.0154646 -0.0185394 -0.0154449 -0.0185236 -0.0154291 -0.0184961 -0.0154094 -0.0184764 -0.0153937 -0.0184528 -0.015378 -0.0184291 -0.0151063 -0.0181102 -0.0150984 -0.0180945 -0.0150827 -0.0180787 -0.0150709 -0.0180669 -0.0150591 -0.0180551 -0.0150433 -0.0180394 -0.0150315 -0.0180236 -0.0150197 -0.0180079 -0.0150039 -0.0179961 -0.0149921 -0.0179803 -0.0149803 -0.0179606 -0.0149646 -0.0179488 -0.0149488 -0.0179331 -0.014937 -0.0179173 -0.0149213 -0.0179016 -0.0149094 -0.0178858 -0.0148937 -0.0178701 -0.014878 -0.0178543 -0.0148661 -0.0178346 -0.0148465 -0.0178189 -0.0148346 -0.0178031 -0.0148228 -0.0177874 -0.0148031 -0.0177677 -0.0147874 -0.017748 -0.0147756 -0.0177362 -0.0147559 -0.0177126 -0.0147441 -0.0176969 -0.0147244 -0.0176811 -0.0147126 -0.0176614 -0.0146929 -0.0176417 -0.0146772 -0.017622 -0.0146614 -0.0176063 -0.00682283 -0.00869291 -0.00606299 -0.00877953 -0.00531496 -0.00885039 -0.00456693 -0.00890157 -0.00383465 -0.00894488 -0.00310236 -0.0089685 0 0.0236181 0.00310236 0.0089685 0.00383465 0.00894488 0.00456693 0.00890157 0.00531496 0.00885039 0.00606299 0.00877953 0.00682283 0.00869291 0.0146614 0.0176063 0.0146772 0.017622 0.0146929 0.0176417 0.0147126 0.0176614 0.0147244 0.0176811 0.0147441 0.0176969 0.0147559 0.0177126 0.0147756 0.0177362 0.0147874 0.017748 0.0148031 0.0177677 0.0148228 0.0177874 0.0148346 0.0178031 0.0148465 0.0178189 0.0148661 0.0178346 0.014878 0.0178543 0.0148937 0.0178701 0.0149094 0.0178858 0.0149213 0.0179016 0.014937 0.0179173 0.0149488 0.0179331 0.0149646 0.0179488 0.0149803 0.0179606 0.0149921 0.0179803 0.0150039 0.0179961 0.0150197 0.0180079 0.0150315 0.0180236 0.0150433 0.0180394 0.0150591 0.0180551 0.0150709 0.0180669 0.0150827 0.0180787 0.0150984 0.0180945 0.0151063 0.0181102 0.015378 0.0184291 0.0153937 0.0184528 0.0154094 0.0184764 0.0154291 0.0184961 0.0154449 0.0185236 0.0154646 0.0185394 0.0154803 0.018563 0.0154961 0.0185866 0.0155118 0.0186063 0.0155315 0.018626 0.0155472 0.0186457 0.015563 0.0186693 0.0155827 0.018685 0.0155984 0.0187087 0.0156142 0.0187283 0.0156299 0.0187441 0.0156457 0.0187677 0.0156614 0.0187835 0.0156811 0.0188031 0.0156929 0.0188228 0.0157126 0.0188386 0.0157244 0.0188583 0.0157441 0.018874 0.0157559 0.0188937 0.0157756 0.0189094 0.0157913 0.0189252 0.0158031 0.0189449 0.0158189 0.0189606 0.0158386 0.0189724 0.0158504 0.0189921 0.0158661 0.0190079 0.0158819 0.0190236 0.0161969 0.019437 0.0162165 0.0194606 0.0162323 0.0194843 0.016252 0.0195 0.0162677 0.0195276 0.0162874 0.0195433 0.0163071 0.0195669 0.0163228 0.0195906 0.0163425 0.0196063 0.0163583 0.0196339 0.016378 0.0196496 0.0163937 0.0196732 0.0164134 0.0196929 0.0164252 0.0197165 0.0164488 0.0197323 0.0164646 0.0197559 0.0164803 0.0197795 0.0164961 0.0197953 0.0165157 0.0198189 0.0165315 0.0198386 0.0165472 0.0198583 0.0165669 0.019878 0.0165827 0.0199016 0.0165984 0.0199213 0.0166142 0.0199409 0.0166339 0.0199567 0.0166496 0.0199843 0.0166654 0.02 0.0166772 0.0200197 0.0167008 0.0200394 0.0167126 0.020063 0.0167283 0.0200787 0.0170197 0.0204291 0.0170433 0.0204528 0.0170669 0.0204764 0.0170906 0.0205039 0.0171102 0.0205276 0.0171339 0.0205512 0.0171575 0.0205787 0.0171772 0.0205984 0.0172008 0.020626 0.0172205 0.0206496 0.0172441 0.0206732 0.0172638 0.0206969 0.0172795 0.0207205 0.0173071 0.0207441 0.0173228 0.0207638 0.0173425 0.0207913 0.0173622 0.020811 0.0173819 0.0208307 0.0174016 0.0208583 0.0174173 0.020878 0.017437 0.0208976 0.0174567 0.0209252 0.0174724 0.0209409 0.0174921 0.0209646 0.0175079 0.0209843 0.0175236 0.0210079 0.0175433 0.0210276 0.0175591 0.0210472 0.0175748 0.0210669 0.0175906 0.0210906 0.0176063 0.0211063 0.017622 0.0211299 0.00920472 0.0104843 0.0097874 0.0100591 0.0103386 0.0096378 0.0108661 0.00920079 0.0113622 0.00875984 0.0118307 0.00831102 0.0122756 0.0078622 0.012689 0.00740157 0.0130748 0.00693307 0.0134331 0.00646457 0.0137638 0.00598425 0.014063 0.00549606 0.0143425 0.00500787 0.0145827 0.00451181 0.0148071 0.00400394 0.0149921 0.00349606 0.0151614 0.00297638 0.0152913 0.00245669 0.0153976 0.00192126 0.0154803 0.00138976 0.0155315 0.000846457 0.0155512 0.000295276 0.0155472 -0.000259843 0.0155157 -0.000818898 0.0154567 -0.00138976 0.0153661 -0.00196457 0.015248 -0.00254331 0.0151063 -0.00313386 0.0149331 -0.00372441 0.0147323 -0.00432677 0.0145079 -0.00493307 0.014248 -0.00554724 0.0310079 -0.0128976 0.0309685 -0.012878 0.0309291 -0.0128622 0.0308858 -0.0128425 0.0308465 -0.0128268 0.0308071 -0.0128071 0.0307638 -0.0127874 0.0307244 -0.0127756 0.030685 -0.0127559 0.0306457 -0.0127362 0.0306063 -0.0127205 0.0305669 -0.0127008 0.0305236 -0.012685 0.0304882 -0.0126654 0.0304488 -0.0126496 0.0304094 -0.0126339 0.0303701 -0.0126142 0.0303346 -0.0125984 0.0302913 -0.0125787 0.0302559 -0.012563 0.0302205 -0.0125433 0.0301772 -0.0125276 0.0301417 -0.0125118 0.0301063 -0.0124921 0.0300669 -0.0124764 0.0300315 -0.0124567 0.0299921 -0.0124409 0.0299567 -0.0124252 0.0299173 -0.0124055 0.0298819 -0.0123898 0.0298465 -0.0123701 0.029811 -0.0123543 0.00217717 0.00242126 0.00217323 0.00242126 0.0021811 0.00243307 0.00217717 0.00244094 0.0021811 0.00245669 0.00217717 0.00247244 0.0021811 0.00249606 0.0021811 0.00251969 0.00951181 0.0100512 0.0100394 0.00964567 0.0105354 0.00923622 0.0110079 0.00881496 0.0114528 0.00839764 0.0118661 0.00796457 0.0122559 0.00752756 0.012622 0.00709055 0.0129528 0.00664173 0.0132638 0.00618898 0.0135472 0.00573228 0.0137953 0.00526772 0.0140276 0.00479528 0.0142244 0.0043189 0.0143976 0.00383858 0.0145433 0.00335039 0.0146614 0.00285827 0.0147559 0.00235827 0.0148189 0.00185039 0.0148543 0.00134252 0.0148661 0.000822835 0.0148465 0.000299213 0.0148071 -0.000228346 0.0147323 -0.00076378 0.0146339 -0.00130315 0.0145118 -0.00185039 0.0143543 -0.00240551 0.0141772 -0.00296063 0.0139724 -0.00352756 0.0137362 -0.00409449 0.0134764 -0.00467323 0.013189 -0.00525197 0.0582598 -0.0248622 0.0581142 -0.0248031 0.0579803 -0.0247362 0.0578346 -0.0246732 0.0576929 -0.0246102 0.0575472 -0.0245512 0.0574055 -0.0244803 0.0572638 -0.0244213 0.0571142 -0.0243543 0.0569685 -0.0242913 0.0568189 -0.0242283 0.0566732 -0.0241614 0.0565236 -0.0240984 0.056378 -0.0240315 0.0562244 -0.0239646 0.0560709 -0.0239016 0.0559213 -0.0238386 0.0557677 -0.0237677 0.0556142 -0.0237047 0.0554567 -0.0236378 0.0553071 -0.0235709 0.0551457 -0.0235039 0.0549921 -0.023437 0.0548346 -0.0233701 0.0546732 -0.0233031 0.0545157 -0.0232362 0.0543543 -0.0231693 0.0541969 -0.0231024 0.0540315 -0.0230315 0.0538701 -0.0229646 0.0537047 -0.0228976 0.0535433 -0.0228268 0.0511732 -0.0218189 0.0510551 -0.0217677 0.0509331 -0.0217126 0.050815 -0.0216654 0.0506969 -0.0216102 0.0505748 -0.0215591 0.0504528 -0.0215079 0.0503346 -0.0214528 0.0502126 -0.0214016 0.0500906 -0.0213504 0.0499724 -0.0212953 0.0498465 -0.0212402 0.0497244 -0.021189 0.0496024 -0.0211339 0.0494803 -0.0210787 0.0493543 -0.0210276 0.0492323 -0.0209724 0.0491063 -0.0209173 0.0489843 -0.0208622 0.0488583 -0.0208071 0.0487362 -0.020752 0.0486063 -0.0206969 0.0484843 -0.0206417 0.0483543 -0.0205866 0.0482323 -0.0205276 0.0481024 -0.0204764 0.0479764 -0.0204173 0.0478504 -0.0203583 0.0477205 -0.0203031 0.0475945 -0.020248 0.0474646 -0.020189 0.0473386 -0.0201339zm-6.24432 -1.37363l0.00172441 0.00195669 0.00172835 0.00196063 0.00172835 0.00195669 0.00172441 0.00195669 0.00173228 0.00196063 0.00172835 0.00195669 0.00172835 0.00196063 0.00173228 0.00195669 0 -0.0236181 -0.00173228 -0.00195669 -0.00172835 -0.00196063 -0.00172835 -0.00195669 -0.00173228 -0.00196063 -0.00172441 -0.00195669 -0.00172835 -0.00195669 -0.00172835 -0.00196063 -0.00172441 -0.00195669 -0.0068937 -0.0081063 -0.00617717 -0.0081811 -0.00547244 -0.00824409 -0.00477165 -0.00829134 -0.00407874 -0.00832283 -0.00338976 -0.00834252 -0.00270866 -0.00834646 -0.0020315 -0.00833465 0 0.0236181 0.0020315 0.00833465 0.00270866 0.00834646 0.00338976 0.00834252 0.00407874 0.00832283 0.00477165 0.00829134 0.00547244 0.00824409 0.00617717 0.0081811 0.0068937 0.0081063zm6.88351 -2.0256l0 0zm0 -0.0236181l0 0zm0 0.0236181l0 0zm0 -0.0236181l0 0zm0 0.0236181l0 0zm0 -0.0236181l0 0zm0 0.0236181l0 0zm0 -0.0236181l0 0zm0.0129173 0.00970472l0 0z"/>
  <path class="fil1" d="M10.2986 2.21828c-0.174197,-0.126969 -0.346551,-0.252976 -0.516661,-0.377059 -0.168028,-0.122563 -0.334681,-0.244217 -0.499091,-0.364094 -0.0812323,-0.0593346 -0.210815,-0.0884409 -0.28787,-0.0657559 -0.173209,0.051 -0.347398,0.102406 -0.525035,0.154528 0,0 0,0 0,0 -0.00112992,-1.5748e-005 -0.00137795,-1.5748e-005 -0.00163386,-0.000224409 -0.00405118,-0.00316142 -0.00723228,-0.00652756 -0.0112835,-0.00948031 0,0 0,0 0,0 -0.0808425,-0.0609488 -0.213157,-0.0913583 -0.294429,-0.0679685 -0.477315,0.137394 -0.974724,0.280449 -1.49133,0.429236 -0.537638,0.154846 -1.0997,0.316717 -1.68627,0.485575 -0.500902,0.144142 -1.02187,0.294331 -1.5604,0.449346 -0.560295,0.16128 -1.14341,0.329189 -1.74921,0.503386 -0.133748,0.0386417 -0.179224,0.140008 -0.101874,0.226024 0.00460236,0.00522047 0.00920866,0.0104449 0.0138268,0.0156654 -0.30715,0.0905433 -0.620421,0.183201 -0.939823,0.277398 -0.144386,0.0426929 -0.198252,0.152217 -0.121406,0.244425 0.156299,0.187685 0.315425,0.37861 0.476646,0.571843 0.163921,0.196465 0.330835,0.396866 0.500319,0.599858 0.172669,0.207228 0.348476,0.41815 0.527008,0.632445 0.181421,0.217756 0.366882,0.439878 0.554929,0.66535 0.0949843,0.114043 0.293961,0.157307 0.444488,0.0948583 0.330988,-0.137657 0.654929,-0.272283 0.972709,-0.403972 0.00579921,0.00645276 0.0116142,0.0129055 0.0174291,0.0196614 0.0985787,0.109362 0.291394,0.150496 0.430437,0.0913346 0.622161,-0.265543 1.22056,-0.520402 1.7908,-0.763531 0.546476,-0.233004 1.07272,-0.45726 1.57696,-0.671701 0.586083,-0.250055 1.14502,-0.488079 1.67904,-0.715551 0.508772,-0.216717 0.996996,-0.425016 1.46344,-0.623831 0.0791535,-0.0337362 0.065126,-0.12085 -0.0315394,-0.193819 0,0 0,0 0,0 -0.00484646,-0.00379921 -0.0105709,-0.0071063 -0.0154134,-0.0109055 -0.00030315,-0.000212598 -0.000606299,-0.00042126 -2.75591e-005,-0.000909449 0,0 0,0 0,0 0.172535,-0.0718031 0.343417,-0.142437 0.512323,-0.212531 0.0749252,-0.0310945 0.0600669,-0.113098 -0.034437,-0.18215 -0.187539,-0.136894 -0.373343,-0.272563 -0.556272,-0.406016 -0.180693,-0.131823 -0.359748,-0.262441 -0.536358,-0.391433z"/>
  <path class="fil2" d="M7.7553 1.80385l-0.00451575 0.0610197 -2.27492 0.686587 -0.0034252 -0.058626 2.28286 -0.68898zm-5.97057 2.47578l0.00451575 -0.0610197c0.202803,-0.0652756 0.405843,-0.129874 0.608744,-0.194854l-0.00451575 0.0610197 -0.608744 0.194854zm8.1008 -1.75274l-0.00451575 0.0610197 -0.388402 0.137736 0.00451575 -0.0610197 0.388402 -0.137736zm-5.38951 1.94399l-0.00451575 0.0610197 -0.254039 0.0904409 0.00451575 -0.0610197 0.182303 -0.0649803 0.0717362 -0.0254606zm-0.370236 -0.365937l-0.00451575 0.0610197 -0.191039 0.0649173 -0.00162205 -0.0589291 0.18476 -0.0627717 0.0124173 -0.00423622zm3.7216 0.465638l-0.00451575 0.0610197 -0.0476535 0.0192244 0.00451575 -0.0610197 0.0476535 -0.0192244zm0.910248 -2.03091l-0.00451575 0.0610197 -0.0400945 0.0136339 0.00451575 -0.0610197 0.0400945 -0.0136339zm-0.842862 -0.78389l-0.00451575 0.0610197 -0.120862 0.0377717 0.00659843 -0.0627953 0.11878 -0.0359961zm-5.79157 1.97744l-0.00451575 0.0610197 -0.644303 0.198933 0.00451575 -0.0610197 0.182906 -0.0565354 0.461398 -0.142398zm-0.971756 0.299854l-0.00451575 0.0610197 -0.0844409 0.0262992 -0.0255276 -0.0194803 -0.00732283 0.00225984 0.00451575 -0.0336299 0.0292087 -0.00903937 0.0806181 -0.0251142 0.00746457 -0.00231496zm0.546492 0.0855945l-0.00451575 0.0610197 -0.438811 0.139004 -0.0411063 -0.0465276 0.151909 -0.0482008 0.332524 -0.105295zm1.19141 0.426043l-0.00451575 0.0610197 -0.751953 0.256268 0.00451575 -0.0610197 0.535366 -0.182362 0.216587 -0.0739055zm0.301059 -1.36323l-0.00451575 0.0610197 -1.17722 0.355244 0.00451575 -0.0610197 1.17722 -0.355244zm1.88178 -0.568087l-0.00451575 0.0610197 -1.8298 0.55387 0.00704724 -0.0632598 1.82726 -0.55163zm-1.02078 3.16302l-0.00451575 0.0610197 -1.18116 0.462736 0.00451575 -0.0610197 1.18116 -0.462736zm0.21311 0.292201l0.00451575 -0.0610197 3.17574 -1.27512 -0.00451575 0.0610197 -3.17574 1.27512zm-0.913768 -1.11965l-0.00451575 0.0610197 -0.432417 0.15498 -0.00240157 -0.0585354 0.439335 -0.157465zm4.64413 -0.378559l0.00451575 -0.0610197 2.60304 -1.04528 -0.00451575 0.0610197 -2.15226 0.864291 -0.45078 0.180992zm2.38889 -1.2048l0.00660236 -0.0627992 0.701476 -0.274476 -0.00451575 0.0610197 -0.703563 0.276256zm-0.181122 -0.95074l-0.00451575 0.0610197 -0.217965 0.0771693 0.00451575 -0.0610197 0.217965 -0.0771693zm-2.00801 -0.743516l-0.00451575 0.0610197 -0.0349843 0.0105197 0.00451575 -0.0610197 0.0349843 -0.0105197zm0.961461 0.733087l-0.00234252 0.0626811 -0.294272 0.0972402 0.00451575 -0.0610197 0.292098 -0.0989016zm0.0730394 0.0133937l-0.00451575 0.0610197 -0.0384606 0.0130827 0.00451575 -0.0610197c0.0128425,-0.00429134 0.0256535,-0.00868898 0.0384606,-0.0130827zm-0.151496 -0.832339l-0.00451575 0.0610197 -0.68228 0.209618 0.0164291 -0.0640079 0.670366 -0.20663zm0.856059 0.590425l-0.00451575 0.0610197 -0.0376457 0.0127087 0.00451575 -0.0610197 0.0376457 -0.0127087z"/>
  <path class="fil3" d="M9.89604 2.18864l-0.00451575 0.0610197 -0.818413 -0.603134 0.00451575 -0.0610197 0.818413 0.603134zm-0.398921 0.475984l-0.00451575 0.0610197 -0.0440709 -0.0332795 0.00451575 -0.0610197 0.0440709 0.0332795zm-5.67145 1.54553l0.00451575 -0.0610197 0.411787 0.412185 -0.00451575 0.0610197 -0.411787 -0.412185zm0.700673 0.355913l-0.0348465 -0.0341693 0.00451575 -0.0610197 0.0348465 0.0341693 0.0557283 -0.0195866 -0.00451575 0.0610197 -0.0557283 0.0195866zm-0.0735945 -0.138071l-0.0141693 0.051315 -0.0530197 -0.0522677 0.00451575 -0.0610197 0.0626732 0.0619724zm-0.283752 -0.214909l-0.0477362 -0.047126 0.00451575 -0.0610197 0.0477362 0.047126 0.0556496 -0.0189213 -0.00451575 0.0610197 -0.0556496 0.0189213zm-0.0852283 -0.149618l-0.0106417 0.0594016 -0.0410039 -0.0450354 0.00451575 -0.0610197 0.0471299 0.0466535zm1.29735 -1.5302l0.00458268 -0.0611654 0.308311 0.270177 1.46985 1.28868 0.635929 0.558697 -0.00458268 0.0611654 -2.41409 -2.11755zm3.33641 0.0200354l-0.00451575 0.0610197 -0.962228 -0.749457 0.00451575 -0.0610197 0.962228 0.749457zm-6.63265 1.13878l-0.00981102 0.0554331 -0.16363 -0.172724 0.00451575 -0.0610197 0.168925 0.178311zm-0.605988 0.240079l-0.00451575 0.0610197 -0.0381417 -0.0423504 0.00451575 -0.0610197 0.0381417 0.0423504zm0.879035 0.0497008l-0.0155866 0.0492756 -0.223661 -0.23689 0.00451575 -0.0610197 0.234732 0.248634zm-0.624402 1.03574l-0.803803 -0.910874 0.00451575 -0.0610197 0.803803 0.910874 0.0621929 -0.0215669 -0.00451575 0.0610197 -0.0621929 0.0215669zm-0.0401102 -0.837906l0.00451575 -0.0610197 0.091315 0.0999331 -0.00451575 0.0610197 -0.091315 -0.0999331zm1.15498 0.321134l-0.00565748 0.0598071 -0.449268 -0.475862 0.00451575 -0.0610197 0.450409 0.477075zm-0.711012 0.300157l-0.00451575 0.0610197 -0.0407874 -0.045374 0.00451575 -0.0610197 0.0407874 0.045374zm0.801409 -0.13839l-0.0539724 -0.0568583 0.00451575 -0.0610197 0.0256102 0.0266496 0.0283622 0.0302087 0.059748 -0.0204606 -0.00451575 0.0610197 -0.059748 0.0204606zm0.867 -0.808382l-0.619913 -0.611705 0.00451575 -0.0610197 0.619913 0.611705 0.0555394 -0.0180118 -0.00451575 0.0610197 -0.0555394 0.0180118zm-1.82867 1.43927l0.00451575 -0.0610197 0.888594 1.00669 -0.00451575 0.0610197 -0.888594 -1.00669zm2.06976 0.543953l0.00451575 -0.0610197 0.217626 0.231181 -0.00451575 0.0610197 -0.217626 -0.231181zm1.44177 -0.384201l-0.00451575 0.0610197 -0.713386 -0.706197 0.00451575 -0.0610197 0.713386 0.706197zm-2.2402 -0.528461l-0.0165354 0.0482559 -0.0525 -0.0553189 0.00451575 -0.0610197 0.0645197 0.0680827zm-0.445409 0.218012l0.00451575 -0.0610197c0.25715,0.267276 0.503102,0.546201 0.754331,0.819051l-0.00451575 0.0610197 -0.754331 -0.819051zm5.19634 -0.633394l-0.00451575 0.0610197 -0.0467087 -0.0406772 0.00451575 -0.0610197 0.0467087 0.0406772zm2.15988 -2.12656l-0.00451575 0.0336299 -0.0316181 -0.0233661 0.00451575 -0.0336299 0.0316181 0.0233661zm-0.174591 0.109209l-0.00451575 0.0610197 -0.0441535 -0.0324213 0.00451575 -0.0610197 0.0441535 0.0324213zm1.02358 0.517118l-0.0173661 0.0515433 -0.792764 -0.584811 0.00451575 -0.0610197 0.805614 0.594287zm-1.39345 -0.190118l0.00451575 -0.0610197 0.898445 0.686201 -0.0149685 0.0530906 -0.887992 -0.678272zm-1.45516 -1.13717l-0.00451575 0.0610197 -0.0395866 -0.0305787 0.00451575 -0.0610197 0.0395866 0.0305787zm0.0304685 0.0505l0.00451575 -0.0610197 0.918425 0.700728 -0.0158858 0.0523307 -0.907055 -0.692039zm0.673878 0.770969l-0.00451575 0.0610197 -0.0421575 -0.0328622 0.00451575 -0.0610197 0.0421575 0.0328622zm0.326677 -0.0724252l-0.00451575 0.0610197 -0.0324055 -0.024815 0.00234252 -0.0626811 0.0345787 0.0264764z"/>
  <path class="fil4" d="M9.0757 1.54435c0.139622,0.102646 0.280535,0.206563 0.42285,0.311283 0.143622,0.105689 0.288693,0.212354 0.435134,0.320299 -0.0130945,0.00411811 -0.0253701,0.00841339 -0.0376457,0.0127087 -0.140165,-0.10285 -0.278252,-0.204638 -0.415071,-0.305547 -0.135598,-0.100012 -0.269969,-0.199157 -0.403343,-0.297587 -0.219925,0.0676969 -0.443921,0.136685 -0.670366,0.20663 0.133835,0.10202 0.269063,0.204783 0.405854,0.308634 0.137516,0.104406 0.276043,0.21028 0.416008,0.317075 -0.0130945,0.00449606 -0.026185,0.00899606 -0.0384606,0.0130827 -0.011378,-0.00864173 -0.0229921,-0.0176496 -0.0345787,-0.0264764 -0.0965472,0.0327205 -0.193913,0.0657441 -0.292098,0.0989016 -0.0138976,-0.0108307 -0.0280276,-0.0218465 -0.0421575,-0.0328622 0.0973465,-0.0329921 0.195508,-0.0658465 0.29122,-0.0983976 -0.12661,-0.0967205 -0.252185,-0.192677 -0.37663,-0.287575 -0.123421,-0.0941181 -0.245819,-0.187547 -0.367437,-0.280398 -0.0132008,-0.0101142 -0.0274173,-0.0204094 -0.0408189,-0.0307087 -0.0444016,-0.0341969 -0.0894488,-0.0680315 -0.133539,-0.102047 -0.0113898,0.0035748 -0.0235906,0.00714961 -0.0349843,0.0105197 -0.0130472,-0.00994488 -0.026315,-0.0202598 -0.0395866,-0.0305787 0.0113858,-0.00335433 0.0227756,-0.00690945 0.0349724,-0.0104606 0.00975984,-0.00296063 0.0195197,-0.0059252 0.0300945,-0.00908268 0.00244094,-0.000787402 0.00488189,-0.00157874 0.00813386,-0.00256693 0.058122,0.0440394 0.115654,0.0882598 0.173996,0.132299 0.226378,-0.0697598 0.450315,-0.138209 0.670181,-0.205728 0.0130315,-0.00368898 0.0252441,-0.00755512 0.0382717,-0.0114173zm1.44206 1.89988c-0.0558189,-0.0422913 -0.11063,-0.0843976 -0.165189,-0.126319 -0.0159252,-0.0115866 -0.0312795,-0.0235354 -0.046563,-0.035122 -0.116681,-0.0891732 -0.232547,-0.177602 -0.347461,-0.265319 -0.11415,-0.0871378 -0.226531,-0.173575 -0.339232,-0.259441 0.0122992,-0.00448819 0.0254134,-0.0092126 0.0385315,-0.013937 0.111894,0.085874 0.225106,0.171945 0.339276,0.258906 0.114925,0.0875354 0.230795,0.175969 0.347488,0.264776 0.225043,-0.0876496 0.445984,-0.173961 0.663638,-0.258606 -0.137087,-0.101087 -0.273185,-0.20148 -0.407902,-0.300949 -0.133567,-0.098622 -0.266217,-0.196327 -0.397713,-0.293339 -0.0729252,0.0256299 -0.145035,0.0512598 -0.217965,0.0771693 -0.0142953,-0.010748 -0.0288386,-0.0216732 -0.0441535,-0.0324213 0.0737362,-0.0256024 0.145827,-0.0512835 0.218744,-0.0767874 -0.010378,-0.00761024 -0.0209961,-0.0154016 -0.0316181,-0.0233661 0.0122874,-0.00441339 0.0245748,-0.00864961 0.0376811,-0.0130591 0.150622,0.110768 0.30276,0.22274 0.456354,0.335839 0.155181,0.114268 0.311866,0.229669 0.470157,0.346091 -0.0131417,0.00487795 -0.0254606,0.00975591 -0.0377835,0.0146339 -0.21685,0.0850472 -0.43863,0.171772 -0.663693,0.259843 0.0708189,0.0537638 0.140878,0.107346 0.212067,0.161291 -0.00492913,0.00209055 -0.0106811,0.0041811 -0.0147874,0.00600787 -0.00821654,0.0031378 -0.0156142,0.00627559 -0.0238307,0.00941339 -0.394402,0.158516 -0.800346,0.321673 -1.22018,0.490268 -0.433055,0.173902 -0.88165,0.353768 -1.34425,0.539594 -0.0152087,-0.0134173 -0.0304173,-0.0268386 -0.0467087,-0.0406772 0.462571,-0.184705 0.911142,-0.363685 1.34417,-0.536748 0.419807,-0.167776 0.82572,-0.329972 1.22092,-0.48774zm-7.62935 2.71908c0.226685,-0.0887047 0.450906,-0.17572 0.67348,-0.262492 -0.121516,-0.131972 -0.241681,-0.262776 -0.360909,-0.392362 -0.117768,-0.127996 -0.234681,-0.254795 -0.350228,-0.380409 -0.0139843,-0.0152559 -0.0282087,-0.0307677 -0.0431929,-0.0462795 0.0196654,-0.007 0.0409724,-0.0143701 0.0614606,-0.0217402 0.127843,-0.0454331 0.254051,-0.0904488 0.379433,-0.135252 -0.0212323,-0.0226929 -0.0432874,-0.0453898 -0.0645197,-0.0680827 0.0196614,-0.00680709 0.0393228,-0.0139724 0.0598071,-0.0211378 0.0212402,0.0226339 0.0424803,0.0452677 0.0645394,0.0681496 0.00849606,0.00895276 0.0170472,0.0181575 0.0253583,0.0271102 0.00570079,0.0059685 0.0113976,0.012189 0.0171024,0.0181575 -0.145083,0.0520787 -0.291799,0.104476 -0.439335,0.157465 0.115575,0.125028 0.232386,0.251602 0.350303,0.379398 0.119122,0.129102 0.239429,0.259689 0.360965,0.391315 0.128945,-0.0502835 0.257071,-0.100083 0.382732,-0.14911 0.0197126,-0.00755118 0.0402441,-0.0155 0.0599606,-0.0234488 0.0159094,0.0159213 0.0310551,0.0323346 0.0459921,0.0482559 0.0572835,0.060185 0.11411,0.121126 0.171988,0.182063 0.412449,-0.164618 0.813398,-0.325075 1.20531,-0.481673 -0.121063,-0.120177 -0.242039,-0.240087 -0.361091,-0.357929 -0.118287,-0.117083 -0.235681,-0.23328 -0.352295,-0.348268 0.0180472,-0.00657874 0.0369173,-0.0135079 0.0557835,-0.020437 0.115811,0.114701 0.233638,0.231008 0.351524,0.347386 0.11948,0.117953 0.240059,0.23715 0.361945,0.357016 0.643327,-0.257094 1.26036,-0.503567 1.85274,-0.740323 0.0162795,0.0142205 0.0314764,0.0280118 0.0475,0.0417992 -0.476567,0.191102 -0.967965,0.388634 -1.47736,0.593083 -0.52672,0.211402 -1.07228,0.430902 -1.63758,0.657846 -0.0205394,0.00820079 -0.0410787,0.0163976 -0.0607992,0.024189 -0.0151339,-0.0159606 -0.0302677,-0.0321732 -0.0456575,-0.0488819 -0.0578701,-0.0608465 -0.115516,-0.121949 -0.171969,-0.182299 -0.385232,0.150748 -0.7795,0.305091 -1.18116,0.462736 -0.00606299,-0.00682283 -0.012126,-0.0136457 -0.018189,-0.0204764 -0.00881102,-0.00997244 -0.0178465,-0.0202087 -0.026878,-0.0304449 -0.144866,-0.164063 -0.288154,-0.326587 -0.429445,-0.486677 -0.139504,-0.158059 -0.277642,-0.314476 -0.414083,-0.469091 0.0196614,-0.00718504 0.0409606,-0.014752 0.0630787,-0.0223189 0.136476,0.154193 0.274642,0.310185 0.414173,0.467811 0.141319,0.159654 0.284634,0.321736 0.429516,0.485354zm-0.91389 -2.66712c0.400972,-0.120469 0.792996,-0.238189 1.17689,-0.353343 0.0178937,-0.00527165 0.0357874,-0.010815 0.0544921,-0.0163622 0.631965,-0.189705 1.24033,-0.372433 1.82675,-0.548413 0.0137913,0.0118465 0.0267638,0.0236969 0.0395276,0.0353307 -0.586579,0.177 -1.19513,0.360795 -1.82726,0.55163 0.101059,0.0996575 0.203504,0.200165 0.306197,0.301083 0.104189,0.102386 0.208634,0.205181 0.314744,0.309067 -0.0187874,0.0061063 -0.0375709,0.0122126 -0.0555394,0.0180118 -0.105264,-0.104146 -0.210295,-0.207413 -0.313827,-0.309858 -0.102457,-0.101378 -0.205067,-0.202173 -0.306087,-0.301846 -0.384,0.115606 -0.776138,0.234043 -1.17722,0.355244 0.159008,0.168134 0.320504,0.338346 0.484516,0.511122 0.165831,0.174689 0.334024,0.352933 0.50537,0.53326 -0.0204606,0.00693701 -0.0409213,0.0138701 -0.059748,0.0204606 -0.0177165,-0.0189528 -0.035437,-0.0379055 -0.0539724,-0.0568583 -0.246287,0.0841496 -0.496665,0.169272 -0.751953,0.256268 -0.0134488,-0.0149528 -0.0271181,-0.0301654 -0.0407874,-0.045374 0.255232,-0.0864921 0.505563,-0.171122 0.751799,-0.254783 -0.151992,-0.161106 -0.302043,-0.319961 -0.450409,-0.477075 -0.17952,0.0575 -0.363126,0.116331 -0.546728,0.174866 -0.0203976,0.00666142 -0.0416142,0.0133228 -0.0620157,0.0199882 -0.0129134,-0.0143465 -0.0260079,-0.0286969 -0.0391024,-0.0430472 -0.0178346,-0.0189606 -0.0350748,-0.0379213 -0.0522126,-0.0568858 -0.160665,0.0509331 -0.322142,0.101913 -0.484433,0.153496 0.0956929,0.107854 0.192547,0.217232 0.289638,0.326969 0.0981614,0.110945 0.19726,0.223043 0.297098,0.335874 -0.0212756,0.00730709 -0.0425512,0.014622 -0.0621929,0.0215669 -0.137984,-0.156449 -0.274425,-0.311382 -0.409083,-0.463839 -0.132902,-0.150465 -0.264744,-0.299772 -0.39472,-0.447035 0.00407087,-0.00129528 0.00814173,-0.00258661 0.0122126,-0.00388189 0.0154724,-0.00485827 0.0325748,-0.0100315 0.0496732,-0.0152126 0.0390906,-0.0119685 0.0773661,-0.0239449 0.117264,-0.0362402 0.012748,0.0143228 0.0254882,0.0286457 0.0380512,0.0427087 -0.0399094,0.012374 -0.0781969,0.0244213 -0.117291,0.0364685 0.0467638,0.052878 0.0937283,0.10576 0.140646,0.158642 0.162252,-0.0510118 0.323689,-0.101937 0.484307,-0.152311 0.0203858,-0.0065315 0.0415866,-0.0130669 0.0619685,-0.0195984 0.0130157,0.014311 0.0260394,0.028622 0.0388425,0.0429291 0.0171417,0.0186575 0.0352047,0.0378228 0.0522362,0.0564764 0.182744,-0.058185 0.366299,-0.116665 0.54578,-0.173827 -0.0787677,-0.0835433 -0.157012,-0.166339 -0.234732,-0.248634 -0.21178,0.0654134 -0.426819,0.131634 -0.644303,0.198933 -0.0125984,-0.0138583 -0.0253661,-0.0282362 -0.0381417,-0.0423504 0.217425,-0.0666378 0.432406,-0.132709 0.64413,-0.197728 -0.0565039,-0.0596063 -0.11274,-0.118961 -0.168925,-0.178311 0.00894882,-0.0026811 0.0178937,-0.0053622 0.0268425,-0.00804331 0.00975591,-0.00298031 0.0211457,-0.00625591 0.0317205,-0.00953543zm3.45829 -1.03822c0.40585,-0.121717 0.801126,-0.240547 1.18583,-0.355937 0.374941,-0.112457 0.740949,-0.22235 1.09719,-0.329417 0.0130118,-0.00386614 0.0260236,-0.00793307 0.0398504,-0.0120039 0.0390433,-0.0117992 0.0788937,-0.0238031 0.118748,-0.0358031 0.0140591,0.0104488 0.0273071,0.0207126 0.0403307,0.0309764 -0.0398661,0.0120709 -0.0797283,0.0241339 -0.11878,0.0359961 0.156035,0.121299 0.313768,0.243929 0.473091,0.367846 0.161047,0.125256 0.323902,0.251988 0.488551,0.380047 -0.0130945,0.00461811 -0.0270039,0.00924016 -0.0400945,0.0136339 -0.164614,-0.128331 -0.327433,-0.255331 -0.488445,-0.380846 -0.15928,-0.124169 -0.316972,-0.247059 -0.473783,-0.36861 -0.356339,0.10765 -0.722413,0.218067 -1.09668,0.331035 -0.384787,0.116138 -0.780209,0.235531 -1.18618,0.357945 0.368366,0.321327 0.747394,0.652087 1.13669,0.992717 0.400697,0.35061 0.813528,0.712583 1.23824,1.08503 -0.0156102,0.00640945 -0.0320433,0.0128189 -0.0476535,0.0192244 -0.424681,-0.373327 -0.837465,-0.736138 -1.23808,-1.08757 -0.389217,-0.341421 -0.768134,-0.672957 -1.13638,-0.995035 -0.0127953,-0.011437 -0.0266142,-0.0230827 -0.039626,-0.0349409 0.0154528,-0.00475984 0.0317165,-0.00951969 0.0471732,-0.0142835zm-1.23406 2.0602c-0.109465,-0.109898 -0.218791,-0.218843 -0.326602,-0.327075 -0.00459843,-0.0045315 -0.00919291,-0.00929921 -0.0140197,-0.0143031 -0.00896457,-0.00905906 -0.0187441,-0.018122 -0.0279409,-0.0276575 0.0850748,-0.0285394 0.169331,-0.057063 0.253583,-0.0856654 -0.0154173,-0.0155512 -0.0307598,-0.0308701 -0.0471299,-0.0466535 0.0179921,-0.00598425 0.0368031,-0.0122835 0.0556102,-0.0185827 0.0155591,0.015748 0.0309055,0.0310276 0.0471457,0.0465354 0.013811,0.0138701 0.027622,0.0277362 0.0420197,0.0413661 0.0156693,0.015752 0.0314173,0.0314961 0.047748,0.0470118 -0.0188228,0.00641339 -0.0376457,0.0128268 -0.0556496,0.0189213 -0.0155079,-0.0155512 -0.031252,-0.0313386 -0.0477362,-0.047126 -0.0662717,0.022626 -0.13172,0.0447008 -0.197177,0.0670079 0.108657,0.107713 0.217193,0.216614 0.326685,0.325988 0.0655472,-0.0230433 0.131098,-0.0463268 0.197465,-0.0699409 -0.0206063,-0.0207362 -0.0411102,-0.0412402 -0.0626732,-0.0619724 0.0180197,-0.00626772 0.0368622,-0.0128661 0.0557047,-0.0194685 0.0207441,0.020685 0.0412559,0.0413701 0.062685,0.0620472 0.0142283,0.0143386 0.0292795,0.0284449 0.0432717,0.0425433 0.0113858,0.0115157 0.022815,0.0230354 0.0348504,0.034315 -0.0188504,0.00672047 -0.0377008,0.0132047 -0.0557283,0.0195866 -0.0112165,-0.011311 -0.0226457,-0.0226181 -0.0348465,-0.0341693 -0.0852283,0.0302008 -0.169634,0.0603031 -0.254039,0.0904409 -0.00544882,-0.00548031 -0.0117205,-0.0109646 -0.0174016,-0.0169213 -0.0085315,-0.00858661 -0.0170591,-0.0174055 -0.0258228,-0.0262283zm5.68678 -1.99128c-0.128646,0.0455276 -0.258114,0.0913189 -0.388402,0.137736 -0.0150906,-0.0110315 -0.0296063,-0.022063 -0.0440709,-0.0332795 0.131083,-0.046185 0.259705,-0.0915709 0.38915,-0.137055 0.0144921,0.0108071 0.0290276,0.0217913 0.0433228,0.0325984z"/>
  <polygon ng-class="{'pulsate': $ctrl.company.comproom == '101'}" class="fil5" points="1.17479,4.22819 1.07556,4.11633 1.14692,4.0941 1.15144,4.03308 1.43623,3.95083 1.47437,3.99318 2.11868,3.79424 2.31018,3.99707 1.81215,4.15569 1.72107,4.05628 "/>
  <polygon ng-class="{'pulsate': $ctrl.company.comproom == '102'}" class="fil5" points="1.80023,4.93501 1.2546,4.3187 1.69341,4.17969 1.78473,4.27963 2.39347,4.08477 2.80136,4.5168 2.0966,4.75561 2.09208,4.81663 2.13287,4.862 1.79572,4.99603 "/>
  <polygon ng-class="{'pulsate': $ctrl.company.comproom == '103'}" class="fil5" points="1.97712,5.29348 1.73352,5.0176 2.13287,4.862 2.88482,4.60574 2.9388,4.66259 2.99854,4.64213 3.18393,4.85669 3.17941,4.91771 3.2019,4.9414 2.81163,5.086 2.80304,5.14279 3.51721,5.91823 2.88841,6.16331 2.04472,5.21015 1.98164,5.23246 "/>
  <polygon ng-class="{'pulsate': $ctrl.company.comproom == '104'}" class="fil5" points="2.05708,3.58314 3.18588,3.24251 3.8058,3.85421 3.86133,3.8362 4.03664,4.01681 4.03432,4.08024 3.83019,4.14913 3.82567,4.21015 4.23746,4.62233 4.4915,4.53189 4.52634,4.56606 4.58207,4.54648 4.77526,4.74704 4.77075,4.80806 5.44152,5.47207 4.28334,5.93491 4.06536,5.70459 3.62267,5.87715 2.95264,5.15105 3.34622,5.00999 3.35074,4.94897 3.24374,4.83556 3.18393,4.85669 2.99854,4.64213 3.00306,4.58111 "/>
  <polygon ng-class="{'pulsate': $ctrl.company.comproom == '105'}" class="fil5" points="3.86585,3.77518 3.29237,3.2118 5.06766,2.67442 5.07128,2.62555 5.38112,2.53327 7.7952,4.65082 7.44024,4.7935 7.44476,4.73248 7.39726,4.69068 5.54452,5.431 4.83105,4.7266 4.77526,4.74704 4.58207,4.54648 4.58659,4.48546 4.44578,4.34655 4.39007,4.36602 4.22465,4.19416 4.22916,4.13314 4.09225,3.99823 4.03664,4.01681 3.86133,3.8362 "/>
  <polygon ng-class="{'pulsate': $ctrl.company.comproom == '106'}" class="fil6" points="4.169,4.21308 4.12126,4.16596 3.97323,4.21626 4.25528,4.49793 4.40408,4.4453 4.38556,4.42704 4.39007,4.36602 4.22465,4.19416 "/>
  <polygon ng-class="{'pulsate': $ctrl.company.comproom == '107'}" class="fil5" points="7.84737,4.57057 7.84286,4.63159 7.99487,4.57041 7.94816,4.52974 7.95267,4.46872 10.4623,3.46638 9.6148,2.81905 9.49261,2.72564 9.15374,2.46713 8.71301,2.61432 7.75078,1.86487 5.52326,2.53715 "/>
  <polygon ng-class="{'pulsate': $ctrl.company.comproom == '108'}" class="fil5" points="7.91024,1.8168 7.91336,1.77469 8.11554,1.71232 8.15513,1.7429 8.19908,1.73923 9.05457,2.39193 8.82183,2.47049 8.81731,2.53151 8.85947,2.56437 8.75311,2.60069 8.75762,2.53967 7.8517,1.83509 "/>
  <polygon ng-class="{'pulsate': $ctrl.company.comproom == '109'}" class="fil5" points="9.18615,2.49194 9.44854,2.69236 9.45305,2.63134 9.8422,2.49429 9.88552,2.52689 9.88459,2.53949 9.936,2.52065 9.94052,2.45963 10.1253,2.39474 10.1249,2.37968 9.92917,2.23695 9.89153,2.24966 9.07311,1.64652 8.46241,1.83415 9.22913,2.41784 9.22461,2.47886 "/>
  <polygon ng-class="{'pulsate': $ctrl.company.comproom == '110'}" class="fil5" points="9.49261,2.72564 9.6148,2.81905 9.61931,2.75803 9.65785,2.74409 10.3446,3.26777 10.9511,3.03139 10.1981,2.4759 9.98015,2.55307 9.936,2.52065 9.88459,2.53949 9.88101,2.58791 "/>
 </g>
</svg>
