<?xml version="1.0" encoding="utf-8"?>
<!-- Generator: Adobe Illustrator 22.0.1, SVG Export Plug-In . SVG Version: 6.00 Build 0)  -->
<svg version="1.1" id="Layer_1" xmlns="http://www.w3.org/2000/svg" xmlns:xlink="http://www.w3.org/1999/xlink" x="0px" y="0px"
	 viewBox="0 0 472.7 347.9" style="enable-background:new 0 0 472.7 347.9;" xml:space="preserve">
<style type="text/css">
	.st0{opacity:0.69;}
	.st1{enable-background:new    ;}
	.st2{fill:#788184;}
	.st3{clip-path:url(#SVGID_2_);enable-background:new    ;}
	.st4{fill:#7A8387;}
	.st5{clip-path:url(#SVGID_4_);enable-background:new    ;}
	.st6{clip-path:url(#SVGID_6_);enable-background:new    ;}
	.st7{fill:#818B8E;}
	.st8{fill:#7F888C;}
	.st9{fill:#7C8689;}
	.st10{clip-path:url(#SVGID_8_);enable-background:new    ;}
	.st11{clip-path:url(#SVGID_10_);enable-background:new    ;}
	.st12{clip-path:url(#SVGID_12_);enable-background:new    ;}
	.st13{clip-path:url(#SVGID_14_);enable-background:new    ;}
	.st14{clip-path:url(#SVGID_16_);enable-background:new    ;}
	.st15{clip-path:url(#SVGID_18_);enable-background:new    ;}
	.st16{clip-path:url(#SVGID_20_);enable-background:new    ;}
	.st17{clip-path:url(#SVGID_22_);enable-background:new    ;}
	.st18{clip-path:url(#SVGID_24_);enable-background:new    ;}
	.st19{fill:#A7B2B5;}
	.st20{clip-path:url(#SVGID_26_);enable-background:new    ;}
	.st21{fill:#B7B8AC;}
	.st22{display:none;}
	.st23{display:inline;fill:none;stroke:#58595B;stroke-miterlimit:10;}
	.st24{fill:#CBD4D5;}
	.st25{fill:#9D9D9E;}
	.st26{fill:#BCBCBC;}
	.st27{fill:#B9C1C3;}
	.st28{fill:#B5C1C4;}
	.st29{fill:#231F20;}
	.st30{clip-path:url(#SVGID_28_);enable-background:new    ;}
	.st31{clip-path:url(#SVGID_30_);enable-background:new    ;}
	.st32{clip-path:url(#SVGID_32_);enable-background:new    ;}
	.st33{fill:#7A8487;}
	.st34{clip-path:url(#SVGID_34_);enable-background:new    ;}
	.st35{clip-path:url(#SVGID_36_);enable-background:new    ;}
	.st36{clip-path:url(#SVGID_38_);enable-background:new    ;}
	.st37{clip-path:url(#SVGID_40_);enable-background:new    ;}
	.st38{clip-path:url(#SVGID_42_);enable-background:new    ;}
	.st39{clip-path:url(#SVGID_44_);enable-background:new    ;}
	
		.st40{display:inline;fill:none;stroke:#FCEE23;stroke-width:1.6288;stroke-linecap:round;stroke-linejoin:round;stroke-miterlimit:10;}
	
		.st41{display:inline;fill:none;stroke:#06A64F;stroke-width:1.6288;stroke-linecap:round;stroke-linejoin:round;stroke-miterlimit:10;}
	.st42{display:inline;}
	
		.st43{fill:none;stroke:#A83337;stroke-width:3.2574;stroke-linecap:round;stroke-linejoin:round;stroke-miterlimit:10;stroke-dasharray:8.143418e-02,4.8861;}
</style>
<g id="_x34_BENHAM.G">
	<g class="st0">
		
			<image style="overflow:visible;enable-background:new    ;" width="1954" height="783" xlink:href="22C468AC326D2C.png"  transform="matrix(0.2394 0 0 0.2394 3.4871 165.2441)">
		</image>
	</g>
	<g>
		<g>
			<g class="st1">
				<g>
					<polygon class="st2" points="367.4,205.2 367.4,206 243.3,226.3 243.3,225.5 					"/>
				</g>
				<g>
					<polygon class="st2" points="392,228.6 392,229.5 367.4,206 367.4,205.2 					"/>
				</g>
				<g class="st1">
					<g>
						<defs>
							<path id="SVGID_1_" d="M393.7,229.9v0.8c-0.6-0.3-1.2-0.7-1.7-1.2v-0.8C392.5,229.1,393.1,229.5,393.7,229.9z"/>
						</defs>
						<clipPath id="SVGID_2_">
							<use xlink:href="#SVGID_1_"  style="overflow:visible;"/>
						</clipPath>
						<g class="st3">
							<path class="st4" d="M393.7,229.9v0.8c-0.6-0.3-1.2-0.7-1.7-1.2v-0.8C392.5,229.1,393.1,229.5,393.7,229.9"/>
						</g>
					</g>
				</g>
				<g class="st1">
					<g>
						<defs>
							<path id="SVGID_3_" d="M395,231.5v0.8c-0.5-0.5-1-1-1.3-1.6v-0.8C394.1,230.5,394.5,231,395,231.5z"/>
						</defs>
						<clipPath id="SVGID_4_">
							<use xlink:href="#SVGID_3_"  style="overflow:visible;"/>
						</clipPath>
						<g class="st5">
							<path class="st4" d="M395,231.5v0.8c-0.5-0.5-1-1-1.3-1.6v-0.8C394.1,230.5,394.5,231,395,231.5"/>
						</g>
					</g>
				</g>
				<g class="st1">
					<g>
						<defs>
							<path id="SVGID_5_" d="M243.3,225.5v0.8c-0.1,0.6-0.2,1.2-0.4,1.7c-0.9,2.9-3.4,5-6.4,5.5v-0.8c3-0.4,5.5-2.6,6.4-5.5
								C243.1,226.6,243.2,226.1,243.3,225.5z"/>
						</defs>
						<clipPath id="SVGID_6_">
							<use xlink:href="#SVGID_5_"  style="overflow:visible;"/>
						</clipPath>
						<g class="st6">
							<path class="st7" d="M243.3,225.5v0.8c0,0.2,0,0.3-0.1,0.5V226C243.3,225.8,243.3,225.6,243.3,225.5"/>
							<path class="st8" d="M243.2,225.9v0.8c-0.1,0.4-0.2,0.9-0.3,1.3v0.1v-0.8v-0.1C243.1,226.8,243.2,226.4,243.2,225.9"/>
							<path class="st9" d="M242.9,227.3v0.8c-0.2,0.5-0.4,1-0.6,1.4v-0.8C242.5,228.3,242.7,227.8,242.9,227.3"/>
							<path class="st4" d="M242.3,228.7v0.8c-1.2,2.1-3.3,3.6-5.8,4v-0.8C239,232.3,241.1,230.8,242.3,228.7"/>
						</g>
					</g>
				</g>
				<g>
					<polygon class="st2" points="200.1,234.7 200.1,235.5 196.7,232 196.7,231.1 					"/>
				</g>
				<g>
					<polygon class="st2" points="236.5,232.7 236.5,233.5 207.1,237.9 207.1,237 					"/>
				</g>
				<g class="st1">
					<g>
						<defs>
							<path id="SVGID_7_" d="M207.1,237v0.8c-0.4,0.1-0.8,0.1-1.2,0.1c-2.1,0-4.2-0.9-5.7-2.4v-0.8c1.5,1.6,3.6,2.4,5.7,2.4
								C206.3,237.1,206.7,237.1,207.1,237z"/>
						</defs>
						<clipPath id="SVGID_8_">
							<use xlink:href="#SVGID_7_"  style="overflow:visible;"/>
						</clipPath>
						<g class="st10">
							<path class="st4" d="M207.1,237v0.8c-0.4,0.1-0.8,0.1-1.2,0.1c-2.1,0-4.2-0.9-5.7-2.4v-0.8c1.5,1.6,3.6,2.4,5.7,2.4
								C206.3,237.1,206.7,237.1,207.1,237"/>
						</g>
					</g>
				</g>
				<g>
					<polygon class="st2" points="196.7,231.1 196.7,232 58.1,250.5 58.1,249.6 					"/>
				</g>
				<g class="st1">
					<g>
						<defs>
							<path id="SVGID_9_" d="M35,246.3v-0.8c0,2,0.8,4,2.2,5.5v0.8C35.7,250.3,35,248.3,35,246.3z"/>
						</defs>
						<clipPath id="SVGID_10_">
							<use xlink:href="#SVGID_9_"  style="overflow:visible;"/>
						</clipPath>
						<g class="st11">
							<path class="st4" d="M37.2,251v0.8c-1.5-1.5-2.2-3.5-2.2-5.5v-0.8C35,247.5,35.7,249.5,37.2,251"/>
						</g>
					</g>
				</g>
				<g>
					<polygon class="st2" points="416.1,251.6 416.1,252.5 395,232.4 395,231.5 					"/>
				</g>
				<g class="st1">
					<g>
						<defs>
							<path id="SVGID_11_" d="M443.4,254.9v0.8c0,0.8-0.1,1.6-0.4,2.4c-0.3,0.8-0.6,1.6-1.1,2.3v-0.8c0.5-0.7,0.9-1.5,1.1-2.3
								C443.3,256.5,443.4,255.7,443.4,254.9z"/>
						</defs>
						<clipPath id="SVGID_12_">
							<use xlink:href="#SVGID_11_"  style="overflow:visible;"/>
						</clipPath>
						<g class="st12">
							<path class="st7" d="M443.4,254.9v0.8c0,0.4,0,0.8-0.1,1.2v-0.8C443.3,255.7,443.4,255.3,443.4,254.9"/>
							<path class="st8" d="M443.3,256.1v0.8c-0.1,0.4-0.2,0.8-0.3,1.2c0,0.1,0,0.1-0.1,0.2v-0.8c0-0.1,0-0.1,0.1-0.2
								C443.1,256.9,443.2,256.5,443.3,256.1"/>
							<path class="st9" d="M442.9,257.5v0.8c-0.2,0.5-0.4,0.9-0.6,1.4v-0.8C442.6,258.4,442.8,258,442.9,257.5"/>
							<path class="st4" d="M442.3,258.9v0.8c-0.1,0.2-0.3,0.5-0.5,0.7v-0.8C442,259.3,442.2,259.1,442.3,258.9"/>
						</g>
					</g>
				</g>
				<g class="st1">
					<g>
						<defs>
							<path id="SVGID_13_" d="M441.9,259.6v0.8c-1.2,2.8-3.5,4.6-6.2,5v-0.8C438.4,264.2,440.6,262.4,441.9,259.6z"/>
						</defs>
						<clipPath id="SVGID_14_">
							<use xlink:href="#SVGID_13_"  style="overflow:visible;"/>
						</clipPath>
						<g class="st13">
							<path class="st9" d="M441.9,259.6v0.8c-0.1,0.3-0.3,0.6-0.5,0.9v-0.8C441.6,260.2,441.7,259.9,441.9,259.6"/>
							<path class="st4" d="M441.4,260.5v0.8c-1.3,2.3-3.4,3.7-5.7,4.1v-0.8C438.1,264.2,440.1,262.8,441.4,260.5"/>
						</g>
					</g>
				</g>
				<g>
					<polygon class="st2" points="435.7,264.6 435.7,265.4 385.6,273.6 385.6,272.7 					"/>
				</g>
				<g>
					<polygon class="st2" points="61.8,276.6 61.8,277.5 37.2,251.8 37.2,251 					"/>
				</g>
				<g>
					<polygon class="st2" points="64.6,279.6 64.6,280.4 61.8,277.5 61.8,276.6 					"/>
				</g>
				<g>
					<polygon class="st2" points="385.6,272.7 385.6,273.6 339.8,281.1 339.8,280.2 					"/>
				</g>
				<g class="st1">
					<g>
						<defs>
							<path id="SVGID_15_" d="M65.3,280.2v0.8c-0.2-0.2-0.5-0.4-0.7-0.6v-0.8C64.8,279.8,65,280,65.3,280.2z"/>
						</defs>
						<clipPath id="SVGID_16_">
							<use xlink:href="#SVGID_15_"  style="overflow:visible;"/>
						</clipPath>
						<g class="st14">
							<path class="st4" d="M65.3,280.2v0.8c-0.2-0.2-0.5-0.4-0.7-0.6v-0.8C64.8,279.8,65,280,65.3,280.2"/>
						</g>
					</g>
				</g>
				<g>
					<polygon class="st2" points="287.1,285.5 287.1,286.4 285.5,284.8 285.5,284 					"/>
				</g>
				<g>
					<polygon class="st2" points="339.8,280.2 339.8,281.1 293.9,288.5 293.9,287.7 					"/>
				</g>
				<g class="st1">
					<g>
						<defs>
							<path id="SVGID_17_" d="M293.9,287.7v0.8c-0.4,0.1-0.9,0.1-1.3,0.1c-2,0-4-0.8-5.5-2.2v-0.8c1.5,1.4,3.5,2.2,5.5,2.2
								C293.1,287.8,293.5,287.7,293.9,287.7z"/>
						</defs>
						<clipPath id="SVGID_18_">
							<use xlink:href="#SVGID_17_"  style="overflow:visible;"/>
						</clipPath>
						<g class="st15">
							<path class="st4" d="M293.9,287.7v0.8c-0.4,0.1-0.9,0.1-1.3,0.1c-2,0-4-0.8-5.5-2.2v-0.8c1.5,1.4,3.5,2.2,5.5,2.2
								C293.1,287.8,293.5,287.7,293.9,287.7"/>
						</g>
					</g>
				</g>
				<g class="st1">
					<g>
						<defs>
							<path id="SVGID_19_" d="M267.5,290.3v0.8c-1.3-0.2-2.4-0.5-3.5-0.8v-0.8C265.1,289.9,266.2,290.1,267.5,290.3z"/>
						</defs>
						<clipPath id="SVGID_20_">
							<use xlink:href="#SVGID_19_"  style="overflow:visible;"/>
						</clipPath>
						<g class="st16">
							<path class="st4" d="M267.5,290.3v0.8c-1.3-0.2-2.4-0.5-3.5-0.8v-0.8C265.1,289.9,266.2,290.1,267.5,290.3"/>
						</g>
					</g>
				</g>
				<g class="st1">
					<g>
						<defs>
							<path id="SVGID_21_" d="M285.5,284v0.8c-1.9,3.4-6.4,6.7-13.5,6.7c-1.4,0-2.8-0.1-4.4-0.4v-0.8c1.6,0.3,3,0.4,4.4,0.4
								C279.1,290.7,283.6,287.4,285.5,284z"/>
						</defs>
						<clipPath id="SVGID_22_">
							<use xlink:href="#SVGID_21_"  style="overflow:visible;"/>
						</clipPath>
						<g class="st17">
							<path class="st9" d="M285.5,284v0.8c0,0,0,0,0,0.1V284L285.5,284"/>
							<path class="st4" d="M285.5,284v0.8c-1.9,3.4-6.4,6.7-13.5,6.7c-1.4,0-2.8-0.1-4.4-0.4v-0.8c1.6,0.3,3,0.4,4.4,0.4
								C279,290.7,283.5,287.5,285.5,284"/>
						</g>
					</g>
				</g>
				<g class="st1">
					<g>
						<defs>
							<path id="SVGID_23_" d="M264,289.5v0.8c-1.3,1.8-3.3,3-5.5,3.3v-0.8C260.8,292.6,262.7,291.4,264,289.5z"/>
						</defs>
						<clipPath id="SVGID_24_">
							<use xlink:href="#SVGID_23_"  style="overflow:visible;"/>
						</clipPath>
						<g class="st18">
							<path class="st4" d="M264,289.5v0.8c-1.3,1.8-3.3,3-5.5,3.3v-0.8C260.8,292.6,262.7,291.4,264,289.5"/>
						</g>
					</g>
				</g>
				<g>
					<polygon class="st2" points="258.5,292.9 258.5,293.7 156.8,307.2 156.8,306.4 					"/>
				</g>
				<g>
					<polygon class="st2" points="95,311.2 95,312 65.3,281.1 65.3,280.2 					"/>
				</g>
				<g>
					<polygon class="st2" points="156.8,306.4 156.8,307.2 101.8,314.4 101.8,313.6 					"/>
				</g>
				<g>
					<path class="st19" d="M440.9,249.1c2.2,2.1,3,5.2,2.1,8.1c-0.3,0.8-0.6,1.6-1.1,2.3c-1.2,2.8-3.5,4.6-6.2,5l-50.1,8.2
						l-45.8,7.5l-45.8,7.5c-0.4,0.1-0.9,0.1-1.3,0.1c-2,0-4-0.8-5.5-2.2l-1.6-1.6c-1.9,3.4-6.4,6.7-13.5,6.7c-1.4,0-2.8-0.1-4.4-0.4
						c-1.3-0.2-2.4-0.5-3.5-0.8c-1.3,1.8-3.3,3-5.5,3.3L157,306.3l-54.9,7.2c-0.3,0-0.7,0.1-1,0.1c-2.2,0-4.3-0.9-5.8-2.5l-29.7-31
						c-0.2-0.2-0.5-0.4-0.7-0.6l-2.8-2.9L37.2,251c-2.3-2.4-2.9-6-1.4-9c1.4-4,3.9-6,6.9-6.4l155.9-20.8c0.4,0,0.7-0.1,1.1-0.1
						c2.2,0,4.2,0.9,5.8,2.4l3.4,3.5l15.2-2.3c1.5-4.5,3.9-6.6,6.9-7.1l141.4-23.1c0.4-0.1,0.9-0.1,1.3-0.1c2,0,4,0.8,5.5,2.2
						l24,22.9c1.9,0.6,3.5,1.8,4.6,3.5l1.1,1.9L440.9,249.1z M381.9,257.2l34.2-5.6L395,231.5c-0.5-0.5-1-1-1.3-1.6
						c-0.6-0.3-1.2-0.7-1.7-1.2l-24.6-23.4l-124.1,20.3c-0.1,0.6-0.2,1.2-0.4,1.7c-0.9,2.9-3.4,5-6.4,5.5l-29.4,4.4
						c-0.4,0.1-0.8,0.1-1.2,0.1c-2.1,0-4.2-0.9-5.7-2.4l-3.5-3.6L58.1,249.6l15.3,15.9c0.2,0.2,0.4,0.4,0.6,0.7l1.5,1.6
						c0.2,0.2,0.5,0.4,0.7,0.6l27.6,28.7l50.9-6.7l91.3-12.1c0-0.8,0.2-1.5,0.4-2.3c1-2.8,3.4-4.9,6.4-5.3l5.2-0.8
						c0.5-0.1,0.9-0.1,1.4-0.1c2,0,3.8,0.7,5.3,2.2c0.2,0.2,0.8,0.6,1.8,1.2c1.2,0.7,2.3,1,3.5,1.2c1.1-1.7,2.2-3.3,3.7-4.5
						c1.3-1.7,3.1-2.8,5.2-3.1l6.5-1c0.4-0.1,0.8-0.1,1.2-0.1c2,0,4,0.8,5.5,2.2l3.2,3.1l41.5-6.7L381.9,257.2"/>
				</g>
				<g class="st1">
					<g>
						<defs>
							<path id="SVGID_25_" d="M101.8,313.6v0.8c-0.3,0-0.7,0.1-1,0.1c-2.2,0-4.3-0.9-5.8-2.5v-0.8c1.5,1.6,3.6,2.5,5.8,2.5
								C101.1,313.6,101.5,313.6,101.8,313.6z"/>
						</defs>
						<clipPath id="SVGID_26_">
							<use xlink:href="#SVGID_25_"  style="overflow:visible;"/>
						</clipPath>
						<g class="st20">
							<path class="st4" d="M101.8,313.6v0.8c-0.3,0-0.7,0.1-1,0.1c-2.2,0-4.3-0.9-5.8-2.5v-0.8c1.5,1.6,3.6,2.5,5.8,2.5
								C101.1,313.6,101.5,313.6,101.8,313.6"/>
						</g>
					</g>
				</g>
			</g>
		</g>
	</g>
	<path class="st21" d="M277.9,274.1L277.9,274.1c2.6,2.6,0.9,6.6-3.1,7.2l0,0c-5.7,0.8-11.5-0.9-15.2-4.6l0,0
		c-2.6-2.6-0.8-6.6,3.2-7.2l0,0C268.5,268.7,274.3,270.5,277.9,274.1z"/>
	<g class="st22">
		<polygon class="st23" points="404.1,94.5 432.6,78.4 446.8,86.5 418.3,102.7 		"/>
		<polygon class="st23" points="361.6,70 390.1,53.8 432.6,78.4 404.1,94.5 		"/>
		<polygon class="st23" points="312,41.4 340.5,25.2 390.1,53.8 361.6,70 		"/>
		<polygon class="st23" points="290.7,70 319,53.7 354.5,74.1 326.2,90.5 		"/>
		<polygon class="st23" points="361.6,110.9 389.9,94.5 425.2,115.1 397,131.4 		"/>
		<polygon class="st23" points="333.2,127.3 361.6,110.9 397,131.4 368.5,147.9 		"/>
		<polygon class="st23" points="283.6,98.6 312,82.3 354.5,106.8 326.2,123.2 		"/>
		<polygon class="st23" points="258.3,113.2 283.6,98.6 326.2,123.2 301,137.7 		"/>
		<polygon class="st23" points="234,127.3 258.3,113.2 301,137.7 276.6,151.8 		"/>
		<polygon class="st23" points="141.9,180.5 184.4,155.9 227,180.5 184.5,205 		"/>
		<polygon class="st23" points="308.3,141.7 333.2,127.3 368.5,147.9 343.7,162.1 		"/>
		<polygon class="st23" points="276.6,160 308.3,141.7 343.7,162.1 312,180.4 		"/>
		<polygon class="st23" points="259.1,170 276.6,160 312,180.4 294.6,190.5 		"/>
		<polygon class="st23" points="234,184.6 259.1,170 294.6,190.5 269.4,205.1 		"/>
		<polygon class="st23" points="108.7,261.1 136.7,244.9 146.1,250.3 118.1,266.5 		"/>
		<polygon class="st23" points="159.4,290.8 187.8,274.4 197.3,279.9 168.9,296.2 		"/>
		<polygon class="st23" points="118.1,266.5 146.1,250.3 187.8,274.4 159.4,290.8 		"/>
		<polygon class="st23" points="84.8,246.8 112.9,230.4 127.1,238.7 98.8,255 		"/>
		<polygon class="st23" points="70.2,238.5 98.7,222.2 112.9,230.4 84.8,246.8 		"/>
		<polygon class="st23" points="42,222.2 70.4,205.8 98.7,222.2 70.2,238.5 		"/>
		<polygon class="st23" points="64.3,274.7 92.8,258.5 177.9,307.3 149.3,323.9 		"/>
		<polygon class="st23" points="50.3,266.7 78.7,250.3 92.6,258.4 64.3,274.7 		"/>
		<polygon class="st23" points="21.5,250.3 50.1,233.8 64.3,242 36.1,258.5 		"/>
		<polygon class="st23" points="219.9,192.7 234,184.6 269.5,205 255.3,213.2 		"/>
		<polygon class="st23" points="163.3,225.6 191.6,209.3 215.4,223 187,239.3 		"/>
		<polygon class="st23" points="255.3,213.2 219.9,192.7 191.6,209.3 215.4,223 187,239.3 198.7,246.1 		"/>
		<polygon class="st23" points="375.8,94.5 382.8,90.5 354.5,74.1 333.2,86.4 347.4,94.5 361.6,86.4 		"/>
		<line class="st23" x1="417.8" y1="103" x2="411.5" y2="106.7"/>
		<line class="st23" x1="105.7" y1="226" x2="127.9" y2="213.4"/>
		<line class="st23" x1="155" y1="255.1" x2="184" y2="238.2"/>
		<line class="st23" x1="50.3" y1="233.7" x2="56.2" y2="230.3"/>
		<line class="st23" x1="164.1" y1="298.8" x2="169" y2="296.1"/>
	</g>
	<polygon class="st24" points="338.5,271.2 293,278.6 262.7,249.6 308.2,242.2 	"/>
	<polygon class="st24" points="302.1,256.8 274.8,261.2 262.7,249.6 290,245.2 	"/>
	<polygon class="st24" points="338.5,271.2 384,263.8 353.7,234.8 308.2,242.2 	"/>
	<polygon class="st24" points="256.7,243.8 347.6,229 323.4,205.8 232.6,220.6 	"/>
	<polygon class="st24" points="219.9,288.9 256.5,284 227.5,254.1 191,259 	"/>
	<polygon class="st24" points="220.8,268.5 239.1,266.1 227.5,254.1 209.3,256.6 	"/>
	<polygon class="st24" points="219.9,288.9 156,297.4 127.2,267.5 191,259 	"/>
	<polygon class="st24" points="156,297.4 101.1,304.6 44,245 98.5,237.7 	"/>
	<polygon class="st24" points="433.6,255.8 384.3,263.8 323.4,205.8 372.8,197.7 	"/>
	<polygon class="st24" points="185.3,253 121.5,261.5 98.5,237.7 162.2,229.2 	"/>
	<polygon class="st24" points="221.8,248.2 185.3,253 162.2,229.2 198.7,224.3 	"/>
	<polygon class="st21" points="353.7,234.8 347.6,229 257.4,243.3 239.7,225.6 208.1,230.3 221.9,248.5 221,248.7 122.6,261.4 
		128.1,267.4 227.5,254.1 250.6,278.1 287,272.7 263.4,249.2 	"/>
	<path class="st25" d="M372.8,197.7l1-2.3l60.9,58l-0.7,1.7c-0.1,0.3-0.5,0.3-0.8,0.1L372.8,197.7z"/>
	<polygon class="st26" points="372.8,197.7 373.8,195.4 233.8,218.3 235.3,220.2 	"/>
	<polygon class="st25" points="232.6,218.1 257.7,241.5 256.7,243.8 231.8,219.9 	"/>
	<polygon class="st24" points="206,228.5 239.1,223.6 238,225.9 207.9,230.4 	"/>
	<polygon class="st25" points="323.4,205.8 324.4,203.5 385.3,261.4 384,263.8 	"/>
	<polygon class="st25" points="199.8,222 222.9,245.9 221.8,248.2 198.7,224.3 	"/>
	<polygon class="st26" points="45.1,242.7 199.8,222 198.7,224.3 44,245 	"/>
	<polygon class="st25" points="186.4,250.7 185.3,253 162.2,229.2 163.3,226.9 	"/>
	<polygon class="st26" points="223.8,246.2 222.8,248.4 121.5,261.5 122.6,259.2 	"/>
	<polygon class="st26" points="228.6,251.8 227.5,254.1 127.2,267.5 128.3,265.2 	"/>
	<polygon class="st25" points="99.6,235.4 157.1,295.1 156,297.4 98.5,237.7 	"/>
	<path class="st25" d="M257.6,281.7l-0.9,2c-0.1,0.2-0.3,0.2-0.4,0.1l-28.7-29.6l1.1-2.3L257.6,281.7z"/>
	<polygon class="st25" points="210.4,254.3 221.9,266.2 220.8,268.5 209.3,256.6 	"/>
	<polygon class="st26" points="240.2,263.8 239.1,266.1 220.8,268.5 221.9,266.2 	"/>
	<polygon class="st26" points="348.6,226.6 347.6,229 256.7,243.8 257.7,241.5 	"/>
	<polygon class="st26" points="354.7,232.4 353.7,234.8 262.7,249.6 263.7,247.3 	"/>
	<polygon class="st25" points="192.1,256.7 221,286.6 219.9,288.9 191,259 	"/>
	<polygon class="st25" points="291,242.8 303.1,254.4 302.1,256.8 290,245.2 	"/>
	<polygon class="st25" points="309.2,239.9 339.5,268.9 338.5,271.2 308.2,242.2 	"/>
	<polygon class="st26" points="275.8,258.9 274.8,261.2 303.2,256.7 304.1,254.7 	"/>
	<polygon class="st25" points="293,278.6 294,276.3 262.8,247 261.9,248.9 	"/>
	<polygon class="st26" points="435.5,253.7 434.7,255.5 293,278.6 294,276.3 	"/>
	<polygon class="st26" points="288.1,270.4 287,272.7 278,274 278.7,271.8 	"/>
	<path class="st27" d="M293.8,276.8l-0.2-0.2l-31-29.7l46.7-7.6l31.2,29.9L293.8,276.8z M264.8,247.6l29.3,28.2l44.3-7.2L309,240.4
		L264.8,247.6z"/>
	<path class="st27" d="M275.7,259.4l-13-12.5l28.5-4.6l13,12.5L275.7,259.4z M264.8,247.6l11.2,10.7l26-4.2l-11.2-10.7L264.8,247.6z
		"/>
	<path class="st27" d="M339.3,269.4l-31.2-29.9l46.7-7.6l0.2,0.2l31.1,29.7L339.3,269.4z M310.2,240.2l29.4,28.2l44.3-7.2L354.5,233
		L310.2,240.2z"/>
	<polygon class="st26" points="258.6,282.1 257.8,283.8 101.1,304.6 102.2,302.3 	"/>
	<path class="st27" d="M257.5,242l-25-24l92-15l0.2,0.2l25,23.9L257.5,242z M234.6,218.6l23.2,22.3l89.7-14.6L324.2,204L234.6,218.6
		z"/>
	<path class="st27" d="M220.8,287.1L191,256.3l37.7-5l0.2,0.2l29.6,30.6L220.8,287.1z M193.2,257.1l28,29l35.3-4.7l-28.1-29
		L193.2,257.1z"/>
	<path class="st27" d="M221.8,266.8L209.4,254l19.5-2.6l12.4,12.8L221.8,266.8z M211.4,254.6l10.7,11.1l17-2.3l-10.7-11.1
		L211.4,254.6z"/>
	<path class="st27" d="M157,295.6l-0.2-0.2l-29.5-30.6l65-8.7l29.8,30.8L157,295.6z M129.4,265.6l27.9,29l62.7-8.3l-28-29
		L129.4,265.6z"/>
	<path class="st27" d="M385.1,262l-61.8-58.8l50.7-8.3l0.2,0.2l61.6,58.7L385.1,262z M325.4,203.8l60,57.1l48.1-7.8l-59.9-57.2
		L325.4,203.8z"/>
	<path class="st27" d="M122.4,259.8l-0.2-0.2L98.6,235l64.9-8.7l23.9,24.7l-1,0.1L122.4,259.8z M100.7,235.8l22.1,22.9l62.5-8.3
		l-22.2-23L100.7,235.8z"/>
	<path class="st27" d="M186.2,251.3l-23.9-24.7l37.7-5l24,24.7L186.2,251.3z M164.4,227.3l22.2,23l35.3-4.7l-22.2-23L164.4,227.3z"
		/>
	
		<rect x="205.9" y="225.5" transform="matrix(0.9892 -0.1466 0.1466 0.9892 -30.7263 35.0735)" class="st27" width="33.4" height="1"/>
	<polygon class="st25" points="44.2,242.4 102.2,302.3 101.1,304.6 43.3,244.3 	"/>
	<path class="st26" d="M280.3,276.4l-1.5,2.6c0,0-1.9,3.6-9.6,2.3c-6.2-1.1-9.8-4.5-9.8-4.5l1.2-2.4c0,0,3.7,3.7,8.8,4.6
		C277.5,280.6,280.3,276.4,280.3,276.4z"/>
	<path class="st25" d="M279.2,276.5c0.1-1.4-2.2-3.2-2.2-3.2l0.7-1.7c0,0,2.6,1.8,2.1,3.9C279.7,275.9,279.7,276.2,279.2,276.5z"/>
	<polygon class="st26" points="260.6,274.4 259.4,276.8 253.7,277.7 251.8,275.8 	"/>
	<ellipse class="st21" cx="268.7" cy="275.5" rx="0.1" ry="0.1"/>
	<path class="st27" d="M273,279.9c-4.8,0-9.5-1.8-12.7-4.9l-8.6,1.3l-0.1-1l9.1-1.3l0.2,0.2c3.6,3.6,9.4,5.4,14.8,4.6
		c1.8-0.3,3.2-1.3,3.7-2.8c0.4-1.3,0.1-2.7-1-3.7l-0.7-0.7l10.1-1.5l0.2,1l-8.2,1.2c0.8,1.2,1.1,2.6,0.6,4c-0.6,1.8-2.3,3.2-4.5,3.5
		C274.9,279.9,273.9,279.9,273,279.9z"/>
	<g>
		<polygon class="st21" points="235.6,258.1 234.3,258.4 233.4,260.3 230.6,257.4 230.7,257.3 232.6,255.2 234,255.4 		"/>
		<polygon class="st25" points="232.6,255.3 231.5,255.5 230.6,257.4 231.7,257.2 		"/>
	</g>
	<g>
		<polygon class="st24" points="274.9,257.2 273.6,257.5 272.7,259.3 269.9,256.5 270,256.5 271.9,254.4 273.2,254.6 		"/>
		<polygon class="st25" points="271.8,254.4 270.7,254.6 269.9,256.5 270.9,256.3 		"/>
	</g>
	<g>
		<polygon class="st24" points="353.4,230.3 352.1,230.6 351.2,232.5 348.3,229.7 348.4,229.7 350.3,227.5 351.7,227.7 		"/>
		<polygon class="st25" points="350.4,227.6 349.2,227.8 348.3,229.7 349.5,229.5 		"/>
	</g>
	<g>
		<polygon class="st28" points="402.9,222.4 401.6,222.6 400.7,224.4 397.9,221.7 398,221.6 400,219.5 401.2,219.7 		"/>
		<polygon class="st25" points="399.9,219.6 398.7,219.8 397.9,221.6 399.1,221.4 		"/>
		<g>
			<polygon class="st29" points="400.9,224.6 400.7,224.4 401.6,222.6 401.7,222.7 			"/>
		</g>
	</g>
	<g>
		<polygon class="st21" points="298.1,240.5 299.3,242 298.5,243.9 302.6,243.2 302.6,240.5 302.5,239.6 		"/>
		<polygon class="st25" points="302.6,240.5 303.3,241.4 302.6,243.1 301.8,242.3 		"/>
	</g>
	<g>
		<polygon class="st21" points="198.8,254.7 200,256.1 199.2,258 203.3,257.4 203.2,254.8 203.1,253.9 		"/>
		<polygon class="st25" points="203.2,254.8 204,255.6 203.2,257.4 202.5,256.6 		"/>
	</g>
	<g>
		<polygon class="st21" points="178,257.4 179.2,258.9 178.4,260.8 182.5,260.2 182.5,257.5 182.3,256.7 		"/>
		<polygon class="st25" points="182.5,257.6 183.2,258.4 182.5,260.2 181.7,259.4 		"/>
	</g>
	<g>
		<polygon class="st24" points="171.9,251.6 173.2,253 172.3,255.1 176.3,254.5 176.3,251.8 176.5,251.1 		"/>
		<polygon class="st25" points="176.4,251.6 177.2,252.5 176.3,254.5 175.5,253.7 		"/>
	</g>
	<g>
		<polygon class="st21" points="329.4,235.4 330.6,236.9 329.8,238.8 333.9,238.1 333.9,235.4 333.7,234.5 		"/>
		<polygon class="st25" points="333.9,235.4 334.6,236.3 333.9,238 333.1,237.2 		"/>
	</g>
	<g>
		<polygon class="st24" points="292.7,234.6 293.9,236 293.1,238 297.2,237.3 297.2,234.6 297.1,233.7 		"/>
		<polygon class="st25" points="297.2,234.6 297.9,235.4 297.2,237.2 296.4,236.4 		"/>
	</g>
	<path class="st27" d="M102,302.8l-0.2-0.2L44,242.3l55.7-7.5l0.2,0.2l58.2,60.4L102,302.8z M46.1,243.1l56.3,58.7l53.7-7L99.4,236
		L46.1,243.1z"/>
	<g>
		<polygon class="st24" points="72.9,270.6 71.6,271 70.7,272.9 67.9,270 68.2,270 70.1,267.7 71.3,268 		"/>
		<polygon class="st25" points="69.9,267.9 68.8,268 68,269.9 69.1,269.8 		"/>
	</g>
	<g>
		<polygon class="st21" points="127.7,263.6 126.4,263.9 125.5,265.8 122.7,262.9 122.8,262.8 124.6,261.2 126.1,261 		"/>
		<polygon class="st25" points="124.7,260.8 123.6,261 122.8,262.9 123.8,262.7 		"/>
		<polygon class="st24" points="125.1,261 124.6,261.1 124.8,260.6 		"/>
	</g>
</g>
<g id="Layer_5">
	<g class="st0">
		
			<image style="overflow:visible;enable-background:new    ;" width="2025" height="850" xlink:href="22C468AC326D2B.png"  transform="matrix(0.2392 0 0 0.2392 -6.4827 10.6231)">
		</image>
	</g>
	<g>
		<g>
			<g class="st1">
				<g class="st1">
					<g>
						<defs>
							<path id="SVGID_27_" d="M29.3,98.3v-0.8c0,1.9,0.7,3.8,2.2,5.3v0.8C30.1,102.1,29.3,100.2,29.3,98.3z"/>
						</defs>
						<clipPath id="SVGID_28_">
							<use xlink:href="#SVGID_27_"  style="overflow:visible;"/>
						</clipPath>
						<g class="st30">
							<path class="st4" d="M31.5,102.7v0.8c-1.4-1.4-2.2-3.3-2.2-5.3v-0.8C29.3,99.4,30.1,101.3,31.5,102.7"/>
						</g>
					</g>
				</g>
				<g class="st1">
					<g>
						<defs>
							<path id="SVGID_29_" d="M442,100v0.8c0,0.7-0.1,1.4-0.3,2.1c-0.2,0.8-0.6,1.6-1.1,2.3v-0.8c0.5-0.7,0.9-1.4,1.1-2.3
								C441.9,101.4,442,100.7,442,100z"/>
						</defs>
						<clipPath id="SVGID_30_">
							<use xlink:href="#SVGID_29_"  style="overflow:visible;"/>
						</clipPath>
						<g class="st31">
							<path class="st7" d="M442,100v0.8c0,0.4,0,0.7-0.1,1.1v-0.8C442,100.7,442,100.4,442,100"/>
							<path class="st8" d="M441.9,101.1v0.8c-0.1,0.3-0.1,0.7-0.2,1c0,0.1,0,0.2-0.1,0.2v-0.8c0-0.1,0.1-0.2,0.1-0.2
								C441.8,101.8,441.9,101.5,441.9,101.1"/>
							<path class="st9" d="M441.6,102.4v0.8c-0.2,0.5-0.4,0.9-0.6,1.4v-0.8C441.3,103.3,441.5,102.9,441.6,102.4"/>
							<path class="st4" d="M441,103.7v0.8c-0.1,0.2-0.3,0.4-0.4,0.7v-0.8C440.8,104.2,440.9,104,441,103.7"/>
						</g>
					</g>
				</g>
				<g class="st1">
					<g>
						<defs>
							<path id="SVGID_31_" d="M440.6,104.4v0.8c-1.2,2.8-3.3,4.4-5.8,4.8v-0.8C437.3,108.8,439.4,107.1,440.6,104.4z"/>
						</defs>
						<clipPath id="SVGID_32_">
							<use xlink:href="#SVGID_31_"  style="overflow:visible;"/>
						</clipPath>
						<g class="st32">
							<path class="st9" d="M440.6,104.4v0.8c-0.1,0.3-0.3,0.6-0.5,0.9v-0.8C440.3,105,440.5,104.7,440.6,104.4"/>
							<path class="st4" d="M440.2,105.3v0.8c-1.3,2.2-3.1,3.5-5.3,3.9v-0.8C437,108.8,438.9,107.5,440.2,105.3"/>
						</g>
					</g>
				</g>
				<g>
					<polygon class="st2" points="434.9,109.2 434.9,110.1 399,116.5 399,115.6 					"/>
				</g>
				<g>
					<polygon class="st2" points="399,115.6 399,116.5 337.4,127.4 337.4,126.6 					"/>
				</g>
				<g>
					<polygon class="st2" points="56.3,128 56.3,128.8 31.5,103.5 31.5,102.7 					"/>
				</g>
				<g>
					<polygon class="st2" points="59.9,131.5 59.9,132.4 56.3,128.8 56.3,128 					"/>
				</g>
				<g>
					<polygon class="st33" points="282.1,130.9 282.1,131.8 281.6,132.8 281.6,131.9 					"/>
				</g>
				<g>
					<polygon class="st2" points="284.3,133 284.3,133.8 282.1,131.8 282.1,130.9 					"/>
				</g>
				<g>
					<polygon class="st2" points="337.4,126.6 337.4,127.4 290.8,135.7 290.8,134.9 					"/>
				</g>
				<g class="st1">
					<g>
						<defs>
							<path id="SVGID_33_" d="M290.8,134.9v0.8c-0.4,0.1-0.9,0.1-1.3,0.1c-1.9,0-3.7-0.7-5.1-2V133c1.4,1.3,3.2,2,5.1,2
								C289.9,135,290.3,135,290.8,134.9z"/>
						</defs>
						<clipPath id="SVGID_34_">
							<use xlink:href="#SVGID_33_"  style="overflow:visible;"/>
						</clipPath>
						<g class="st34">
							<path class="st4" d="M290.8,134.9v0.8c-0.4,0.1-0.9,0.1-1.3,0.1c-1.9,0-3.7-0.7-5.1-2V133c1.4,1.3,3.2,2,5.1,2
								C289.9,135,290.3,135,290.8,134.9"/>
						</g>
					</g>
				</g>
				<g class="st1">
					<g>
						<defs>
							<path id="SVGID_35_" d="M264.2,138v0.8c-1.5-0.2-2.8-0.5-4-0.9v-0.8C261.5,137.5,262.7,137.8,264.2,138z"/>
						</defs>
						<clipPath id="SVGID_36_">
							<use xlink:href="#SVGID_35_"  style="overflow:visible;"/>
						</clipPath>
						<g class="st35">
							<path class="st4" d="M264.2,138v0.8c-1.5-0.2-2.8-0.5-4-0.9v-0.8C261.5,137.5,262.7,137.8,264.2,138"/>
						</g>
					</g>
				</g>
				<g class="st1">
					<g>
						<defs>
							<path id="SVGID_37_" d="M281.6,131.9v0.8c-0.9,1.5-4.4,6.4-13.2,6.4c-1.3,0-2.6-0.1-4.1-0.3V138c1.5,0.2,2.8,0.3,4.1,0.3
								C277.2,138.4,280.7,133.4,281.6,131.9z"/>
						</defs>
						<clipPath id="SVGID_38_">
							<use xlink:href="#SVGID_37_"  style="overflow:visible;"/>
						</clipPath>
						<g class="st36">
							<path class="st4" d="M281.6,131.9v0.8c-0.9,1.5-4.4,6.4-13.2,6.4c-1.3,0-2.6-0.1-4.1-0.3V138c1.5,0.2,2.8,0.3,4.1,0.3
								C277.2,138.4,280.7,133.4,281.6,131.9"/>
						</g>
					</g>
				</g>
				<g class="st1">
					<g>
						<defs>
							<path id="SVGID_39_" d="M260.2,137.2v0.8c-1.1,1.9-3.1,3.2-5.3,3.6v-0.8C257.1,140.4,259.1,139.1,260.2,137.2z"/>
						</defs>
						<clipPath id="SVGID_40_">
							<use xlink:href="#SVGID_39_"  style="overflow:visible;"/>
						</clipPath>
						<g class="st37">
							<path class="st4" d="M260.2,137.2v0.8c-1.1,1.9-3.1,3.2-5.3,3.6v-0.8C257.1,140.4,259.1,139.1,260.2,137.2"/>
						</g>
					</g>
				</g>
				<g>
					<polygon class="st2" points="254.9,140.7 254.9,141.6 151.9,156.9 151.9,156 					"/>
				</g>
				<g class="st1">
					<g>
						<defs>
							<path id="SVGID_41_" d="M151.9,156v0.8c-0.3,0.1-0.7,0.1-1,0.1v-0.8C151.2,156.1,151.5,156.1,151.9,156z"/>
						</defs>
						<clipPath id="SVGID_42_">
							<use xlink:href="#SVGID_41_"  style="overflow:visible;"/>
						</clipPath>
						<g class="st38">
							<path class="st4" d="M151.9,156v0.8c-0.3,0.1-0.7,0.1-1,0.1v-0.8C151.2,156.1,151.5,156.1,151.9,156"/>
						</g>
					</g>
				</g>
				<g>
					<polygon class="st2" points="89.9,162 89.9,162.9 59.9,132.4 59.9,131.5 					"/>
				</g>
				<g>
					<polygon class="st2" points="150.8,156.1 150.8,157 96.4,165 96.4,164.2 					"/>
				</g>
				<g class="st1">
					<g>
						<defs>
							<path id="SVGID_43_" d="M96.4,164.2v0.8c-0.4,0.1-0.7,0.1-1.1,0.1c-2,0-3.9-0.8-5.3-2.2V162c1.4,1.4,3.4,2.2,5.3,2.2
								C95.6,164.3,96,164.2,96.4,164.2z"/>
						</defs>
						<clipPath id="SVGID_44_">
							<use xlink:href="#SVGID_43_"  style="overflow:visible;"/>
						</clipPath>
						<g class="st39">
							<path class="st4" d="M96.4,164.2v0.8c-0.4,0.1-0.7,0.1-1.1,0.1c-2,0-3.9-0.8-5.3-2.2V162c1.4,1.4,3.4,2.2,5.3,2.2
								C95.6,164.3,96,164.2,96.4,164.2"/>
						</g>
					</g>
				</g>
				<g>
					<path class="st19" d="M439.6,94.5c2.1,1.9,2.9,4.9,2.1,7.6c-0.2,0.8-0.6,1.6-1.1,2.3c-1.2,2.8-3.3,4.4-5.8,4.8l-35.9,6.4
						l-61.6,11l-46.6,8.3c-0.4,0.1-0.9,0.1-1.3,0.1c-1.9,0-3.7-0.7-5.1-2l-2.2-2.1l-0.6,1c-0.9,1.5-4.4,6.4-13.2,6.4
						c-1.3,0-2.6-0.1-4.1-0.3s-2.8-0.5-4-0.9c-1.1,1.9-3.1,3.2-5.3,3.6l-103,15.3c-0.3,0.1-0.7,0.1-1,0.1l-54.5,8.1
						c-0.4,0.1-0.7,0.1-1.1,0.1c-2,0-3.9-0.8-5.3-2.2l-30.1-30.5l-3.5-3.5l-24.8-25.3c-2.2-2.2-2.8-5.6-1.4-8.5
						c1.3-3.8,3.6-5.7,6.4-6.1l1-0.2l155.9-24c0.4-0.1,0.8-0.1,1.1-0.1c1.7,0,3.3,0.6,4.6,1.6c0.5,0.3,0.9,0.6,1.3,1l3.6,3.6
						l16.4-2.7l0.8-2c0.8-2.7,3.1-4.7,5.8-5.2l143.4-25.8c0.4-0.1,0.9-0.1,1.3-0.1c1.9,0,3.7,0.7,5.1,2L401.4,59
						c1.9,0.5,3.5,1.7,4.5,3.3l1.2,2L439.6,94.5z"/>
				</g>
			</g>
		</g>
	</g>
	<polygon class="st21" points="235.5,75 203.5,80.3 215.8,96.1 246.7,127.5 283.5,121.5 259.5,98.2 	"/>
	<polygon class="st24" points="432.4,101.8 370.7,44.5 320.4,53.5 320.4,53.5 228.3,70.1 251.8,92.1 251.8,92.1 289.5,127.3 
		335.7,119.1 337.1,115.8 337.4,116.1 379.8,108.5 382.2,110.7 	"/>
	<path class="st21" d="M274.2,123L274.2,123c2.7,2.6,0.9,6.6-3.2,7.3l0,0c-5.8,0.9-11.6-0.7-15.4-4.4l0,0c-2.6-2.6-0.8-6.6,3.2-7.3
		l0,0C264.7,117.7,270.5,119.4,274.2,123z"/>
	<polygon class="st24" points="233.8,75.3 250.3,90.5 215.8,96.1 200.4,81 	"/>
	<polygon class="st24" points="298.8,105.2 271.1,110.1 258.8,98.7 286.5,93.7 	"/>
	<polygon class="st24" points="215.4,138.9 252.5,133.4 223.2,103.8 186.2,109.4 	"/>
	<polygon class="st24" points="216.4,118.4 234.9,115.6 223.2,103.8 204.7,106.6 	"/>
	<polygon class="st24" points="215.4,138.9 150.8,148.5 121.6,119 186.2,109.4 	"/>
	<polygon class="st24" points="253.8,133.1 95.3,156.6 37.6,97.9 193.9,74.4 	"/>
	<polygon class="st24" points="217.3,97.9 180.4,103.5 157,79.9 193.9,74.4 	"/>
	<path class="st25" d="M370.7,44.5l1-2.4l61.8,57.3l-0.7,1.7c-0.1,0.3-0.5,0.4-0.8,0.1L370.7,44.5z"/>
	<polygon class="st26" points="370.7,44.5 371.7,42.1 229.6,67.7 231,69.6 	"/>
	<polygon class="st25" points="195,72.1 227.2,105 226.3,107 193.9,74.4 	"/>
	<polygon class="st26" points="38.7,95.6 195,72.1 193.9,74.4 37.6,97.9 	"/>
	<polygon class="st25" points="181.5,101.1 180.4,103.5 157,79.9 158.1,77.6 	"/>
	<polygon class="st26" points="218.5,96 217.6,98.2 180.3,103.4 181.5,101.1 	"/>
	<polygon class="st26" points="224.3,101.5 223.2,103.8 186.2,109.4 187.3,107 	"/>
	<path class="st25" d="M253.6,131l-1,2c-0.1,0.2-0.3,0.2-0.4,0.1l-29-29.2l1.1-2.3L253.6,131z"/>
	<polygon class="st25" points="205.8,104.3 217.5,116.1 216.4,118.4 204.7,106.6 	"/>
	<polygon class="st26" points="236,113.3 234.9,115.6 198,121.2 199,118.8 	"/>
	<polygon class="st26" points="281.5,86 280.3,88 252.7,92.9 253.7,90.6 	"/>
	<polygon class="st26" points="287.5,91.3 286.5,93.7 258.8,98.7 259.9,96.3 	"/>
	<polygon class="st26" points="268.4,73.9 267.4,76.2 242.8,80.4 240.8,78.8 	"/>
	<polygon class="st25" points="186.3,106.7 199,118.8 198,121.2 185.5,108.8 	"/>
	<polygon class="st25" points="287.5,91.3 299.8,102.8 298.8,105.2 286.5,93.7 	"/>
	<polygon class="st25" points="268.4,73.9 280.5,85.8 277.9,86.1 267.4,76.2 	"/>
	<polygon class="st26" points="272.1,107.8 271.1,110.1 299.9,105.1 300.8,103.1 	"/>
	<polygon class="st26" points="434.4,99.7 433.5,101.6 289.5,127.3 290.5,124.9 	"/>
	<polygon class="st25" points="228.5,67.5 290.5,124.9 289.5,127.3 227.7,69.5 	"/>
	<polygon class="st26" points="284.5,119.1 283.5,121.5 274.3,122.9 275,120.7 	"/>
	<polygon class="st26" points="201.4,78.4 234.9,72.9 233.8,75.3 203.2,80.3 	"/>
	<path class="st27" d="M272.1,108.3l-0.2-0.2L258.8,96l28.9-5.2l13.2,12.3L272.1,108.3z M260.9,96.6l11.5,10.6l26.3-4.7l-11.4-10.6
		L260.9,96.6z"/>
	<polygon class="st26" points="254.6,131.3 253.8,133.1 95.3,156.6 96.4,154.3 	"/>
	<polygon class="st26" points="275.5,110.9 274.4,113.3 241.5,118.6 239.9,116.5 	"/>
	<path class="st27" d="M253.6,91.1l-13.7-13l28.8-4.7l12.9,12.8L253.6,91.1z M242,78.7L253.9,90l25.6-4.6l-11.2-11L242,78.7z"/>
	<path class="st27" d="M198.8,119.4l-12.6-12.7l38.2-5.7l12.6,12.7L198.8,119.4z M188.4,107.4l10.8,10.9L235,113l-10.9-11
		L188.4,107.4z"/>
	<path class="st27" d="M217.3,116.6l-12.6-12.7l19.7-2.9l12.6,12.7L217.3,116.6z M206.8,104.6l10.8,10.9l17.3-2.6L224.1,102
		L206.8,104.6z"/>
	<path class="st27" d="M290.3,125.5l-0.2-0.2l-61.6-57.9l143.4-25.9l0.2,0.2l62.5,58L290.3,125.5z M230.6,68l60,56.4l141.7-25.3
		l-60.8-56.5L230.6,68z"/>
	<path class="st27" d="M181.3,101.7l-0.2-0.2l-24-24.2l38.1-5.7L219.4,96L181.3,101.7z M159.2,78l22.5,22.7l35.6-5.3l-22.4-22.7
		L159.2,78z"/>
	
		<rect x="201.2" y="75.2" transform="matrix(0.9866 -0.1631 0.1631 0.9866 -9.4259 36.5941)" class="st27" width="33.9" height="1"/>
	<polygon class="st25" points="37.7,95.3 96.4,154.3 95.3,156.6 36.8,97.2 	"/>
	<path class="st26" d="M276.6,125.3l-1.5,2.7c0,0-1.9,3.6-9.7,2.4c-6.3-1-9.9-4.4-9.9-4.4l1.2-2.4c0,0,3.7,3.7,8.9,4.5
		C273.7,129.6,276.6,125.3,276.6,125.3z"/>
	<path class="st25" d="M275.5,125.4c0.1-1.5-2.2-3.2-2.2-3.2l0.7-1.7c0,0,2.6,1.8,2.1,3.9C276,124.8,276,125.1,275.5,125.4z"/>
	<polygon class="st26" points="256.6,123.6 255.5,126.1 249.6,127 247.8,125.2 	"/>
	<ellipse class="st21" cx="264.9" cy="124.5" rx="0.1" ry="0.1"/>
	<path class="st27" d="M268.8,128.9c-4.7,0-9.3-1.7-12.5-4.7l-8.7,1.4l-0.2-1l9.2-1.5l0.2,0.2c3.6,3.5,9.5,5.2,15,4.3
		c1.8-0.3,3.3-1.4,3.7-3c0.4-1.3,0.1-2.7-1-3.7l-0.7-0.7l10.2-1.7l0.2,1L276,121c0.8,1.2,1.1,2.6,0.6,4c-0.6,1.9-2.3,3.3-4.5,3.7
		C271,128.9,269.9,128.9,268.8,128.9z"/>
	<g>
		<polygon class="st24" points="266.8,101.3 264.9,101.7 264,103.6 261.1,100.9 261.2,100.8 263.2,98.7 263.3,98.3 		"/>
		<polygon class="st26" points="263.1,98.7 261.9,98.9 261.1,100.8 262.3,100.6 		"/>
	</g>
	<g>
		<polygon class="st24" points="259,94.5 257.7,94.8 256.8,96.8 253.9,94 254,93.9 255.8,92.5 257.5,92.2 		"/>
		<polygon class="st26" points="256,91.8 254.8,92.1 253.9,94 255.2,93.8 		"/>
		<polygon class="st26" points="256.1,91.8 255.9,92.3 256.5,92.2 		"/>
	</g>
	<g>
		<polygon class="st28" points="401.2,68.8 399.9,69 399.1,70.9 396.1,68.1 396.2,68 398.3,65.9 399.6,66.1 		"/>
		<polygon class="st26" points="398.2,66 397,66.3 396.2,68.1 397.4,67.9 		"/>
	</g>
	<polygon class="st26" points="251.4,88.2 250.3,90.5 218.2,95.7 216.7,93.9 	"/>
	<g>
		<polygon class="st24" points="194,104.9 195.3,106.3 194.4,108.2 198.6,107.6 198.6,104.9 198.4,104 		"/>
		<polygon class="st25" points="198.5,104.9 199.3,105.7 198.5,107.5 197.8,106.7 		"/>
	</g>
	<g>
		<polygon class="st24" points="206,96.4 207.3,97.8 206.3,100 210.5,99.4 210.5,96.6 210.7,95.8 		"/>
		<polygon class="st25" points="210.5,96.4 211.3,97.2 210.3,99.3 209.6,98.5 		"/>
	</g>
	<g>
		<polygon class="st24" points="258.3,88.6 259.5,90 258.7,92 262.9,91.2 262.9,88.5 262.7,87.7 		"/>
		<polygon class="st25" points="262.9,88.6 263.6,89.4 262.9,91.2 262.1,90.4 		"/>
	</g>
	
		<rect x="239.1" y="113" transform="matrix(0.9853 -0.1707 0.1707 0.9853 -15.6003 45.5684)" class="st27" width="36.2" height="1"/>
	
		<rect x="216.3" y="90.7" transform="matrix(0.9853 -0.1711 0.1711 0.9853 -12.1527 41.3737)" class="st27" width="35.3" height="1"/>
	<path class="st27" d="M96.2,154.8l-0.2-0.2L37.6,95.2l1-0.1l156.1-23.9l60,60.2l-1,0.1L96.2,154.8z M39.7,95.9l56.9,57.8l156-23.1
		l-58.3-58.4L39.7,95.9z"/>
	<g>
		<polygon class="st21" points="223.5,99.8 222.2,100.2 221.6,101.4 220.8,101.6 218.4,99.2 218.6,99.1 220.6,96.9 221.9,97.2 		"/>
		<polygon class="st26" points="220.4,97.1 219.3,97.3 218.5,99.2 219.6,99 		"/>
	</g>
	<g>
		<polygon class="st24" points="232.1,90.3 233.3,91.8 232.5,93.5 236.7,92.8 236.6,90.3 236.5,89.4 		"/>
		<polygon class="st25" points="236.6,90.3 237.4,91.1 236.7,92.8 235.9,92 		"/>
	</g>
	<g>
		<polygon class="st21" points="231.4,107.7 230,108 229.1,109.9 226.2,107.1 226.4,107 228.3,104.8 229.7,105 		"/>
		<polygon class="st26" points="228.3,104.9 227.2,105.1 226.3,107 227.4,106.9 		"/>
	</g>
	<g>
		<polygon class="st24" points="66.8,123.1 65.5,123.5 64.5,125.4 61.7,122.5 62,122.5 63.9,120.2 65.2,120.5 		"/>
		<polygon class="st25" points="63.7,120.4 62.6,120.6 61.8,122.5 62.9,122.3 		"/>
	</g>
</g>
<g id="Portals_1_" class="st22">
	<line id="Stair.1.4BENHAMG" class="st40" x1="273.5" y1="158.5" x2="276.1" y2="156.9"/>
	<line id="Elev.1.4BENHAMG_1_" class="st40" x1="269.6" y1="180.6" x2="272.2" y2="182.1"/>
	<line id="Elev.2.4BENHAMG" class="st40" x1="226.3" y1="181.3" x2="228.9" y2="179.8"/>
	<line id="Elev.3.4BENHAMG" class="st40" x1="103.6" y1="237.4" x2="106.2" y2="235.9"/>
	<line id="Elev.4.4BENHAMG" class="st40" x1="358.2" y1="91.7" x2="360.8" y2="90.2"/>
</g>
<g id="Doors" class="st22">
	<line id="_x34_BENHAMG.01.1" class="st41" x1="220.5" y1="192.4" x2="218.4" y2="191.2"/>
	<line id="_x34_BENHAMG.02.1" class="st41" x1="204.1" y1="200.1" x2="205.8" y2="201.1"/>
	<line id="_x34_BENHAMG.04.1_1_" class="st41" x1="175.7" y1="183.7" x2="177.5" y2="184.7"/>
	<line id="_x34_BENHAMG.03.1" class="st41" x1="135.9" y1="220" x2="137.8" y2="218.9"/>
	<line id="_x34_BENHAMG.03.2" class="st41" x1="113.2" y1="231.7" x2="115.1" y2="230.6"/>
	<line id="_x34_BENHAMG.05.1" class="st41" x1="271.5" y1="130.9" x2="269.6" y2="129.8"/>
	<line id="_x34_BENHAMG.07.1" class="st41" x1="321.4" y1="133.3" x2="319" y2="131.9"/>
	<line id="_x34_BENHAMG.08.1" class="st41" x1="297.7" y1="147.8" x2="295.3" y2="146.4"/>
	<line id="_x34_BENHAMG.06.1" class="st41" x1="334" y1="105.5" x2="331.9" y2="106.8"/>
	<line id="_x34_BENHAMG.06.2" class="st41" x1="351.4" y1="95.2" x2="349.2" y2="96.4"/>
</g>
<g id="Paths_1_" class="st22">
	<g id="Paths" class="st42">
		<line class="st43" x1="260.1" y1="174.5" x2="269.6" y2="180.6"/>
		<line class="st43" x1="263.1" y1="165.4" x2="260.1" y2="174.5"/>
		<line class="st43" x1="241.2" y1="160.3" x2="260.1" y2="174.5"/>
		<line class="st43" x1="241.6" y1="171.3" x2="260.1" y2="174.5"/>
		<line class="st43" x1="241.2" y1="160.3" x2="241.6" y2="171.3"/>
		<line class="st43" x1="204.9" y1="181.4" x2="218.4" y2="191.2"/>
		<line class="st43" x1="204.9" y1="181.4" x2="188.8" y2="190.3"/>
		<line class="st43" x1="204.1" y1="200.1" x2="188.8" y2="190.3"/>
		<line class="st43" x1="188.8" y1="190.3" x2="186.7" y2="191.5"/>
		<line class="st43" x1="186.7" y1="191.5" x2="137.8" y2="218.9"/>
		<line class="st43" x1="186.7" y1="191.5" x2="177.5" y2="184.7"/>
		<line class="st43" x1="113.2" y1="231.7" x2="106.2" y2="235.9"/>
		<line class="st43" x1="241.2" y1="160.3" x2="204.9" y2="181.4"/>
		<line class="st43" x1="228.9" y1="179.8" x2="241.6" y2="171.3"/>
		<line class="st43" x1="263.1" y1="165.4" x2="273.5" y2="158.5"/>
		<line class="st43" x1="241.2" y1="160.3" x2="280.3" y2="137.7"/>
		<line class="st43" x1="241.2" y1="160.3" x2="263.1" y2="165.4"/>
		<line class="st43" x1="305.5" y1="122.4" x2="319" y2="131.9"/>
		<line class="st43" x1="280.3" y1="137.7" x2="281.2" y2="137.3"/>
		<line class="st43" x1="281.2" y1="137.3" x2="305.5" y2="122.4"/>
		<line class="st43" x1="305.5" y1="122.4" x2="331.9" y2="106.8"/>
		<line class="st43" x1="351.4" y1="95.2" x2="358.2" y2="91.7"/>
		<line class="st43" x1="271.5" y1="130.9" x2="281.2" y2="137.3"/>
		<line class="st43" x1="280.1" y1="137.8" x2="295.3" y2="146.4"/>
	</g>
</g>
<polygon class="st24" points="243.7,80.3 267.4,76.2 277.9,86.1 253.9,90 "/>
<polygon class="st24" points="189.8,108.8 204.7,106.6 214.1,116.1 199.2,118.3 "/>
<polygon class="st24" points="223.2,103.9 232.5,113.3 217.6,115.5 208.2,106.1 "/>
</svg>
