<?xml version="1.0" encoding="utf-8"?>
<!-- Generator: Adobe Illustrator 21.1.0, SVG Export Plug-In . SVG Version: 6.00 Build 0)  -->
<!DOCTYPE svg PUBLIC "-//W3C//DTD SVG 1.1//EN" "http://www.w3.org/Graphics/SVG/1.1/DTD/svg11.dtd">
<svg version="1.1" xmlns="http://www.w3.org/2000/svg" xmlns:xlink="http://www.w3.org/1999/xlink" x="0px" y="0px"
	 viewBox="0 0 472.7 347.9" style="enable-background:new 0 0 472.7 347.9;" xml:space="preserve">
<style type="text/css">
	.st0{display:none;}
	.st1{display:inline;fill:none;stroke:#58595B;stroke-miterlimit:10;}
	.st2{opacity:0.69;}
	.st3{enable-background:new    ;}
	.st4{clip-path:url(#SVGID_2_);enable-background:new    ;}
	.st5{fill:#7B8487;}
	.st6{fill:#788184;}
	.st7{clip-path:url(#SVGID_4_);enable-background:new    ;}
	.st8{fill:#838D90;}
	.st9{fill:#808A8D;}
	.st10{fill:#7D878A;}
	.st11{clip-path:url(#SVGID_6_);enable-background:new    ;}
	.st12{clip-path:url(#SVGID_8_);enable-background:new    ;}
	.st13{clip-path:url(#SVGID_10_);enable-background:new    ;}
	.st14{clip-path:url(#SVGID_12_);enable-background:new    ;}
	.st15{clip-path:url(#SVGID_14_);enable-background:new    ;}
	.st16{fill:#AFBBBE;}
	.st17{fill:#B7B8AC;}
	.st18{fill:#D4D4D4;}
	.st19{fill:#BCBCBC;}
	.st20{fill:#9D9D9E;}
	.st21{fill:#B9C1C3;}
	.st22{fill:#A9ABAE;}
	
		.st23{fill:none;stroke:#AA3639;stroke-width:3.2574;stroke-linecap:round;stroke-linejoin:round;stroke-miterlimit:10;stroke-dasharray:8.143418e-02,4.8861;}
	.st24{display:inline;fill:none;stroke:#595A5C;stroke-miterlimit:10;}
	.st25{clip-path:url(#SVGID_16_);enable-background:new    ;}
	.st26{clip-path:url(#SVGID_18_);enable-background:new    ;}
	.st27{clip-path:url(#SVGID_20_);enable-background:new    ;}
	.st28{clip-path:url(#SVGID_22_);enable-background:new    ;}
	.st29{clip-path:url(#SVGID_24_);enable-background:new    ;}
	.st30{clip-path:url(#SVGID_26_);enable-background:new    ;}
	.st31{clip-path:url(#SVGID_28_);enable-background:new    ;}
	
		.st32{fill:none;stroke:#A93538;stroke-width:3.2574;stroke-linecap:round;stroke-linejoin:round;stroke-miterlimit:10;stroke-dasharray:8.143418e-02,4.8861;}
	.st33{clip-path:url(#SVGID_30_);enable-background:new    ;}
	.st34{clip-path:url(#SVGID_32_);enable-background:new    ;}
	.st35{clip-path:url(#SVGID_34_);enable-background:new    ;}
	.st36{clip-path:url(#SVGID_36_);enable-background:new    ;}
	.st37{clip-path:url(#SVGID_38_);enable-background:new    ;}
	.st38{clip-path:url(#SVGID_40_);enable-background:new    ;}
	.st39{clip-path:url(#SVGID_42_);enable-background:new    ;}
</style>
<g id="DELTA.G">
	<g class="st0">
		<polygon class="st1" points="404.1,94.5 432.6,78.4 446.8,86.5 418.3,102.7 		"/>
		<polygon class="st1" points="361.6,70 390.1,53.8 432.6,78.4 404.1,94.5 		"/>
		<polygon class="st1" points="312,41.4 340.5,25.2 390.1,53.8 361.6,70 		"/>
		<polygon class="st1" points="290.7,70 319,53.7 354.5,74.1 326.2,90.5 		"/>
		<polygon class="st1" points="361.6,110.9 389.9,94.5 425.2,115.1 397,131.4 		"/>
		<polygon class="st1" points="333.2,127.3 361.6,110.9 397,131.4 368.5,147.9 		"/>
		<polygon class="st1" points="283.6,98.6 312,82.3 354.5,106.8 326.2,123.2 		"/>
		<polygon class="st1" points="258.3,113.2 283.6,98.6 326.2,123.2 301,137.7 		"/>
		<polygon class="st1" points="234,127.3 258.3,113.2 301,137.7 276.6,151.8 		"/>
		<polygon class="st1" points="141.9,180.5 184.4,155.9 227,180.5 184.5,205 		"/>
		<polygon class="st1" points="308.3,141.7 333.2,127.3 368.5,147.9 343.7,162.1 		"/>
		<polygon class="st1" points="276.6,160 308.3,141.7 343.7,162.1 312,180.4 		"/>
		<polygon class="st1" points="259.1,170 276.6,160 312,180.4 294.6,190.5 		"/>
		<polygon class="st1" points="234,184.6 259.1,170 294.6,190.5 269.4,205.1 		"/>
		<polygon class="st1" points="108.7,261.1 136.7,244.9 146.1,250.3 118.1,266.5 		"/>
		<polygon class="st1" points="159.4,290.8 187.8,274.4 197.3,279.9 168.9,296.2 		"/>
		<polygon class="st1" points="118.1,266.5 146.1,250.3 187.8,274.4 159.4,290.8 		"/>
		<polygon class="st1" points="84.8,246.8 112.9,230.4 127.1,238.7 98.8,255 		"/>
		<polygon class="st1" points="70.2,238.5 98.7,222.2 112.9,230.4 84.8,246.8 		"/>
		<polygon class="st1" points="42,222.2 70.4,205.8 98.7,222.2 70.2,238.5 		"/>
		<polygon class="st1" points="64.3,274.7 92.8,258.5 177.9,307.3 149.3,323.9 		"/>
		<polygon class="st1" points="50.3,266.7 78.7,250.3 92.6,258.4 64.3,274.7 		"/>
		<polygon class="st1" points="21.5,250.3 50.1,233.8 64.3,242 36.1,258.5 		"/>
		<polygon class="st1" points="219.9,192.7 234,184.6 269.5,205 255.3,213.2 		"/>
		<polygon class="st1" points="163.3,225.6 191.6,209.3 215.4,223 187,239.3 		"/>
		<polygon class="st1" points="255.3,213.2 219.9,192.7 191.6,209.3 215.4,223 187,239.3 198.7,246.1 		"/>
		<polygon class="st1" points="375.8,94.5 382.8,90.5 354.5,74.1 333.2,86.4 347.4,94.5 361.6,86.4 		"/>
		<line class="st1" x1="417.8" y1="103" x2="411.5" y2="106.7"/>
		<line class="st1" x1="105.7" y1="226" x2="127.9" y2="213.4"/>
		<line class="st1" x1="155" y1="255.1" x2="184" y2="238.2"/>
		<line class="st1" x1="50.3" y1="233.7" x2="56.2" y2="230.3"/>
		<line class="st1" x1="164.1" y1="298.8" x2="169" y2="296.1"/>
	</g>
</g>
<g id="Layer_2">
	<g>
		<g>
			<g class="st2">
				
					<image style="overflow:visible;" width="1564" height="903" xlink:href="uploads/maps/DF348DAB48416C47.png"  transform="matrix(0.24 0 0 0.24 46.948 155.1624)">
				</image>
			</g>
			<g>
				<g>
					<g class="st3">
						<g class="st3">
							<defs>
								<path id="SVGID_1_" class="st3" d="M197.8,250.5v0.8c-2.5,0-4.9-0.8-6.7-2.1c-1.8-1.3-2.8-3.1-2.8-4.9v-0.8
									c0,1.8,1,3.6,2.8,4.9C192.8,249.7,195.2,250.4,197.8,250.5z"/>
							</defs>
							<clipPath id="SVGID_2_">
								<use xlink:href="#SVGID_1_"  style="overflow:visible;"/>
							</clipPath>
							<g class="st4">
								<path class="st5" d="M197.8,250.5v0.8c-2.5,0-4.9-0.8-6.7-2.1c-1.8-1.3-2.8-3.1-2.8-4.9v-0.8c0,1.8,1,3.6,2.8,4.9
									C192.8,249.7,195.2,250.4,197.8,250.5"/>
							</g>
						</g>
						<g>
							<polygon class="st6" points="203.3,250.5 203.3,251.4 197.8,251.3 197.8,250.5 							"/>
						</g>
						<g class="st3">
							<defs>
								<path id="SVGID_3_" class="st3" d="M294.2,244.7v0.8c0,3.4-3.3,6.1-7.7,6.7c-0.6,0.1-1.2,0.1-1.8,0.1v-0.8
									c0.6,0,1.2,0,1.8-0.1C290.9,250.8,294.2,248,294.2,244.7z"/>
							</defs>
							<clipPath id="SVGID_4_">
								<use xlink:href="#SVGID_3_"  style="overflow:visible;"/>
							</clipPath>
							<g class="st7">
								<path class="st8" d="M294.2,244.7v0.8c0,0.3,0,0.5-0.1,0.8v-0.8C294.2,245.2,294.2,244.9,294.2,244.7"/>
								<path class="st9" d="M294.1,245.4v0.8c0,0.3-0.1,0.6-0.2,0.9v-0.8C294,246,294.1,245.7,294.1,245.4"/>
								<path class="st10" d="M293.9,246.3v0.8c-0.1,0.3-0.3,0.7-0.5,1v-0.8C293.7,247,293.8,246.6,293.9,246.3"/>
								<path class="st5" d="M293.5,247.3v0.8c-1.2,2.1-3.8,3.7-7,4.1c-0.6,0.1-1.2,0.1-1.8,0.1v-0.8c0.6,0,1.2,0,1.8-0.1
									C289.7,250.9,292.3,249.4,293.5,247.3"/>
							</g>
						</g>
						<g>
							<polygon class="st6" points="284.7,251.5 284.7,252.3 279.1,252.3 279.1,251.4 							"/>
						</g>
						<g class="st3">
							<defs>
								<path id="SVGID_5_" class="st3" d="M386,296.5v0.8c0,2.5-1.8,4.7-4.8,5.9c-0.6,0.2-1.2,0.4-1.8,0.6V303
									c0.6-0.1,1.2-0.3,1.8-0.6C384.2,301.3,386,299,386,296.5z"/>
							</defs>
							<clipPath id="SVGID_6_">
								<use xlink:href="#SVGID_5_"  style="overflow:visible;"/>
							</clipPath>
							<g class="st11">
								<path class="st8" d="M386,296.5v0.8c0,0.3,0,0.5-0.1,0.8v-0.8C386,297,386,296.8,386,296.5"/>
								<path class="st9" d="M386,297.3v0.8c0,0.3-0.1,0.6-0.2,0.9v-0.8C385.9,297.9,385.9,297.6,386,297.3"/>
								<path class="st10" d="M385.8,298.2v0.8c-0.1,0.3-0.3,0.7-0.5,1v-0.8C385.5,298.9,385.7,298.5,385.8,298.2"/>
								<path class="st5" d="M385.3,299.2v0.8c-0.8,1.4-2.2,2.6-4,3.3c-0.6,0.2-1.2,0.4-1.8,0.6V303c0.6-0.1,1.2-0.3,1.8-0.6
									C383.1,301.7,384.5,300.6,385.3,299.2"/>
							</g>
						</g>
						<g class="st3">
							<defs>
								<path id="SVGID_7_" class="st3" d="M87.9,304.6v0.8c-2.9-1.3-4.8-3.6-4.8-6l0-0.8C83.1,301.1,85,303.4,87.9,304.6z"/>
							</defs>
							<clipPath id="SVGID_8_">
								<use xlink:href="#SVGID_7_"  style="overflow:visible;"/>
							</clipPath>
							<g class="st12">
								<path class="st5" d="M87.9,304.6v0.8c-2.9-1.3-4.8-3.6-4.8-6v-0.8C83.1,301.1,85,303.4,87.9,304.6"/>
							</g>
						</g>
						<g>
							<polygon class="st6" points="267,304.9 267,305.8 215.4,305.1 215.4,304.2 							"/>
						</g>
						<g>
							<polygon class="st6" points="379.5,303 379.5,303.9 370.4,307.6 370.4,306.7 							"/>
						</g>
						<g>
							<polygon class="st6" points="370.4,306.7 370.4,307.6 325.6,325.9 325.6,325 							"/>
						</g>
						<g>
							<polygon class="st6" points="314.5,325.5 314.5,326.3 267,305.8 267,304.9 							"/>
						</g>
						<g class="st3">
							<defs>
								<path id="SVGID_9_" class="st3" d="M316.2,326.1v0.8c-0.6-0.2-1.2-0.4-1.7-0.6v-0.8C315,325.7,315.6,325.9,316.2,326.1z"/>
							</defs>
							<clipPath id="SVGID_10_">
								<use xlink:href="#SVGID_9_"  style="overflow:visible;"/>
							</clipPath>
							<g class="st13">
								<path class="st5" d="M316.2,326.1v0.8c-0.6-0.2-1.2-0.4-1.7-0.6v-0.8C315,325.7,315.6,325.9,316.2,326.1"/>
							</g>
						</g>
						<g class="st3">
							<defs>
								<path id="SVGID_11_" class="st3" d="M325.6,325v0.8c-0.4,0.3-0.9,0.5-1.3,0.7c-1.4,0.6-3,0.9-4.6,0.9
									c-1.2,0-2.4-0.2-3.5-0.5v-0.8c1.1,0.3,2.3,0.5,3.5,0.5c1.6,0,3.2-0.3,4.6-0.9C324.8,325.5,325.2,325.3,325.6,325z"/>
							</defs>
							<clipPath id="SVGID_12_">
								<use xlink:href="#SVGID_11_"  style="overflow:visible;"/>
							</clipPath>
							<g class="st14">
								<path class="st5" d="M325.6,325v0.8c-0.4,0.3-0.9,0.5-1.3,0.7c-1.4,0.6-3,0.9-4.6,0.9c-1.2,0-2.4-0.2-3.5-0.5v-0.8
									c1.1,0.3,2.3,0.5,3.5,0.5c1.6,0,3.2-0.3,4.6-0.9C324.8,325.5,325.2,325.3,325.6,325"/>
							</g>
						</g>
						<g>
							<polygon class="st6" points="144.7,329.2 144.7,330 87.9,305.5 87.9,304.6 							"/>
						</g>
						<g>
							<polygon class="st6" points="215.4,304.2 215.4,305.1 154.2,330.1 154.2,329.3 							"/>
						</g>
						<g class="st3">
							<defs>
								<path id="SVGID_13_" class="st3" d="M154.2,329.3v0.8c-1.4,0.6-3,0.9-4.5,0.9c-1.8,0-3.5-0.3-4.9-1v-0.8
									c1.5,0.6,3.1,1,4.9,1C151.2,330.2,152.8,329.9,154.2,329.3z"/>
							</defs>
							<clipPath id="SVGID_14_">
								<use xlink:href="#SVGID_13_"  style="overflow:visible;"/>
							</clipPath>
							<g class="st15">
								<path class="st5" d="M154.2,329.3v0.8c-1.4,0.6-3,0.9-4.5,0.9c-1.8,0-3.5-0.3-4.9-1v-0.8c1.5,0.6,3.1,1,4.9,1
									C151.2,330.2,152.8,329.9,154.2,329.3"/>
							</g>
						</g>
						<g>
							<path class="st16" d="M197.6,185.8l87.1,0.9c2.5,0,4.9,0.8,6.7,2.1c1.8,1.3,2.8,3.1,2.8,4.9v50.9c0,3.4-3.3,6.1-7.7,6.7
								c-0.6,0.1-1.2,0.1-1.8,0.1l-5.6-0.1l0,5.2l18.7,8.2l9.7-4c1.4-0.6,3-0.9,4.6-0.9c1.7,0,3.4,0.3,4.9,1l64.3,27.6
								c3,1.3,4.8,3.6,4.8,6.1v2c0,2.5-1.8,4.7-4.8,5.9c-0.6,0.2-1.2,0.4-1.8,0.6l-9.1,3.7L325.6,325c-0.4,0.3-0.9,0.5-1.3,0.7
								c-1.4,0.6-3,0.9-4.6,0.9c-1.2,0-2.4-0.2-3.5-0.5c-0.6-0.2-1.2-0.4-1.7-0.6L267,304.9l-51.6-0.7l-61.3,25.1
								c-1.4,0.6-3,0.9-4.5,0.9c-1.8,0-3.5-0.3-4.9-1l-56.8-24.5c-2.9-1.3-4.8-3.6-4.8-6v-2c0-2.5,1.8-4.7,4.7-5.9l29-11.9
								l48.5-19.8c1.4-0.6,3-0.9,4.6-0.9c1.7,0,3.4,0.3,4.9,1l9.6,4.1l18.9-7.6v-5.1l-5.6-0.1c-2.5,0-4.9-0.8-6.7-2.1
								c-1.8-1.3-2.8-3.1-2.8-4.9v-50.8C188.3,188.8,192.4,185.8,197.6,185.8z"/>
						</g>
					</g>
				</g>
			</g>
			<polygon class="st17" points="298,275.8 269.7,263.5 269.5,245.5 213,244.8 213,262.8 184.6,274.4 227.2,292.8 255.5,293.2 			
				"/>
			<polygon class="st18" ng-class="{'pulsate': $ctrl.company.comproom == '103'}" points="198,195.8 284.6,196.8 284.6,245.7 198,244.7 			"/>
			<polygon class="st18" points="212.9,244.8 234.2,245.1 234.2,263 212.9,262.7 			"/>
			<polygon class="st18" points="234.2,266 227.1,268.9 212.9,262.8 234.2,263 			"/>
			<polygon class="st18" points="269.4,263.4 269.6,263.4 269.6,245.5 248.3,245.3 248.3,263.2 248.3,266.2 255.4,269.3 
				276.7,278.5 289.7,272.5 			"/>
			<polygon class="st18" ng-class="{'pulsate': $ctrl.company.comproom == '101'}" points="227.2,292.8 149.5,324.6 92.7,300 170.4,268.2 			"/>
			<polygon class="st18" ng-class="{'pulsate': $ctrl.company.comproom == '102'}" points="312.3,270 376.5,297.7 319.3,320.9 255.4,293.2 			"/>
			<polygon class="st18" points="227.1,268.9 198.7,280.5 184.6,274.4 212.9,262.8 			"/>
			<path class="st18" d="M255.3,281l0.1,0.1c-8.8,3.6-19.5,3.5-28.3-0.3l-0.1,0l14.2-5.8L255.3,281z"/>
			<polygon class="st17" points="212.9,298.6 269.6,299.3 248.3,290.1 234.2,289.9 			"/>
			<polygon class="st19" points="312.3,269.9 312.3,268.1 255.4,291.3 255.4,293.2 			"/>
			<polygon class="st19" points="212.9,262.8 212.9,261.1 184.5,272.6 184.6,274.4 			"/>
			<polygon class="st20" points="212.9,262.8 212.9,261.1 233.9,261.3 233.9,263 			"/>
			<polygon class="st20" points="197.9,244.7 197.9,242.9 284.5,243.9 284.5,245.6 			"/>
			<polygon class="st20" points="212.9,262.5 212.9,261.1 227.1,267.2 227.1,268.8 			"/>
			<polygon class="st20" points="197.9,196 197.9,194.2 284.5,195.1 284.5,196.9 			"/>
			<polygon class="st19" points="222.4,270.9 222.4,269 198.7,278.6 198.7,280.5 			"/>
			<polygon class="st19" points="241.3,275 241.3,273.3 227.1,279.1 227.1,280.8 			"/>
			<polygon class="st19" points="255.4,281.2 255.5,279.4 241.4,273.3 241.3,275.1 			"/>
			<polygon class="st19" points="234.3,266 234.3,264.2 225.5,267.9 225.6,269.6 			"/>
			<polygon class="st20" points="268.3,263.2 268.6,261.5 297.7,274.4 295.6,275.2 			"/>
			<polygon class="st20" points="259.6,263.5 259.6,261.6 274.1,267.6 273.5,269.3 			"/>
			<polygon class="st20" points="276.7,278.5 276.7,276.8 290.1,271.3 290.2,272.8 			"/>
			<polygon class="st19" points="264.4,273.2 264.4,271.5 274.1,267.6 274,269.3 			"/>
			<path class="st20" d="M227.1,280.8v-1.7l3.6,1.2c6.7,2.2,14.4,2.3,21.1,0.2l3.7-1.1l-0.1,1.7l-0.2,0.1
				C246.5,284.8,235.8,284.7,227.1,280.8L227.1,280.8z"/>
			<polygon class="st19" points="250.7,267.3 250.8,265.4 259.6,261.6 259.6,263.5 			"/>
			<polygon class="st20" points="170.3,268.3 170.1,266.3 227.2,290.8 227.2,292.8 			"/>
			<polygon class="st20" points="248.3,266.2 248.3,264.5 276.7,276.8 276.7,278.5 			"/>
			<polygon class="st19" points="170.2,268.1 170.1,266.3 92.7,298.1 92.7,300 			"/>
			<polygon class="st19" points="227.2,292.8 227.2,290.8 149.5,322.6 149.5,324.6 			"/>
			<polygon class="st20" points="255.4,293.2 255.4,291.3 319.5,318.9 319.5,321 			"/>
			<polygon class="st20" points="92.7,300 92.6,298.1 149.5,322.6 149.5,324.6 			"/>
			<polygon class="st20" points="312.3,270 312.3,268.1 376.5,295.8 376.5,297.7 			"/>
			<g>
				<path class="st21" d="M312.3,268.9l62.2,26.8l-55,22.4l-62.1-26.9l6.1-2.5l0,0l0.5-0.2L312.3,268.9 M312.3,268.1l-48.7,19.8l0,0
					l-8.1,3.3l64.1,27.7l57-23.2L312.3,268.1L312.3,268.1z"/>
			</g>
			<g>
				<path class="st21" d="M170.1,267.1l55,23.7l-75.7,30.9L94.7,298l26.9-11.1l0,0l0.5-0.2L170.1,267.1 M170.1,266.3l-48.5,19.8l0,0
					l-29.1,12l56.9,24.6l77.7-31.8L170.1,266.3L170.1,266.3z"/>
			</g>
			<g>
				<path class="st21" d="M213.8,261.5l12.2,5.4l-28.3,11.3l-12.1-5.3L213.8,261.5 M213.8,260.7l-30.3,12.2l14.1,6.1l30.3-12.1
					L213.8,260.7L213.8,260.7z"/>
			</g>
			<g>
				<path class="st21" d="M233.2,262v1.8l-6.1,2.6l-10.4-4.5L233.2,262 M234.2,261.3l-21.1-0.2l14.1,6.1l7.1-3L234.2,261.3
					L234.2,261.3z"/>
			</g>
			<g>
				<path class="st21" d="M259.6,262.4l12.4,5.2l-7.5,3l-12.1-5.3l0.1,0L259.6,262.4 M259.6,261.6l-7.6,3.1l-1.6,0.6l14.1,6.2
					l9.6-3.9L259.6,261.6L259.6,261.6z"/>
			</g>
			<polygon class="st19" points="212.9,298.5 212.9,296.6 269.6,297.3 269.6,299.3 			"/>
			<polygon class="st19" points="376.5,297.7 376.6,295.8 319.5,319 319.5,321 			"/>
			<g>
				<path class="st21" d="M283.7,195.5v47.8l-84.9-1v-47.7L283.7,195.5 M284.7,194.8l-86.9-0.9V243l86.9,1.1V194.8L284.7,194.8z"/>
			</g>
			<line class="st19" x1="289.3" y1="270.7" x2="297.9" y2="274.4"/>
			<line class="st19" x1="212.9" y1="296.6" x2="269.6" y2="297"/>
			<g>
				<polygon class="st17" points="239,298.9 232,298.8 232,295.9 239,295.9 				"/>
			</g>
			<g>
				<polygon class="st17" points="250.5,299.1 243.6,299 243.6,296 250.5,296.1 				"/>
			</g>
			<g>
				<polygon class="st17" points="207.3,282 206,282.6 206,283.7 202.2,282.1 203.1,280.5 203.3,279.7 				"/>
				<polygon class="st20" points="203.1,280.5 202.2,280.9 202.2,282.1 203.1,281.7 				"/>
			</g>
			<g>
				<polygon class="st18" points="221.1,268.5 222.4,269 222.4,270.9 225.6,269.6 224.6,267.6 223.8,267.3 				"/>
				<polygon class="st20" points="224.6,267.4 225.5,267.9 225.6,269.6 224.7,269.2 				"/>
				<path class="st20" d="M224.1,267.4l0.5,0.2l0-0.6L224.1,267.4z"/>
			</g>
			<g>
				<polygon class="st17" points="276.9,282.2 278.1,282.8 278.1,284 280.4,283 279.4,281.5 278.8,281.3 				"/>
				<polygon class="st20" points="279.4,281.5 280.4,281.9 280.4,283 279.4,282.5 				"/>
				<g>
					<polygon class="st21" points="278.1,283.9 277.9,283.9 277.9,282.9 278.1,282.9 					"/>
				</g>
			</g>
			<g>
				<polygon class="st18" points="227.9,265.7 229.3,266.3 229.3,268 232.6,266.7 231.5,264.5 231,264.1 				"/>
				<polygon class="st20" points="231.5,264.5 232.5,265 232.6,266.7 231.6,266.2 				"/>
			</g>
			<g>
				<path class="st21" d="M241.2,274.2l12.1,5.3c-3.8,1.3-7.9,2-12.2,2c-4.2-0.1-8.4-0.8-12.1-2.2L241.2,274.2 M241.2,273.3
					l-14.2,5.8l0,0c4.4,1.9,9.3,2.9,14.2,3c4.9,0.1,9.8-0.9,14.2-2.6l0,0L241.2,273.3L241.2,273.3z"/>
			</g>
			<g>
				<polygon class="st17" points="230.6,277.3 232.1,277.9 232.1,278.8 234.2,277.9 233,276.7 232.4,276.5 				"/>
				<polygon class="st20" points="233,276.6 234.2,277 234.2,277.9 233,277.5 				"/>
			</g>
			<g>
				<g>
					<polygon class="st21" points="244.3,245.3 244.2,245.3 244.2,243.4 244.3,243.4 					"/>
				</g>
				<polygon class="st18" points="244.2,245.3 237.9,245.1 237.9,242.2 244.1,242.3 				"/>
			</g>
			<polygon class="st22" points="170.3,267.1 202.2,280.9 202.2,282.1 170.3,268.3 			"/>
			<polygon class="st22" points="185.5,272.9 213.8,261.5 213.8,262.9 186.8,273.4 			"/>
			<polygon class="st22" points="94.7,298 170.3,267.1 170.3,268.3 96.3,298.7 			"/>
			<polygon class="st19" points="280.4,281.9 312.3,268.9 312.3,270 280.4,283 			"/>
			<polygon class="st19" points="257.5,291.2 278.1,282.8 278.1,284 258.8,291.8 			"/>
			<polygon class="st22" points="244.2,243.6 284.7,244.1 284.7,245.7 244.2,245.3 			"/>
			<polygon class="st22" points="197.8,243 237.9,243.4 237.9,245.1 197.8,244.7 			"/>
			<polygon class="st21" points="213,296.7 213,295.9 232,296.1 232,296.8 			"/>
			<polygon class="st21" points="250.5,297.2 250.5,296.4 269.5,296.6 269.5,297.3 			"/>
			
				<rect x="239" y="296.3" transform="matrix(1 -3.242363e-03 3.242363e-03 1 -0.9605 0.7839)" class="st21" width="4.6" height="0.7"/>
			<polygon class="st21" points="290.9,271 298.7,274.4 297.7,274.8 288.9,271 			"/>
			<g>
				<path class="st21" d="M233.2,243.6v17.7l-18.3-0.1l-1-0.5v-17.4L233.2,243.6 M234.2,242.8l-21.3-0.3v18.5l1.8,0.8l19.5,0.1
					V242.8L234.2,242.8z"/>
			</g>
			<g>
				<path class="st21" d="M268.6,244v17.8v0.4l0.5,0.2l19.8,8.6l-12.2,5l-27.4-12v-20.4L268.6,244 M269.6,243.3l-21.3-0.3v21.5
					l28.4,12.3l14.2-5.8l-21.3-9.2L269.6,243.3L269.6,243.3z"/>
			</g>
			<g>
				<polygon class="st17" points="233.2,260.6 234.3,260.6 234.5,259.3 233.2,258.9 				"/>
				<polygon class="st20" points="233.2,257.3 234.2,257.4 234.2,259.3 233.2,259.2 				"/>
			</g>
			<g>
				<polygon class="st17" points="249.3,260.8 247.8,260.7 247.8,259.3 249.3,259.4 				"/>
				<polygon class="st20" points="249.3,257.5 248.3,257.5 248.3,259.4 249.3,259.4 				"/>
			</g>
			<g>
				<polygon class="st18" points="260.1,268.4 258.8,269 258.9,270.8 255.1,269.2 256,267.1 256.2,266.2 				"/>
				<polygon class="st20" points="256,266.9 255.1,267.5 255.1,269.2 256,268.7 				"/>
			</g>
		</g>
		<polygon class="st18" points="259.6,263.5 270.7,268.1 264.5,270.7 259.7,268.6 258.8,269 258.9,270.8 255.1,269.2 256,268.7 
			256,267.1 253.9,265.9 		"/>
	</g>
	<g>
		<g>
			<g class="st2">
				
					<image style="overflow:visible;" width="1564" height="904" xlink:href="uploads/maps/DF348DAB48416C45.png"  transform="matrix(0.24 0 0 0.24 46.948 68.7624)">
				</image>
			</g>
			<g>
				<g>
					<g class="st3">
						<g class="st3">
							<defs>
								<path id="SVGID_15_" class="st3" d="M197.8,164.1v0.8c-2.5,0-4.9-0.8-6.7-2.1c-1.8-1.3-2.8-3.1-2.8-4.9v-0.8
									c0,1.8,1,3.6,2.8,4.9C192.8,163.3,195.2,164.1,197.8,164.1z"/>
							</defs>
							<clipPath id="SVGID_16_">
								<use xlink:href="#SVGID_15_"  style="overflow:visible;"/>
							</clipPath>
							<g class="st25">
								<path class="st5" d="M197.8,164.1v0.8c-2.5,0-4.9-0.8-6.7-2.1c-1.8-1.3-2.8-3.1-2.8-4.9v-0.8c0,1.8,1,3.6,2.8,4.9
									C192.8,163.3,195.2,164.1,197.8,164.1"/>
							</g>
						</g>
						<g>
							<polygon class="st6" points="203.3,164.2 203.3,165 197.8,164.9 197.8,164.1 							"/>
						</g>
						<g class="st3">
							<defs>
								<path id="SVGID_17_" class="st3" d="M294.2,158.2v0.8c0,3.4-3.3,6.1-7.7,6.7c-0.6,0.1-1.2,0.1-1.8,0.1V165
									c0.6,0,1.2,0,1.8-0.1C290.9,164.3,294.2,161.5,294.2,158.2z"/>
							</defs>
							<clipPath id="SVGID_18_">
								<use xlink:href="#SVGID_17_"  style="overflow:visible;"/>
							</clipPath>
							<g class="st26">
								<path class="st8" d="M294.2,158.2v0.8c0,0.3,0,0.5-0.1,0.8v-0.8C294.2,158.7,294.2,158.4,294.2,158.2"/>
								<path class="st9" d="M294.1,158.9v0.8c0,0.3-0.1,0.6-0.2,0.9v-0.8C294,159.5,294.1,159.2,294.1,158.9"/>
								<path class="st10" d="M293.9,159.8v0.8c-0.1,0.3-0.3,0.7-0.5,1v-0.8C293.7,160.5,293.8,160.2,293.9,159.8"/>
								<path class="st5" d="M293.5,160.8v0.8c-1.2,2.1-3.8,3.7-6.9,4.1c-0.6,0.1-1.2,0.1-1.8,0.1V165c0.6,0,1.2,0,1.8-0.1
									C289.7,164.5,292.3,162.9,293.5,160.8"/>
							</g>
						</g>
						<g>
							<polygon class="st6" points="284.7,165 284.7,165.9 279.1,165.8 279.1,164.9 							"/>
						</g>
						<g class="st3">
							<defs>
								<path id="SVGID_19_" class="st3" d="M386,210v0.8c0,2.5-1.8,4.7-4.8,5.9c-0.6,0.2-1.2,0.4-1.8,0.6v-0.8
									c0.6-0.1,1.2-0.3,1.8-0.6C384.2,214.7,386,212.4,386,210z"/>
							</defs>
							<clipPath id="SVGID_20_">
								<use xlink:href="#SVGID_19_"  style="overflow:visible;"/>
							</clipPath>
							<g class="st27">
								<path class="st8" d="M386,210v0.8c0,0.3,0,0.5-0.1,0.8v-0.8C386,210.5,386,210.2,386,210"/>
								<path class="st9" d="M386,210.7v0.8c0,0.3-0.1,0.6-0.2,0.9v-0.8C385.9,211.3,385.9,211,386,210.7"/>
								<path class="st10" d="M385.8,211.6v0.8c-0.1,0.3-0.3,0.7-0.5,1v-0.8C385.5,212.3,385.7,211.9,385.8,211.6"/>
								<path class="st5" d="M385.3,212.6v0.8c-0.8,1.4-2.2,2.6-4,3.3c-0.6,0.2-1.2,0.4-1.8,0.6v-0.8c0.6-0.1,1.2-0.3,1.8-0.6
									C383.1,215.2,384.5,214,385.3,212.6"/>
							</g>
						</g>
						<g class="st3">
							<defs>
								<path id="SVGID_21_" class="st3" d="M87.9,218.4v0.8c-2.9-1.3-4.8-3.6-4.8-6l0-0.8C83.1,214.8,85,217.1,87.9,218.4z"/>
							</defs>
							<clipPath id="SVGID_22_">
								<use xlink:href="#SVGID_21_"  style="overflow:visible;"/>
							</clipPath>
							<g class="st28">
								<path class="st5" d="M87.9,218.4v0.8c-2.9-1.3-4.8-3.6-4.8-6v-0.8C83.1,214.8,85,217.1,87.9,218.4"/>
							</g>
						</g>
						<g>
							<polygon class="st6" points="267,218.5 267,219.3 215.4,218.7 215.4,217.9 							"/>
						</g>
						<g>
							<polygon class="st6" points="379.5,216.5 379.5,217.3 370.4,221 370.4,220.2 							"/>
						</g>
						<g>
							<polygon class="st6" points="370.4,220.2 370.4,221 325.6,239.4 325.6,238.5 							"/>
						</g>
						<g>
							<polygon class="st6" points="314.5,239 314.5,239.8 267,219.3 267,218.5 							"/>
						</g>
						<g class="st3">
							<defs>
								<path id="SVGID_23_" class="st3" d="M316.2,239.6v0.8c-0.6-0.2-1.2-0.4-1.7-0.6V239C315,239.2,315.6,239.4,316.2,239.6z"/>
							</defs>
							<clipPath id="SVGID_24_">
								<use xlink:href="#SVGID_23_"  style="overflow:visible;"/>
							</clipPath>
							<g class="st29">
								<path class="st5" d="M316.2,239.6v0.8c-0.6-0.2-1.2-0.4-1.7-0.6V239C315,239.2,315.6,239.4,316.2,239.6"/>
							</g>
						</g>
						<g class="st3">
							<defs>
								<path id="SVGID_25_" class="st3" d="M325.6,238.5v0.8c-0.4,0.2-0.9,0.5-1.3,0.7c-1.4,0.6-3,0.9-4.6,0.9
									c-1.2,0-2.3-0.2-3.5-0.5v-0.8c1.1,0.3,2.3,0.5,3.5,0.5c1.6,0,3.2-0.3,4.6-0.9C324.8,239,325.2,238.7,325.6,238.5z"/>
							</defs>
							<clipPath id="SVGID_26_">
								<use xlink:href="#SVGID_25_"  style="overflow:visible;"/>
							</clipPath>
							<g class="st30">
								<path class="st5" d="M325.6,238.5v0.8c-0.4,0.2-0.9,0.5-1.3,0.7c-1.4,0.6-3,0.9-4.6,0.9c-1.2,0-2.3-0.2-3.5-0.5v-0.8
									c1.1,0.3,2.3,0.5,3.5,0.5c1.6,0,3.2-0.3,4.6-0.9C324.8,239,325.2,238.7,325.6,238.5"/>
							</g>
						</g>
						<g>
							<polygon class="st6" points="144.7,242.9 144.7,243.7 87.9,219.3 87.9,218.4 							"/>
						</g>
						<g>
							<polygon class="st6" points="215.4,217.9 215.4,218.7 154.2,243.8 154.2,243 							"/>
						</g>
						<g class="st3">
							<defs>
								<path id="SVGID_27_" class="st3" d="M154.2,243v0.8c-1.4,0.6-3,0.9-4.6,0.9c-1.8,0-3.4-0.4-4.9-1v-0.8c1.5,0.6,3.1,1,4.9,1
									C151.2,243.9,152.8,243.6,154.2,243z"/>
							</defs>
							<clipPath id="SVGID_28_">
								<use xlink:href="#SVGID_27_"  style="overflow:visible;"/>
							</clipPath>
							<g class="st31">
								<path class="st5" d="M154.2,243v0.8c-1.4,0.6-3,0.9-4.6,0.9c-1.8,0-3.4-0.4-4.9-1v-0.8c1.5,0.6,3.1,1,4.9,1
									C151.2,243.9,152.8,243.6,154.2,243"/>
							</g>
						</g>
						<g>
							<path class="st16" d="M197.6,99.4l87.1,0.8c2.5,0,4.9,0.8,6.7,2.1c1.8,1.3,2.8,3.1,2.8,4.9v50.9c0,3.4-3.3,6.1-7.7,6.7
								c-0.6,0.1-1.2,0.1-1.8,0.1l-5.6-0.1l0,5.2l18.7,8.1l9.7-4c1.4-0.6,3-0.9,4.6-0.9c1.7,0,3.4,0.3,4.9,1l64.3,27.5
								c3,1.3,4.8,3.6,4.8,6.1v2c0,2.5-1.8,4.7-4.8,5.9c-0.6,0.2-1.2,0.4-1.8,0.6l-9.1,3.7l-44.7,18.3c-0.4,0.2-0.9,0.5-1.3,0.7
								c-1.4,0.6-3,0.9-4.6,0.9c-1.2,0-2.3-0.2-3.5-0.5c-0.6-0.2-1.2-0.4-1.7-0.6L267,218.5l-51.6-0.6L154.2,243
								c-1.4,0.6-3,0.9-4.6,0.9c-1.8,0-3.4-0.4-4.9-1l-56.8-24.5c-2.9-1.3-4.8-3.6-4.8-6v-2c0-2.5,1.8-4.7,4.7-5.9l29-12l48.5-19.8
								c1.4-0.6,3-0.9,4.6-0.9c1.7,0,3.3,0.3,4.8,1l9.6,4.1l18.9-7.7v-5l-5.6-0.1c-2.5,0-4.9-0.8-6.7-2.1c-1.8-1.3-2.8-3.1-2.8-4.9
								v-50.8C188.3,102.5,192.4,99.4,197.6,99.4z"/>
						</g>
					</g>
				</g>
			</g>
			<polygon class="st17" points="298,188.4 269.7,176.1 269.6,158.2 213,157.6 213,175.4 184.6,187.1 227.2,205.5 255.5,205.9 			
				"/>
			<polygon class="st18" ng-class="{'pulsate': $ctrl.company.comproom == '203'}" points="198,108.5 284.6,109.4 284.6,158.4 198,157.4 			"/>
			<polygon class="st18" points="212.9,157.6 234.2,157.8 234.2,175.7 212.9,175.4 			"/>
			<polygon class="st18" points="234.2,178.7 227.1,181.6 212.9,175.4 234.2,175.7 			"/>
			<polygon class="st18" points="269.6,176.1 269.6,158.2 248.3,158 248.3,175.8 248.3,178.8 255.4,181.9 276.7,191.1 290.9,185.3 
							"/>
			<polygon class="st18" ng-class="{'pulsate': $ctrl.company.comproom == '201'}" points="227.2,205.4 149.5,237.4 92.7,212.8 170.4,180.9 			"/>
			<polygon class="st18" ng-class="{'pulsate': $ctrl.company.comproom == '202'}" points="312.2,182.6 376.2,210.3 319.3,233.5 255.4,205.9 			"/>
			<polygon class="st18" points="227.1,181.6 198.7,193.2 184.6,187.1 212.9,175.4 			"/>
			<path class="st18" d="M276.7,197.1l-14.2,5.8l-7-3.1l0,0c-8.8,3.6-19.6,3.5-28.4-0.3l0,0l-7.1,2.9l-14.2-6.1l7.6-3.1
				c17.2-7.1,38.4-6.9,55.7,0.6L276.7,197.1z"/>
			<path class="st20" d="M207.3,196.5l-0.3-1.2l5.2-2.3c16.7-5.9,32.1-9.8,58.7,0.7l5.8,2.5l-2,1l-6.1-2.7
				c-8.8-3.7-18.2-5.7-27.4-5.8c-10.1,0-19.8,2.1-27.6,5.2L207.3,196.5z"/>
			<polygon class="st19" points="227.2,199.5 227.2,198.1 220,201.1 222.2,201.5 			"/>
			<path class="st19" d="M255.5,199.8l-0.1-1.7c0,0-5.5,3.1-14.2,3c-8-0.1-14-2.9-14-2.9v1.4c0,0,6,2.8,13.7,2.9
				C250.1,202.6,255.5,199.8,255.5,199.8z"/>
			<polygon class="st20" points="255.5,199.9 255.5,198.4 262.5,201.6 262.5,202.9 			"/>
			<g>
				<path class="st21" d="M241.3,187.7L241.3,187.7c9.6,0.1,19,2,27.3,5.6l6.1,2.6l-12.2,5L256,198l-0.5-0.2L255,198
					c-4.2,1.7-8.9,2.6-13.8,2.5c-4.8-0.1-9.5-1.1-13.7-2.9l-0.5-0.2l-0.5,0.2l-6.5,2.8l-12.2-5.2l6.1-2.5
					C222.2,189.3,231.7,187.6,241.3,187.7 M241.3,187c-9.6-0.1-19.2,1.6-27.8,5.2l-7.6,3.1l14.2,6.1l7.1-2.9
					c4.4,1.9,9.3,2.9,14.2,2.9c4.9,0.1,9.9-0.8,14.3-2.7l0,0l7,3.1l14.2-5.8l-7.6-3.3C260.5,189.1,250.9,187.1,241.3,187L241.3,187z
					"/>
			</g>
			<polygon class="st17" points="212.9,211.3 269.6,211.9 248.3,202.8 233.9,202.6 			"/>
			<polygon class="st19" points="312.3,182.6 312.3,180.9 255.4,204 256.8,205.4 			"/>
			<polygon class="st19" points="212.9,175.4 212.9,173.8 184.5,185.3 184.6,187.1 			"/>
			<polygon class="st20" points="212.9,175.4 212.9,173.8 233.9,173.9 233.9,175.7 			"/>
			<polygon class="st20" points="197.8,157.4 197.8,155.8 284.7,156.5 284.7,158.4 			"/>
			<polygon class="st20" points="212.9,175.4 212.9,173.8 227.1,179.9 227.1,181.6 			"/>
			<polygon class="st20" points="197.9,108.5 197.9,106.7 284.5,107.5 284.5,109.3 			"/>
			<polygon class="st19" points="222.4,183.6 222.4,181.8 198.7,191.3 198.7,193.2 			"/>
			<polygon class="st19" points="234.3,178.6 234.3,176.9 225.5,180.5 225.6,182.2 			"/>
			<polygon class="st20" points="268.6,175.9 268.6,174.1 297.9,186.7 296.2,187.6 			"/>
			<polygon class="st19" points="259.6,176.1 259.6,174.2 285.8,185.7 286,187.3 			"/>
			<polygon class="st19" points="276.7,191.1 276.7,189.5 290.9,183.7 290.9,185.4 			"/>
			<polygon class="st19" points="264.5,185.2 264.4,184.1 273,180.7 272.9,181.7 			"/>
			<polygon class="st20" points="250.7,179.9 250.8,178.1 259.6,174.2 259.6,176.1 			"/>
			<polygon class="st20" points="170.3,181 170.1,179.1 227.2,203.6 227.2,205.4 			"/>
			<polygon class="st20" points="248.3,178.9 248.3,177.1 276.7,189.4 276.7,191.1 			"/>
			<polygon class="st19" points="170.3,181 170.1,179.1 92.7,210.9 92.7,212.8 			"/>
			<polygon class="st19" points="227.2,205.4 227.2,203.6 149.5,235.4 149.5,237.4 			"/>
			<polygon class="st20" points="255.4,205.9 255.4,204 319.5,231.6 319.5,233.6 			"/>
			<polygon class="st20" points="92.4,212.8 92.4,210.9 149.5,235.4 149.5,237.4 			"/>
			<polygon class="st20" points="312.3,182.6 312.3,180.7 376.5,208.3 376.5,210.3 			"/>
			<g>
				<path class="st21" d="M312.3,181.5l62.2,26.7l-55,22.4l-62.1-26.8l6.1-2.5l0,0l0.5-0.2L312.3,181.5 M312.3,180.7l-48.7,19.9l0,0
					l-8.2,3.3l64.2,27.6l57-23.3L312.3,180.7L312.3,180.7z"/>
			</g>
			<g>
				<path class="st21" d="M170.1,179.9l55,23.6l-75.7,31l-54.7-23.7l26.9-11.1l0,0l0.5-0.2L170.1,179.9 M170.1,179.1L121.7,199l0,0
					l-29.3,12l57.1,24.5l77.7-31.9L170.1,179.1L170.1,179.1z"/>
			</g>
			<g>
				<path class="st21" d="M213.8,174.2l12.2,5.4L197.7,191l-12.1-5.2L213.8,174.2 M213.8,173.3l-30.3,12.3l14.1,6.1l30.3-12.1
					L213.8,173.3L213.8,173.3z"/>
			</g>
			<g>
				<path class="st21" d="M233.2,174.7v1.8l-6.1,2.6l-10.4-4.5L233.2,174.7 M234.2,173.9l-21.1-0.2l14.1,6.1l7.1-3L234.2,173.9
					L234.2,173.9z"/>
			</g>
			<g>
				<path class="st21" d="M259.6,175.1l12.5,5.2l-7.6,3.1l-12.1-5.3l0.1,0L259.6,175.1 M259.6,174.2l-7.6,3.1l-1.6,0.6l14.1,6.1
					l9.6-4L259.6,174.2L259.6,174.2z"/>
			</g>
			<g>
				<path class="st21" d="M273,180.7l11.5,4.9l-7.8,3.1l-11.2-4.9L273,180.7 M273.2,179.8l-9.7,4l13.2,5.8l9.6-4l-12.8-5.6
					L273.2,179.8z"/>
			</g>
			<g>
				<path class="st21" d="M233.2,156.2v17.7l-18.3-0.1l-1-0.4v-17.4L233.2,156.2 M234.2,155.5l-21.3-0.2v18.5l1.8,0.7l19.5,0.1
					V155.5L234.2,155.5z"/>
			</g>
			<g>
				<path class="st21" d="M268.6,156.6v17.8v0.4l0.5,0.2l19.8,8.5l-12.2,5l-27.4-11.8v-20.4L268.6,156.6 M269.6,155.9l-21.3-0.2
					v21.5l28.4,12.3l14.2-5.7l-21.3-9.3L269.6,155.9L269.6,155.9z"/>
			</g>
			<polygon class="st19" points="212.9,211.3 212.9,209.3 269.6,210.1 269.6,212 			"/>
			<polygon class="st19" points="376.5,210.1 376.5,208.3 319.5,231.5 319.5,233.5 			"/>
			<g>
				<path class="st21" d="M283.7,108.2V156l-84.9-0.9v-47.7L283.7,108.2 M284.7,107.5l-86.9-0.8v49.2l86.9,1V107.5L284.7,107.5z"/>
			</g>
			<line class="st19" x1="289.3" y1="183.4" x2="297.9" y2="187.1"/>
			<line class="st19" x1="212.9" y1="209.3" x2="269.6" y2="209.6"/>
			<g>
				<g>
					<polygon class="st21" points="237.8,156 238,156 238,157.9 237.8,157.9 					"/>
				</g>
				<g>
					<polygon class="st21" points="244.3,158 244.2,158 244.2,156 244.3,156 					"/>
				</g>
				<polygon class="st18" points="244.2,158 237.9,157.9 237.9,154.9 244.2,154.9 				"/>
			</g>
			<g>
				<polygon class="st18" points="260.2,181.2 258.9,181.7 259,183.5 255.1,181.8 256,179.7 256.2,178.9 				"/>
				<polygon class="st20" points="256,179.6 255.1,180 255.1,181.8 256,181.4 				"/>
			</g>
			<g>
				<polygon class="st18" points="272.9,186.6 271.4,187.2 271.5,188.9 267.7,187.2 268.6,185.1 269.3,184.8 				"/>
				<polygon class="st20" points="268.6,185.1 267.7,185.6 267.7,187.2 268.6,186.7 				"/>
			</g>
			<g>
				<path class="st17" d="M260.3,189.6l-0.7,0.7v1c0,0-1.4-0.4-2.1-0.6c-0.6-0.2-1.4-0.3-1.4-0.3l0.9-1.5l0.6-1.2L260.3,189.6z"/>
				<polygon class="st20" points="256.9,188.8 256,189.4 256,190.4 256.9,190 				"/>
			</g>
			<g>
				<polygon class="st18" points="221.1,181.2 222.4,181.8 222.4,183.6 225.6,182.2 224.6,180.5 223.7,180.1 				"/>
				<polygon class="st20" points="224.6,180.2 225.5,180.5 225.6,182.2 224.7,181.7 				"/>
				<path class="st20" d="M224.1,180.3l0.5,0.2l0-0.3L224.1,180.3z"/>
			</g>
			<g>
				<polygon class="st17" points="276.8,194.9 278.1,195.5 278.1,196.6 280.4,195.6 279.3,194 278.8,193.9 				"/>
				<polygon class="st20" points="279.4,194.1 280.4,194.5 280.4,195.6 279.4,195.1 				"/>
			</g>
			<g>
				<polygon class="st17" points="218.2,190.2 219.4,190.8 219.4,191.9 222.7,190.9 221.7,189.3 220.1,189.1 				"/>
				<polygon class="st20" points="221.7,189.3 222.7,189.8 222.7,190.9 221.7,190.5 				"/>
				<g>
					<polygon class="st21" points="219.4,191.7 219.3,191.8 219.3,190.8 219.4,190.8 					"/>
				</g>
			</g>
			<g>
				<polygon class="st18" points="228,178.3 229.3,178.8 229.3,180.7 232.5,179.4 231.5,177.3 231,176.8 				"/>
				<polygon class="st20" points="231.5,177.2 232.4,177.7 232.5,179.4 231.6,178.9 				"/>
			</g>
			<g>
				<polygon class="st17" points="233.2,173.2 234.4,173.2 234.5,171.9 233.2,171.6 				"/>
				<polygon class="st20" points="233.2,170.1 234.2,170.1 234.2,171.8 233.2,171.8 				"/>
			</g>
			<g>
				<polygon class="st17" points="249.3,173.4 247.8,173.4 247.8,172 249.3,172 				"/>
				<polygon class="st20" points="249.3,170.2 248.3,170.2 248.3,172.1 249.3,172.1 				"/>
			</g>
			<g>
				<polygon class="st17" points="205.2,193.7 203.8,194.3 203.8,195.5 200.1,193.9 201,192.3 202.1,192 				"/>
				<polygon class="st20" points="201,192.3 200.1,192.7 200.1,193.9 201,193.4 				"/>
				<g>
					<polygon class="st21" points="203.8,195.5 203.8,194.3 204,194.4 204,195.6 					"/>
				</g>
			</g>
			<polygon class="st21" points="212.6,209.5 212.6,208.7 269.6,209.3 269.6,210.1 			"/>
			<path class="st21" d="M288.4,183.4l0.9-0.4c0,0,8.8,3.7,8.6,3.7s-1,0.4-1,0.4L288.4,183.4z"/>
			<polygon class="st20" points="290,185.7 290,184 296.9,187.1 295.2,187.7 			"/>
		</g>
		<polygon class="st18" points="259.5,176.1 270.7,180.8 264.4,183.4 259.8,181.3 258.8,181.7 258.9,183.5 255,181.9 255.9,181.4 
			255.9,179.8 253.5,178.6 		"/>
		<path class="st18" d="M272.8,181.8l10,4.3l-6.2,2.6l-4.3-1.9l-1,0.4l0.1,1.7l-3.8-1.6l0.9-0.5c0,0,0.2-1.7,0-1.7
			c-0.2,0-1.8-0.8-1.8-0.8L272.8,181.8z"/>
	</g>
	<g>
		<g>
			<g class="st2">
				
					<image style="overflow:visible;" width="1564" height="905" xlink:href="uploads/maps/DF348DAB48416C4B.png"  transform="matrix(0.24 0 0 0.24 44.788 -15.2376)">
				</image>
			</g>
			<g>
				<g>
					<g class="st3">
						<g class="st3">
							<defs>
								<path id="SVGID_29_" class="st3" d="M195.4,80v0.8c-2.5,0-4.9-0.8-6.7-2.1s-2.8-3.1-2.8-4.9V73c0,1.8,1,3.6,2.8,4.9
									S192.9,80,195.4,80z"/>
							</defs>
							<clipPath id="SVGID_30_">
								<use xlink:href="#SVGID_29_"  style="overflow:visible;"/>
							</clipPath>
							<g class="st33">
								<path class="st5" d="M195.4,80v0.8c-2.5,0-4.9-0.8-6.7-2.1s-2.8-3.1-2.8-4.9V73c0,1.8,1,3.6,2.8,4.9S192.9,80,195.4,80"/>
							</g>
						</g>
						<g>
							<polygon class="st6" points="201,80.1 201,80.9 195.4,80.9 195.4,80 							"/>
						</g>
						<g class="st3">
							<defs>
								<path id="SVGID_31_" class="st3" d="M291.9,74v0.8c0,3.4-3.3,6.1-7.7,6.7c-0.6,0.1-1.2,0.1-1.8,0.1v-0.8
									c0.6,0,1.2,0,1.8-0.1C288.6,80.1,291.9,77.3,291.9,74z"/>
							</defs>
							<clipPath id="SVGID_32_">
								<use xlink:href="#SVGID_31_"  style="overflow:visible;"/>
							</clipPath>
							<g class="st34">
								<path class="st8" d="M291.9,74v0.8c0,0.3,0,0.5-0.1,0.8v-0.8C291.8,74.5,291.9,74.2,291.9,74"/>
								<path class="st9" d="M291.8,74.7v0.8c0,0.3-0.1,0.6-0.2,0.9v-0.8C291.7,75.3,291.8,75,291.8,74.7"/>
								<path class="st10" d="M291.6,75.6v0.8c-0.1,0.3-0.3,0.7-0.5,1v-0.8C291.3,76.3,291.5,75.9,291.6,75.6"/>
								<path class="st5" d="M291.1,76.6v0.8c-1.2,2.1-3.8,3.7-7,4.1c-0.6,0.1-1.2,0.1-1.8,0.1v-0.8c0.6,0,1.2,0,1.8-0.1
									C287.3,80.3,289.9,78.7,291.1,76.6"/>
							</g>
						</g>
						<g>
							<polygon class="st6" points="282.4,80.8 282.4,81.7 276.8,81.6 276.8,80.8 							"/>
						</g>
						<g class="st3">
							<defs>
								<path id="SVGID_33_" class="st3" d="M383.7,125.7v0.8c0,2.5-1.8,4.7-4.8,5.9c-0.6,0.2-1.2,0.4-1.8,0.6v-0.8
									c0.6-0.1,1.2-0.3,1.8-0.6C381.9,130.4,383.7,128.1,383.7,125.7z"/>
							</defs>
							<clipPath id="SVGID_34_">
								<use xlink:href="#SVGID_33_"  style="overflow:visible;"/>
							</clipPath>
							<g class="st35">
								<path class="st8" d="M383.7,125.7v0.8c0,0.3,0,0.5-0.1,0.7v-0.8C383.7,126.2,383.7,125.9,383.7,125.7"/>
								<path class="st9" d="M383.7,126.4v0.8c0,0.3-0.1,0.6-0.2,0.9v-0.8C383.5,127,383.6,126.7,383.7,126.4"/>
								<path class="st10" d="M383.5,127.3v0.8c-0.1,0.3-0.3,0.7-0.5,1v-0.8C383.2,128,383.3,127.6,383.5,127.3"/>
								<path class="st5" d="M383,128.3v0.8c-0.8,1.4-2.2,2.6-4,3.3c-0.6,0.2-1.2,0.4-1.8,0.6v-0.8c0.6-0.1,1.2-0.3,1.8-0.6
									C380.8,130.8,382.2,129.7,383,128.3"/>
							</g>
						</g>
						<g>
							<polygon class="st6" points="264.7,134.3 264.7,135.1 213.1,134.6 213.1,133.7 							"/>
						</g>
						<g class="st3">
							<defs>
								<path id="SVGID_35_" class="st3" d="M85.6,134.4v0.8c-2.9-1.3-4.8-3.6-4.8-6v-0.8C80.8,130.9,82.6,133.2,85.6,134.4z"/>
							</defs>
							<clipPath id="SVGID_36_">
								<use xlink:href="#SVGID_35_"  style="overflow:visible;"/>
							</clipPath>
							<g class="st36">
								<path class="st5" d="M85.6,134.4v0.8c-2.9-1.3-4.8-3.6-4.8-6v-0.8C80.8,130.9,82.6,133.2,85.6,134.4"/>
							</g>
						</g>
						<g>
							<polygon class="st6" points="377.2,132.2 377.2,133 368,136.7 368,135.9 							"/>
						</g>
						<g>
							<polygon class="st6" points="368,135.9 368,136.7 323.3,155.1 323.3,154.3 							"/>
						</g>
						<g>
							<polygon class="st6" points="312.2,154.7 312.2,155.6 264.7,135.1 264.7,134.3 							"/>
						</g>
						<g class="st3">
							<defs>
								<path id="SVGID_37_" class="st3" d="M313.9,155.3v0.8c-0.6-0.2-1.2-0.3-1.7-0.6v-0.8C312.7,155,313.3,155.2,313.9,155.3z"/>
							</defs>
							<clipPath id="SVGID_38_">
								<use xlink:href="#SVGID_37_"  style="overflow:visible;"/>
							</clipPath>
							<g class="st37">
								<path class="st5" d="M313.9,155.3v0.8c-0.6-0.2-1.2-0.3-1.7-0.6v-0.8C312.7,155,313.3,155.2,313.9,155.3"/>
							</g>
						</g>
						<g class="st3">
							<defs>
								<path id="SVGID_39_" class="st3" d="M323.3,154.3v0.8c-0.4,0.2-0.9,0.5-1.3,0.7c-1.4,0.6-3,0.9-4.6,0.9
									c-1.2,0-2.3-0.2-3.5-0.5v-0.8c1.1,0.3,2.3,0.5,3.5,0.5c1.6,0,3.2-0.3,4.6-0.9C322.4,154.7,322.9,154.5,323.3,154.3z"/>
							</defs>
							<clipPath id="SVGID_40_">
								<use xlink:href="#SVGID_39_"  style="overflow:visible;"/>
							</clipPath>
							<g class="st38">
								<path class="st5" d="M323.3,154.3v0.8c-0.4,0.2-0.9,0.5-1.3,0.7c-1.4,0.6-3,0.9-4.6,0.9c-1.2,0-2.3-0.2-3.5-0.5v-0.8
									c1.1,0.3,2.3,0.5,3.5,0.5c1.6,0,3.2-0.3,4.6-0.9C322.4,154.7,322.9,154.5,323.3,154.3"/>
							</g>
						</g>
						<g>
							<polygon class="st6" points="142.4,158.8 142.4,159.7 85.6,135.3 85.6,134.4 							"/>
						</g>
						<g>
							<polygon class="st6" points="213.1,133.7 213.1,134.6 151.9,159.8 151.9,158.9 							"/>
						</g>
						<g class="st3">
							<defs>
								<path id="SVGID_41_" class="st3" d="M151.9,158.9v0.8c-1.4,0.6-3,0.9-4.6,0.9c-1.8,0-3.4-0.3-4.9-1v-0.8
									c1.5,0.6,3.1,1,4.9,1C148.8,159.8,150.4,159.5,151.9,158.9z"/>
							</defs>
							<clipPath id="SVGID_42_">
								<use xlink:href="#SVGID_41_"  style="overflow:visible;"/>
							</clipPath>
							<g class="st39">
								<path class="st5" d="M151.9,158.9v0.8c-1.4,0.6-3,0.9-4.6,0.9c-1.8,0-3.4-0.3-4.9-1v-0.8c1.5,0.6,3.1,1,4.9,1
									C148.8,159.8,150.4,159.5,151.9,158.9"/>
							</g>
						</g>
						<g>
							<path class="st16" d="M195.3,15.3l87,0.7c2.5,0,4.9,0.8,6.7,2.1c1.8,1.3,2.8,3.1,2.8,4.9V74c0,3.4-3.3,6.1-7.7,6.7
								c-0.6,0.1-1.2,0.1-1.8,0.1l-5.6-0.1l0,5.2l18.7,8.1l9.6-4c1.4-0.6,3-0.9,4.6-0.9c1.7,0,3.4,0.3,4.9,1l64.3,27.4
								c3,1.3,4.8,3.6,4.8,6.1v2c0,2.5-1.8,4.7-4.8,5.9c-0.6,0.2-1.2,0.4-1.8,0.6l-9.1,3.7l-44.7,18.4c-0.4,0.2-0.9,0.5-1.3,0.7
								c-1.4,0.6-3,0.9-4.6,0.9c-1.2,0-2.3-0.2-3.5-0.5c-0.6-0.2-1.2-0.3-1.7-0.6l-47.4-20.4l-51.6-0.6l-61.2,25.2
								c-1.4,0.6-3,0.9-4.6,0.9c-1.8,0-3.4-0.3-4.9-1l-56.8-24.4c-2.9-1.3-4.8-3.6-4.8-6v-2c0-2.5,1.8-4.7,4.7-5.9l29-12l48.5-19.9
								c1.4-0.6,3-0.9,4.6-0.9c1.7,0,3.3,0.3,4.8,1l9.6,4.1l18.9-7.7v-5.1l-5.6,0c-2.5,0-4.9-0.8-6.7-2.1s-2.8-3.1-2.8-4.9V22.2
								C185.9,18.4,190.1,15.3,195.3,15.3z"/>
						</g>
					</g>
				</g>
			</g>
			<g>
				<polygon class="st17" points="295.2,103.5 266.9,91.3 266.8,73.3 210.2,72.8 210.2,90.7 181.8,102.3 224.4,120.7 252.7,121 				
					"/>
				<polygon class="st18" ng-class="{'pulsate': $ctrl.company.comproom == '303'}" points="195.2,23.7 281.8,24.6 281.8,73.5 195.2,72.7 				"/>
				<polygon class="st18" points="210.1,72.8 231.4,73 231.4,90.8 210.1,90.6 				"/>
				<polygon class="st18" points="231.4,93.9 224.3,96.8 210.1,90.7 231.4,90.8 				"/>
				<polygon class="st18" points="266.3,91.2 266.8,73.3 245.5,73.1 245.5,91 245.5,91.1 245.5,94.1 252.6,97.1 273.9,106.2 
					288.1,100.4 				"/>
				<polygon class="st18" ng-class="{'pulsate': $ctrl.company.comproom == '301'}" points="224.3,120.7 146.7,152.7 89.9,128.2 167.6,96.2 				"/>
				<polygon class="st18" ng-class="{'pulsate': $ctrl.company.comproom == '302'}" points="309.4,97.6 373.4,125.3 316.5,148.6 252.6,121 281,109.3 273.4,106 287.3,100.1 295.2,103.5 				
					"/>
				<polygon class="st18" points="224.3,96.8 195.9,108.4 181.8,102.3 210.1,90.7 				"/>
				<polygon class="st18" ng-class="{'pulsate': $ctrl.company.comproom == '304'}" points="273.7,112.1 245.6,100 231.4,99.8 203,111.4 217.2,117.6 238.5,108.8 259.9,118 				"/>
				<polygon class="st20" points="238.5,108.8 238.5,107 259.9,116.3 259.9,118 				"/>
				<polygon class="st17" points="210.1,126.5 266.8,127.1 245.5,117.9 231.4,117.8 				"/>
				<polygon class="st19" points="282.7,108.6 282.7,107.5 252.7,119 252.7,121 				"/>
				<polygon class="st19" points="210.1,90.7 210.1,89 181.7,100.6 181.8,102.3 				"/>
				<polygon class="st20" points="210.1,90.7 210.1,89 231.1,89.1 231.1,90.8 				"/>
				<polygon class="st20" points="231.3,99.8 231.3,98.1 245.6,98.1 245.6,99.9 				"/>
				<polygon class="st20" points="195,72.7 195,70.9 281.9,71.9 281.9,73.5 				"/>
				<polygon class="st20" points="210.1,90.7 210.1,89 224.3,95.1 224.3,96.8 				"/>
				<polygon class="st20" points="245.6,100 245.6,98.1 273.9,110.8 272.2,111.5 				"/>
				<polygon class="st20" points="195.2,23.7 195.2,22 281.8,22.7 281.7,24.5 				"/>
				<polygon class="st19" points="219.6,98.8 219.6,96.9 195.8,106.5 195.9,108.4 				"/>
				<polygon class="st19" points="231.4,99.8 231.4,98.1 203,109.5 203,111.4 				"/>
				<polygon class="st19" points="238.5,108.9 238.5,107 217.2,115.7 217.2,117.6 				"/>
				<polygon class="st19" points="231.4,93.9 231.5,92 222.7,95.7 222.9,97.4 				"/>
				<polygon class="st19" points="265.8,91 265.8,89.3 295.2,101.8 295.2,103.5 				"/>
				<polygon class="st19" points="256.8,91.4 256.8,89.4 283,100.9 281.4,101.5 				"/>
				<polygon class="st20" points="273.9,105.8 273.9,104.6 287.3,99.1 287.3,100.1 				"/>
				<polygon class="st20" points="295.2,103.5 295.2,102.1 309.7,96.5 309.5,97.6 				"/>
				<polygon class="st19" points="261.6,101 261.6,99.3 270.8,95.5 270.9,97.2 				"/>
				<polygon class="st20" points="247.9,95 248,93.3 256.8,89.4 256.8,91.4 				"/>
				<polygon class="st20" points="167.5,96.2 167.4,94.3 224.4,118.7 224.4,120.7 				"/>
				<polygon class="st19" points="245.5,94.1 245.5,92.2 281.1,107.7 279.3,108.6 				"/>
				<polygon class="st19" points="167.5,96.2 167.4,94.3 89.9,126.3 89.9,128.2 				"/>
				<polygon class="st19" points="224.4,120.5 224.4,118.8 146.7,150.7 146.7,152.7 				"/>
				<polygon class="st20" points="252.6,121 252.6,119.1 316.8,146.7 316.8,148.6 				"/>
				<polygon class="st20" points="89.9,128.2 89.9,126.3 146.7,150.7 146.7,152.7 				"/>
				<polygon class="st20" points="309.5,97.7 309.5,95.8 373.8,123.3 373.8,125.3 				"/>
				<g>
					<path class="st21" d="M309.5,96.6l62.2,26.7l-55,22.5L254.6,119l6.1-2.5l0,0l0.5-0.2l20-8.2l1.5-0.6l-1.5-0.7l-6.3-2.8L287,99
						l7.3,3.2l0.5,0.2l0.5-0.2L309.5,96.6 M309.5,95.8l-14.5,6l-7.8-3.4l-14.1,5.8l7.8,3.4l-20,8.2l0,0l-8.2,3.3l64.2,27.6l57-23.4
						L309.5,95.8L309.5,95.8z"/>
				</g>
				<g>
					<path class="st21" d="M167.3,95.2l55,23.5l-75.7,31.1L92,126.2l26.9-11.2l0,0l0.5-0.2L167.3,95.2 M167.3,94.4l-48.5,19.9l0,0
						l-29,12l56.8,24.4l77.7-32L167.3,94.4L167.3,94.4z"/>
				</g>
				<g>
					<path class="st21" d="M211,89.4l12.2,5.4l-28.3,11.4l-12.1-5.2L211,89.4 M211,88.5l-30.3,12.3l14.1,6.1l30.3-12.2L211,88.5
						L211,88.5z"/>
				</g>
				<g>
					<path class="st21" d="M230.4,89.8v1.8l-6.1,2.6l-10.4-4.5L230.4,89.8 M231.4,89.1L210.3,89l14.1,6.1l7.1-3L231.4,89.1
						L231.4,89.1z"/>
				</g>
				<g>
					<path class="st21" d="M256.8,90.2l12.5,5.2l-7.6,3.1l-12.1-5.3l0.1,0L256.8,90.2 M256.8,89.4l-7.6,3.1l-1.6,0.6l14.1,6.1l9.6-4
						L256.8,89.4L256.8,89.4z"/>
				</g>
				<g>
					<path class="st21" d="M270.2,95.8l11.3,4.8l-7.6,3.2l-11.2-4.9L270.2,95.8 M270.2,95l-9.5,3.9l13.2,5.8l9.7-4L270.4,95
						L270.2,95z"/>
				</g>
				<g>
					<path class="st21" d="M230.4,71.4v17.7l-18.3,0l-1-0.4V71.2L230.4,71.4 M231.4,70.6l-21.3-0.2V89l1.8,0.7l19.5,0.1V70.6
						L231.4,70.6z"/>
				</g>
				<g>
					<path class="st21" d="M265.8,71.7v17.8V90l0.5,0.2l19.8,8.5l-12.2,5l-27.4-11.9V71.4L265.8,71.7 M266.8,71l-21.3-0.2v21.5
						l28.4,12.4l14.2-5.9l-21.3-9.3L266.8,71L266.8,71z"/>
				</g>
				<polygon class="st19" points="210.1,126.4 210.1,124.5 266.8,125.1 266.8,127.1 				"/>
				<polygon class="st19" points="373.7,125.1 373.7,123.3 316.7,146.6 316.7,148.6 				"/>
				<g>
					<path class="st21" d="M280.9,23.3v47.8L196,70.3V22.6L280.9,23.3 M281.9,22.6L195,21.8V71l86.9,0.9V22.6L281.9,22.6z"/>
				</g>
				<polygon class="st21" points="210.1,124.8 210.1,124.1 266.8,124.4 266.8,125.1 				"/>
				<g>
					<polygon class="st18" points="241.4,73.2 235.2,73.1 235.2,70.1 241.4,70.1 					"/>
				</g>
				<g>
					<polygon class="st18" points="257.4,96.3 256,96.9 256.1,98.6 252.3,97 253.3,94.7 253.4,94.1 					"/>
					<polygon class="st20" points="253.3,94.7 252.3,95.2 252.3,97 253.3,96.5 					"/>
				</g>
				<g>
					<polygon class="st18" points="218.3,96.3 219.6,96.9 219.6,98.8 222.9,97.4 222,95.8 220.9,95.3 					"/>
					<polygon class="st20" points="222,95.3 222.9,95.6 222.9,97.4 222,97 					"/>
					<g>
						<polygon class="st19" points="219.6,98.8 219.4,98.8 219.4,97 219.6,96.9 						"/>
					</g>
					<path class="st20" d="M221.4,95.5l0.6,0.3l0-0.6L221.4,95.5z"/>
				</g>
				<g>
					<polygon class="st17" points="274.6,109.8 275.8,110.4 275.8,111.5 278.2,110.5 277.1,108.9 276.5,108.8 					"/>
					<polygon class="st20" points="277.2,109 278.2,109.4 278.2,110.5 277.2,109.9 					"/>
					<g>
						<polygon class="st21" points="275.8,111.4 275.7,111.4 275.7,110.4 275.8,110.4 						"/>
					</g>
				</g>
				<g>
					<polygon class="st18" points="225.2,93.5 226.6,94.1 226.5,95.9 228.8,95 228.8,93.2 227.5,92.7 					"/>
				</g>
				<g>
					<polygon class="st18" points="230.4,88.4 231.4,88.4 231.4,87.1 230.4,87 					"/>
					<polygon class="st20" points="230.4,85.2 231.4,85.2 231.4,87.1 230.4,87 					"/>
				</g>
				<g>
					<polygon class="st18" points="246.5,88.5 245.5,88.5 245.5,87.2 246.5,87.2 					"/>
					<polygon class="st20" points="246.5,85.4 245.5,85.4 245.5,87.2 246.5,87.2 					"/>
				</g>
				<g>
					<path class="st21" d="M231.7,98.7l13.7,0.2l27.2,12l-12,4.9l-21.6-9.4l-0.5-0.2l-0.5,0.2l-21.5,8.9l-12.6-5.4L231.7,98.7
						 M231.4,98l-29.5,11.9l14.6,6.3l22-9.1l22.1,9.6l14-5.8l-29-12.7L231.4,98L231.4,98z"/>
				</g>
				<g>
					<polygon class="st17" points="225.7,99.9 227,100.5 227,101.6 229.3,100.6 228.5,99.1 227.7,98.9 					"/>
					<polygon class="st20" points="228.5,99.1 229.4,99.6 229.4,100.6 228.5,100.2 					"/>
					<g>
						<polygon class="st21" points="227,101.6 226.8,101.7 226.8,100.7 227,100.7 						"/>
					</g>
				</g>
				<g>
					<polygon class="st17" points="202.1,108.9 200.7,109.4 200.7,110.5 197,108.9 197.9,107.6 198.9,107.2 					"/>
					<polygon class="st20" points="197.9,107.4 197,107.9 197,108.9 197.9,108.5 					"/>
					<g>
						<polygon class="st20" points="200.7,110.5 200.7,109.4 200.9,109.5 200.9,110.6 						"/>
					</g>
					<polygon class="st19" points="197.9,107.6 198.3,107.4 197.9,107.3 					"/>
				</g>
				<g>
					<polygon class="st17" points="251.8,100.3 250.5,100.9 250.5,102.1 246.7,100.5 247.7,99 248.8,98.7 					"/>
					<polygon class="st20" points="247.6,99 246.7,99.4 246.7,100.4 247.6,100.1 					"/>
					<g>
						<polygon class="st21" points="250.4,102.1 250.5,100.9 250.6,101 250.6,102.1 						"/>
					</g>
				</g>
			</g>
			<polygon class="st20" points="227.7,92.8 228.8,93.2 228.8,95 227.7,94.5 			"/>
		</g>
		<polygon class="st18" points="253.4,96.7 253.4,94.9 251.1,93.9 257,91.6 268,96.1 261.9,98.6 257.3,96.6 256.1,97 256.2,98.8 
			252.4,97.2 		"/>
		<polygon class="st18" points="271.1,97.4 280.5,101.2 274.1,103.9 264.9,99.9 		"/>
	</g>
</g>
</svg>
