<?xml version="1.0" encoding="utf-8"?>
<!-- Generator: Adobe Illustrator 22.0.1, SVG Export Plug-In . SVG Version: 6.00 Build 0)  -->
<svg version="1.1" id="Layer_2_1_" xmlns="http://www.w3.org/2000/svg" xmlns:xlink="http://www.w3.org/1999/xlink" x="0px" y="0px"
	 viewBox="0 0 472.7 347.9" style="enable-background:new 0 0 472.7 347.9;" xml:space="preserve">
<style type="text/css">
	.st0{opacity:0.69;}
	.st1{enable-background:new    ;}
	.st2{clip-path:url(#SVGID_2_);enable-background:new    ;}
	.st3{fill:#838D90;}
	.st4{clip-path:url(#SVGID_4_);enable-background:new    ;}
	.st5{fill:#7B8487;}
	.st6{clip-path:url(#SVGID_6_);enable-background:new    ;}
	.st7{fill:#808A8D;}
	.st8{fill:#7D878A;}
	.st9{clip-path:url(#SVGID_8_);enable-background:new    ;}
	.st10{clip-path:url(#SVGID_10_);enable-background:new    ;}
	.st11{fill:#788184;}
	.st12{clip-path:url(#SVGID_12_);enable-background:new    ;}
	.st13{clip-path:url(#SVGID_14_);enable-background:new    ;}
	.st14{fill:#AFBBBE;}
	.st15{clip-path:url(#SVGID_16_);enable-background:new    ;}
	.st16{fill:#B7B8AC;}
	.st17{fill:#D4D4D4;}
	.st18{display:none;}
	.st19{fill:#9D9D9E;}
	.st20{fill:#B9C1C3;}
</style>
<g class="st0">
	
		<image style="overflow:visible;enable-background:new    ;" width="1821" height="992" xlink:href="AC13B44A501D7B47.png"  transform="matrix(0.2395 0 0 0.2395 36.5087 89.24)">
	</image>
</g>
<g>
	<g>
		<g class="st1">
			<g class="st1">
				<g>
					<defs>
						<path id="SVGID_1_" d="M434.9,178.9v0.8v0.1V179C434.9,179,434.9,179,434.9,178.9z"/>
					</defs>
					<clipPath id="SVGID_2_">
						<use xlink:href="#SVGID_1_"  style="overflow:visible;"/>
					</clipPath>
					<g class="st2">
						<path class="st3" d="M434.9,178.9v0.8v0.1V179C434.9,179,434.9,179,434.9,178.9"/>
					</g>
				</g>
			</g>
			<g class="st1">
				<g>
					<defs>
						<path id="SVGID_3_" d="M70.8,179.7v-0.8c0,0.1,0,0.1,0,0.2v0.8C70.8,179.8,70.8,179.8,70.8,179.7z"/>
					</defs>
					<clipPath id="SVGID_4_">
						<use xlink:href="#SVGID_3_"  style="overflow:visible;"/>
					</clipPath>
					<g class="st4">
						<path class="st5" d="M70.8,179.1v0.8c0-0.1,0-0.1,0-0.2v-0.8C70.8,178.9,70.8,179,70.8,179.1"/>
					</g>
				</g>
			</g>
			<g class="st1">
				<g>
					<defs>
						<path id="SVGID_5_" d="M434.9,179v0.8c0,1.1-0.2,2.2-0.6,3.2v-0.8C434.7,181.3,434.9,180.2,434.9,179z"/>
					</defs>
					<clipPath id="SVGID_6_">
						<use xlink:href="#SVGID_5_"  style="overflow:visible;"/>
					</clipPath>
					<g class="st6">
						<path class="st3" d="M434.9,179v0.8c0,0.4,0,0.8-0.1,1.2v-0.8C434.9,179.9,434.9,179.4,434.9,179"/>
						<path class="st7" d="M434.8,180.2v0.8c-0.1,0.5-0.2,1-0.4,1.5v-0.8C434.6,181.3,434.7,180.8,434.8,180.2"/>
						<path class="st8" d="M434.5,181.8v0.8c-0.1,0.2-0.1,0.3-0.2,0.5v-0.8C434.3,182.1,434.4,181.9,434.5,181.8"/>
					</g>
				</g>
			</g>
			<g class="st1">
				<g>
					<defs>
						<path id="SVGID_7_" d="M70.7,181.4v-0.8c0,3.2,1.8,6.2,5.4,8.4v0.8C72.5,187.6,70.7,184.5,70.7,181.4z"/>
					</defs>
					<clipPath id="SVGID_8_">
						<use xlink:href="#SVGID_7_"  style="overflow:visible;"/>
					</clipPath>
					<g class="st9">
						<path class="st5" d="M76.1,188.9v0.8c-3.6-2.1-5.4-5.2-5.4-8.4v-0.8C70.7,183.7,72.5,186.8,76.1,188.9"/>
					</g>
				</g>
			</g>
			<g class="st1">
				<g>
					<defs>
						<path id="SVGID_9_" d="M434.3,182.3v0.8c-0.5,2.8-2.3,5.4-5.1,6.7V189C432,187.7,433.8,185.1,434.3,182.3z"/>
					</defs>
					<clipPath id="SVGID_10_">
						<use xlink:href="#SVGID_9_"  style="overflow:visible;"/>
					</clipPath>
					<g class="st10">
						<path class="st7" d="M434.3,182.3v0.8c-0.1,0.5-0.2,0.9-0.3,1.4v-0.8C434.1,183.2,434.2,182.7,434.3,182.3"/>
						<path class="st8" d="M433.9,183.6v0.8c-0.2,0.6-0.4,1.1-0.7,1.6v-0.8C433.5,184.8,433.7,184.2,433.9,183.6"/>
						<path class="st5" d="M433.2,185.3v0.8c-0.9,1.6-2.3,2.9-4,3.7V189C430.9,188.2,432.3,186.8,433.2,185.3"/>
					</g>
				</g>
			</g>
			<g>
				<polygon class="st11" points="429.2,189 429.2,189.8 418.2,194.9 418.2,194 				"/>
			</g>
			<g>
				<polygon class="st11" points="96.8,201 96.8,201.8 76.1,189.7 76.1,188.9 				"/>
			</g>
			<g class="st1">
				<g>
					<defs>
						<path id="SVGID_11_" d="M98,201.7v0.8c-0.4-0.2-0.8-0.4-1.2-0.7V201C97.2,201.2,97.6,201.5,98,201.7z"/>
					</defs>
					<clipPath id="SVGID_12_">
						<use xlink:href="#SVGID_11_"  style="overflow:visible;"/>
					</clipPath>
					<g class="st12">
						<path class="st5" d="M98,201.7v0.8c-0.4-0.2-0.8-0.4-1.2-0.7V201C97.2,201.2,97.6,201.5,98,201.7"/>
					</g>
				</g>
			</g>
			<g>
				<polygon class="st11" points="140.9,226.7 140.9,227.5 98,202.5 98,201.7 				"/>
			</g>
			<g class="st1">
				<g>
					<defs>
						<path id="SVGID_13_" d="M142.1,227.4v0.8c-0.4-0.2-0.8-0.4-1.2-0.7v-0.8C141.3,227,141.7,227.2,142.1,227.4z"/>
					</defs>
					<clipPath id="SVGID_14_">
						<use xlink:href="#SVGID_13_"  style="overflow:visible;"/>
					</clipPath>
					<g class="st13">
						<path class="st5" d="M142.1,227.4v0.8c-0.4-0.2-0.8-0.4-1.2-0.7v-0.8C141.3,227,141.7,227.2,142.1,227.4"/>
					</g>
				</g>
			</g>
			<g>
				<polygon class="st11" points="228,277.5 228,278.4 142.1,228.2 142.1,227.4 				"/>
			</g>
			<g>
				<polygon class="st11" points="418.2,194 418.2,194.9 236.3,278.8 236.3,277.9 				"/>
			</g>
			<g>
				<path class="st14" d="M247.1,114.2c1.4,0,2.8,0.3,4.1,1l108,54.7l19.9-8.5l13-5.6c1.1-0.5,2.3-0.7,3.5-0.7c1.4,0,2.7,0.3,4,0.9
					l30.4,14.9c3.1,1.5,5.1,4.7,5,8.2c0,1.1-0.2,2.2-0.6,3.2c-0.5,2.8-2.3,5.4-5.1,6.7l-10.9,5l-181.9,83.9
					c-1.2,0.6-2.5,0.8-3.8,0.8c-1.6,0-3.1-0.4-4.5-1.2l-85.9-50.1c-0.4-0.2-0.8-0.4-1.2-0.7l-42.9-25c-0.4-0.2-0.8-0.4-1.2-0.7
					l-20.7-12.1c-4.1-2.4-5.9-6.1-5.2-9.8c0-0.4,0-0.8,0-1.1c0.4-3.5,2.8-6.5,6.1-7.6l138-46l1.6-0.5l27.7-9.2
					C245.2,114.3,246.2,114.2,247.1,114.2z"/>
			</g>
			<g class="st1">
				<g>
					<defs>
						<path id="SVGID_15_" d="M236.3,277.9v0.8c-1.2,0.6-2.5,0.8-3.8,0.8c-1.6,0-3.1-0.4-4.5-1.2v-0.8c1.4,0.8,3,1.2,4.5,1.2
							C233.8,278.7,235.1,278.5,236.3,277.9z"/>
					</defs>
					<clipPath id="SVGID_16_">
						<use xlink:href="#SVGID_15_"  style="overflow:visible;"/>
					</clipPath>
					<g class="st15">
						<path class="st5" d="M236.3,277.9v0.8c-1.2,0.6-2.5,0.8-3.8,0.8c-1.6,0-3.1-0.4-4.5-1.2v-0.8c1.4,0.8,3,1.2,4.5,1.2
							C233.8,278.7,235.1,278.5,236.3,277.9"/>
					</g>
				</g>
			</g>
		</g>
	</g>
</g>
<polygon class="st16" points="231.7,268 79.8,179.2 246.3,123.4 358.4,180.4 395.2,164.5 424.5,178.9 "/>
<polygon class="st17" points="184.6,209.4 194.4,215 180.6,220.8 189.3,225.9 198.8,221.7 206.4,226.2 187.9,234.4 160.8,218.7 "/>
<g class="st18">
	
		<image style="display:inline;overflow:visible;enable-background:new    ;" width="1633" height="929" id="jJBHY4" xlink:href="AC13B44A501D7B45.png"  transform="matrix(0.2388 0 0 0.2388 61.8174 70.7081)">
	</image>
</g>
<polygon class="st17" points="237.9,232.2 270,250.3 296.7,238 265.1,220.7 "/>
<polygon class="st17" points="288.3,210.7 319.5,227.5 296.7,238 265.1,220.7 "/>
<polygon class="st17" points="301.8,204.8 332.7,221.3 319.5,227.5 288.3,210.7 "/>
<polygon class="st17" points="321.4,196.4 352,212.4 332.7,221.3 301.8,204.8 "/>
<polygon class="st17" points="346.3,185.6 376.5,201.1 352,212.4 321.4,196.4 "/>
<polygon class="st17" points="352.3,183 367.3,190.6 373.3,188 388.3,195.6 376.5,201.1 346.3,185.6 "/>
<polygon class="st17" points="372.6,174.2 402.3,189.1 388.3,195.6 358.4,180.4 "/>
<polygon class="st17" points="406.1,180.3 413.6,184 402.3,189.1 394.9,185.4 "/>
<polygon class="st17" points="398.7,176.6 409.7,171.7 424.5,178.9 413.6,184 "/>
<polygon class="st17" points="398.7,176.6 409.7,171.7 395.2,164.5 384,169.3 "/>
<polygon class="st17" points="369.8,186.2 383.9,179.9 402.3,189.1 388.3,195.6 "/>
<polygon class="st17" points="239.2,143.3 253.7,138.2 233.6,127.7 218.6,132.7 "/>
<polygon class="st17" points="141.2,177.6 122.1,183.9 101.9,171.8 120.2,165.7 "/>
<polygon class="st17" points="101,191.7 122.1,183.9 101.9,171.8 79.8,179.2 "/>
<polygon class="st17" points="184.8,202.2 141.2,177.6 101,191.7 145.1,217.4 "/>
<polygon class="st17" points="218.8,188.9 184.8,202.2 141.2,177.6 176.2,165.3 "/>
<polygon class="st17" points="193.3,159.3 176.2,165.3 155.4,153.9 172.6,148.2 "/>
<polygon class="st17" points="207.3,154.4 193.3,159.3 172.6,148.2 186.7,143.4 "/>
<polygon class="st17" points="281.1,165.1 307.8,154.7 266.4,133.7 239.2,143.3 "/>
<polygon class="st17" points="224.2,148.5 207.3,154.4 186.7,143.4 203.5,137.8 "/>
<polygon class="st17" points="239.1,143.2 224.2,148.5 203.7,137.8 218.6,132.7 "/>
<polygon class="st17" points="159.9,171 139,159.4 155.4,154 176.2,165.3 "/>
<polygon class="st17" points="141.2,177.6 120.2,165.7 139,159.4 159.9,171 "/>
<polygon class="st17" points="176.7,212.4 152.7,221.8 145.1,217.4 169.2,208.1 "/>
<polygon class="st17" points="249.8,177.1 218.8,188.9 176.2,165.3 207.6,154.4 "/>
<polygon class="st17" points="281.1,165.1 249.8,177.1 207.3,154.4 239.2,143.3 "/>
<polygon class="st17" points="192.2,206.3 211.9,198.7 256.8,224.3 237.9,232.2 "/>
<polygon class="st17" points="338.9,181.8 317,170.5 329.1,165.5 351,176.6 "/>
<polygon class="st17" points="307,165.4 317,170.5 329.2,165.6 319.3,160.5 "/>
<polygon class="st17" points="295.5,159.5 307,165.4 319.3,160.5 307.8,154.7 "/>
<polygon class="st17" points="296.3,165.6 314.5,175 295.3,182.7 277.1,173.1 "/>
<polygon class="st17" points="332.8,184.4 313.9,192.5 295.3,182.7 314.5,175 "/>
<polygon class="st17" points="257.1,181 277.1,173.1 299,184.6 279.2,192.8 "/>
<polygon class="st17" points="294.1,200.8 279.2,192.8 299,184.6 313.9,192.5 "/>
<polygon class="st17" points="219.5,195.7 257.1,181 294.1,200.8 257.2,216.5 "/>
<polygon class="st19" points="246.3,123.5 246.2,121.7 358,178.6 358.3,180.4 "/>
<polygon class="st20" points="246.3,123.5 246.2,121.7 80.2,177 79.8,179.2 "/>
<polygon class="st20" points="266.4,133.7 266.3,132 101.4,189.4 101,191.7 "/>
<polygon class="st20" points="307.9,154.8 307.6,152.9 145.4,215 145.1,217.5 "/>
<polygon class="st20" points="211.9,198.7 211.9,196.5 192.2,204.1 192.2,206.3 "/>
<path class="st19" d="M296.5,163.9l35.7,18.4c0.1,0,0.2,0.1,0.2,0.2l0.3,1.5c0,0.2-0.2,0.3-0.4,0.2l-35.8-18.5
	c-0.1,0-0.1-0.1-0.2-0.2l-0.2-1.4C296.1,163.9,296.3,163.8,296.5,163.9z"/>
<polygon class="st20" points="314.6,175 314.3,173 295.3,180.7 295.5,182.8 "/>
<polygon class="st19" points="276.9,171.2 313.6,190.4 313.9,192.5 277.1,173.1 "/>
<polygon class="st20" points="296.3,165.6 296.1,163.6 219.4,193.3 219.5,195.7 "/>
<polygon class="st20" points="299,184.6 298.7,182.6 278.9,190.7 279.2,192.8 "/>
<polyline class="st20" points="318.9,158.7 319.3,160.5 307,165.4 306.7,163.5 318.7,158.7 "/>
<polygon class="st20" points="316.7,168.6 317,170.5 329.2,165.6 328.7,163.6 "/>
<polygon class="st20" points="351,176.6 350.6,174.7 338.5,179.8 338.9,181.8 "/>
<polygon class="st20" points="394.6,162.7 395.2,164.5 358.3,180.4 357.9,178.4 "/>
<polygon class="st20" points="409.7,171.7 409.2,169.8 398.1,174.7 398.7,176.6 "/>
<polygon class="st19" points="383.5,167.4 413,182 413.6,184 384,169.3 "/>
<polygon class="st19" points="256.9,178.9 293.8,198.6 294.1,200.8 257.1,181 "/>
<polygon class="st20" points="394.9,185.4 394.3,183.4 405.5,178.3 406.1,180.3 "/>
<polygon class="st19" points="372.1,172.3 401.7,187.2 402.3,189.1 372.6,174.2 "/>
<polygon class="st20" points="383.4,177.9 383.9,179.9 369.8,186.2 369.3,184.2 "/>
<polygon class="st19" points="423.9,177 394.6,162.7 395.2,164.5 424.5,178.9 "/>
<polygon class="st19" points="387.8,193.6 388.3,195.6 358.3,180.4 357.9,178.4 "/>
<polygon class="st19" points="366.9,188.6 351.9,181 352.3,183 367.3,190.6 "/>
<polygon class="st19" points="218.4,193.5 257.1,214.3 257.2,216.5 218.5,195.1 "/>
<polygon class="st19" points="211.9,196.5 256.6,222 256.8,224.3 211.9,198.7 "/>
<polygon class="st20" points="333.2,182.5 257.1,214.3 257.2,216.5 333.5,184.1 "/>
<polygon class="st20" points="351.9,181 352.3,183 238.2,232.3 238.1,229.7 "/>
<polygon class="st20" points="372.8,186 373.3,188 367.3,190.6 366.9,188.6 "/>
<polygon class="st19" points="345.9,183.6 376,199 376.5,201.1 346.3,185.6 "/>
<polygon class="st19" points="321,194.3 351.5,210.3 352,212.4 321.4,196.4 "/>
<polygon class="st19" points="301.5,202.7 332.3,219.1 332.7,221.3 301.8,204.8 "/>
<polygon class="st19" points="191.2,204 269.8,247.8 270,250.3 191.2,205.8 "/>
<polygon class="st19" points="288,208.5 319.1,225.2 319.5,227.5 288.3,210.7 "/>
<polygon class="st19" points="169.3,205.9 176.8,210.1 176.7,212.4 169.2,208.1 "/>
<polygon class="st19" points="264.9,218.4 296.4,235.6 296.7,238 265.1,220.7 "/>
<polygon class="st19" points="194.4,212.7 184.6,207.1 184.6,209.4 194.4,215 "/>
<polygon class="st20" points="180.7,218.5 195.4,212.7 195.3,214.6 180.6,220.8 "/>
<polygon class="st19" points="189.4,223.5 189.3,225.9 179.6,220.2 179.7,218.4 "/>
<polygon class="st20" points="198.8,219.4 198.8,221.7 189.3,225.9 189.4,223.5 "/>
<polygon class="st19" points="206.5,223.8 206.4,226.2 198.8,221.7 198.8,219.4 "/>
<polygon class="st20" points="188,231.9 207.4,223.8 207.4,225.7 187.9,234.4 "/>
<polygon class="st20" points="176.8,210.1 160.9,216.3 160.8,218.7 176.7,212.4 184.6,209.4 184.6,207.1 "/>
<polygon class="st19" points="160.9,216.3 188,231.9 187.9,234.4 160.8,218.7 "/>
<polygon class="st19" points="295.2,157.6 338.5,179.8 338.9,181.8 295.5,159.5 "/>
<polygon class="st19" points="233.6,127.7 233.5,126 253.7,136.3 251.7,137 "/>
<polygon class="st20" points="152.9,219.5 160.9,216.3 160.8,218.7 152.7,221.8 "/>
<polygon class="st19" points="79.2,177.1 231.6,265.4 231.7,268 78.8,178.7 "/>
<polygon class="st19" points="218.5,131 239,141.4 237,142.1 218.6,132.7 "/>
<path class="st19" d="M203.5,136c0,0,21.1,10.6,20.6,10.7c-0.4,0.1-2.1,0.7-2.1,0.7l-18.5-9.6V136z"/>
<polygon class="st19" points="155.6,152 176.3,163.3 174,164.1 155.4,153.9 "/>
<polygon class="st19" points="186.8,141.6 207.3,152.5 205.1,153.3 186.7,143.4 "/>
<polygon class="st19" points="172.7,146.3 193.3,157.4 191.1,158.2 172.6,148.2 "/>
<polygon class="st19" points="139.2,157.4 160.1,169 157.5,169.9 139,159.4 "/>
<polygon class="st19" points="120.4,163.7 141.4,175.5 139,176.3 120.2,165.7 "/>
<polygon class="st19" points="102.2,169.7 122.4,181.8 119.9,182.6 101.9,171.8 "/>
<polygon class="st19" points="239,141.4 280.9,163.4 278.8,164 239.2,143.3 "/>
<polygon class="st19" points="176.3,163.3 218.7,186.8 216.5,187.6 176.2,165.3 "/>
<polygon class="st17" points="246.3,123.4 263.7,132.3 253.7,135.8 236.1,126.9 "/>
<polygon class="st19" points="141.4,175.5 184.8,199.9 182.5,200.9 141.2,177.6 "/>
<polygon class="st19" points="207.3,152.5 249.7,175.1 247.4,175.9 207.3,154.4 "/>
<polygon class="st20" points="231.6,265.4 231.7,268 424.5,178.9 423.9,177 "/>
<g>
	<path class="st20" d="M231.5,265.9l-0.2-0.1L79,177l167.3-55.8l0.2,0.1L358,177.9l36.7-15.8l0.2,0.1l30.2,14.8l-1,0.4L231.5,265.9z
		 M81.4,177.2l150.2,87.6L422.7,177l-28.1-13.8L357.9,179l-0.2-0.1l-111.5-56.6L81.4,177.2z"/>
	<path class="st20" d="M122.7,182.5l-21.6-12.9l19.4-6.5l22.2,12.5L122.7,182.5z M103.4,169.9l19.3,11.6l17.5-6.1l-19.8-11.2
		L103.4,169.9z"/>
	<path class="st20" d="M101.3,190L79,177l23.3-7.8l21.6,12.9L101.3,190z M81.4,177.2l20.1,11.7l20.1-7l-19.3-11.6L81.4,177.2z"/>
	<path class="st20" d="M145.3,215.6l-0.2-0.1l-44.9-26.2l41.3-14.4l0.2,0.1l44.3,25L145.3,215.6z M102.6,189.6l42.8,25l38.3-14.7
		L141.4,176L102.6,189.6z"/>
	<path class="st20" d="M184.8,200.5l-44.6-25.1l36.1-12.6l0.2,0.1l43.3,24L184.8,200.5z M142.7,175.6l42.2,23.8l32.7-12.7
		l-41.3-22.8L142.7,175.6z"/>
	<path class="st20" d="M218.7,187.3l-0.2-0.1l-43.4-24l32.5-11.3l43.3,23.2L218.7,187.3z M177.5,163.4l41.2,22.8l29.7-11.2l-41-22
		L177.5,163.4z"/>
	<path class="st20" d="M176.3,163.9l-0.2-0.1l-21.8-11.9l18.5-6.1l21.8,11.8L176.3,163.9z M156.8,152.1l19.6,10.7l15.7-5.5
		l-19.4-10.5L156.8,152.1z"/>
	<path class="st20" d="M193.3,157.9l-21.8-11.8l15.4-5.1l21.7,11.6L193.3,157.9z M173.9,146.4l19.4,10.5l12.7-4.4l-19.3-10.3
		L173.9,146.4z"/>
	<path class="st20" d="M280.8,163.7l-43-22.3l28.5-10l0.2,0.1l42.3,21.5L280.8,163.7z M240.3,141.6l40.5,21l25.5-9.8l-40.1-20.3
		L240.3,141.6z"/>
	<path class="st20" d="M239,142l-21.8-11.1l16.3-5.4l21.4,10.9L239,142z M219.8,131.1l19.3,9.9l13.3-4.7l-18.9-9.7L219.8,131.1z"/>
	<path class="st20" d="M249.7,175.6l-0.2-0.1l-43.4-23.1l33.1-11.5l0.2,0.1l42.8,22.2L249.7,175.6z M208.6,152.6l41.2,21.9
		l29.9-11.5L239,142L208.6,152.6z"/>
	<path class="st20" d="M207.3,153.1l-21.7-11.6l18.1-6l21.8,11.3L207.3,153.1z M188,141.7l19.3,10.3l15.6-5.4l-19.4-10L188,141.7z"
		/>
	<path class="st20" d="M224.1,147.2l-21.7-11.3l16.2-5.4l21.7,11.1L224.1,147.2z M205,136.1l19.2,10l13.6-4.8l-19.3-9.8L205,136.1z"
		/>
	<path class="st20" d="M160,169.5l-22-12.2l17.6-5.9l21.9,12L160,169.5z M140.5,157.6l19.6,10.9l15-5.2l-19.6-10.7L140.5,157.6z"/>
	<path class="st20" d="M141.4,176l-22.2-12.5l20-6.7l0.2,0.1l21.8,12.1L141.4,176z M121.7,163.8l19.8,11.2l17.4-6.1L139.2,158
		L121.7,163.8z"/>
	<path class="st20" d="M152.8,220l-8.6-5l25.2-9.7l8.6,4.9L152.8,220z M146.5,215.2l6.4,3.7l22.8-8.8l-6.4-3.6L146.5,215.2z"/>
	<path class="st20" d="M187.9,232.5l-28.1-16.3l24.9-9.7l10.9,6.2l-13.7,5.8l7.6,4.4l9.5-4.1l8.7,5L187.9,232.5z M162.1,216.4
		l25.9,15l17.3-7.6l-6.5-3.8l-9.5,4.1l-9.7-5.6l13.7-5.8l-8.7-4.9L162.1,216.4z"/>
	<path class="st20" d="M237.8,230.4l-0.2-0.1L191,204l20.9-8l0.2,0.1l45.6,25.9L237.8,230.4z M193.4,204.2l44.5,25.1l17.6-7.4
		l-43.6-24.7L193.4,204.2z"/>
	<path class="st20" d="M269.8,248.4l-33.1-18.6l28.2-11.9l32.6,17.8L269.8,248.4z M239,229.9l30.9,17.3l25.5-11.7L264.9,219
		L239,229.9z"/>
	<path class="st20" d="M296.4,236.1l-0.2-0.1l-32.4-17.7l24.3-10.4l32.2,17.3L296.4,236.1z M266,218.5l30.4,16.6l21.5-9.9L288,209
		L266,218.5z"/>
	<path class="st20" d="M319.1,225.7l-0.2-0.1l-32-17.2l14.6-6.3l0.2,0.1l31.7,16.9L319.1,225.7z M289.2,208.5l29.9,16.1l12.1-5.5
		l-29.7-15.8L289.2,208.5z"/>
	<path class="st20" d="M332.3,219.7l-32-17l20.7-8.9l0.2,0.1l31.4,16.5L332.3,219.7z M302.6,202.7l29.7,15.8l18.1-8.3L321,194.8
		L302.6,202.7z"/>
	<path class="st20" d="M351.5,210.8l-31.7-16.6l26.1-11.2l0.2,0.1l31,15.9L351.5,210.8z M322.2,194.3l29.4,15.4l23.3-10.7L346,184.2
		L322.2,194.3z"/>
	<path class="st20" d="M376,199.5l-31.2-16l7.2-3.1l14.9,7.6l5.9-2.6l16.2,8.2L376,199.5z M347.1,183.6l28.9,14.8l10.6-4.9l-13.9-7
		l-5.9,2.6l-15-7.6L347.1,183.6z"/>
	<path class="st20" d="M387.8,194.1l-31-15.7l15.4-6.6l30.7,15.4L387.8,194.1z M359.1,178.5l28.7,14.5l12.8-5.9l-28.5-14.3
		L359.1,178.5z"/>
	<path class="st20" d="M401.7,187.7l-8.6-4.3l12.3-5.6l8.7,4.3L401.7,187.7z M395.5,183.4l6.3,3.2l10-4.6l-6.3-3.1L395.5,183.4z"/>
	<path class="st20" d="M413,182.6l-16.1-8l12.3-5.4l15.9,7.8L413,182.6z M399.3,174.7l13.7,6.8l9.7-4.5l-13.6-6.7L399.3,174.7z"/>
	<path class="st20" d="M398.1,175.2l-15.8-7.8l12.3-5.3l15.7,7.7L398.1,175.2z M384.7,167.5l13.4,6.7l9.9-4.3l-13.4-6.6L384.7,167.5
		z"/>
	<path class="st20" d="M387.8,194.1l-0.2-0.1l-19.4-9.9l15.3-6.7l19.5,9.8L387.8,194.1z M370.5,184.2l17.3,8.8l12.8-5.9l-17.2-8.6
		L370.5,184.2z"/>
	<path class="st20" d="M338.5,180.3l-0.2-0.1l-22.8-11.7l13.3-5.5l23,11.7L338.5,180.3z M317.9,168.6l20.7,10.6l10.9-4.6l-20.7-10.5
		L317.9,168.6z"/>
	<path class="st20" d="M316.6,169.1l-11.1-5.7l13.5-5.3l11.1,5.6L316.6,169.1z M307.9,163.6l8.8,4.5l11-4.4l-8.7-4.4L307.9,163.6z"
		/>
	<path class="st20" d="M306.7,164l-12.7-6.5l13.6-5.2l0.2,0.1l12.4,6.3L306.7,164z M296.5,157.7l10.3,5.3l11-4.3l-10.2-5.2
		L296.5,157.7z"/>
	<path class="st20" d="M295,181.3l-19.3-10.2l20.4-8l19.3,9.9L295,181.3z M278.1,171.2l17,8.9l17.9-7.2l-16.9-8.7L278.1,171.2z"/>
	<path class="st20" d="M313.5,190.9l-19.7-10.3l20.3-8.2l0.2,0.1l19.2,9.9L313.5,190.9z M296.3,180.8l17.3,9.1l17.6-7.5l-17.1-8.8
		L296.3,180.8z"/>
	<path class="st20" d="M278.9,191.2l-23.2-12.4l21.2-8.3l0.2,0.1l22.7,11.9L278.9,191.2z M258.1,179l20.9,11.1l18.5-7.6l-20.6-10.8
		L258.1,179z"/>
	<path class="st20" d="M293.8,199.2l-16.1-8.5l20.9-8.6l16,8.4L293.8,199.2z M280.1,190.7l13.8,7.3l18.5-7.7l-13.7-7.2L280.1,190.7z
		"/>
	<path class="st20" d="M257.1,214.8l-38.8-21.4l38.7-15.1l0.2,0.1l37.9,20.2L257.1,214.8z M220.6,193.6l36.5,20.1l35.6-15.1
		l-35.8-19.1L220.6,193.6z"/>
</g>
</svg>
