<?xml version="1.0" encoding="utf-8"?>
<!-- Generator: Adobe Illustrator 21.1.0, SVG Export Plug-In . SVG Version: 6.00 Build 0)  -->
<svg version="1.1" xmlns="http://www.w3.org/2000/svg" xmlns:xlink="http://www.w3.org/1999/xlink" x="0px" y="0px"
	 viewBox="0 0 472.7 347.9" style="enable-background:new 0 0 472.7 347.9;" xml:space="preserve">
<style type="text/css">
	.st0{opacity:0.69;}
	.st1{enable-background:new    ;}
	.st2{clip-path:url(#SVGID_2_);enable-background:new    ;}
	.st3{fill:#838D90;}
	.st4{fill:#808A8D;}
	.st5{fill:#7D878A;}
	.st6{fill:#7E878A;}
	.st7{clip-path:url(#SVGID_4_);enable-background:new    ;}
	.st8{fill:#7B8487;}
	.st9{clip-path:url(#SVGID_6_);enable-background:new    ;}
	.st10{clip-path:url(#SVGID_8_);enable-background:new    ;}
	.st11{fill:#788184;}
	.st12{clip-path:url(#SVGID_10_);enable-background:new    ;}
	.st13{clip-path:url(#SVGID_12_);enable-background:new    ;}
	.st14{clip-path:url(#SVGID_14_);enable-background:new    ;}
	.st15{fill:#AFBBBE;}
	.st16{clip-path:url(#SVGID_16_);enable-background:new    ;}
	.st17{fill:#B7B8AC;}
	.st18{fill:#CBD4D5;}
	.st19{display:none;}
	.st20{display:inline;fill:none;stroke:#58595B;stroke-miterlimit:10;}
	.st21{fill:#D4D4D4;}
	.st22{fill:#9D9D9E;}
	.st23{fill:#BCBCBC;}
	.st24{fill:#B9C1C3;}
	.st25{fill:#C0CDD0;}
	.st26{clip-path:url(#SVGID_18_);enable-background:new    ;}
	.st27{clip-path:url(#SVGID_20_);enable-background:new    ;}
	.st28{clip-path:url(#SVGID_22_);enable-background:new    ;}
	.st29{clip-path:url(#SVGID_24_);enable-background:new    ;}
	.st30{clip-path:url(#SVGID_26_);enable-background:new    ;}
	.st31{clip-path:url(#SVGID_28_);enable-background:new    ;}
	.st32{clip-path:url(#SVGID_30_);enable-background:new    ;}
	.st33{clip-path:url(#SVGID_32_);enable-background:new    ;}
</style>
<g id="Layer_1">
	<g class="st0">
		
			<image style="overflow:visible;" width="1796" height="861" xlink:href="18BEABED3459442A.png"  transform="matrix(0.24 0 0 0.24 25.108 161.0233)">
		</image>
	</g>
	<g>
		<g>
			<g class="st1">
				<g class="st1">
					<defs>
						<path id="SVGID_1_" class="st1" d="M432.4,246.9v0.8c0,1-0.2,1.9-0.5,2.9v-0.8C432.2,248.8,432.4,247.8,432.4,246.9z"/>
					</defs>
					<clipPath id="SVGID_2_">
						<use xlink:href="#SVGID_1_"  style="overflow:visible;"/>
					</clipPath>
					<g class="st2">
						<path class="st3" d="M432.4,246.9v0.8c0,0.4,0,0.9-0.1,1.3v-0.8C432.4,247.7,432.4,247.3,432.4,246.9"/>
						<path class="st4" d="M432.3,248.2v0.8c-0.1,0.5-0.2,1-0.4,1.5v-0.8C432.1,249.2,432.2,248.7,432.3,248.2"/>
						<path class="st5" d="M431.9,249.7v0.8c0,0,0,0.1,0,0.1L431.9,249.7C431.9,249.7,431.9,249.7,431.9,249.7"/>
					</g>
				</g>
				<g>
					<polygon class="st6" points="431.9,249.7 431.9,250.6 431,253.2 431,252.4 					"/>
				</g>
				<g class="st1">
					<defs>
						<path id="SVGID_3_" class="st1" d="M52.7,248v-0.8c0,1.6,0.4,3.2,1.3,4.6c0.3,0.5,0.6,0.9,0.9,1.3v0.8
							c-0.4-0.4-0.7-0.9-0.9-1.3C53.1,251.2,52.7,249.6,52.7,248z"/>
					</defs>
					<clipPath id="SVGID_4_">
						<use xlink:href="#SVGID_3_"  style="overflow:visible;"/>
					</clipPath>
					<g class="st7">
						<path class="st8" d="M54.9,253.1v0.8c-0.4-0.4-0.7-0.9-0.9-1.3c-0.8-1.4-1.3-3-1.3-4.6v-0.8c0,1.6,0.4,3.2,1.3,4.6
							C54.2,252.2,54.5,252.6,54.9,253.1"/>
					</g>
				</g>
				<g class="st1">
					<defs>
						<path id="SVGID_5_" class="st1" d="M431,252.4v0.8c-0.8,2.4-2.5,4.3-4.8,5.3v-0.8C428.5,256.7,430.2,254.7,431,252.4z"/>
					</defs>
					<clipPath id="SVGID_6_">
						<use xlink:href="#SVGID_5_"  style="overflow:visible;"/>
					</clipPath>
					<g class="st9">
						<polyline class="st4" points="431,252.4 431,253.2 431,253.2 431,252.4 431,252.4 						"/>
						<path class="st5" d="M431,252.4v0.8c-0.2,0.6-0.4,1.1-0.7,1.6V254C430.6,253.5,430.9,252.9,431,252.4"/>
						<path class="st8" d="M430.3,254v0.8c-0.9,1.6-2.3,2.9-4.1,3.7v-0.8C428,256.9,429.4,255.6,430.3,254"/>
					</g>
				</g>
				<g class="st1">
					<defs>
						<path id="SVGID_7_" class="st1" d="M426.3,257.7v0.8c-0.7,0.3-1.4,0.6-2.1,0.8v-0.8C424.9,258.3,425.6,258,426.3,257.7z"/>
					</defs>
					<clipPath id="SVGID_8_">
						<use xlink:href="#SVGID_7_"  style="overflow:visible;"/>
					</clipPath>
					<g class="st10">
						<path class="st8" d="M426.3,257.7v0.8c-0.7,0.3-1.4,0.6-2.1,0.8v-0.8C424.9,258.3,425.6,258,426.3,257.7"/>
					</g>
				</g>
				<g>
					<polygon class="st11" points="77.8,280.2 77.8,281.1 54.9,253.9 54.9,253.1 					"/>
				</g>
				<g class="st1">
					<defs>
						<path id="SVGID_9_" class="st1" d="M78.7,281.6v0.8c-0.4-0.4-0.7-0.9-0.9-1.4v-0.8C78,280.7,78.3,281.2,78.7,281.6z"/>
					</defs>
					<clipPath id="SVGID_10_">
						<use xlink:href="#SVGID_9_"  style="overflow:visible;"/>
					</clipPath>
					<g class="st12">
						<path class="st8" d="M78.7,281.6v0.8c-0.4-0.4-0.7-0.9-0.9-1.4v-0.8C78,280.7,78.3,281.2,78.7,281.6"/>
					</g>
				</g>
				<g>
					<polygon class="st11" points="424.2,258.4 424.2,259.3 313.9,283.1 313.9,282.3 					"/>
				</g>
				<g>
					<polygon class="st11" points="81.8,285.2 81.8,286.1 78.7,282.4 78.7,281.6 					"/>
				</g>
				<g class="st1">
					<defs>
						<path id="SVGID_11_" class="st1" d="M83,286.4v0.8c-0.4-0.4-0.8-0.8-1.2-1.2v-0.8C82.1,285.7,82.6,286.1,83,286.4z"/>
					</defs>
					<clipPath id="SVGID_12_">
						<use xlink:href="#SVGID_11_"  style="overflow:visible;"/>
					</clipPath>
					<g class="st13">
						<path class="st8" d="M83,286.4v0.8c-0.4-0.4-0.8-0.8-1.2-1.2v-0.8C82.1,285.7,82.6,286.1,83,286.4"/>
					</g>
				</g>
				<g>
					<polygon class="st11" points="89,293.6 89,294.5 83,287.3 83,286.4 					"/>
				</g>
				<g>
					<polygon class="st11" points="111.4,320.6 111.4,321.4 89,294.5 89,293.6 					"/>
				</g>
				<g class="st1">
					<defs>
						<path id="SVGID_13_" class="st1" d="M113.5,322.4v0.8c-0.8-0.5-1.5-1.1-2.1-1.9v-0.8C112.1,321.3,112.8,321.9,113.5,322.4z"/>
					</defs>
					<clipPath id="SVGID_14_">
						<use xlink:href="#SVGID_13_"  style="overflow:visible;"/>
					</clipPath>
					<g class="st14">
						<path class="st8" d="M113.5,322.4v0.8c-0.8-0.5-1.5-1.1-2.1-1.9v-0.8C112.1,321.3,112.8,321.9,113.5,322.4"/>
					</g>
				</g>
				<g>
					<polygon class="st11" points="313.9,282.3 313.9,283.1 121,325 121,324.1 					"/>
				</g>
				<g>
					<path class="st15" d="M358.1,177.1c2.3,0,4.5,0.8,6.1,2.4l23,21.5c2.4,0.4,4.6,1.7,6,3.7l3.2,4.6l32.8,30.8
						c0.3,0.3,0.6,0.6,0.9,0.9c2.1,2.4,2.8,5.8,1.8,8.8l-0.9,2.6c-0.8,2.4-2.5,4.3-4.8,5.3c-0.7,0.3-1.4,0.6-2.1,0.8l-110.2,23.8
						l-193,41.8c-0.6,0.1-1.3,0.2-1.9,0.2c-2,0-3.9-0.7-5.5-1.9c-0.8-0.5-1.5-1.1-2.1-1.9l-22.4-27l-6.1-7.2
						c-0.4-0.4-0.8-0.8-1.2-1.2l-3.1-3.6c-0.4-0.4-0.7-0.9-0.9-1.4l-22.9-27.2c-0.4-0.4-0.7-0.9-0.9-1.3c-1.4-2.3-1.7-5.1-0.8-7.6
						c0.4-1,0.9-1.9,1.5-2.7l0.7-1.4c1.3-2.4,3.5-4,6.2-4.5l72.5-14.3l21.9-4.4c0.5-0.1,1-0.2,1.5-0.2l8.7-1.7l190.2-37.6
						C356.9,177.1,357.5,177.1,358.1,177.1z"/>
				</g>
				<g class="st1">
					<defs>
						<path id="SVGID_15_" class="st1" d="M121,324.1v0.8c-0.6,0.1-1.3,0.2-1.9,0.2c-2,0-3.9-0.7-5.5-1.9v-0.8
							c1.6,1.2,3.5,1.9,5.5,1.9C119.7,324.3,120.3,324.2,121,324.1z"/>
					</defs>
					<clipPath id="SVGID_16_">
						<use xlink:href="#SVGID_15_"  style="overflow:visible;"/>
					</clipPath>
					<g class="st16">
						<path class="st8" d="M121,324.1v0.8c-0.6,0.1-1.3,0.2-1.9,0.2c-2,0-3.9-0.7-5.5-1.9v-0.8c1.6,1.2,3.5,1.9,5.5,1.9
							C119.7,324.3,120.3,324.2,121,324.1"/>
					</g>
				</g>
			</g>
		</g>
	</g>
	<polygon class="st17" points="118.9,314.9 422.3,249.1 356.9,188 61.5,246.7 	"/>
	<polygon class="st18" points="405.9,233.8 356.6,187.7 166.5,225.7 226.5,291.2 247.7,286.6 421.9,248.6 	"/>
	<g class="st19">
		<polygon class="st20" points="404.1,94.5 432.6,78.4 446.8,86.5 418.3,102.7 		"/>
		<polygon class="st20" points="361.6,70 390.1,53.8 432.6,78.4 404.1,94.5 		"/>
		<polygon class="st20" points="312,41.4 340.5,25.2 390.1,53.8 361.6,70 		"/>
		<polygon class="st20" points="290.7,70 319,53.7 354.5,74.1 326.2,90.5 		"/>
		<polygon class="st20" points="361.6,110.9 389.9,94.5 425.2,115.1 397,131.4 		"/>
		<polygon class="st20" points="333.2,127.3 361.6,110.9 397,131.4 368.5,147.9 		"/>
		<polygon class="st20" points="283.6,98.6 312,82.3 354.5,106.8 326.2,123.2 		"/>
		<polygon class="st20" points="258.3,113.2 283.6,98.6 326.2,123.2 301,137.7 		"/>
		<polygon class="st20" points="234,127.3 258.3,113.2 301,137.7 276.6,151.8 		"/>
		<polygon class="st20" points="141.9,180.5 184.4,155.9 227,180.5 184.5,205 		"/>
		<polygon class="st20" points="308.3,141.7 333.2,127.3 368.5,147.9 343.7,162.1 		"/>
		<polygon class="st20" points="276.6,160 308.3,141.7 343.7,162.1 312,180.4 		"/>
		<polygon class="st20" points="259.1,170 276.6,160 312,180.4 294.6,190.5 		"/>
		<polygon class="st20" points="234,184.6 259.1,170 294.6,190.5 269.4,205.1 		"/>
		<polygon class="st20" points="108.7,261.1 136.7,244.9 146.1,250.3 118.1,266.5 		"/>
		<polygon class="st20" points="159.4,290.8 187.8,274.4 197.3,279.9 168.9,296.2 		"/>
		<polygon class="st20" points="118.1,266.5 146.1,250.3 187.8,274.4 159.4,290.8 		"/>
		<polygon class="st20" points="84.8,246.8 112.9,230.4 127.1,238.7 98.8,255 		"/>
		<polygon class="st20" points="70.2,238.5 98.7,222.2 112.9,230.4 84.8,246.8 		"/>
		<polygon class="st20" points="42,222.2 70.4,205.8 98.7,222.2 70.2,238.5 		"/>
		<polygon class="st20" points="64.3,274.7 92.8,258.5 177.9,307.3 149.3,323.9 		"/>
		<polygon class="st20" points="50.3,266.7 78.7,250.3 92.6,258.4 64.3,274.7 		"/>
		<polygon class="st20" points="21.5,250.3 50.1,233.8 64.3,242 36.1,258.5 		"/>
		<polygon class="st20" points="219.9,192.7 234,184.6 269.5,205 255.3,213.2 		"/>
		<polygon class="st20" points="163.3,225.6 191.6,209.3 215.4,223 187,239.3 		"/>
		<polygon class="st20" points="255.3,213.2 219.9,192.7 191.6,209.3 215.4,223 187,239.3 198.7,246.1 		"/>
		<polygon class="st20" points="375.8,94.5 382.8,90.5 354.5,74.1 333.2,86.4 347.4,94.5 361.6,86.4 		"/>
		<line class="st20" x1="417.8" y1="103" x2="411.5" y2="106.7"/>
		<line class="st20" x1="105.7" y1="226" x2="127.9" y2="213.4"/>
		<line class="st20" x1="155" y1="255.1" x2="184" y2="238.2"/>
		<path class="st20" d="M184.6,237.9"/>
		<path class="st20" d="M175.3,243.3"/>
		<line class="st20" x1="50.3" y1="233.7" x2="56.2" y2="230.3"/>
		<line class="st20" x1="164.1" y1="298.8" x2="169" y2="296.1"/>
	</g>
	<path class="st18" d="M156.2,227.7l-8.3,17.9l-4.4,0.3c-0.7,0-1.4,0.1-2.1,0.2l-4.7,0.7l-10.3-12.9L156.2,227.7z"/>
	<polygon class="st18" points="170.1,236.2 153.8,232 156.2,227.7 166.5,225.7 172.3,232.1 	"/>
	<polygon class="st18" points="189.6,250.8 168.8,255.1 165.1,251.6 161.8,249.4 172.1,231.8 	"/>
	<polygon class="st21" points="202.1,264.5 202.1,264.5 214.4,277.8 214.4,277.8 	"/>
	<polygon class="st22" points="356.9,187.9 357.9,185.4 423.2,246.3 422.3,249 	"/>
	<polygon class="st22" points="125.9,234.5 127.4,231.9 138.1,244 136.6,246.9 	"/>
	<polygon class="st23" points="154.1,232.1 155.6,229.4 171.3,233.4 169.6,236.1 	"/>
	<polygon class="st23" points="95.3,286.9 97,283.9 164.3,302.2 162.7,305.3 	"/>
	<polygon class="st22" points="166.5,225.7 167.3,223.9 190.7,248.3 187.7,248.8 	"/>
	<polygon class="st23" points="356.9,187.9 357.9,185.4 167.9,223.1 169.6,225 	"/>
	<polygon class="st23" points="166.5,225.7 167.7,223.1 127,231.2 128.8,233.2 	"/>
	<polygon class="st22" points="422.3,249 423.2,246.3 164.3,302.2 162.7,305.3 	"/>
	<polygon class="st23" points="125.9,234.5 127.4,231.9 64.3,244 66,246.1 	"/>
	<path class="st22" d="M147.8,245.6l1.5-2.7l-1.9,0c-2.8,0-5.6,0.3-8.5,0.9l-0.9,0.2l-1.5,2.8l0.5-0.1
		C140.7,246,144.3,245.7,147.8,245.6L147.8,245.6z"/>
	<polygon class="st22" points="98,239.8 99.5,237.2 110.1,249.4 108.5,252.3 	"/>
	<polygon class="st22" points="98.6,253.4 100.2,250.5 111.4,263.2 109.9,266.2 	"/>
	<path class="st22" d="M161.8,249.4l1.5-2.8l1.4,0.9c2.1,1.3,4,2.9,5.5,4.7l0.5,0.6l-1.5,2.9l-0.3-0.3
		C166.8,253.1,164.5,251.1,161.8,249.4L161.8,249.4z"/>
	<polygon class="st22" points="156.1,227.8 157.6,225.1 149.3,242.8 147.8,245.6 	"/>
	<polygon class="st22" points="172.2,232.1 173.6,229.4 163.3,246.6 161.8,249.4 	"/>
	<path class="st24" d="M155.7,226.4l-7.1,15.4l-3.7,0l0,0l0,0c-0.8,0-1.8,0.1-2.5,0.3l0,0l0,0l-3.5,0.7l-10.3-11.5l26.4-4.8
		 M155.9,225.3l-29.2,5.9l11.5,12.8l4.2-0.8c0.7-0.1,1.6-0.2,2.3-0.2l4.7-0.1l8.3-17.9L155.9,225.3z"/>
	<path class="st24" d="M167.2,224.3l5,5.4l-1.3,2.5l-13.9-3.6l1.4-2.7L167.2,224.3 M167.9,223.1l-10.3,2l-2.3,4.3l16.2,4.1l2.1-4.2
		l-5.6-6.1L167.9,223.1z"/>
	<path class="st24" d="M173.8,231.4l15.2,16.5l-17.9,3.7l-3.3-3.1l0,0l0,0l-3-2.2L173.8,231.4 M173.7,229.4l-10.5,17.2l3.7,2.7
		l3.7,3.5l20.5-4.3L173.7,229.4L173.7,229.4z"/>
	<g>
		<polygon class="st18" points="164,234.7 159.7,233.6 162,229.3 166.3,230.5 		"/>
	</g>
	<g>
		<polygon class="st18" points="149.3,238.9 151,239.3 151.9,237.5 150.4,237.1 		"/>
		<polygon class="st22" points="152,234.5 153,234.8 151.8,237.5 150.7,237.2 		"/>
	</g>
	<g>
		<polygon class="st18" points="167,243.7 165.3,243.1 166.4,241.4 167.9,241.8 		"/>
		<polygon class="st22" points="169.1,239.1 168,238.8 166.5,241.4 167.5,241.7 		"/>
	</g>
	<g>
		<g>
			<path class="st18" d="M154.2,266.6l5.6,6.3l-0.9,3.3c0,0,1.2-0.4,1.6-0.6c0.3-0.1,1.1-0.7,1.1-0.7c5.6-3.9,7.8-10.9,3.7-15.5
				l-0.4-0.4c-6.3-7-16.9-9.8-28-7.6l-1.5,0.3c-7.3,1.5-12.1,7.8-11.2,13.2c0,0,0.2,0.8,0.4,1.1c0.1,0.3,0.5,1.2,0.5,1.2l2.4-2.9
				l10.2-2.1L154.2,266.6z"/>
		</g>
	</g>
	<g>
		<path class="st22" d="M126.9,258.3c1.8-2.8,5-5.1,9-5.9l1.4-0.3c10.5-2.1,20.6,0.6,26.5,7.1l0.4,0.4c2.5,2.7,2.6,6.4,1,9.6
			c-0.3,0.7-2.1,2.4-5.2,3.8l0.1,0.1c2-0.8,4-1.9,4.8-3.3c0.7-1.1,2.1-1.5,2.8-2.9c0.6-2.7,1.8-5.7-0.2-7.9l-1.4-2.2
			c-6.2-6.9-15.3-10.4-26.4-8.1l-3.6,0.7c-3.3,0.7-8,4.2-9.3,6.6c-0.8,1.4-0.6,1.2-1,2.4c-0.4,1.3-0.3,3.7,1,6l0.1,0
			C125.8,261.5,126.4,259.1,126.9,258.3z"/>
	</g>
	<g>
		<g>
			<path class="st24" d="M137.4,249.6l1.4-0.3c10.5-2.1,20.5,0.6,26.4,7.1l0.4,0.4c4.5,5,1.2,12.9-5.9,16l0.6,0.7
				c7.6-3.2,11.1-11.7,6.4-17l-0.4-0.4c-6.2-6.9-16.9-9.8-28-7.5l-1.5,0.3c-8.4,1.7-13.4,9.7-10.4,15.5l1.1-0.2
				C124.8,258.7,129.5,251.2,137.4,249.6z"/>
		</g>
	</g>
	<polygon class="st22" points="61.5,246.7 63.1,243.8 97,283.9 95.3,286.9 	"/>
	<polygon class="st22" points="126,266.8 127.5,264.2 126.5,264.4 125,267.1 	"/>
	<polygon class="st22" points="158.3,275.5 159.6,272.8 160.2,273.5 158.8,276.2 	"/>
	<polygon class="st23" points="137.6,262.1 139.1,259.3 155.8,263.5 154.2,266.6 	"/>
	<polygon class="st23" points="141,256.3 142.5,253.5 158.7,257.8 157.1,260.7 	"/>
	<path class="st24" d="M142.8,254.5l14.7,3.9l-2.2,4.1l-14.7-4L142.8,254.5 M142.3,253.3l-3.2,5.9l16.7,4.6l3.1-6L142.3,253.3
		L142.3,253.3z"/>
	<g>
		<polygon class="st18" points="147.9,265 143.5,263.8 145.9,259.3 150.3,260.5 		"/>
	</g>
	<polygon class="st23" points="109.8,252.2 111.5,249.3 102.5,251.1 103.3,253.6 	"/>
	<polygon class="st23" points="112.1,266.9 113.8,263.9 86.4,269.5 88.3,271.8 	"/>
	<path class="st24" d="M357.6,186.5l63.5,59.2l-192.8,41.9l-64.1,13.9l-33.4-9.4l-33.3-8.9L65,244.4l102.9-20.3L357.6,186.5
		 M357.9,185.4l-190.2,37.7L63.1,243.8L96.9,284l33.6,9l33.6,9.5l64.4-13.9l194.6-42.3L357.9,185.4L357.9,185.4z"/>
	<g>
		<polygon class="st17" points="126.1,295.4 117.9,293.2 120.5,288.5 128.6,290.7 		"/>
	</g>
	<g>
		<polygon class="st17" points="139.8,299.1 131.6,296.9 134.1,292.2 142.3,294.5 		"/>
	</g>
	<g>
		<polygon class="st25" points="388.4,213.9 387.1,214.2 386.6,215.7 383.1,212.4 385,210.6 386.6,212.1 		"/>
		<polygon class="st22" points="385,210.6 383.7,210.9 383.2,212.4 384.5,212 		"/>
	</g>
	<g>
		<polygon class="st17" points="114.8,233.5 115.3,234.2 113.8,236.9 118.7,236 119.2,232.7 117.5,233 		"/>
		<polygon class="st22" points="119.2,232.7 120,233.6 118.8,235.9 118,234.9 		"/>
	</g>
	<path class="st23" d="M147.8,245.6l1.5-2.7l-1.9,0c-2.8,0-5.6,0.3-8.5,0.9l-0.9,0.2l-1.5,2.8l0.5-0.1
		C140.7,246,144.3,245.7,147.8,245.6L147.8,245.6z"/>
	<path class="st24" d="M100.5,237.8l9.2,10.8l-7.3,1.5l-1.7,0.3l1.1,1.3l10.1,11.5L85.7,269L65,244.4L100.5,237.8 M100.9,236.7
		l-37.7,7l22.2,26.4l28.4-6.3l-11.2-12.8l9-1.8L100.9,236.7L100.9,236.7z"/>
	<polygon class="st23" points="189.6,250.8 169.2,255.6 170.7,252.8 191.2,248.6 	"/>
</g>
<g id="Layer_5">
	<g class="st0">
		
			<image style="overflow:visible;" width="1796" height="861" xlink:href="18BEABED3459442E.png"  transform="matrix(0.24 0 0 0.24 25.108 17.1624)">
		</image>
	</g>
	<g>
		<g>
			<g class="st1">
				<g class="st1">
					<defs>
						<path id="SVGID_17_" class="st1" d="M432.3,103v0.8c0,1-0.2,1.9-0.5,2.9v-0.8C432.1,104.9,432.3,104,432.3,103z"/>
					</defs>
					<clipPath id="SVGID_18_">
						<use xlink:href="#SVGID_17_"  style="overflow:visible;"/>
					</clipPath>
					<g class="st26">
						<path class="st3" d="M432.3,103v0.8c0,0.4,0,0.9-0.1,1.3v-0.8C432.2,103.9,432.3,103.4,432.3,103"/>
						<path class="st4" d="M432.2,104.3v0.8c-0.1,0.5-0.2,1-0.4,1.5v-0.8C432,105.3,432.1,104.8,432.2,104.3"/>
						<path class="st5" d="M431.8,105.8v0.8c0,0,0,0.1,0,0.1L431.8,105.8C431.8,105.9,431.8,105.8,431.8,105.8"/>
					</g>
				</g>
				<g>
					<polygon class="st6" points="431.8,105.9 431.8,106.7 430.9,109.3 430.9,108.5 					"/>
				</g>
				<g class="st1">
					<defs>
						<path id="SVGID_19_" class="st1" d="M52.6,104.1l0-0.8c0,1.6,0.4,3.2,1.3,4.6c0.3,0.5,0.6,0.9,0.9,1.3v0.8
							c-0.4-0.4-0.7-0.9-0.9-1.3C53,107.3,52.6,105.7,52.6,104.1z"/>
					</defs>
					<clipPath id="SVGID_20_">
						<use xlink:href="#SVGID_19_"  style="overflow:visible;"/>
					</clipPath>
					<g class="st27">
						<path class="st8" d="M54.8,109.2v0.8c-0.4-0.4-0.7-0.9-0.9-1.3c-0.8-1.4-1.3-3-1.3-4.6v-0.8c0,1.6,0.4,3.2,1.3,4.6
							C54.1,108.3,54.4,108.8,54.8,109.2"/>
					</g>
				</g>
				<g class="st1">
					<defs>
						<path id="SVGID_21_" class="st1" d="M430.9,108.5v0.8c-0.8,2.4-2.5,4.3-4.8,5.3v-0.8C428.4,112.8,430.1,110.9,430.9,108.5z"/>
					</defs>
					<clipPath id="SVGID_22_">
						<use xlink:href="#SVGID_21_"  style="overflow:visible;"/>
					</clipPath>
					<g class="st28">
						<path class="st5" d="M430.9,108.5v0.8c-0.2,0.6-0.4,1.1-0.7,1.6v-0.8C430.5,109.6,430.7,109.1,430.9,108.5"/>
						<path class="st8" d="M430.2,110.1v0.8c-0.9,1.6-2.4,2.9-4.1,3.7v-0.8C427.9,113,429.3,111.7,430.2,110.1"/>
					</g>
				</g>
				<g class="st1">
					<defs>
						<path id="SVGID_23_" class="st1" d="M426.2,113.8v0.8c-0.7,0.3-1.4,0.6-2.1,0.7v-0.8C424.8,114.4,425.5,114.2,426.2,113.8z"/>
					</defs>
					<clipPath id="SVGID_24_">
						<use xlink:href="#SVGID_23_"  style="overflow:visible;"/>
					</clipPath>
					<g class="st29">
						<path class="st8" d="M426.2,113.8v0.8c-0.7,0.3-1.4,0.6-2.1,0.7v-0.8C424.8,114.4,425.5,114.2,426.2,113.8"/>
					</g>
				</g>
				<g>
					<polygon class="st11" points="77.7,136.4 77.7,137.2 54.8,110.1 54.8,109.2 					"/>
				</g>
				<g class="st1">
					<defs>
						<path id="SVGID_25_" class="st1" d="M78.6,137.7v0.8c-0.4-0.4-0.7-0.9-0.9-1.4v-0.8C77.9,136.9,78.2,137.3,78.6,137.7z"/>
					</defs>
					<clipPath id="SVGID_26_">
						<use xlink:href="#SVGID_25_"  style="overflow:visible;"/>
					</clipPath>
					<g class="st30">
						<path class="st8" d="M78.6,137.7v0.8c-0.4-0.4-0.7-0.9-0.9-1.4v-0.8C77.9,136.9,78.2,137.3,78.6,137.7"/>
					</g>
				</g>
				<g>
					<polygon class="st11" points="424.1,114.6 424.1,115.4 313.8,139.2 313.8,138.4 					"/>
				</g>
				<g>
					<polygon class="st11" points="81.7,141.4 81.7,142.2 78.6,138.6 78.6,137.7 					"/>
				</g>
				<g class="st1">
					<defs>
						<path id="SVGID_27_" class="st1" d="M82.9,142.6v0.8c-0.4-0.4-0.8-0.7-1.2-1.2v-0.8C82,141.8,82.4,142.2,82.9,142.6z"/>
					</defs>
					<clipPath id="SVGID_28_">
						<use xlink:href="#SVGID_27_"  style="overflow:visible;"/>
					</clipPath>
					<g class="st31">
						<path class="st8" d="M82.9,142.6v0.8c-0.4-0.4-0.8-0.7-1.2-1.2v-0.8C82,141.8,82.4,142.2,82.9,142.6"/>
					</g>
				</g>
				<g>
					<polygon class="st11" points="88.9,149.8 88.9,150.6 82.9,143.4 82.9,142.6 					"/>
				</g>
				<g>
					<polygon class="st11" points="111.3,176.7 111.3,177.6 88.9,150.6 88.9,149.8 					"/>
				</g>
				<g class="st1">
					<defs>
						<path id="SVGID_29_" class="st1" d="M113.4,178.6v0.8c-0.8-0.5-1.5-1.1-2.1-1.9v-0.8C111.9,177.5,112.7,178.1,113.4,178.6z"/>
					</defs>
					<clipPath id="SVGID_30_">
						<use xlink:href="#SVGID_29_"  style="overflow:visible;"/>
					</clipPath>
					<g class="st32">
						<path class="st8" d="M113.4,178.6v0.8c-0.8-0.5-1.5-1.1-2.1-1.9v-0.8C111.9,177.5,112.7,178.1,113.4,178.6"/>
					</g>
				</g>
				<g>
					<polygon class="st11" points="313.8,138.4 313.8,139.2 120.9,181.1 120.9,180.2 					"/>
				</g>
				<g>
					<path class="st15" d="M358,33.2c2.3,0,4.4,0.8,6.1,2.4l23,21.5c2.4,0.4,4.6,1.7,6,3.7l3.2,4.6l32.8,30.8
						c0.3,0.3,0.6,0.5,0.9,0.9c2.1,2.4,2.8,5.8,1.8,8.8l-0.9,2.6c-0.8,2.4-2.5,4.3-4.8,5.3c-0.7,0.3-1.4,0.6-2.1,0.7l-110.2,23.8
						l-193,41.8c-0.6,0.1-1.3,0.2-1.9,0.2c-2,0-3.9-0.7-5.5-1.9c-0.8-0.5-1.5-1.1-2.1-1.9l-22.4-27l-6.1-7.2
						c-0.4-0.4-0.8-0.7-1.2-1.2l-3.1-3.6c-0.4-0.4-0.7-0.9-0.9-1.4l-22.9-27.2c-0.4-0.4-0.7-0.9-0.9-1.3c-1.4-2.3-1.7-5.1-0.8-7.6
						c0.4-1,0.9-1.9,1.5-2.7l0.7-1.4c1.3-2.4,3.5-4,6.2-4.5L134,77.4l21.9-4.4c0.5-0.1,1-0.2,1.5-0.2l8.7-1.7l190.2-37.6
						C356.8,33.3,357.4,33.2,358,33.2z"/>
				</g>
				<g class="st1">
					<defs>
						<path id="SVGID_31_" class="st1" d="M120.9,180.2v0.8c-0.6,0.1-1.3,0.2-1.9,0.2c-2,0-3.9-0.7-5.5-1.9v-0.8
							c1.6,1.2,3.5,1.9,5.5,1.9C119.6,180.5,120.2,180.4,120.9,180.2z"/>
					</defs>
					<clipPath id="SVGID_32_">
						<use xlink:href="#SVGID_31_"  style="overflow:visible;"/>
					</clipPath>
					<g class="st33">
						<path class="st8" d="M120.9,180.2v0.8c-0.6,0.1-1.3,0.2-1.9,0.2c-2,0-3.9-0.7-5.5-1.9v-0.8c1.6,1.2,3.5,1.9,5.5,1.9
							C119.6,180.5,120.2,180.4,120.9,180.2"/>
					</g>
				</g>
			</g>
		</g>
	</g>
	<polygon class="st17" points="118.8,170.7 422,105 356.7,43.9 61.4,102.5 	"/>
	<path class="st18" d="M174.3,131.1c0,0,21,22.9,20.4,22.8c-0.6-0.1-31.9,6.8-31.9,6.8l-17.3-20.1l2.4-3.6c0,0,4.9,1.7,11.2,1.3
		C170.4,137.6,174.3,131.1,174.3,131.1z"/>
	<path class="st18" d="M93.8,96.6c0,0,18.5,21.5,24.3,28.1c3.9,4.5,9.8,6.3,9.8,6.3l-0.1,3l-31.4,5.5l-31.6-37.6L93.8,96.6z"/>
	<polygon class="st18" points="127.9,131 147.8,136.9 144.5,140.8 162.7,160.6 118.1,170.3 95.3,142.8 127.8,135.9 	"/>
	<polygon class="st18" points="406.2,89.6 357,43.5 166.8,81.5 226.9,147 248,142.4 422.3,104.4 	"/>
	<path class="st18" d="M156.2,83.7l-8.3,17.9l-4.4,0.3c-0.7,0-1.4,0.1-2.1,0.2l-4.7,0.7l-10.3-12.9L156.2,83.7z"/>
	<polygon class="st18" points="170.1,92.1 153.8,88 156.2,83.7 166.5,81.7 172.3,88 	"/>
	<polygon class="st18" points="189.6,106.7 168.8,111 165.1,107.5 161.8,105.3 172.1,87.7 	"/>
	<polygon class="st22" points="356.9,43.8 357.9,41.3 423.2,102.2 422.3,104.9 	"/>
	<polygon class="st22" points="125.9,90.4 127.4,87.9 138.1,100 136.6,102.8 	"/>
	<polygon class="st22" points="154.1,88 155.6,85.3 171.3,89.3 169.6,92 	"/>
	<polygon class="st22" points="166.5,81.7 167.3,79.8 190.7,104.3 187.7,104.7 	"/>
	<polygon class="st23" points="356.9,43.8 357.9,41.3 167.9,79.1 169.6,81 	"/>
	<polygon class="st23" points="166.5,81.7 167.7,79 127,87.1 128.8,89.1 	"/>
	<polygon class="st23" points="422.3,104.9 423.2,102.2 120.5,167.6 118.8,170.8 	"/>
	<polygon class="st23" points="125.9,90.4 127.4,87.9 64.3,99.9 66,102 	"/>
	<path class="st22" d="M147.8,101.6l1.5-2.7l-1.9,0c-2.8,0-5.6,0.3-8.5,0.9l-0.9,0.2l-1.5,2.8l0.5-0.1
		C140.7,102,144.3,101.6,147.8,101.6L147.8,101.6z"/>
	<polygon class="st22" points="93.8,96.6 95.3,94 102.2,102.1 100.9,104.6 	"/>
	<polygon class="st22" points="100.4,95.4 101.9,92.7 108.6,100.2 105.2,101 	"/>
	<path class="st22" d="M161.8,105.3l1.5-2.8l1.4,0.9c2.1,1.3,4,2.9,5.5,4.7l0.5,0.6l-1.5,2.9l-0.3-0.3
		C166.8,109,164.5,107,161.8,105.3L161.8,105.3z"/>
	<polygon class="st22" points="156.1,83.7 157.6,81.1 149.3,98.8 147.8,101.6 	"/>
	<polygon class="st22" points="172.2,88 173.6,85.3 163.3,102.5 161.8,105.3 	"/>
	<path class="st24" d="M155.7,82.3l-7.1,15.4l-3.7,0l0,0l0,0c-0.8,0-1.8,0.1-2.5,0.3l0,0l0,0l-3.5,0.7l-10.3-11.5l26.4-4.8
		 M155.9,81.2l-29.2,5.9l11.5,12.8l4.2-0.8c0.7-0.1,1.6-0.2,2.3-0.2l4.7-0.1l8.3-17.9L155.9,81.2z"/>
	<path class="st24" d="M167.2,80.2l5,5.4l-1.3,2.5l-13.9-3.6l1.4-2.7L167.2,80.2 M167.9,79l-10.3,2l-2.3,4.3l16.2,4.1l2.1-4.2
		l-5.6-6.1L167.9,79z"/>
	<path class="st24" d="M173.8,87.3l15.2,16.5l-17.9,3.7l-3.3-3.1l0,0l0,0l-3-2.2L173.8,87.3 M173.7,85.4l-10.5,17.2l3.7,2.7l3.7,3.5
		l20.5-4.3L173.7,85.4L173.7,85.4z"/>
	<g>
		<polygon class="st18" points="164,90.7 159.7,89.5 162,85.3 166.3,86.4 		"/>
	</g>
	<g>
		<polygon class="st18" points="149.3,94.9 151,95.2 151.9,93.4 150.4,93 		"/>
		<polygon class="st23" points="152,90.4 153,90.7 151.8,93.4 150.7,93.1 		"/>
	</g>
	<g>
		<polygon class="st18" points="167,99.6 165.3,99.1 166.4,97.3 167.9,97.7 		"/>
		<polygon class="st23" points="169.1,95 168,94.7 166.5,97.3 167.5,97.6 		"/>
	</g>
	<g>
		<g>
			<path class="st18" d="M154.2,122.6l5.6,6.3l-0.9,3.3c0,0,1.2-0.4,1.6-0.6c0.3-0.1,1.1-0.7,1.1-0.7c5.6-3.9,7.8-10.9,3.7-15.5
				l-0.4-0.4c-6.3-7-16.9-9.8-28-7.6l-1.5,0.3c-7.3,1.5-12.1,7.8-11.2,13.2c0,0,0.2,0.8,0.4,1.1c0.1,0.3,0.5,1.2,0.5,1.2l2.4-2.9
				l10.2-2.1L154.2,122.6z"/>
		</g>
	</g>
	<g>
		<path class="st23" d="M126.9,114.3c1.8-2.8,5-5.1,9-5.9l1.4-0.3c10.5-2.1,20.6,0.6,26.5,7.1l0.4,0.4c2.5,2.7,2.6,6.4,1,9.6
			c-0.3,0.7-2.1,2.4-5.2,3.8l0.1,0.1c2-0.8,4-1.9,4.8-3.3c0.7-1.1,2.1-1.5,2.8-2.9c0.6-2.7,1.8-5.7-0.2-7.9l-1.4-2.2
			c-6.2-6.9-15.3-10.4-26.4-8.1l-3.6,0.7c-3.3,0.7-8,4.2-9.3,6.6c-0.8,1.4-0.6,1.2-1,2.4c-0.4,1.3-0.3,3.7,1,6l0.1,0
			C125.8,117.4,126.4,115.1,126.9,114.3z"/>
	</g>
	<g>
		<g>
			<path class="st24" d="M137.4,105.5l1.4-0.3c10.5-2.1,20.5,0.6,26.4,7.1l0.4,0.4c4.5,5,1.2,12.9-5.9,16l0.6,0.7
				c7.6-3.2,11.1-11.7,6.4-17l-0.4-0.4c-6.2-6.9-16.9-9.8-28-7.5l-1.5,0.3c-8.4,1.7-13.4,9.7-10.4,15.5l1.1-0.2
				C124.8,114.7,129.5,107.1,137.4,105.5z"/>
		</g>
	</g>
	<polygon class="st22" points="61.5,102.6 63.1,99.7 120.5,167.6 118.8,170.7 	"/>
	<polygon class="st22" points="126,122.7 127.5,120.1 126.5,120.3 125,123 	"/>
	<polygon class="st22" points="158.3,131.4 159.6,128.8 160.2,129.4 158.8,132.2 	"/>
	<polygon class="st22" points="137.6,118 139.1,115.2 155.8,119.4 154.2,122.6 	"/>
	<polygon class="st22" points="141,112.3 142.5,109.5 158.7,113.7 157.1,116.6 	"/>
	<path class="st24" d="M142.8,110.4l14.7,3.9l-2.2,4.1l-14.7-4L142.8,110.4 M142.3,109.3l-3.2,5.9l16.7,4.6l3.1-6L142.3,109.3
		L142.3,109.3z"/>
	<g>
		<polygon class="st18" points="147.9,120.9 143.5,119.7 145.9,115.3 150.3,116.5 		"/>
	</g>
	<polygon class="st22" points="126.8,131.2 128.6,128 128.4,132.6 126.7,135.7 	"/>
	<polygon class="st22" points="148.7,137.7 150.7,134 146.8,137.6 145.4,140.5 	"/>
	<polygon class="st23" points="108.2,103.2 109.6,100.6 102.2,102.1 100.9,104.6 	"/>
	<polygon class="st23" points="127.8,135.9 129.5,132.9 97.4,139.5 99.4,141.9 	"/>
	<polygon class="st22" points="144.6,140.5 146.2,137.4 164,157.6 160.3,158.4 	"/>
	<polygon class="st22" points="174.3,131.1 175.8,128.1 196.2,150.7 192.5,151.6 	"/>
	<path class="st24" d="M357.6,42.4l63.5,59.2l-192.8,41.9l-64.4,13.9l-43.1,9.2l-23.2-27.3l-32.7-39L167.9,80L357.6,42.4
		 M357.9,41.3L167.7,79L63.1,99.7L96.9,140l23.5,27.7l43.7-9.3l64.4-13.9l194.6-42.3L357.9,41.3L357.9,41.3z"/>
	<g>
		<polygon class="st18" points="388.4,69.8 387.1,70.1 386.6,71.6 383.1,68.4 385.1,66.5 386.5,67.8 		"/>
		<polygon class="st24" points="385,66.6 383.7,66.9 383.2,68.3 384.5,68 		"/>
	</g>
	<g>
		<polygon class="st18" points="92.2,131.5 90.1,131.9 88.5,134.9 85.4,131.2 88,129.1 89,127.4 		"/>
		<polygon class="st23" points="88.6,128 87.1,128.4 85.5,131.1 87.1,130.7 		"/>
	</g>
	<path class="st23" d="M147.8,101.6l1.5-2.7l-1.9,0c-2.8,0-5.6,0.3-8.5,0.9l-0.9,0.2l-1.5,2.8l0.5-0.1
		C140.7,102,144.3,101.6,147.8,101.6L147.8,101.6z"/>
	<path class="st24" d="M101.8,93.1l6.1,6.8l-5.3,1.1l-5.8-6.9L101.8,93.1 M102.2,92.1l-7.3,1.4l7.3,8.6l7.6-1.5L102.2,92.1
		L102.2,92.1z"/>
	<polygon class="st24" points="120.6,167.4 97.1,139.1 128.6,132.1 128.7,127.7 129.7,127.7 129.5,132.9 98.9,139.7 121,166.3 
		163.9,157 146.1,137.2 150,133.2 150.7,133.9 147.5,137.3 165.8,157.6 	"/>
	<polygon class="st24" points="196.8,151.2 175.7,128 177.3,127.7 197.9,150.4 	"/>
	<polygon class="st23" points="189.6,106.7 169.2,111.5 170.7,108.7 191.2,104.5 	"/>
</g>
</svg>
