<?xml version="1.0" encoding="utf-8"?>
<!-- Generator: Adobe Illustrator 22.0.1, SVG Export Plug-In . SVG Version: 6.00 Build 0)  -->
<svg version="1.1" id="Layer_1" xmlns="http://www.w3.org/2000/svg" xmlns:xlink="http://www.w3.org/1999/xlink" x="0px" y="0px"
	 viewBox="0 0 472.7 347.9" style="enable-background:new 0 0 472.7 347.9;" xml:space="preserve">
<style type="text/css">
	.st0{opacity:0.69;}
	.st1{enable-background:new    ;}
	.st2{clip-path:url(#SVGID_2_);enable-background:new    ;}
	.st3{fill:#7B8487;}
	.st4{clip-path:url(#SVGID_4_);enable-background:new    ;}
	.st5{fill:#838D90;}
	.st6{fill:#808A8D;}
	.st7{fill:#7D878A;}
	.st8{clip-path:url(#SVGID_6_);enable-background:new    ;}
	.st9{fill:#788184;}
	.st10{clip-path:url(#SVGID_8_);enable-background:new    ;}
	.st11{clip-path:url(#SVGID_10_);enable-background:new    ;}
	.st12{clip-path:url(#SVGID_12_);enable-background:new    ;}
	.st13{clip-path:url(#SVGID_14_);enable-background:new    ;}
	.st14{fill:#AFBBBE;}
	.st15{fill:#B7B8AC;}
	.st16{display:none;}
	.st17{display:inline;fill:none;stroke:#58595B;stroke-miterlimit:10;}
	.st18{fill:#CBD4D5;}
	.st19{fill:#BCBCBC;}
	.st20{fill:#9D9D9E;}
	.st21{fill:#B9C1C3;}
	.st22{clip-path:url(#SVGID_16_);enable-background:new    ;}
	.st23{clip-path:url(#SVGID_18_);enable-background:new    ;}
	.st24{clip-path:url(#SVGID_20_);enable-background:new    ;}
	.st25{clip-path:url(#SVGID_22_);enable-background:new    ;}
	.st26{clip-path:url(#SVGID_24_);enable-background:new    ;}
	.st27{clip-path:url(#SVGID_26_);enable-background:new    ;}
	.st28{clip-path:url(#SVGID_28_);enable-background:new    ;}
</style>
<g id="Layer_1_1_">
	<g class="st0">
		
			<image style="overflow:visible;enable-background:new    ;" width="2117" height="913" xlink:href="A278496EF0467F89.png"  transform="matrix(0.239 0 0 0.239 -12.1771 152.9545)">
		</image>
	</g>
	<g>
		<g>
			<g class="st1">
				<g class="st1">
					<g>
						<defs>
							<path id="SVGID_1_" d="M23.9,218.2v-0.8c0,2.8,1.4,5.5,3.7,7.2c0.5,0.4,1.1,0.7,1.8,1v0.8c-0.6-0.3-1.2-0.6-1.8-1
								C25.3,223.8,23.9,221.1,23.9,218.2z"/>
						</defs>
						<clipPath id="SVGID_2_">
							<use xlink:href="#SVGID_1_"  style="overflow:visible;"/>
						</clipPath>
						<g class="st2">
							<path class="st3" d="M29.4,225.6v0.8c-0.6-0.3-1.2-0.6-1.8-1c-2.3-1.7-3.7-4.4-3.7-7.2v-0.8c0,2.8,1.4,5.5,3.7,7.2
								C28.1,225,28.7,225.4,29.4,225.6"/>
						</g>
					</g>
				</g>
				<g class="st1">
					<g>
						<defs>
							<path id="SVGID_3_" d="M457.9,224.1v0.8c0,0.1,0,0.2,0,0.3c-0.1,2.8-1.5,5.4-3.7,7v-0.8c2.2-1.6,3.6-4.2,3.7-7
								C457.9,224.3,457.9,224.2,457.9,224.1z"/>
						</defs>
						<clipPath id="SVGID_4_">
							<use xlink:href="#SVGID_3_"  style="overflow:visible;"/>
						</clipPath>
						<g class="st4">
							<path class="st5" d="M457.9,224.1v0.8c0,0.1,0,0.2,0,0.3c0,0.3,0,0.7-0.1,1v-0.8c0.1-0.3,0.1-0.7,0.1-1
								C457.9,224.3,457.9,224.2,457.9,224.1"/>
							<path class="st6" d="M457.8,225.4v0.8c-0.1,0.5-0.2,1-0.4,1.5v-0.8C457.6,226.4,457.8,225.9,457.8,225.4"/>
							<path class="st7" d="M457.5,226.9v0.8c-0.2,0.6-0.4,1.1-0.7,1.6v-0.8C457,228,457.3,227.5,457.5,226.9"/>
							<path class="st3" d="M456.8,228.5v0.8c-0.6,1.1-1.5,2.1-2.5,2.8v-0.8C455.3,230.6,456.1,229.6,456.8,228.5"/>
						</g>
					</g>
				</g>
				<g class="st1">
					<g>
						<defs>
							<path id="SVGID_5_" d="M454.2,231.4v0.8c-0.8,0.7-1.7,1.3-2.8,1.7v-0.8C452.5,232.7,453.4,232.1,454.2,231.4z"/>
						</defs>
						<clipPath id="SVGID_6_">
							<use xlink:href="#SVGID_5_"  style="overflow:visible;"/>
						</clipPath>
						<g class="st8">
							<path class="st3" d="M454.2,231.4v0.8c-0.8,0.7-1.7,1.3-2.8,1.7v-0.8C452.5,232.7,453.4,232.1,454.2,231.4"/>
						</g>
					</g>
				</g>
				<g>
					<polygon class="st9" points="451.4,233.1 451.4,233.9 326.9,282.1 326.9,281.2 					"/>
				</g>
				<g>
					<polygon class="st9" points="326.9,281.2 326.9,282.1 268.5,304.7 268.5,303.9 					"/>
				</g>
				<g class="st1">
					<g>
						<defs>
							<path id="SVGID_7_" d="M268.5,303.9v0.8c-0.5,0.2-0.9,0.4-1.4,0.5v-0.8C267.5,304.3,268,304.1,268.5,303.9z"/>
						</defs>
						<clipPath id="SVGID_8_">
							<use xlink:href="#SVGID_7_"  style="overflow:visible;"/>
						</clipPath>
						<g class="st10">
							<path class="st3" d="M268.5,303.9v0.8c-0.5,0.2-0.9,0.4-1.4,0.5v-0.8C267.5,304.3,268,304.1,268.5,303.9"/>
						</g>
					</g>
				</g>
				<g class="st1">
					<g>
						<defs>
							<path id="SVGID_9_" d="M267,304.4v0.8c-0.9,0.4-1.2,0.5-1.6,0.7v-0.8C265.8,305,266.1,304.8,267,304.4z"/>
						</defs>
						<clipPath id="SVGID_10_">
							<use xlink:href="#SVGID_9_"  style="overflow:visible;"/>
						</clipPath>
						<g class="st11">
							<path class="st3" d="M267,304.4v0.8c-0.9,0.4-1.2,0.5-1.6,0.7v-0.8C265.8,305,266.1,304.8,267,304.4"/>
						</g>
					</g>
				</g>
				<g>
					<polygon class="st9" points="265.4,305.1 265.4,305.9 262.4,307.1 262.4,306.2 					"/>
				</g>
				<g class="st1">
					<g>
						<defs>
							<path id="SVGID_11_" d="M262.4,306.2v0.8c-1.5,0.6-1.8,0.7-2.2,0.9v-0.8C260.6,307,261,306.8,262.4,306.2z"/>
						</defs>
						<clipPath id="SVGID_12_">
							<use xlink:href="#SVGID_11_"  style="overflow:visible;"/>
						</clipPath>
						<g class="st12">
							<path class="st3" d="M262.4,306.2v0.8c-1.5,0.6-1.8,0.7-2.2,0.9v-0.8C260.6,307,261,306.8,262.4,306.2"/>
						</g>
					</g>
				</g>
				<g>
					<polygon class="st9" points="195.9,310.8 195.9,311.7 29.4,226.5 29.4,225.6 					"/>
				</g>
				<g>
					<polygon class="st9" points="260.3,307.1 260.3,307.9 237.9,316.6 237.9,315.7 					"/>
				</g>
				<g>
					<polygon class="st9" points="215.8,321 215.8,321.8 195.9,311.7 195.9,310.8 					"/>
				</g>
				<g>
					<polygon class="st9" points="237.9,315.7 237.9,316.6 223.1,322.2 223.1,321.4 					"/>
				</g>
				<g class="st1">
					<g>
						<defs>
							<path id="SVGID_13_" d="M223.1,321.4v0.8c-1,0.4-2.1,0.6-3.2,0.6c-1.4,0-2.8-0.3-4.1-1V321c1.3,0.7,2.7,1,4.1,1
								C221,322,222.1,321.8,223.1,321.4z"/>
						</defs>
						<clipPath id="SVGID_14_">
							<use xlink:href="#SVGID_13_"  style="overflow:visible;"/>
						</clipPath>
						<g class="st13">
							<path class="st3" d="M223.1,321.4v0.8c-1,0.4-2.1,0.6-3.2,0.6c-1.4,0-2.8-0.3-4.1-1V321c1.3,0.7,2.7,1,4.1,1
								C221,322,222.1,321.8,223.1,321.4"/>
						</g>
					</g>
				</g>
				<g>
					<path class="st14" d="M101.5,177.2c1.4,0,2.7,0.3,4,0.9l3.2,1.6l119.1,58.6l144.5-58c1.1-0.4,2.2-0.6,3.4-0.6
						c1.3,0,2.6,0.3,3.8,0.8l24,11.1l2.3,1.1c2.7,0,4.5,0.5,6.1,1.7l4,2.9l36.1,17c0.7,0.3,1.4,0.7,2.1,1.2c1.6,1.3,2.7,3,3.2,5
						c0.5,1.2,0.8,2.5,0.7,3.8c-0.1,2.8-1.5,5.4-3.7,7c-0.8,0.7-1.7,1.3-2.8,1.7L327,281.2l-58.5,22.6c-0.5,0.2-0.9,0.4-1.4,0.5
						c-0.9,0.4-1.2,0.5-1.6,0.7l-3,1.1c-1.5,0.6-1.8,0.7-2.2,0.9l-22.3,8.6l-14.8,5.7c-1,0.4-2.1,0.6-3.2,0.6c-1.4,0-2.8-0.3-4.1-1
						L196,310.7L29.4,225.6c-0.6-0.3-1.2-0.6-1.8-1c-2.6-1.9-4-5-3.7-8.2c0.1-4.8,2.3-7.9,5.5-9.2l31.5-13.4c0.4-0.4,0.8-0.7,1.3-1
						l3.3-2.1c1.4-0.9,3.1-1.4,4.8-1.4L98,177.9C99.1,177.4,100.3,177.2,101.5,177.2z"/>
				</g>
			</g>
		</g>
	</g>
	<polygon class="st15" points="219.5,309.9 32.2,214.3 100.6,185 294.4,280.9 	"/>
	<g class="st16">
		<polygon class="st17" points="404.1,94.5 432.6,78.4 446.8,86.5 418.3,102.7 		"/>
		<polygon class="st17" points="361.6,70 390.1,53.8 432.6,78.4 404.1,94.5 		"/>
		<polygon class="st17" points="312,41.4 340.5,25.2 390.1,53.8 361.6,70 		"/>
		<polygon class="st17" points="290.7,70 319,53.7 354.5,74.1 326.2,90.5 		"/>
		<polygon class="st17" points="361.6,110.9 389.9,94.5 425.2,115.1 397,131.4 		"/>
		<polygon class="st17" points="333.2,127.3 361.6,110.9 397,131.4 368.5,147.9 		"/>
		<polygon class="st17" points="283.6,98.6 312,82.3 354.5,106.8 326.2,123.2 		"/>
		<polygon class="st17" points="258.3,113.2 283.6,98.6 326.2,123.2 301,137.7 		"/>
		<polygon class="st17" points="234,127.3 258.3,113.2 301,137.7 276.6,151.8 		"/>
		<polygon class="st17" points="141.9,180.5 184.4,155.9 227,180.5 184.5,205 		"/>
		<polygon class="st17" points="308.3,141.7 333.2,127.3 368.5,147.9 343.7,162.1 		"/>
		<polygon class="st17" points="276.6,160 308.3,141.7 343.7,162.1 312,180.4 		"/>
		<polygon class="st17" points="259.1,170 276.6,160 312,180.4 294.6,190.5 		"/>
		<polygon class="st17" points="234,184.6 259.1,170 294.6,190.5 269.4,205.1 		"/>
		<polygon class="st17" points="108.7,261.1 136.7,244.9 146.1,250.3 118.1,266.5 		"/>
		<polygon class="st17" points="159.4,290.8 187.8,274.4 197.3,279.9 168.9,296.2 		"/>
		<polygon class="st17" points="118.1,266.5 146.1,250.3 187.8,274.4 159.4,290.8 		"/>
		<polygon class="st17" points="84.8,246.8 112.9,230.4 127.1,238.7 98.8,255 		"/>
		<polygon class="st17" points="70.2,238.5 98.7,222.2 112.9,230.4 84.8,246.8 		"/>
		<polygon class="st17" points="42,222.2 70.4,205.8 98.7,222.2 70.2,238.5 		"/>
		<polygon class="st17" points="64.3,274.7 92.8,258.5 177.9,307.3 149.3,323.9 		"/>
		<polygon class="st17" points="50.3,266.7 78.7,250.3 92.6,258.4 64.3,274.7 		"/>
		<polygon class="st17" points="21.5,250.3 50.1,233.8 64.3,242 36.1,258.5 		"/>
		<polygon class="st17" points="219.9,192.7 234,184.6 269.5,205 255.3,213.2 		"/>
		<polygon class="st17" points="163.3,225.6 191.6,209.3 215.4,223 187,239.3 		"/>
		<polygon class="st17" points="255.3,213.2 219.9,192.7 191.6,209.3 215.4,223 187,239.3 198.7,246.1 		"/>
		<polygon class="st17" points="375.8,94.5 382.8,90.5 354.5,74.1 333.2,86.4 347.4,94.5 361.6,86.4 		"/>
		<line class="st17" x1="417.8" y1="103" x2="411.5" y2="106.7"/>
		<line class="st17" x1="105.7" y1="226" x2="127.9" y2="213.4"/>
		<line class="st17" x1="155" y1="255.1" x2="184" y2="238.2"/>
		<path class="st17" d="M184.6,237.9"/>
		<path class="st17" d="M175.3,243.3"/>
		<line class="st17" x1="50.3" y1="233.7" x2="56.2" y2="230.3"/>
		<line class="st17" x1="164.1" y1="298.8" x2="169" y2="296.1"/>
	</g>
	<polygon class="st15" points="219.3,310.1 447.6,221.7 374.9,187.8 153.8,276.6 	"/>
	<polygon class="st18" points="273.7,270.8 251.1,279.6 243.6,282.6 263.8,292.8 271.4,289.8 294.1,281 	"/>
	<path class="st18" d="M162.3,273l34.7-13.9l0,0l29.3-11.8l-87.7-43.5l-38-18.9L73,196.8l0,0l-40.8,17.5l121.5,62.2l2.3-0.9
		l28.8,14.1l24.1-9.7c0,0-2.3,0.3-3.3-4.9c1.1-5.6,7.1-8,7.1-8l-15.7-7.9L162.3,273z"/>
	<path class="st18" d="M218.9,250.3l-0.4,13l-3.3,0.8c-0.5,0.1-1.1,0.3-1.6,0.5l-3.4,1.2l-13.2-6.6L218.9,250.3z"/>
	<polygon class="st18" points="232.7,253.8 218.6,253.5 218.9,250.3 226.3,247.4 233,250.7 	"/>
	<polygon class="st18" points="252.7,260.4 237.8,266.3 233.8,264.6 230.5,263.7 232.8,250.6 	"/>
	<polygon class="st19" points="266.8,267.4 266.8,267.4 280.4,274.2 280.4,274.2 	"/>
	<polygon class="st18" points="429.7,213.4 374.6,187.7 226,247.3 259.8,264 259.6,264.1 293.8,281 309.3,275 447.1,221.4 	"/>
	<polygon class="st20" points="374.8,187.8 375.1,185.7 447.8,219.5 447.5,221.6 	"/>
	<polygon class="st20" points="196.5,258.7 196.7,256.9 210.5,263.7 210.2,265.8 	"/>
	<polygon class="st19" points="218.8,253.5 219,251.5 232.6,251.7 232.3,253.8 	"/>
	<polygon class="st19" points="192.8,296.5 193,294.5 249.1,296.5 248.9,298.5 	"/>
	<polygon class="st20" points="100.6,185 100.9,183 252.8,258.6 250.6,259.4 	"/>
	<polygon class="st19" points="374.8,187.8 375.1,185.7 226.6,245.4 228.5,246.4 	"/>
	<polygon class="st19" points="226.3,247.4 226.4,245.4 197.5,257 199.6,258.1 	"/>
	<polygon class="st20" points="252.5,260.9 252.8,258.9 294.4,279 294.1,281.1 	"/>
	<polygon class="st19" points="273.8,270.9 274,269.1 243.9,280.5 243.6,282.5 	"/>
	<polygon class="st20" points="243.6,282.5 243.8,280.5 264.1,290.7 263.9,292.8 	"/>
	<polygon class="st19" points="447.5,221.6 447.8,219.5 249.1,296.5 248.9,298.5 	"/>
	<polygon class="st19" points="100.6,185 100.9,183 32.4,212.3 32.2,214.3 	"/>
	<path class="st19" d="M218.5,263.3l0.2-2l-1.5,0.3c-2.2,0.4-4.3,1-6.2,1.9l-0.6,0.3l-0.2,2.1l0.4-0.1
		C213.1,264.6,215.8,263.9,218.5,263.3L218.5,263.3z"/>
	<path class="st19" d="M230.5,263.7l0.2-2l1.4,0.3c2.1,0.5,4,1.3,5.8,2.2l0.6,0.3l-0.2,2.1l-0.3-0.2
		C235.6,265.3,233.1,264.4,230.5,263.7L230.5,263.7z"/>
	<polygon class="st19" points="218.9,250.3 219.1,248.3 218.7,261.3 218.4,263.3 	"/>
	<polygon class="st19" points="233,250.7 233.2,248.7 230.8,261.6 230.5,263.7 	"/>
	<g>
		<g>
			<polygon class="st18" points="227.4,253.7 223.6,253.7 224,250.5 227.8,250.6 			"/>
		</g>
	</g>
	<g>
		<g>
			<path class="st18" d="M230.2,275.8l6.3,3.2l0.4,2.2c0,0,0.8-0.4,1-0.6c0.2-0.1,0.6-0.6,0.6-0.6c3.1-3.3,2.5-8-2.2-10.4l-0.4-0.2
				c-7.1-3.5-16.3-3.8-24.1-0.7l-1,0.4c-5.1,2-6.6,6.7-4.1,10c0,0,0.5,0.5,0.6,0.6c0.2,0.2,0.8,0.7,0.8,0.7l0.8-2.2l7.1-2.8
				L230.2,275.8z"/>
		</g>
	</g>
	<g>
		<path class="st20" d="M206.7,274.5c0.4-2,2.1-4,4.8-5.1l1-0.4c7.3-2.9,16-2.7,22.7,0.7l0.4,0.2c2.8,1.4,4,3.7,3.8,6
			c0,0.5-0.9,1.8-2.8,3.2h0.1c1.3-0.8,2.4-1.7,2.6-2.8c0.1-0.8,1.1-1.3,1.3-2.3c-0.4-1.8-0.5-3.9-2.7-5l-1.8-1.2
			c-7.1-3.5-15.2-4.4-23-1.3l-2.5,1c-2.3,0.9-4.7,3.8-4.9,5.6c-0.1,1,0,0.8,0.1,1.7c0.1,0.9,1,2.4,2.8,3.6h0.1
			C207,276.7,206.6,275.1,206.7,274.5z"/>
	</g>
	<polygon class="st20" points="32.2,214.2 32.4,212.3 193,294.5 192.8,296.5 	"/>
	<path class="st18" d="M273.7,269.9l18.3,8.9l-20.4,7.9l0,0l-0.4,0.2l-7.1,2.8l-17.8-9l6.1-2.4l0,0l0.4-0.2L273.7,269.9
		 M273.8,268.8l-21.4,8.4l0,0l-8.6,3.4l20.2,10.2l7.5-2.9l0,0l22.9-8.9L273.8,268.8L273.8,268.8z"/>
	<polygon class="st19" points="208.9,280 209.2,278.1 208.4,278.4 208.2,280.3 	"/>
	<polygon class="st19" points="236.3,280.8 236.4,279 237.1,279.3 236.9,281.2 	"/>
	<polygon class="st19" points="216.2,275.3 216.4,273.3 230.5,273.6 230.2,275.8 	"/>
	<polygon class="st19" points="216.8,271.2 217,269.2 230.9,269.5 230.6,271.7 	"/>
	<path class="st21" d="M217.7,270.1l12.2,0.4l-0.3,2.2l-12.2-0.4L217.7,270.1 M216.8,269.1l-0.5,4.2l14.2,0.5l0.5-4.3L216.8,269.1
		L216.8,269.1z"/>
	<g>
		<polygon class="st18" points="224.9,275.7 221.2,275.6 221.5,272.4 225.3,272.5 		"/>
	</g>
	<polygon class="st19" points="208.9,280.1 209.2,278.1 182.7,288.6 184.9,289.6 	"/>
	<path class="st21" d="M100.8,184.2l125.5,62.1l0.4,0.2l0.4-0.2L375,186.8l70.2,32.6l-150.9,58.7L249,295.7l-28-1.2l-27.7-0.9
		l-38.9-19.9L34.8,212.4L100.8,184.2 M100.8,183.1l-68.4,29.2l121.5,62.3l39.1,20l27.9,0.9l28.2,1.2l45.5-17.6l153.1-59.5L375,185.8
		l-148.3,59.7L100.8,183.1L100.8,183.1z"/>
	<g>
		<polygon class="st15" points="218.4,297.5 211.6,297.3 211.9,294.1 218.8,294.3 		"/>
	</g>
	<g>
		<polygon class="st15" points="229.8,297.9 223,297.7 223.3,294.5 230.2,294.8 		"/>
	</g>
	<path class="st21" d="M100.7,184l37.6,18.7l86.9,43L198.3,256l-2.1,0.8l2,1l15.5,7.7c-1.2,0.4-2.7,0.9-4.1,1.6
		c-2.2,1.2-3.8,3.1-4.3,5.1c-0.4,1.7-0.1,3.4,0.9,4.9c0.2,0.3,0.4,0.6,0.6,0.8l-24.9,9.9l-27.6-14.3L34.7,212.4l38.8-16.7l1.8-0.8
		L100.7,184 M100.8,182.9l-27.7,11.8l0,0l-40.8,17.5l121.5,62.1l28,14.5l27.3-10.8c0,0-1.1-0.1-2.1-1.5c-1.9-2.9-0.6-6.6,3.1-8.6
		c3-1.6,6.5-2.2,6.5-2.2l-18-8.9l29-11.1l-88.9-44L100.8,182.9L100.8,182.9z"/>
	<g>
		<polygon class="st18" points="66.7,197.5 67.7,198.1 67.5,199.2 70.8,197.8 70,196.1 68.6,196.7 		"/>
		<polygon class="st20" points="70,196.1 70.8,196.6 70.7,197.8 69.9,197.3 		"/>
	</g>
	<path class="st21" d="M375,186.8l70.2,32.6l-136.7,53.1l-15,5.8l-33.9-16.6l-31.5-15.8L375,186.8 M375.1,185.7l-149.4,60.1
		l33.5,16.8l34.3,16.8l15.4-6l138.9-53.9L375.1,185.7L375.1,185.7z"/>
	<g>
		<polygon class="st18" points="409.5,201.7 408.4,202.1 408.3,203.4 404.4,201.6 405.7,199.8 407.4,200.7 		"/>
		<polygon class="st20" points="405.7,199.9 404.6,200.3 404.5,201.5 405.6,201 		"/>
	</g>
	<g>
		<polygon class="st18" points="261,262.2 259.6,262.8 259.4,264.3 255.8,262.5 257,260.6 257.3,259.8 		"/>
		<polygon class="st20" points="257,260.6 256,261 255.9,262.5 256.9,262 		"/>
	</g>
	<g>
		<path class="st15" d="M215.5,265l0.5,0.4c0,0-1.9,0.3-2.5,0.5c-0.5,0.1-2,0.6-2,0.6l-1.3-0.6l1.3-1.9l0.1-0.7l0.3-0.1L215.5,265z"
			/>
		<polygon class="st15" points="211.5,263.2 210.5,263.7 210.3,265.8 211.2,265.3 		"/>
	</g>
	<g>
		<polygon class="st18" points="193.5,283.3 194.7,283.9 194.5,285.9 197.9,284.6 197.2,282.1 196.7,281.8 		"/>
		<polygon class="st20" points="197.1,282.1 198,282.6 197.9,284.5 197,283.9 		"/>
	</g>
	<path class="st19" d="M218.5,263.3l0.2-2l-1.5,0.3c-2.2,0.4-4.3,1-6.2,1.9l-0.6,0.3l-0.2,2.1l0.4-0.1
		C213.1,264.6,215.8,263.9,218.5,263.3L218.5,263.3z"/>
	<path class="st21" d="M218.1,249.5l-0.3,11.3l-2.8,0.6l0,0l0,0c-0.6,0.2-1.3,0.4-1.8,0.5l0,0l0,0l-2.4,1l-11.9-5.9l18.8-7.2
		 M217.9,248.7l-21.2,8.1l13.8,6.9l3-1.2c0.5-0.2,1.2-0.4,1.7-0.5l3.6-0.7l0.4-13.1L217.9,248.7z"/>
	<path class="st21" d="M234,250l17.4,8.6l-12.8,5.1l-3.6-1.5l0,0h-0.1l-3-1L234,250 M233.3,248.7l-2.5,13l3.7,1.2l4,1.7l14.7-5.9
		L233.3,248.7L233.3,248.7z"/>
	<g>
		<polygon class="st19" points="232.7,259.2 231.2,259.1 231.4,257.7 232.8,257.8 		"/>
		<polygon class="st18" points="232.8,255.8 231.9,255.8 231.5,257.7 232.4,257.8 		"/>
	</g>
	<g>
		<polygon class="st18" points="217.3,258.7 218.8,258.7 218.9,257.4 217.6,257.4 		"/>
		<polygon class="st20" points="218,255.4 218.9,255.4 218.8,257.4 217.9,257.4 		"/>
	</g>
</g>
<g id="Layer_5">
	<g class="st0">
		
			<image style="overflow:visible;enable-background:new    ;" width="2113" height="908" xlink:href="A278496EF0467F8B.png"  transform="matrix(0.2396 0 0 0.2396 -14.8976 8.6691)">
		</image>
	</g>
	<g>
		<g>
			<g class="st1">
				<g class="st1">
					<g>
						<defs>
							<path id="SVGID_15_" d="M21.3,73.5v-0.8c0,2.8,1.4,5.5,3.7,7.2c0.6,0.4,1.2,0.7,1.8,1v0.8c-0.6-0.3-1.2-0.6-1.8-1
								C22.6,79,21.3,76.3,21.3,73.5z"/>
						</defs>
						<clipPath id="SVGID_16_">
							<use xlink:href="#SVGID_15_"  style="overflow:visible;"/>
						</clipPath>
						<g class="st22">
							<path class="st3" d="M26.7,80.9v0.8c-0.6-0.3-1.2-0.6-1.8-1c-2.3-1.7-3.7-4.4-3.7-7.2v-0.8c0,2.8,1.4,5.5,3.7,7.2
								C25.5,80.3,26.1,80.6,26.7,80.9"/>
						</g>
					</g>
				</g>
				<g class="st1">
					<g>
						<defs>
							<path id="SVGID_17_" d="M455.3,79.4v0.8c0,0.1,0,0.2,0,0.3c-0.1,2.8-1.5,5.4-3.7,7v-0.8c2.2-1.6,3.6-4.2,3.7-7
								C455.3,79.6,455.3,79.5,455.3,79.4z"/>
						</defs>
						<clipPath id="SVGID_18_">
							<use xlink:href="#SVGID_17_"  style="overflow:visible;"/>
						</clipPath>
						<g class="st23">
							<path class="st5" d="M455.3,79.4v0.8c0,0.1,0,0.2,0,0.3c0,0.3,0,0.7-0.1,1v-0.8c0.1-0.3,0.1-0.7,0.1-1
								C455.3,79.6,455.3,79.5,455.3,79.4"/>
							<path class="st6" d="M455.2,80.7v0.8c-0.1,0.5-0.2,1-0.4,1.5v-0.8C455,81.7,455.1,81.2,455.2,80.7"/>
							<path class="st7" d="M454.9,82.2V83c-0.2,0.6-0.4,1.1-0.7,1.6v-0.8C454.4,83.3,454.7,82.8,454.9,82.2"/>
							<path class="st3" d="M454.1,83.8v0.8c-0.6,1.1-1.5,2.1-2.5,2.8v-0.8C452.6,85.9,453.5,84.9,454.1,83.8"/>
						</g>
					</g>
				</g>
				<g class="st1">
					<g>
						<defs>
							<path id="SVGID_19_" d="M451.6,86.7v0.8c-0.8,0.7-1.7,1.3-2.8,1.7v-0.8C449.9,88,450.8,87.4,451.6,86.7z"/>
						</defs>
						<clipPath id="SVGID_20_">
							<use xlink:href="#SVGID_19_"  style="overflow:visible;"/>
						</clipPath>
						<g class="st24">
							<path class="st3" d="M451.6,86.7v0.8c-0.8,0.7-1.7,1.3-2.8,1.7v-0.8C449.9,88,450.8,87.4,451.6,86.7"/>
						</g>
					</g>
				</g>
				<g>
					<polygon class="st9" points="448.8,88.4 448.8,89.2 324.3,137.4 324.3,136.5 					"/>
				</g>
				<g>
					<polygon class="st9" points="324.3,136.5 324.3,137.4 265.8,160 265.8,159.1 					"/>
				</g>
				<g class="st1">
					<g>
						<defs>
							<path id="SVGID_21_" d="M265.8,159.1v0.8c-0.5,0.2-0.9,0.4-1.4,0.5v-0.8C264.9,159.6,265.4,159.4,265.8,159.1z"/>
						</defs>
						<clipPath id="SVGID_22_">
							<use xlink:href="#SVGID_21_"  style="overflow:visible;"/>
						</clipPath>
						<g class="st25">
							<path class="st3" d="M265.8,159.1v0.8c-0.5,0.2-0.9,0.4-1.4,0.5v-0.8C264.9,159.6,265.4,159.4,265.8,159.1"/>
						</g>
					</g>
				</g>
				<g class="st1">
					<g>
						<defs>
							<path id="SVGID_23_" d="M264.4,159.7v0.8c-0.9,0.4-1.3,0.5-1.6,0.7v-0.8C263.2,160.2,263.5,160.1,264.4,159.7z"/>
						</defs>
						<clipPath id="SVGID_24_">
							<use xlink:href="#SVGID_23_"  style="overflow:visible;"/>
						</clipPath>
						<g class="st26">
							<path class="st3" d="M264.4,159.7v0.8c-0.9,0.4-1.3,0.5-1.6,0.7v-0.8C263.2,160.2,263.5,160.1,264.4,159.7"/>
						</g>
					</g>
				</g>
				<g>
					<polygon class="st9" points="262.8,160.4 262.8,161.2 259.8,162.4 259.8,161.5 					"/>
				</g>
				<g class="st1">
					<g>
						<defs>
							<path id="SVGID_25_" d="M259.8,161.5v0.8c-1.5,0.6-1.8,0.7-2.2,0.9v-0.8C258,162.2,258.3,162.1,259.8,161.5z"/>
						</defs>
						<clipPath id="SVGID_26_">
							<use xlink:href="#SVGID_25_"  style="overflow:visible;"/>
						</clipPath>
						<g class="st27">
							<path class="st3" d="M259.8,161.5v0.8c-1.5,0.6-1.8,0.7-2.2,0.9v-0.8C258,162.2,258.3,162.1,259.8,161.5"/>
						</g>
					</g>
				</g>
				<g>
					<polygon class="st9" points="193.3,166.1 193.3,167 26.7,81.8 26.7,80.9 					"/>
				</g>
				<g>
					<polygon class="st9" points="257.7,162.4 257.7,163.2 235.3,171.9 235.3,171 					"/>
				</g>
				<g>
					<polygon class="st9" points="213.2,176.3 213.2,177.1 193.3,167 193.3,166.1 					"/>
				</g>
				<g>
					<polygon class="st9" points="235.3,171 235.3,171.9 220.5,177.5 220.5,176.7 					"/>
				</g>
				<g class="st1">
					<g>
						<defs>
							<path id="SVGID_27_" d="M220.5,176.7v0.8c-1,0.4-2.1,0.6-3.2,0.6c-1.4,0-2.8-0.3-4.1-1v-0.8c1.3,0.7,2.7,1,4.1,1
								C218.4,177.3,219.5,177.1,220.5,176.7z"/>
						</defs>
						<clipPath id="SVGID_28_">
							<use xlink:href="#SVGID_27_"  style="overflow:visible;"/>
						</clipPath>
						<g class="st28">
							<path class="st3" d="M220.5,176.7v0.8c-1,0.4-2.1,0.6-3.2,0.6c-1.4,0-2.8-0.3-4.1-1v-0.8c1.3,0.7,2.7,1,4.1,1
								C218.4,177.3,219.5,177.1,220.5,176.7"/>
						</g>
					</g>
				</g>
				<g>
					<path class="st14" d="M98.9,32.5c1.4,0,2.7,0.3,4,0.9l3.2,1.6l119.1,58.6l144.5-58c1.1-0.4,2.2-0.6,3.4-0.6
						c1.3,0,2.6,0.3,3.8,0.8l24,11.1l2.3,1.1c2.7,0,4.5,0.5,6.1,1.7l4,2.9l36.1,17c0.7,0.3,1.4,0.7,2.1,1.2c1.6,1.3,2.7,3,3.1,5
						c0.5,1.2,0.8,2.5,0.7,3.8c-0.1,2.8-1.5,5.4-3.7,7c-0.8,0.7-1.7,1.3-2.8,1.7l-124.5,48.2l-58.5,22.6c-0.5,0.2-0.9,0.4-1.4,0.5
						c-0.9,0.4-1.3,0.5-1.6,0.7l-3,1.1c-1.5,0.6-1.8,0.7-2.2,0.9l-22.3,8.6l-14.8,5.7c-1,0.4-2.1,0.6-3.2,0.6c-1.4,0-2.8-0.3-4.1-1
						L193.3,166L26.7,80.9c-0.6-0.3-1.2-0.6-1.8-1c-2.6-1.9-4-5-3.6-8.2c0.1-4.8,2.3-7.9,5.5-9.2L58.3,49c0.4-0.4,0.8-0.7,1.3-1
						l3.3-2.1c1.4-0.9,3.1-1.4,4.8-1.4l27.7-11.4C96.5,32.7,97.7,32.5,98.9,32.5z"/>
				</g>
			</g>
		</g>
	</g>
	<polygon class="st15" points="429.7,70.3 374.6,44.6 226,104.2 259.8,121 259.6,121 293.8,137.9 309.3,131.9 447.1,78.3 	"/>
	<polygon class="st15" points="219.9,166.2 448.3,77.9 375.6,44 154.5,132.7 	"/>
	<polygon class="st18" points="374.9,44.8 341,58.3 364.5,69.5 398.9,55.9 	"/>
	<polygon class="st15" points="220.7,165.5 33.3,69.9 101.8,40.6 295.6,136.5 	"/>
	<polygon class="st18" points="188.4,85.5 225.7,104 207.7,110.9 171.8,91.9 	"/>
	<path class="st18" d="M209.1,136.6l-27.2,11l19.3,10l14.7-5.7l22.2-8.7l-9.3-4.7c0,0-7.1,0.5-11.8,0
		C213.4,138.3,209.1,136.6,209.1,136.6z"/>
	<path class="st20" d="M208.6,137l0.1-1.8l7.1,1.4l12.3,0.1l7.4,3.8l-0.4,2l-6.9-3.5c0,0-7.1,0.5-11.7,0
		C212.9,138.7,208.6,137,208.6,137z"/>
	<polygon class="st18" points="178.2,96.1 207.7,110.9 192.3,117.2 163.1,102.3 	"/>
	<polygon class="st18" points="246.1,95.9 268.5,107 247.4,115.4 225,104.3 	"/>
	<polygon class="st18" points="147.7,102.7 165.1,111.6 137.3,122.8 118.7,113.3 	"/>
	<polygon class="st18" points="172.6,125.9 186.1,132.7 168.9,138.6 156.4,132.3 	"/>
	<polygon class="st18" points="236.1,142.9 214.1,151.1 199.4,156.8 219.2,166.9 234,161.3 256.4,152.6 	"/>
	<polygon class="st18" points="281.6,124.6 258.6,133.6 243.6,139.4 263.9,149.6 279,143.8 300.8,135.4 	"/>
	<path class="st18" d="M218.9,107.2l-0.4,13l-3.3,0.8c-0.5,0.1-1.1,0.3-1.6,0.5l-3.4,1.2l-13.1-6.7L218.9,107.2z"/>
	<polygon class="st18" points="232.7,110.7 218.6,110.4 218.9,107.2 226.3,104.3 233,107.6 	"/>
	<polygon class="st18" points="252.7,117.3 237.8,123.2 233.8,121.5 230.5,120.6 232.8,107.5 	"/>
	<polygon class="st19" points="266.8,124.4 266.8,124.4 280.4,131.1 280.4,131.1 	"/>
	<polygon class="st20" points="374.8,44.7 375.1,42.6 447.8,76.4 447.5,78.5 	"/>
	<polygon class="st20" points="197.4,116.3 197.6,114.1 210.5,120.6 210.2,122.7 	"/>
	<polygon class="st20" points="170.9,92.4 171,91 208.2,109.4 208,111.1 	"/>
	<polygon class="st20" points="161.3,102.6 161.5,100.8 192.4,116.1 192.2,118.1 	"/>
	<polygon class="st19" points="218.8,110.4 219,108.4 232.6,108.6 232.3,110.7 	"/>
	<polygon class="st20" points="100.6,41.9 100.9,39.9 252.8,115.5 250.6,116.3 	"/>
	<polygon class="st19" points="374.8,44.7 375.1,42.6 226.6,102.3 228.5,103.3 	"/>
	<polygon class="st19" points="226.3,104.3 226.4,102.3 197.5,113.9 199.6,115 	"/>
	<polygon class="st19" points="197.4,116.3 197.6,114.1 192.4,116.1 192.2,118.2 	"/>
	<polygon class="st20" points="252.5,117.8 252.8,115.8 273.8,125.9 271.8,127.1 	"/>
	<polygon class="st20" points="301.6,117.5 301.8,115.5 320.6,124.8 320.4,126.9 	"/>
	<polygon class="st20" points="246.2,96.2 246.3,95.2 267,105.4 266.8,106.5 	"/>
	<polygon class="st19" points="188.4,85.5 188.6,84.3 172.4,91.1 173.2,91.6 	"/>
	<polygon class="st19" points="178.2,96.1 178.3,94.7 163,100.9 164.2,101.8 	"/>
	<polygon class="st20" points="147.7,102.7 147.9,101.3 184.6,119.7 183.8,121 	"/>
	<polygon class="st19" points="147.7,102.7 147.8,101.3 119.3,112.9 120.6,113.7 	"/>
	<polygon class="st19" points="167.1,112.5 167.3,111.1 138.5,122.7 139.8,123.5 	"/>
	<polygon class="st19" points="185.3,120.8 185.5,119.4 155.3,131.1 156.9,132.1 	"/>
	<polygon class="st19" points="301.5,117.6 301.8,115.2 279.9,123.8 279.7,125.9 	"/>
	<polygon class="st19" points="268.6,107 268.8,105.3 248.7,113.4 250.8,113.9 	"/>
	<polygon class="st20" points="172.6,125.9 172.8,124.4 199.5,137.9 198.2,138.9 	"/>
	<polygon class="st20" points="281.1,125.3 281.3,123.3 300,132.6 299.7,134.7 	"/>
	<polygon class="st20" points="228.4,139 228.6,137.5 256.1,151.3 254.7,152.3 	"/>
	<polygon class="st20" points="341,58.3 341.3,56.2 364.7,67.3 364.5,69.4 	"/>
	<polygon class="st19" points="187.2,133.3 187.3,131.8 170,138.7 171.6,139.7 	"/>
	<polygon class="st19" points="398.6,55.7 398.9,53.7 364.7,67.3 364.5,69.4 	"/>
	<polygon class="st19" points="236.1,142.9 236.4,140.5 199.6,154.7 200.5,156.8 	"/>
	<polygon class="st19" points="276.1,127.4 276.3,125.7 245.8,137.3 245.2,139.7 	"/>
	<polygon class="st19" points="252.6,117.9 252.8,115.8 238.5,121.4 238.3,123.5 	"/>
	<polygon class="st20" points="243.6,139.5 243.8,137.4 264.1,147.6 263.9,149.7 	"/>
	<polygon class="st19" points="447.5,78.5 447.8,76.4 219.5,164.9 219.2,166.9 	"/>
	<polygon class="st19" points="100.6,41.9 100.9,39.9 32.4,69.2 32.2,71.2 	"/>
	<path class="st19" d="M218.5,120.2l0.2-2l-1.5,0.3c-2.2,0.4-4.3,1-6.2,1.9l-0.6,0.3l-0.2,2.1l0.4-0.1
		C213.1,121.5,215.8,120.8,218.5,120.2L218.5,120.2z"/>
	<path class="st19" d="M230.5,120.6l0.2-2l1.4,0.3c2.1,0.5,4,1.3,5.8,2.2l0.6,0.3l-0.2,2.1l-0.3-0.2
		C235.6,122.2,233.1,121.3,230.5,120.6L230.5,120.6z"/>
	<polygon class="st19" points="218.9,107.3 219.1,105.3 218.7,118.2 218.4,120.2 	"/>
	<polygon class="st19" points="233,107.6 233.2,105.6 230.8,118.5 230.5,120.6 	"/>
	<path class="st21" d="M218.1,106.4l-0.3,11.3l-2.8,0.6l0,0l0,0c-0.6,0.2-1.3,0.4-1.8,0.5l0,0l0,0l-2.4,1l-11.9-5.9l18.8-7.2
		 M217.9,105.6l-21.2,8.1l13.8,6.9l3-1.2c0.5-0.2,1.2-0.4,1.7-0.5l3.6-0.7l0.4-13.1L217.9,105.6z"/>
	<path class="st21" d="M226.4,103.2l5.8,2.9L232,108l-12.1-0.2l0.2-2L226.4,103.2 M226.5,102.3l-7.4,2.9l-0.4,3.2l14.1,0.3l0.3-3.1
		l-6.5-3.2L226.5,102.3z"/>
	<path class="st21" d="M234,106.9l17.4,8.6l-12.8,5.1l-3.6-1.5l0,0h-0.1l-3-1L234,106.9 M233.3,105.6l-2.5,13l3.7,1.2l4,1.7
		l14.7-5.9L233.3,105.6L233.3,105.6z"/>
	<g>
		<polygon class="st18" points="227.4,110.7 223.6,110.6 224,107.4 227.8,107.5 		"/>
	</g>
	<g>
		<polygon class="st18" points="217.3,115.6 218.8,115.6 218.9,114.3 217.6,114.3 		"/>
		<polygon class="st20" points="218,112.3 218.9,112.4 218.8,114.3 217.9,114.3 		"/>
	</g>
	<g>
		<polygon class="st18" points="232.7,116.1 231.2,116 231.4,114.7 232.8,114.7 		"/>
		<polygon class="st20" points="232.8,112.7 231.9,112.7 231.5,114.7 232.4,114.7 		"/>
	</g>
	<g>
		<g>
			<path class="st18" d="M230.2,132.7l6.3,3.2l0.4,2.2c0,0,0.8-0.4,1-0.6c0.2-0.1,0.6-0.6,0.6-0.6c3.1-3.3,2.5-8-2.2-10.4l-0.4-0.2
				c-7.1-3.5-16.3-3.8-24.1-0.7l-1,0.4c-5.1,2-6.6,6.7-4.1,10c0,0,0.5,0.5,0.6,0.6c0.2,0.2,0.9,0.5,0.9,0.5l0.7-2l7.1-2.8
				L230.2,132.7z"/>
		</g>
	</g>
	<g>
		<path class="st20" d="M206.7,131.4c0.4-2,2.1-4,4.8-5.1l1-0.4c7.3-2.9,16-2.7,22.7,0.7l0.4,0.2c2.8,1.4,4,3.7,3.8,6
			c0,0.5-0.9,1.8-2.8,3.2h0.1c1.3-0.8,2.4-1.7,2.6-2.8c0.1-0.8,1.1-1.3,1.3-2.3c-0.4-1.8-0.5-3.9-2.7-5l-1.8-1.2
			c-7.1-3.5-15.2-4.4-23-1.3l-2.5,1c-2.3,0.9-4.7,3.8-4.9,5.6c-0.1,1,0,0.8,0.1,1.7s1,2.4,2.8,3.6h0.1
			C207,133.6,206.6,132,206.7,131.4z"/>
	</g>
	<g>
		<path class="st21" d="M211.8,124.3l1-0.4c7.4-2.9,16-2.7,22.7,0.7l0.4,0.2c5.1,2.5,5,8.1,0.6,11l0.7,0.4c4.8-3.1,4.9-9-0.5-11.7
			l-0.4-0.2c-7.1-3.5-16.3-3.8-24.1-0.7l-1,0.4c-5.8,2.3-6.9,8.2-2.7,11.4l0.8-0.3C205.3,132,206.3,126.5,211.8,124.3z"/>
	</g>
	<polygon class="st20" points="32.2,71.1 32.4,69.2 219.5,164.9 219.2,166.9 	"/>
	<polygon class="st19" points="208.9,136.9 209.2,135 208.4,135.3 208.3,137.1 	"/>
	<polygon class="st19" points="236.3,137.7 236.4,135.9 237.1,136.2 236.9,138.1 	"/>
	<polygon class="st19" points="216.2,132.3 216.4,130.3 230.5,130.5 230.2,132.7 	"/>
	<polygon class="st19" points="216.8,128.1 217,126.1 230.9,126.4 230.6,128.6 	"/>
	<path class="st21" d="M217.7,127l12.2,0.4l-0.3,2.2l-12.2-0.4L217.7,127 M216.8,126l-0.5,4.2l14.2,0.5l0.5-4.3L216.8,126L216.8,126
		z"/>
	<g>
		<polygon class="st18" points="224.9,132.6 221.2,132.5 221.5,129.3 225.3,129.4 		"/>
	</g>
	<g>
		<path class="st15" d="M215.5,121.9l0.5,0.4c0,0-1.9,0.3-2.5,0.5c-0.5,0.1-2,0.6-2,0.6l-1.3-0.6l1.3-1.9l0.1-0.7l0.3-0.1
			L215.5,121.9z"/>
		<polygon class="st15" points="211.5,120.2 210.5,120.6 210.3,122.7 211.2,122.2 		"/>
	</g>
	<path class="st19" d="M218.5,120.2l0.2-2l-1.5,0.3c-2.2,0.4-4.3,1-6.2,1.9l-0.6,0.3l-0.2,2.1l0.4-0.1
		C213.1,121.5,215.8,120.8,218.5,120.2L218.5,120.2z"/>
	<path class="st21" d="M281.3,123.9l18.2,9l-20.7,8l-14.7,5.6l-17.9-9l12.9-5L281.3,123.9 M281.4,122.8l-22.5,8.8l-15,5.8l20.3,10.2
		l15.1-5.8L302,133L281.4,122.8L281.4,122.8z"/>
	<path class="st21" d="M236.3,141.6l17.8,9l-20.3,7.8l-14.4,5.5L202,155l12.6-4.9L236.3,141.6 M236.4,140.5l-22.1,8.7l-14.7,5.7
		l19.9,10.2l14.8-5.7l22.4-8.7L236.4,140.5L236.4,140.5z"/>
	<path class="st21" d="M301.8,115.9l18.4,9l-19.3,7.4l-18.2-9L301.8,115.9 M301.9,114.8l-21.6,8.4l20.6,10.2l21.8-8.4L301.9,114.8
		L301.9,114.8z"/>
	<path class="st21" d="M375,43.7l21.5,9.9l-31.8,12.6l-21.1-10L375,43.7 M375.1,42.6l-33.9,13.6l23.5,11.1l34.4-13.6L375.1,42.6
		L375.1,42.6z"/>
	<path class="st21" d="M188.7,84.8l36.2,17.8l-16.1,6L173.4,91L188.7,84.8 M188.7,83.7L171,91l37.8,18.8l18.6-7L188.7,83.7
		L188.7,83.7z"/>
	<path class="st21" d="M147.8,101.5l35.3,17.8l-28.6,11.2l-34.4-17.6L147.8,101.5 M147.9,100.4l-30.2,12.4l36.7,18.8l31.1-12.2
		L147.9,100.4L147.9,100.4z"/>
	<path class="st21" d="M172.9,124.7L199,138l-16.9,6.7L156,131.3L172.9,124.7 M172.9,123.6l-19.3,7.6l28.5,14.6l19.4-7.7
		L172.9,123.6L172.9,123.6z"/>
	<path class="st21" d="M172.9,124.7l13,6.6l-16.8,6.7l-13.1-6.7L172.9,124.7 M172.9,123.6l-19.3,7.6l15.5,7.9l19.3-7.7L172.9,123.6
		L172.9,123.6z"/>
	<polygon class="st19" points="208.9,136.9 209.2,134.9 182.9,145.4 184.9,146.4 	"/>
	<path class="st21" d="M167.3,111.3l15.8,8l-28.6,11.2l-15.3-7.8L167.3,111.3 M167.3,110.2l-30.5,12.4l17.6,9l31.1-12.2L167.3,110.2
		L167.3,110.2z"/>
	<g>
		<polygon class="st18" points="177.6,93 176.2,93.5 176,95.1 172.5,93.3 173.7,91.5 174.1,91.3 		"/>
		<polygon class="st20" points="173.7,91.4 172.7,91.9 172.6,93.3 173.5,92.8 		"/>
	</g>
	<path class="st21" d="M178.6,94.9l29,14.4l-15.2,5.9l-28.5-14.3L178.6,94.9 M178.6,93.8l-17.2,7l30.9,15.5l17.7-6.9L178.6,93.8
		L178.6,93.8z"/>
	<g>
		<polygon class="st19" points="260.8,144.8 259.4,145.4 259.1,147.4 255.6,145.6 256.8,143 257.2,142.4 		"/>
		<polygon class="st20" points="256.8,143.1 255.8,143.5 255.6,145.6 256.6,145.1 		"/>
	</g>
	<g>
		<polygon class="st15" points="283.9,121.6 285.1,122.2 284.9,124 288.3,122.7 287.3,120.3 287.2,119.8 		"/>
		<polygon class="st20" points="287.4,120.5 288.4,120.9 288.3,122.6 287.3,122 		"/>
	</g>
	<g>
		<polygon class="st18" points="367.7,65.1 368.9,65.7 368.6,67.8 372.1,66.4 371.2,63.9 371,63.5 		"/>
		<polygon class="st20" points="371.2,63.9 372.2,64.3 372.1,66.3 371.1,65.8 		"/>
	</g>
	<g>
		<polygon class="st18" points="189.8,113.7 188.4,114.3 188.2,116.2 184.7,114.5 185.7,113.9 185.9,112.2 186.1,111.3 		"/>
		<polygon class="st20" points="185.9,112.1 184.9,112.6 184.7,114.4 185.7,113.9 		"/>
	</g>
	<g>
		<polygon class="st15" points="173,112.8 171.7,113.3 171.5,114.9 168,113.1 169,112.6 169.2,111.2 169.4,110.4 		"/>
		<polygon class="st20" points="169.2,111.2 168.2,111.6 168.1,113.1 169,112.6 		"/>
	</g>
	<g>
		<polygon class="st15" points="166.1,109.2 164.7,109.8 164.5,111.3 161.1,109.6 162.1,109 162.2,107.7 162.5,106.8 		"/>
		<polygon class="st20" points="162.2,107.6 161.3,108.1 161.1,109.5 162.1,109 		"/>
	</g>
	<g>
		<polygon class="st15" points="193,133.5 191.6,134 191.4,135.6 187.9,133.8 188.9,133.3 189.1,131.8 189.3,130.9 		"/>
		<polygon class="st20" points="189.1,131.8 188.1,132.2 188,133.7 188.9,133.3 		"/>
	</g>
	<g>
		<polygon class="st15" points="253.2,148.6 251.8,149.1 251.6,150.8 248.1,149 249.1,148.4 249.2,147 249.5,146.1 		"/>
		<polygon class="st20" points="249.2,147 248.2,147.4 248.1,148.9 249.1,148.4 		"/>
	</g>
	<g>
		<polygon class="st15" points="185.9,129.8 184.5,130.4 184.4,132 180.9,130.2 181.8,129.6 182,128.2 182.3,127.3 		"/>
		<polygon class="st20" points="182,128.2 181.1,128.6 180.9,130.1 181.8,129.6 		"/>
	</g>
	<path class="st21" d="M208.5,135.4c1.1,0.4,4.6,1.6,7.8,1.9c1.3,0.1,3,0.2,4.9,0.2c3,0,5.8-0.2,6.7-0.2l7,3.5l-20.1,7.9l-14.2,5.5
		l-17-8.8L208.5,135.4 M208.4,134.3l-27.2,11l19.3,10l14.6-5.7l22.2-8.7l-9.3-4.7c0,0-3.3,0.2-6.9,0.2c-1.7,0-3.4,0-4.8-0.2
		C212.7,136,208.4,134.3,208.4,134.3L208.4,134.3z"/>
	<g>
		<polygon class="st15" points="202.1,136.7 203.2,137.3 203,139.3 206.3,138 205.4,135.5 205.3,135 		"/>
		<polygon class="st20" points="205.4,135.6 206.4,136.1 206.3,137.9 205.3,137.4 		"/>
	</g>
	<g>
		<path class="st15" d="M219.2,139.2c0,0-1.6-0.1-2.2-0.1c-0.5,0-1.5-0.2-1.5-0.2l0.3-3.1l3.7,0.1L219.2,139.2z"/>
	</g>
	<path class="st21" d="M375,43.6l54.7,25.5l15.5,7.2l-135.8,52.6l-8.4,3.4l-19.3-9.5l-0.4-0.2l-0.4,0.2l-6.5,2.6l-14.4-7.1
		l-32.2-15.4L375,43.6 M375,42.5l-149.7,60.1l34.2,16.4l14.8,7.3l6.9-2.7l19.7,9.7l8.8-3.5l138-53.5l-17.6-8.2L375,42.5L375,42.5z"
		/>
	<path class="st21" d="M100.8,41.1l173,85.4l0.4,0.2l0.4-0.2l6.6-2.6l18.2,9l-79.7,30.9L34.6,69.3L100.8,41.1 M100.9,40L32.3,69.2
		l187.5,95.6L302,133l-20.7-10.2l-7,2.8L100.9,40L100.9,40z"/>
	<g>
		<polygon class="st15" points="66.8,54.5 67.7,55 67.5,56.1 70.8,54.7 70,53.1 68.4,53.8 		"/>
		<polygon class="st20" points="70,53.1 70.8,53.5 70.7,54.7 69.9,54.2 		"/>
	</g>
	<g>
		<polygon class="st15" points="257.6,149.1 258.8,149.7 258.6,151.8 261.6,150.6 260.8,148.2 260.4,148 		"/>
		<polygon class="st20" points="260.9,148.1 261.7,148.6 261.5,150.5 260.7,149.9 		"/>
	</g>
	<g>
		<polygon class="st15" points="268.2,122 266.6,122.7 266.4,124.6 262.8,122.8 264.2,120.4 264.4,119.6 		"/>
		<polygon class="st20" points="264.1,120.4 263,120.8 262.8,122.8 263.9,122.3 		"/>
	</g>
	<g>
		<polygon class="st15" points="409.4,58.5 408.4,59 408.3,60.3 404.4,58.5 405.7,56.8 407.5,57.6 		"/>
		<polygon class="st20" points="405.7,56.8 404.6,57.3 404.5,58.4 405.6,57.9 		"/>
	</g>
	<path class="st21" d="M246.4,95.4l20,9.8l-18.6,7.4l-20-9.9L246.4,95.4 M246.5,94.3l-21.1,8.4l22.4,11.1l21.2-8.4L246.5,94.3
		L246.5,94.3z"/>
	<g>
		<polygon class="st15" points="264.7,103.1 263.3,103.7 263.2,104.7 259.6,103 260.8,101.4 261.2,99.8 		"/>
		<polygon class="st20" points="260.7,101.4 259.7,101.8 259.6,102.9 260.6,102.5 		"/>
	</g>
	<g>
		<polygon class="st15" points="275.2,125 276.4,125.6 276.1,127.4 279.7,125.9 278.6,123.4 278.5,123 		"/>
		<polygon class="st20" points="278.9,123.7 279.8,124.2 279.7,125.8 278.8,125.3 		"/>
	</g>
</g>
<polygon class="st18" points="301.5,117.6 318.1,125.7 300.9,132.3 283.9,123.9 "/>
<polygon class="st18" points="187.2,133.3 197.6,138.6 182.1,144.7 172,139.5 "/>
<polygon class="st18" points="167.1,112.5 181.6,119.9 154.5,130.5 140.4,123.3 "/>
</svg>
