<?xml version="1.0" encoding="utf-8"?>
<!-- Generator: Adobe Illustrator 22.0.1, SVG Export Plug-In . SVG Version: 6.00 Build 0)  -->
<svg version="1.1" xmlns="http://www.w3.org/2000/svg" xmlns:xlink="http://www.w3.org/1999/xlink" x="0px" y="0px"
	 viewBox="0 0 472.7 347.9" style="enable-background:new 0 0 472.7 347.9;" xml:space="preserve">
<style type="text/css">
	.st0{opacity:0.69;}
	.st1{enable-background:new    ;}
	.st2{clip-path:url(#SVGID_2_);enable-background:new    ;}
	.st3{fill:#7B8487;}
	.st4{clip-path:url(#SVGID_4_);enable-background:new    ;}
	.st5{fill:#838D90;}
	.st6{fill:#828B8E;}
	.st7{clip-path:url(#SVGID_6_);enable-background:new    ;}
	.st8{fill:#808A8D;}
	.st9{fill:#7D878A;}
	.st10{fill:#788184;}
	.st11{clip-path:url(#SVGID_8_);enable-background:new    ;}
	.st12{clip-path:url(#SVGID_10_);enable-background:new    ;}
	.st13{fill:#AFBBBE;}
	.st14{fill:#B7B8AC;}
	.st15{fill:#D4D4D4;}
	.st16{display:none;}
	.st17{display:inline;fill:none;stroke:#58595B;stroke-miterlimit:10;}
	.st18{fill:#9D9D9E;}
	.st19{fill:#BCBCBC;}
	.st20{fill:#B9C1C3;}
	.st21{clip-path:url(#SVGID_12_);enable-background:new    ;}
	.st22{clip-path:url(#SVGID_14_);enable-background:new    ;}
	.st23{clip-path:url(#SVGID_16_);enable-background:new    ;}
	.st24{clip-path:url(#SVGID_18_);enable-background:new    ;}
	.st25{clip-path:url(#SVGID_20_);enable-background:new    ;}
</style>
<g id="DELTA.G">
	<g class="st0">
		
			<image style="overflow:visible;" width="2030" height="1063" xlink:href="uploads/maps/D9004D52.png"  transform="matrix(0.24 0 0 0.24 3.028 123.9624)">
		</image>
	</g>
	<g>
		<g>
			<g class="st1">
				<g class="st1">
					<defs>
						<path id="SVGID_1_" class="st1" d="M38.1,192.4l0-0.8c0,2.8,1.3,5.5,3.6,7.2v0.8C39.5,197.9,38.1,195.2,38.1,192.4z"/>
					</defs>
					<clipPath id="SVGID_2_">
						<use xlink:href="#SVGID_1_"  style="overflow:visible;"/>
					</clipPath>
					<g class="st2">
						<path class="st3" d="M41.7,198.8v0.8c-2.3-1.7-3.6-4.4-3.6-7.2v-0.8C38.1,194.4,39.5,197.1,41.7,198.8"/>
					</g>
				</g>
				<g class="st1">
					<defs>
						<path id="SVGID_3_" class="st1" d="M452.7,215v0.8c0,0.2,0,0.5,0,0.7v-0.8C452.7,215.4,452.7,215.2,452.7,215z"/>
					</defs>
					<clipPath id="SVGID_4_">
						<use xlink:href="#SVGID_3_"  style="overflow:visible;"/>
					</clipPath>
					<g class="st4">
						<path class="st5" d="M452.7,215v0.8c0,0.2,0,0.5,0,0.7v-0.8C452.7,215.4,452.7,215.2,452.7,215"/>
					</g>
				</g>
				<g>
					<polygon class="st6" points="452.7,215.7 452.7,216.5 452.5,218.7 452.5,217.8 					"/>
				</g>
				<g class="st1">
					<defs>
						<path id="SVGID_5_" class="st1" d="M452.5,217.8v0.8c-0.2,3.7-2.2,6.6-5.2,8v-0.8C450.3,224.4,452.3,221.5,452.5,217.8z"/>
					</defs>
					<clipPath id="SVGID_6_">
						<use xlink:href="#SVGID_5_"  style="overflow:visible;"/>
					</clipPath>
					<g class="st7">
						<path class="st5" d="M452.5,217.8v0.8c0,0.3-0.1,0.6-0.1,0.9v-0.8C452.5,218.5,452.5,218.1,452.5,217.8"/>
						<path class="st8" d="M452.4,218.8v0.8c-0.1,0.6-0.2,1.2-0.4,1.7v-0.8C452.2,219.9,452.3,219.4,452.4,218.8"/>
						<path class="st9" d="M452,220.5v0.8c-0.2,0.6-0.5,1.2-0.8,1.7v-0.8C451.6,221.6,451.8,221.1,452,220.5"/>
						<path class="st3" d="M451.3,222.2v0.8c-0.9,1.6-2.3,2.9-3.9,3.6v-0.8C449,225,450.4,223.8,451.3,222.2"/>
					</g>
				</g>
				<g>
					<polygon class="st10" points="152.3,281.3 152.3,282.2 41.7,199.6 41.7,198.8 					"/>
				</g>
				<g class="st1">
					<defs>
						<path id="SVGID_7_" class="st1" d="M153.2,282.1v0.8c-0.3-0.2-0.6-0.5-0.9-0.7v-0.8C152.6,281.6,152.9,281.8,153.2,282.1z"/>
					</defs>
					<clipPath id="SVGID_8_">
						<use xlink:href="#SVGID_7_"  style="overflow:visible;"/>
					</clipPath>
					<g class="st11">
						<path class="st3" d="M153.2,282.1v0.8c-0.3-0.2-0.6-0.5-0.9-0.7v-0.8C152.6,281.6,152.9,281.8,153.2,282.1"/>
					</g>
				</g>
				<g>
					<polygon class="st10" points="447.3,225.8 447.3,226.7 322.6,284.4 322.6,283.6 					"/>
				</g>
				<g>
					<polygon class="st10" points="322.6,283.6 322.6,284.4 262.6,312.2 262.6,311.4 					"/>
				</g>
				<g>
					<polygon class="st10" points="215.5,328.5 215.5,329.3 153.2,282.9 153.2,282.1 					"/>
				</g>
				<g>
					<polygon class="st10" points="262.6,311.4 262.6,312.2 224.3,330 224.3,329.1 					"/>
				</g>
				<g class="st1">
					<defs>
						<path id="SVGID_9_" class="st1" d="M224.3,329.1v0.8c-1.2,0.6-2.5,0.8-3.8,0.8c-1.7,0-3.5-0.5-5-1.5v-0.8c1.5,1,3.2,1.5,5,1.5
							C221.8,330,223.1,329.7,224.3,329.1z"/>
					</defs>
					<clipPath id="SVGID_10_">
						<use xlink:href="#SVGID_9_"  style="overflow:visible;"/>
					</clipPath>
					<g class="st12">
						<path class="st3" d="M224.3,329.1v0.8c-1.2,0.6-2.5,0.8-3.8,0.8c-1.7,0-3.5-0.5-5-1.5v-0.8c1.5,1,3.2,1.5,5,1.5
							C221.8,330,223.1,329.7,224.3,329.1"/>
					</g>
				</g>
				<g>
					<path class="st13" d="M117.7,147.6c0.5,0,1.1,0,1.6,0.1c1.3,0.2,2.5,0.7,3.6,1.5l68,48.2l42.6,30.2l45-20.8l93.7-43.5
						c1.9-0.7,2.9-0.8,3.8-0.8c1.7,0,3.4,0.5,4.9,1.4l11.7,7.5l11.3,7.1l5,3.2l2.1,1.3l37.4,24.1c3.1,2.1,4.6,5.2,4.4,8.4l-0.2,2.2
						c-0.2,3.7-2.2,6.6-5.2,8l-124.8,57.8l-60,27.8l-38.3,17.8c-1.2,0.6-2.5,0.8-3.8,0.8c-1.7,0-3.5-0.5-5-1.5l-62.3-46.4
						c-0.3-0.2-0.6-0.5-0.9-0.7L41.7,198.8c-2.4-1.8-3.8-4.8-3.6-7.8c0-0.5,0.1-1,0.2-1.5c0.3-2.4,0.7-3.6,1.3-4.6
						c1.5-2.4,3-3.6,4.8-4.3l34.1-15.8c0.4-0.2,0.8-0.4,1.3-0.5l2.7-1.2l1.7-0.8l29.6-13.8c0.9-0.4,1.9-0.7,2.8-0.8
						C117,147.6,117.3,147.6,117.7,147.6z"/>
				</g>
			</g>
		</g>
	</g>
	<polygon class="st14" points="221.7,317.9 48.1,188.6 118.3,155.9 297.4,282.8 	"/>
	<polygon class="st15" ng-class="{'pulsate': $ctrl.company.comproom == '104'}" points="83.2,172.3 116.2,195.1 80,212.4 48.1,188.6 	"/>
	<polygon class="st15" ng-class="{'pulsate': $ctrl.company.comproom == '103'}" points="114.9,195.5 137.7,212 101.7,228.2 79.9,211.9 	"/>
	<polygon class="st15" ng-class="{'pulsate': $ctrl.company.comproom == '102'}" points="138.1,212 160,227.8 124.8,244.6 103,228.3 	"/>
	<polygon class="st15" ng-class="{'pulsate': $ctrl.company.comproom == '106'}" points="152.6,180.3 233.2,237.6 203.8,251.3 124.1,193.6 	"/>
	<polygon class="st15" ng-class="{'pulsate': $ctrl.company.comproom == '105'}" points="118.3,155.9 152.6,180.3 124.1,193.6 90.2,169 	"/>
	<g class="st16">
		<polygon class="st17" points="404.1,94.5 432.6,78.4 446.8,86.5 418.3,102.7 		"/>
		<polygon class="st17" points="361.6,70 390.1,53.8 432.6,78.4 404.1,94.5 		"/>
		<polygon class="st17" points="312,41.4 340.5,25.2 390.1,53.8 361.6,70 		"/>
		<polygon class="st17" points="290.7,70 319,53.7 354.5,74.1 326.2,90.5 		"/>
		<polygon class="st17" points="361.6,110.9 389.9,94.5 425.2,115.1 397,131.4 		"/>
		<polygon class="st17" points="333.2,127.3 361.6,110.9 397,131.4 368.5,147.9 		"/>
		<polygon class="st17" points="283.6,98.6 312,82.3 354.5,106.8 326.2,123.2 		"/>
		<polygon class="st17" points="258.3,113.2 283.6,98.6 326.2,123.2 301,137.7 		"/>
		<polygon class="st17" points="234,127.3 258.3,113.2 301,137.7 276.6,151.8 		"/>
		<polygon class="st17" points="141.9,180.5 184.4,155.9 227,180.5 184.5,205 		"/>
		<polygon class="st17" points="308.3,141.7 333.2,127.3 368.5,147.9 343.7,162.1 		"/>
		<polygon class="st17" points="276.6,160 308.3,141.7 343.7,162.1 312,180.4 		"/>
		<polygon class="st17" points="259.1,170 276.6,160 312,180.4 294.6,190.5 		"/>
		<polygon class="st17" points="234,184.6 259.1,170 294.6,190.5 269.4,205.1 		"/>
		<polygon class="st17" points="108.7,261.1 136.7,244.9 146.1,250.3 118.1,266.5 		"/>
		<polygon class="st17" points="159.4,290.8 187.8,274.4 197.3,279.9 168.9,296.2 		"/>
		<polygon class="st17" points="118.1,266.5 146.1,250.3 187.8,274.4 159.4,290.8 		"/>
		<polygon class="st17" points="84.8,246.8 112.9,230.4 127.1,238.7 98.8,255 		"/>
		<polygon class="st17" points="70.2,238.5 98.7,222.2 112.9,230.4 84.8,246.8 		"/>
		<polygon class="st17" points="42,222.2 70.4,205.8 98.7,222.2 70.2,238.5 		"/>
		<polygon class="st17" points="64.3,274.7 92.8,258.5 177.9,307.3 149.3,323.9 		"/>
		<polygon class="st17" points="50.3,266.7 78.7,250.3 92.6,258.4 64.3,274.7 		"/>
		<polygon class="st17" points="21.5,250.3 50.1,233.8 64.3,242 36.1,258.5 		"/>
		<polygon class="st17" points="219.9,192.7 234,184.6 269.5,205 255.3,213.2 		"/>
		<polygon class="st17" points="163.3,225.6 191.6,209.3 215.4,223 187,239.3 		"/>
		<polygon class="st17" points="255.3,213.2 219.9,192.7 191.6,209.3 215.4,223 187,239.3 198.7,246.1 		"/>
		<polygon class="st17" points="375.8,94.5 382.8,90.5 354.5,74.1 333.2,86.4 347.4,94.5 361.6,86.4 		"/>
		<line class="st17" x1="417.8" y1="103" x2="411.5" y2="106.7"/>
		<line class="st17" x1="105.7" y1="226" x2="127.9" y2="213.4"/>
		<line class="st17" x1="155" y1="255.1" x2="184" y2="238.2"/>
		<path class="st17" d="M184.6,237.9"/>
		<path class="st17" d="M175.3,243.3"/>
		<line class="st17" x1="50.3" y1="233.7" x2="56.2" y2="230.3"/>
		<line class="st17" x1="164.1" y1="298.8" x2="169" y2="296.1"/>
	</g>
	<polygon class="st14" points="221.6,318.2 444.6,214.6 376.9,171 159.7,271.9 	"/>
	<polygon class="st15" ng-class="{'pulsate': $ctrl.company.comproom == '110'}" points="255.7,279.5 278.2,269.1 297.6,283 274.9,293.5 	"/>
	<polygon class="st15" points="247.6,283.1 255.1,279.5 274.4,293.5 266.7,297.1 	"/>
	<path class="st15" ng-class="{'pulsate': $ctrl.company.comproom == '101'}" d="M208.7,263.7l-9.4-6.8l0,0l-38.9-28.6l-35.1,16.3l37.4,26.9l27.4,23l14.8-7c0,0-2.5-5.1-2.5-15
		C204,265.5,208.7,263.7,208.7,263.7z"/>
	<path class="st15" d="M225.8,241l-1.4,16.4l-3.3,0.9c-0.5,0.1-1.1,0.3-1.6,0.5l-3.4,1.4l-12.4-9L225.8,241z"/>
	<polygon class="st15" points="238.9,245.9 225.2,245 225.8,241 233.2,237.6 239.5,242.1 	"/>
	<polygon class="st15" points="258.3,255.4 243.5,262.4 239.7,260 236.1,258.4 239.5,242.1 	"/>
	<polygon class="st15" ng-class="{'pulsate': $ctrl.company.comproom == '111'}" points="369.8,202.9 403.3,186.6 376.9,168.6 345.2,184.3 	"/>
	<polygon class="st15" points="271.1,264.5 271.1,264.5 284,273.7 284,273.7 	"/>
	<polygon class="st15" ng-class="{'pulsate': $ctrl.company.comproom == '108'}" points="342.6,223.9 376.1,246.3 312.4,275.9 297.1,283 264.6,260.1 	"/>
	<polygon class="st15" ng-class="{'pulsate': $ctrl.company.comproom == '109'}" points="410.1,192.6 444.6,214.6 379.9,244.6 377,245.9 343.7,223.4 	"/>
	<polygon class="st15" ng-class="{'pulsate': $ctrl.company.comproom == '107'}" points="233.2,236 343.8,185 368.9,202.1 258.3,254.9 	"/>
	<polygon class="st18" points="376.7,170.9 376.9,168.5 444.6,212 444.4,214.5 	"/>
	<polygon class="st18" points="203.8,251.3 204.2,248.8 216.5,257.7 216.1,260.3 	"/>
	<polygon class="st18" points="196.5,254.7 196.9,252.2 209,261.2 208.7,263.7 	"/>
	<polygon class="st19" points="410,192.5 410.2,190 265,257.6 264.6,260.1 	"/>
	<polygon class="st19" points="403.3,188.1 403.5,185.9 243.8,259.8 243.5,262.4 	"/>
	<polygon class="st19" points="225.5,245.1 225.8,242.5 239,243.3 238.5,245.9 	"/>
	<polygon class="st19" points="196.3,299.4 196.7,296.7 252,301.3 251.7,304 	"/>
	<polygon class="st18" points="118.3,156 118.7,153.6 258.7,253 256.4,254.1 	"/>
	<polygon class="st19" points="376.7,170.9 376.9,168.5 233.6,235.2 235.5,236.5 	"/>
	<polygon class="st19" points="233.2,237.6 233.6,235.2 204.2,248.8 206.1,250.2 	"/>
	<polygon class="st18" points="264.6,260.1 265,257.6 297.4,280.3 297.1,283 	"/>
	<polygon class="st18" points="342.6,223.9 342.9,221.4 376.4,243.7 376.1,246.3 	"/>
	<polygon class="st19" points="277.8,269.3 278.1,266.9 248,280.4 247.6,283 	"/>
	<polygon class="st18" points="247.6,283 247.9,280.5 267.2,294.4 266.8,297.1 	"/>
	<path class="st18" d="M255.1,279.5l0.3-2.4c0-0.1,0.1-0.1,0.2-0.1l19.1,13.8l-0.4,2.7L255.1,279.5z"/>
	<polygon class="st19" points="444.4,214.5 444.6,212 252,301.3 251.7,304 	"/>
	<path class="st19" d="M208.7,263.7l0.4-2.5c0,0-4.2,1.5-6.2,10.1c-1.8,8,2.5,13.7,2.5,13.7l-0.4,2.6c0,0-3.2-10.2-2.1-15
		C204.5,265.6,208.7,263.7,208.7,263.7z"/>
	<polygon class="st19" points="118.3,156 118.7,153.6 48.6,186.2 48.1,188.6 	"/>
	<polygon class="st19" points="151.8,179.8 152.1,178.3 125.2,190.9 124.9,192.4 	"/>
	<polygon class="st18" points="90.2,169.2 90.8,166.8 216.5,257.7 216.1,260.3 	"/>
	<polygon class="st18" points="83.2,172.2 83.5,170.8 208.1,261.5 206.8,262.3 	"/>
	<path class="st19" d="M224.4,257.5l0.4-2.5l-1.4,0.3c-2.1,0.4-4.2,1.1-6.2,2.1l-0.6,0.3l-0.4,2.6l0.4-0.2
		C219,258.9,221.7,258,224.4,257.5L224.4,257.5z"/>
	<path class="st19" d="M236.1,258.4l0.4-2.5l1.3,0.5c2,0.7,3.8,1.8,5.5,3.1l0.5,0.4l-0.4,2.6l-0.3-0.2
		C241,260.6,238.6,259.4,236.1,258.4L236.1,258.4z"/>
	<polygon class="st19" points="225.8,241.1 226.2,238.6 224.7,254.9 224.3,257.5 	"/>
	<polygon class="st19" points="239.4,242.1 239.8,239.6 236.5,255.8 236.1,258.4 	"/>
	<path class="st20" d="M225.1,239.2l-1.3,15l-2.8,0.6l0,0l0,0c-0.6,0.2-1.3,0.4-1.8,0.6l0,0l0,0l-2.5,1.1l-11.1-8L225.1,239.2
		 M226.2,237.6l-22.7,10.6l13,9.5l3-1.4c0.5-0.2,1.2-0.4,1.7-0.6l3.6-0.8L226.2,237.6L226.2,237.6z"/>
	<path class="st20" d="M233.4,236.3l5.4,3.8l-0.4,2.3l-11.8-0.7l0.4-2.5L233.4,236.3 M233.6,235.2l-7.4,3.4l-0.6,4l13.7,0.9l0.5-3.9
		l-6.1-4.3L233.6,235.2z"/>
	<path class="st20" d="M240.5,241.2l16.2,11.5l-12.8,6l-3.4-2.1l0,0l0,0l-2.9-1.4L240.5,241.2 M239.9,239.6l-3.4,16.3l3.5,1.7
		l3.8,2.4l14.8-7L239.9,239.6L239.9,239.6z"/>
	<g>
		<polygon class="st15" points="233.8,245.7 230.2,245.4 230.7,241.4 234.4,241.7 		"/>
	</g>
	<g>
		<polygon class="st15" points="223.6,251.6 225.1,251.6 225.2,250 224,249.9 		"/>
		<polygon class="st18" points="224.5,247.4 225.4,247.5 225.2,250 224.3,249.9 		"/>
	</g>
	<g>
		<polygon class="st15" points="238.5,252.7 237.1,252.6 237.4,250.9 238.7,251 		"/>
		<polygon class="st18" points="238.9,248.5 238,248.4 237.5,250.9 238.4,250.9 		"/>
	</g>
	<path class="st20" d="M152.1,178.5l79.5,56.4l-27.4,12.7l-78.6-56.9L152.1,178.5 M152.2,177.4l-28.5,13.2l80.4,58.2l29.4-13.7
		L152.2,177.4L152.2,177.4z"/>
	<path class="st20" d="M118.6,154.8l32.4,23l-26.4,12.3l-32-23.2L118.6,154.8 M118.7,153.6l-28.1,13.1l33.9,24.5L153,178
		L118.7,153.6L118.7,153.6z"/>
	<path class="st20" d="M83.2,171.1l31.9,23.2l-33.3,15.5l-31.4-23.4L83.2,171.1 M83.3,170l-34.9,16.3L81.7,211l35.4-16.5L83.3,170
		L83.3,170z"/>
	<path class="st20" d="M116.2,195.1l21.5,15.6L104,226.3l-21.1-15.8L116.2,195.1 M116.3,193.9l-35.5,16.4l23,17.1l35.8-16.6
		L116.3,193.9L116.3,193.9z"/>
	<path class="st20" d="M138.8,211.5l21.7,15.7L126.4,243L105,227.1L138.8,211.5 M138.9,210.3L103,226.9l23.2,17.2l36.2-16.8
		L138.9,210.3L138.9,210.3z"/>
	<path class="st20" d="M161.5,227.9l46.1,33.3c-1.3,1.2-3.5,3.7-4.9,7.3c-2.6,6.7,0.1,13.7,1.3,16.2l-13.3,6.3l-63.4-47.1
		L161.5,227.9 M161.6,226.8l-36.2,16.8l65.2,48.5l14.8-6.9c0,0-4.8-8.5-1.8-16.3c1.9-4.9,5.6-7.7,5.6-7.7L161.6,226.8L161.6,226.8z"
		/>
	<polygon class="st19" points="205,287.7 205.4,285.1 190.6,292 190.2,294.6 	"/>
	<path class="st20" d="M410.2,191.1l32.2,20.7l-130.2,60.7l-14.7,6.7l-30.6-21.3L410.2,191.1 M410.3,189.9l-145.4,67.8l32.5,22.6
		l15.3-6.9l131.8-61.5L410.3,189.9L410.3,189.9z"/>
	<path class="st20" d="M343.1,222.2l31.4,21.1l-62.2,29.1l-14.7,6.7l-30.6-21.3L343.1,222.2 M343.2,221.1l-78.2,36.6l32.5,22.6
		l15.3-6.9l63.9-29.9L343.2,221.1L343.2,221.1z"/>
	<g>
		<path class="st19" d="M234.9,273.9l5.9,4.3l0.2,2.9c0,0,0.8-0.5,1.1-0.7c0.2-0.2,0.7-0.8,0.7-0.8c3.3-4.1,3-10.2-1.4-13.4
			l-0.4-0.3c-6.7-4.8-15.6-5.5-23.5-1.8l-1,0.5c-5.1,2.4-7,8.3-4.8,12.7c0,0,0.4,0.6,0.6,0.9c0.2,0.2,0.7,0.9,0.7,0.9l1-2.8l7.2-3.3
			L234.9,273.9z"/>
	</g>
	<g>
		<path class="st18" d="M212,271.3c0.6-2.6,2.4-5,5.2-6.3l1-0.5c7.4-3.4,15.9-2.8,22.1,1.7l0.4,0.3c2.6,1.9,3.7,4.9,3.3,7.8
			c-0.1,0.6-1,2.3-3,4l0.1,0.1c1.3-0.9,2.5-2.2,2.8-3.5c0.2-1,1.2-1.6,1.4-2.9c-0.3-2.3-0.2-5-2.3-6.5l-1.6-1.6
			c-6.7-4.8-14.5-6.2-22.4-2.6l-2.5,1.2c-2.3,1.1-4.9,4.7-5.2,6.9c-0.2,1.3-0.1,1-0.1,2.1c0,1.2,0.8,3.1,2.4,4.8l0.1,0
			C212,274.1,211.8,272.1,212,271.3z"/>
	</g>
	<g>
		<path class="st20" d="M217.5,262.4l1-0.5c7.4-3.4,15.8-2.8,22.1,1.7l0.4,0.3c4.8,3.4,4.4,10.5-0.2,14.2l0.7,0.5
			c4.9-3.8,5.4-11.4,0.3-15.1l-0.4-0.3c-6.7-4.8-15.6-5.5-23.4-1.8l-1,0.5c-5.9,2.7-7.5,10.2-3.6,14.5l0.8-0.4
			C210.5,272,212,265,217.5,262.4z"/>
	</g>
	<polygon class="st18" points="48.2,188.5 48.6,186.2 196.7,296.7 196.3,299.4 	"/>
	<path class="st20" d="M278.7,267.3l17.8,12.4l-21.7,10.1l-17.4-12.6L278.7,267.3 M278.8,266.1l-23.3,10.8l19.2,13.9l23.8-11
		L278.8,266.1L278.8,266.1z"/>
	<path class="st20" d="M256.4,277.6l17.3,12.6l-6.5,3l-17.3-12.6L256.4,277.6 M256.5,276.4l-8.6,4l19.2,14l8.6-4L256.5,276.4
		L256.5,276.4z"/>
	<path class="st20" d="M118.6,154.9L233.2,236l0.5,0.3l0.5-0.2l142.6-66.5l65.7,42.2l-145.3,67.6l-45.4,21.1l-27.6-2.5l-27.3-2.1
		l-35.1-26.2l0.2-0.1l-1.3-1l-110.2-82L118.6,154.9 M118.6,153.7l-70.1,32.7l111.6,83.1l-0.2,0.1l36.7,27.4l27.6,2.1l27.8,2.6
		l45.7-21.2L444.6,212l-67.7-43.5l-143.1,66.7l-115.1-81.4L118.6,153.7z"/>
	<g>
		<polygon class="st14" points="221.6,301.6 214.9,301 215.5,296.9 222.2,297.5 		"/>
	</g>
	<g>
		<polygon class="st14" points="232.8,302.5 226.1,302 226.7,297.8 233.4,298.4 		"/>
	</g>
	<polygon class="st19" points="213.7,278.4 214.1,276.1 213.3,276.4 213,278.8 	"/>
	<polygon class="st19" points="240.5,280.5 240.8,278.2 241.4,278.6 241.1,281.1 	"/>
	<g>
		<polygon class="st15" points="163.5,217.8 162.1,218.5 161.7,220.9 158.5,218.6 159.8,216.3 160.1,215.3 		"/>
		<polygon class="st19" points="160,215.7 159,216.3 158.6,218.5 159.6,218 		"/>
	</g>
	<g>
		<polygon class="st15" points="117.6,184.6 116.2,185.2 115.8,187.5 112.7,185.3 114.1,183.1 114.4,182.1 		"/>
		<polygon class="st19" points="114.2,182.6 113.2,183.1 112.8,185.3 113.8,184.8 		"/>
	</g>
	<g>
		<polygon class="st14" points="194.7,250.4 193.6,251.1 193.3,252.6 190.4,250.5 191.6,248.4 192.4,246.9 		"/>
		<polygon class="st18" points="191.5,248.4 190.7,248.9 190.4,250.4 191.3,250 		"/>
		<g>
			<line class="st18" x1="193.9" y1="250.2" x2="193.5" y2="252.4"/>
		</g>
	</g>
	<g>
		<polygon class="st14" points="143,213.1 141.9,213.7 141.7,214.9 138.9,212.9 140,211.2 140.9,209.4 		"/>
		<polygon class="st18" points="140,211.2 139.1,211.6 138.9,212.8 139.8,212.4 		"/>
		<g>
			<line class="st18" x1="142.2" y1="212.6" x2="141.9" y2="214.8"/>
		</g>
	</g>
	<g>
		<polygon class="st14" points="137.5,209.2 136.5,209.8 136.2,211 133.4,208.9 133.6,208.8 134.6,207.2 135.5,205.5 		"/>
		<polygon class="st18" points="134.5,207.3 133.7,207.7 133.5,208.8 134.3,208.4 		"/>
		<g>
			<line class="st18" x1="136.8" y1="208.6" x2="136.4" y2="210.8"/>
		</g>
	</g>
	<g>
		<polygon class="st14" points="113.1,191.4 112.1,192.1 111.8,193.1 109.1,191.1 109.2,191.1 110.2,189.5 111.1,187.7 		"/>
		<polygon class="st19" points="110.2,189.5 109.3,190 109.1,191 110,190.5 		"/>
		<g>
			<line class="st18" x1="112.4" y1="190.8" x2="112" y2="192.9"/>
		</g>
	</g>
	<g>
		<polygon class="st14" points="250,279.1 251.1,279.9 251,280.6 253.3,279.5 253.3,279.4 253.5,277.5 		"/>
		<polygon class="st15" points="251,280.6 250.9,281.3 252.8,282.7 254.6,281.9 254.3,280.2 253.3,279.5 		"/>
		<polygon class="st18" points="253.5,277.9 254.3,278.4 254.1,280 253.3,279.4 		"/>
	</g>
	<g>
		<polygon class="st15" points="272.8,261.6 271.4,262.2 271,264.8 267.6,262.3 268.9,260 269.2,258.9 		"/>
		<polygon class="st19" points="269,259.4 268,259.9 267.7,262.3 268.7,261.7 		"/>
	</g>
	<g>
		<polygon class="st14" points="408.8,189 407.8,189.4 407.7,191 404,188.6 405.3,186.6 407.2,187.8 		"/>
		<polygon class="st19" points="405.3,186.6 404.2,187.1 404.1,188.5 405.1,188 		"/>
	</g>
	<g>
		<polygon class="st14" points="86.1,168.8 87.1,169.6 86.7,170.6 89.4,169.8 88.8,167.5 88,168 		"/>
		<polygon class="st18" points="88.8,167.5 89.5,168.1 89.3,169.4 88.6,168.9 		"/>
	</g>
	<g>
		<polygon class="st14" points="322.6,230.3 323.7,231.1 323.6,231.8 326,230.7 326.3,228 325,227.9 		"/>
		<polygon class="st15" points="323.6,231.8 323.5,233 325,234 327.4,232.9 326.8,231.3 326,230.7 		"/>
		<polygon class="st18" points="326.2,229 327.1,229.5 326.9,231.3 326,230.7 		"/>
	</g>
	<polygon class="st19" points="221.2,272.8 221.5,270.2 235.4,271.1 234.9,273.9 	"/>
	<polygon class="st18" points="222.1,267.4 222.5,264.9 236,265.8 235.6,268.6 	"/>
	<path class="st20" d="M223.1,265.8l11.9,0.9l-0.5,3.4l-11.9-1L223.1,265.8 M222.3,264.8l-0.8,5.4l13.9,1.1l0.8-5.4L222.3,264.8
		L222.3,264.8z"/>
	<g>
		<polygon class="st14" points="229.7,273.5 226.1,273.2 226.7,269.2 230.3,269.5 		"/>
	</g>
	<path class="st18" d="M368.1,201.2C368.1,201.2,368.1,201.2,368.1,201.2c0.2-0.1,0.4-0.2,0.6-0.3l-24.6-17l-0.3,2.5l22.9,16
		C367.1,201.9,367.6,201.5,368.1,201.2z"/>
	<path class="st20" d="M369.8,201.5l-24.6-17.3l0.4-0.2c-0.1-0.1-0.1-0.1-0.2-0.2c-0.1,0-0.2,0-0.3,0c-0.4,0-0.9-0.1-1.2-0.1
		l-0.7,0.3l25.7,18.1C369.2,201.9,369.5,201.7,369.8,201.5z"/>
	<path class="st20" d="M376.8,169.7l24.9,15.9l-128.6,59.6l-15.5,7.2l-23.4-16.6L376.8,169.7 M376.9,168.6l-144.5,67l25.2,17.9
		l16-7.4l130.2-60.4L376.9,168.6L376.9,168.6z"/>
	<g>
		<polygon class="st15" points="373.8,197.9 375,198.8 374.7,201.2 378.2,199.6 377.6,196.5 377.1,196.1 		"/>
		<polygon class="st18" points="377.6,196.6 378.4,197.2 378.2,199.5 377.3,198.9 		"/>
	</g>
	<g>
		<polygon class="st15" points="272.3,245.3 273.5,246.2 273.1,248.7 276.7,247.1 276.1,243.9 275.6,243.5 		"/>
		<polygon class="st18" points="276.1,244 276.9,244.6 276.6,247 275.8,246.3 		"/>
	</g>
</g>
<g id="Layer_2">
	<g class="st0">
		
			<image style="overflow:visible;" width="2028" height="1061" xlink:href="uploads/maps/D9004D56.png"  transform="matrix(0.24 0 0 0.24 3.268 -9.2376)">
		</image>
	</g>
	<g>
		<g>
			<g class="st1">
				<g class="st1">
					<defs>
						<path id="SVGID_11_" class="st1" d="M38.3,59.1l0-0.8c0,2.8,1.3,5.5,3.6,7.2v0.8C39.7,64.6,38.3,61.9,38.3,59.1z"/>
					</defs>
					<clipPath id="SVGID_12_">
						<use xlink:href="#SVGID_11_"  style="overflow:visible;"/>
					</clipPath>
					<g class="st21">
						<path class="st3" d="M41.9,65.4v0.8c-2.3-1.7-3.6-4.4-3.6-7.2v-0.8C38.3,61.1,39.7,63.7,41.9,65.4"/>
					</g>
				</g>
				<g class="st1">
					<defs>
						<path id="SVGID_13_" class="st1" d="M452.9,81.7l0,0.8c0,0.2,0,0.5,0,0.7v-0.8C452.9,82.1,452.9,81.9,452.9,81.7z"/>
					</defs>
					<clipPath id="SVGID_14_">
						<use xlink:href="#SVGID_13_"  style="overflow:visible;"/>
					</clipPath>
					<g class="st22">
						<path class="st5" d="M452.9,81.7v0.8c0,0.2,0,0.5,0,0.7v-0.8C452.9,82.1,452.9,81.9,452.9,81.7"/>
					</g>
				</g>
				<g>
					<polygon class="st6" points="452.9,82.4 452.9,83.2 452.7,85.4 452.7,84.5 					"/>
				</g>
				<g class="st1">
					<defs>
						<path id="SVGID_15_" class="st1" d="M452.7,84.5v0.8c-0.2,3.7-2.2,6.6-5.2,8v-0.8C450.5,91.1,452.5,88.2,452.7,84.5z"/>
					</defs>
					<clipPath id="SVGID_16_">
						<use xlink:href="#SVGID_15_"  style="overflow:visible;"/>
					</clipPath>
					<g class="st23">
						<path class="st5" d="M452.7,84.5v0.8c0,0.3-0.1,0.6-0.1,0.9v-0.8C452.7,85.1,452.7,84.8,452.7,84.5"/>
						<path class="st8" d="M452.6,85.4v0.8c-0.1,0.6-0.2,1.2-0.4,1.7v-0.8C452.4,86.6,452.5,86,452.6,85.4"/>
						<path class="st9" d="M452.2,87.2V88c-0.2,0.6-0.5,1.2-0.8,1.7v-0.8C451.8,88.3,452,87.8,452.2,87.2"/>
						<path class="st3" d="M451.5,88.9v0.8c-0.9,1.6-2.3,2.9-3.9,3.6v-0.8C449.2,91.7,450.6,90.5,451.5,88.9"/>
					</g>
				</g>
				<g>
					<polygon class="st10" points="152.5,148 152.5,148.9 41.9,66.3 41.9,65.4 					"/>
				</g>
				<g class="st1">
					<defs>
						<path id="SVGID_17_" class="st1" d="M153.4,148.7v0.8c-0.3-0.2-0.6-0.5-0.9-0.7V148C152.8,148.3,153.1,148.5,153.4,148.7z"/>
					</defs>
					<clipPath id="SVGID_18_">
						<use xlink:href="#SVGID_17_"  style="overflow:visible;"/>
					</clipPath>
					<g class="st24">
						<path class="st3" d="M153.4,148.7v0.8c-0.3-0.2-0.6-0.5-0.9-0.7V148C152.8,148.3,153.1,148.5,153.4,148.7"/>
					</g>
				</g>
				<g>
					<polygon class="st10" points="447.5,92.5 447.5,93.3 322.8,151.1 322.8,150.3 					"/>
				</g>
				<g>
					<polygon class="st10" points="322.8,150.3 322.8,151.1 262.8,178.9 262.8,178.1 					"/>
				</g>
				<g>
					<polygon class="st10" points="215.7,195.2 215.7,196 153.4,149.6 153.4,148.7 					"/>
				</g>
				<g>
					<polygon class="st10" points="262.8,178.1 262.8,178.9 224.5,196.7 224.5,195.8 					"/>
				</g>
				<g class="st1">
					<defs>
						<path id="SVGID_19_" class="st1" d="M224.5,195.8v0.8c-1.2,0.6-2.5,0.8-3.8,0.8c-1.7,0-3.5-0.5-5-1.5v-0.8
							c1.5,1,3.2,1.5,5,1.5C222,196.7,223.2,196.4,224.5,195.8z"/>
					</defs>
					<clipPath id="SVGID_20_">
						<use xlink:href="#SVGID_19_"  style="overflow:visible;"/>
					</clipPath>
					<g class="st25">
						<path class="st3" d="M224.5,195.8v0.8c-1.2,0.6-2.5,0.8-3.8,0.8c-1.7,0-3.5-0.5-5-1.5v-0.8c1.5,1,3.2,1.5,5,1.5
							C222,196.7,223.2,196.4,224.5,195.8"/>
					</g>
				</g>
				<g>
					<path class="st13" d="M118,14.3c0.5,0,1.1,0,1.6,0.1c1.3,0.2,2.5,0.7,3.6,1.5l68,48.2l42.6,30.2l45-20.8L372.4,30
						c1.9-0.7,2.9-0.8,3.8-0.8c1.7,0,3.4,0.5,4.9,1.4l11.7,7.5l11.3,7.2l4.9,3.2l2.1,1.3l37.4,24.1c3.1,2.1,4.6,5.2,4.4,8.4
						l-0.2,2.1c-0.2,3.7-2.2,6.6-5.2,8l-124.8,57.8l-60,27.8l-38.3,17.8c-1.2,0.6-2.5,0.8-3.8,0.8c-1.7,0-3.5-0.5-5-1.5l-62.3-46.4
						c-0.3-0.2-0.6-0.5-0.9-0.7L41.9,65.4c-2.4-1.8-3.8-4.8-3.6-7.8c0-0.5,0.1-1,0.2-1.5c0.3-2.4,0.7-3.6,1.3-4.6
						c1.5-2.4,3-3.6,4.8-4.3l34.1-15.8c0.4-0.2,0.8-0.4,1.3-0.5l2.7-1.2l1.7-0.8l29.6-13.8c0.9-0.4,1.9-0.7,2.8-0.8
						C117.2,14.3,117.6,14.3,118,14.3z"/>
				</g>
			</g>
		</g>
	</g>
	<polygon class="st14" points="221.5,185.2 47.9,55.7 118,23 297.2,150.1 	"/>
	<polygon class="st15" ng-class="{'pulsate': $ctrl.company.comproom == '201'}" points="83,39.4 114.7,62.5 79.3,79 48.2,55.6 	"/>
	<polygon class="st15" ng-class="{'pulsate': $ctrl.company.comproom == '209'}" points="197.3,79.3 169.6,91.1 203.3,116.9 232.5,103.7 	"/>
	<polygon class="st15" ng-class="{'pulsate': $ctrl.company.comproom == '202'}" points="115.7,63.4 136.8,78.7 101.6,95.6 80.6,79.7 	"/>
	<polygon class="st15" ng-class="{'pulsate': $ctrl.company.comproom == '203'}" points="138.2,79.5 159.3,94.9 124.1,111.8 103.2,95.9 	"/>
	<polygon class="st15" ng-class="{'pulsate': $ctrl.company.comproom == '206'}" points="151.6,47 173.5,62.5 145.4,76.4 123.1,60.2 	"/>
	<polygon class="st15" ng-class="{'pulsate': $ctrl.company.comproom == '207'}" points="174,62.9 184.1,70 155.4,83.3 145.5,76.1 	"/>
	<polygon class="st15" ng-class="{'pulsate': $ctrl.company.comproom == '208'}" points="185.5,70.6 195.6,77.7 166.9,91 157,83.9 	"/>
	<polygon class="st15" ng-class="{'pulsate': $ctrl.company.comproom == '205'}" points="118.1,23 151.6,46.9 123.3,60.3 90,36.1 	"/>
	<polygon class="st14" points="221.2,185.3 444.3,81.9 376.6,38.2 159.3,139.1 	"/>
	<polygon class="st15" ng-class="{'pulsate': $ctrl.company.comproom == '212'}" points="341.7,52.3 376.7,36.3 402.4,52.9 366.2,71.2 	"/>
	<polygon class="st15" ng-class="{'pulsate': $ctrl.company.comproom == '213'}" points="341.3,53.3 365.5,70.6 257.9,121.9 233.3,102.1 	"/>
	<polygon class="st15" ng-class="{'pulsate': $ctrl.company.comproom == '210'}" points="340.4,98.4 417.5,62.9 443.5,80.3 364.9,117.6 	"/>
	<polygon class="st15" ng-class="{'pulsate': $ctrl.company.comproom == '211'}" points="293.5,151 364,118 338.5,98.6 268.5,132.9 	"/>
	<path class="st15" ng-class="{'pulsate': $ctrl.company.comproom == '204'}" d="M259.2,167.7c0,0-8.4-6-19.4-13.9c-15.2,4.3-37.3-2.1-36.8-14.9c1.6-7.1,5.5-8,5.5-8l-12-8.7l0.6-0.3
		l-35.6-25.6l-35.1,16.3l35.3,26.7l1.1-0.5l58.7,46.3L259.2,167.7z"/>
	<path class="st15" d="M225.6,108.2l-1.4,16.5l-3.3,0.9c-0.5,0.1-1.1,0.3-1.6,0.5l-3.4,1.4l-12.4-9L225.6,108.2z"/>
	<polygon class="st15" points="238.7,113.1 225,112.2 225.6,108.2 233,104.8 239.3,109.3 	"/>
	<polygon class="st15" points="258.2,122.6 243.3,129.6 239.5,127.2 235.9,125.6 239.3,109.3 	"/>
	<polygon class="st15" points="271,131.8 271,131.8 283.9,140.9 283.9,140.9 	"/>
	<path class="st15" d="M272.3,134.2c-1.2-0.5-2.5-0.9-3.8-1.3l-12.2,5.7c1.2,3.7-0.7,7.8-4.3,9.5l-4.4,2.1l18.3,13.3
		c0.3-0.3,0.7-0.5,1.2-0.8c4.8-2.3,9.8-4.2,14.6-6.6c2.4-1.2,4.8-2.5,7-4.1c0.6-0.5,1.4-1.4,2.2-2.4
		C283.7,145.7,277.5,140.4,272.3,134.2z"/>
	<polygon class="st18" points="376.5,38.1 376.8,35.6 444.5,79.2 444.3,81.7 	"/>
	<polygon class="st18" points="203.6,118.5 204,116 216.3,124.9 215.9,127.5 	"/>
	<polygon class="st18" points="196.3,121.9 196.7,119.4 208.8,128.4 208.5,130.9 	"/>
	<polygon class="st19" points="416.8,64 416.9,62.6 257.8,135.9 257.4,138.5 	"/>
	<polygon class="st19" points="225.3,112.3 225.6,109.7 238.9,110.5 238.3,113.1 	"/>
	<polygon class="st18" points="118.1,23.1 118.5,20.7 258.5,120.2 256.2,121.3 	"/>
	<polygon class="st19" points="376.5,38.1 376.8,35.6 233.4,102.3 235.3,103.7 	"/>
	<polygon class="st19" points="233,104.8 233.4,102.3 204,116 205.9,117.4 	"/>
	<path class="st18" d="M256.2,138.7l0.4-2.6c0,0,0.5,1.3,0.5,1.7c0,0.5-0.3,2-0.3,2l-0.2,0.9c0,0,0-0.9-0.1-1.2
		C256.5,139.3,256.2,138.7,256.2,138.7z"/>
	<path class="st19" d="M257.1,143.3c1.3-2.9,0.6-6.6,0.6-6.6s-0.5,4.5-1.3,5.8c-0.6,0.9-2.8,2.3-2.8,2.3l-5.8,2.8l-0.4,2.7l6.6-3
		C254,147.2,255.7,146.4,257.1,143.3z"/>
	<path class="st18" d="M239.8,153.8l0.4-2.6l19.2,14l-0.2,1.3c-0.1,0.6-0.8,1-1.3,0.6L239.8,153.8z"/>
	<path class="st18" d="M247.4,150.3l0.4-2.6l19.2,13.9l-0.2,1.3c-0.1,0.6-0.8,1-1.3,0.6L247.4,150.3z"/>
	<polygon class="st19" points="444.3,81.7 444.5,79.2 221.6,182.6 221.2,185.3 	"/>
	<path class="st19" d="M208.5,130.9l0.4-2.5c0,0-4.2,1.5-6.2,10.1c-0.2,1.1,1.1,3.7,3.3,5.8c3.4,3.3,9,6.6,15.6,7.9
		c8.1,1.5,18.6-1.3,18.6-1.3l-0.4,2.9c0,0-6.3,3-18.4,1c-11.2-2.1-17.3-6-19.2-12.9c-0.4-1.3-0.1-4.3,0.1-5c0.1-0.3,0.6,2,0.7,1.7
		C204.7,132.2,208.5,130.9,208.5,130.9z"/>
	<polygon class="st19" points="118.1,23.1 118.5,20.7 48.4,53.3 47.9,55.7 	"/>
	<polygon class="st19" points="151.6,46.9 151.9,45.4 125,58 124.7,59.5 	"/>
	<polygon class="st18" points="90.1,36.2 90.6,33.9 216.3,124.9 215.9,127.5 	"/>
	<polygon class="st18" points="83,39.3 83.3,38 207.9,128.7 206.6,129.5 	"/>
	<path class="st19" d="M224.2,124.7l0.4-2.5l-1.4,0.3c-2.1,0.4-4.2,1.1-6.2,2.1l-0.6,0.3l-0.4,2.6l0.4-0.2
		C218.8,126.1,221.5,125.3,224.2,124.7L224.2,124.7z"/>
	<path class="st19" d="M235.9,125.6l0.4-2.5l1.3,0.5c2,0.7,3.8,1.8,5.5,3.1l0.5,0.4l-0.4,2.6l-0.3-0.2
		C240.8,127.8,238.4,126.6,235.9,125.6L235.9,125.6z"/>
	<polygon class="st19" points="115.8,63.3 116.1,61.8 82.4,77.6 82.1,79.2 	"/>
	<polygon class="st19" points="138.4,79.6 138.6,78.1 104.7,94.1 104.4,95.7 	"/>
	<polygon class="st19" points="161.3,96.4 161.6,94.9 127,110.8 126.7,112.4 	"/>
	<polygon class="st19" points="174.3,63 174.5,61.5 147.2,74.3 148.1,75.4 	"/>
	<polygon class="st19" points="185.2,70.9 185.4,69.4 158,82.3 158.8,83.3 	"/>
	<polygon class="st19" points="197.3,79.3 197.5,77.8 169.9,90.7 170.8,91.8 	"/>
	<polygon class="st19" points="225.6,108.3 226,105.8 224.5,122.1 224.1,124.7 	"/>
	<polygon class="st19" points="239.3,109.3 239.6,106.8 236.3,123 235.9,125.6 	"/>
	<path class="st20" d="M118.1,21.7l113.2,80.4l1.9,0.2L118.3,20.8l0,0L48.2,53.4l111.7,83l0.2-1.1L50,53.5l68.1-31.8"/>
	<path class="st20" d="M224.9,106.4l-1.3,15l-2.8,0.6l0,0l0,0c-0.6,0.2-1.3,0.4-1.8,0.6l0,0l0,0l-2.5,1.1l-11.1-8L224.9,106.4
		 M226,104.8l-22.7,10.6l13,9.5l3-1.4c0.5-0.2,1.2-0.4,1.7-0.6l3.6-0.8L226,104.8L226,104.8z"/>
	<path class="st20" d="M233.2,103.4l5.4,3.8l-0.4,2.3l-11.8-0.7l0.4-2.5L233.2,103.4 M233.4,102.3l-7.4,3.4l-0.6,4l13.7,0.9l0.5-3.9
		l-6.1-4.3L233.4,102.3z"/>
	<path class="st20" d="M240.3,108.4l16.2,11.5l-12.8,6l-3.4-2.1l0,0l0,0l-2.9-1.4L240.3,108.4 M239.7,106.8l-3.4,16.3l3.5,1.7
		l3.8,2.4l14.9-7L239.7,106.8L239.7,106.8z"/>
	<g>
		<polygon class="st15" points="233.6,112.9 230,112.6 230.6,108.6 234.2,108.9 		"/>
	</g>
	<g>
		<polygon class="st15" points="223.4,118.8 224.9,118.8 225,117.2 223.8,117.1 		"/>
		<polygon class="st18" points="224.3,114.6 225.2,114.7 225,117.2 224.1,117.1 		"/>
	</g>
	<g>
		<polygon class="st15" points="238.4,119.9 236.9,119.8 237.3,118.1 238.5,118.2 		"/>
		<polygon class="st18" points="238.7,115.7 237.8,115.6 237.3,118.1 238.2,118.1 		"/>
	</g>
	<path class="st20" d="M151.9,45.7l79.6,56.5l-27.4,12.7l-78.6-56.9L151.9,45.7 M152,44.5l-28.5,13.2L204,116l29.5-13.7L152,44.5
		L152,44.5z"/>
	<path class="st20" d="M118.4,21.9l32.4,23l-26.4,12.3L92.4,34L118.4,21.9 M118.5,20.7L90.4,33.8l33.9,24.5l28.5-13.2L118.5,20.7
		L118.5,20.7z"/>
	<path class="st20" d="M83,38.2l31.9,23.2L81.6,77L50.2,53.5L83,38.2 M83.1,37.1L48.2,53.3l33.3,24.8l35.4-16.5L83.1,37.1L83.1,37.1
		z"/>
	<path class="st20" d="M116,62.2l21.5,15.6l-33.8,15.6L82.6,77.7L116,62.2 M116.1,61.1L80.6,77.5l23,17.1L139.5,78L116.1,61.1
		L116.1,61.1z"/>
	<path class="st20" d="M152,45.8l21.8,15.5l-26.7,12.4l-21.7-15.7L152,45.8 M152.1,44.6l-28.6,13.1l23.5,17l28.8-13.3L152.1,44.6
		L152.1,44.6z"/>
	<path class="st20" d="M138.6,78.6l21.7,15.7l-34.2,15.8l-21.4-15.9L138.6,78.6 M138.7,77.4L102.8,94l23.2,17.3l36.2-16.8
		L138.7,77.4L138.7,77.4z"/>
	<path class="st20" d="M174.3,61.9l22.1,15.6l-26.6,12.4l-21.8-15.7L174.3,61.9 M174.4,60.8L146,74l23.7,17.1l28.7-13.4L174.4,60.8
		L174.4,60.8z"/>
	<path class="st20" d="M174.3,61.9l10.2,7l-26.7,12.4l-9.9-7.1L174.3,61.9 M174.4,60.8L146,74l11.7,8.5L186.6,69L174.4,60.8
		L174.4,60.8z"/>
	<path class="st20" d="M376.8,35.8l-144.6,67.1l24.2,17c0-0.3,0-0.5,0-0.8c0-0.1,0-0.3,0-0.4L234.2,103l142.5-66.1l20.5,12.9
		c0.4-0.1,0.8-0.1,1.2-0.2c0.1,0,0.2,0,0.4,0L376.8,35.8z"/>
	<path class="st20" d="M271.5,130.1l133.7-62c-0.6-0.1-1.2-0.2-1.8-0.3l-131.5,61C271.8,129.2,271.7,129.7,271.5,130.1z"/>
	<g>
		<path class="st15" d="M234.8,141.1l5.9,4.3l0.2,2.9c0,0,0.8-0.5,1.1-0.7c0.2-0.2,0.7-0.8,0.7-0.8c3.3-4.1,3-10.2-1.4-13.4
			l-0.4-0.3c-6.7-4.8-15.6-5.5-23.5-1.8l-1,0.5c-5.1,2.4-7,8.3-4.8,12.7c0,0,0.4,0.6,0.6,0.9c0.2,0.2,0.7,0.9,0.7,0.9l1-2.8l7.2-3.3
			L234.8,141.1z"/>
	</g>
	<g>
		<path class="st18" d="M211.8,138.5c0.6-2.6,2.4-5,5.2-6.3l1-0.5c7.4-3.4,15.9-2.8,22.1,1.7l0.4,0.3c2.6,1.9,3.7,4.9,3.3,7.8
			c-0.1,0.6-1,2.3-3,4l0.1,0.1c1.3-0.9,2.5-2.2,2.8-3.5c0.2-1,1.2-1.6,1.4-2.9c-0.3-2.3-0.2-5-2.3-6.6l-1.6-1.6
			c-6.7-4.8-14.5-6.2-22.4-2.6l-2.5,1.2c-2.3,1.1-4.9,4.7-5.2,6.9c-0.2,1.3-0.1,1-0.1,2.1c0,1.2,0.8,3.1,2.4,4.8l0.1,0
			C211.8,141.3,211.6,139.3,211.8,138.5z"/>
	</g>
	<g>
		<path class="st20" d="M217.3,129.6l1-0.5c7.4-3.4,15.8-2.8,22.1,1.7l0.4,0.3c4.8,3.4,4.4,10.5-0.2,14.2l0.7,0.5
			c4.9-3.8,5.4-11.4,0.3-15.1l-0.4-0.3c-6.7-4.8-15.6-5.5-23.5-1.8l-1,0.5c-5.9,2.7-7.5,10.2-3.6,14.5l0.8-0.4
			C210.3,139.2,211.8,132.2,217.3,129.6z"/>
	</g>
	<polygon class="st18" points="47.9,55.5 48.4,53.1 221.6,182.6 221.2,185.3 	"/>
	<polygon class="st19" points="213.5,145.6 213.9,143.3 213.1,143.6 212.8,146.1 	"/>
	<polygon class="st19" points="240.3,147.8 240.6,145.4 241.2,145.8 240.9,148.3 	"/>
	<g>
		<polygon class="st15" points="175.6,93.9 174.3,94.5 173.9,96.9 170.6,94.6 172,92.3 172.3,91.3 		"/>
		<polygon class="st19" points="172.1,91.8 171.1,92.3 170.7,94.6 171.7,94 		"/>
	</g>
	<g>
		<polygon class="st15" points="168,88.4 166.6,89 166.2,91.5 163,89.1 164.4,86.9 164.7,85.8 		"/>
		<polygon class="st19" points="164.5,86.3 163.5,86.8 163.1,89.1 164.1,88.6 		"/>
	</g>
	<g>
		<polygon class="st15" points="144.6,71.4 143.3,72 142.9,74.4 139.7,72.1 141.1,69.9 141.4,68.9 		"/>
		<polygon class="st19" points="141.2,69.3 140.2,69.8 139.8,72.1 140.8,71.6 		"/>
	</g>
	<g>
		<polygon class="st15" points="152.3,76.9 150.9,77.5 150.5,79.9 147.3,77.6 148.7,75.4 148.8,74.8 149.5,74.8 		"/>
		<polygon class="st19" points="148.8,74.8 147.8,75.3 147.4,77.6 148.4,77.1 		"/>
	</g>
	<g>
		<polygon class="st15" points="117.4,51.7 116,52.3 115.6,54.7 112.5,52.4 113.9,50.2 114.2,49.2 		"/>
		<polygon class="st19" points="114,49.7 113,50.2 112.6,52.4 113.6,51.9 		"/>
	</g>
	<g>
		<polygon class="st14" points="142.7,80.2 141.7,80.9 141.5,82.1 138.6,80 139.8,78.3 140.7,76.6 		"/>
		<polygon class="st18" points="139.7,78.4 138.9,78.8 138.7,79.9 139.6,79.5 		"/>
		<g>
			<line class="st18" x1="142" y1="79.8" x2="141.6" y2="81.9"/>
		</g>
	</g>
	<g>
		<polygon class="st14" points="137.3,76.3 136.3,76.9 136,78.1 133.2,76.1 133.4,75.9 134.3,74.4 135.2,72.6 		"/>
		<polygon class="st18" points="134.3,74.4 133.5,74.8 133.2,76 134.1,75.5 		"/>
		<g>
			<line class="st18" x1="136.6" y1="75.8" x2="136.2" y2="77.9"/>
		</g>
	</g>
	<g>
		<polygon class="st14" points="112.9,58.6 111.8,59.2 111.6,60.3 108.8,58.2 108.9,58.2 110,56.6 110.9,54.8 		"/>
		<polygon class="st19" points="110,56.6 109.1,57.1 108.9,58.1 109.8,57.6 		"/>
		<g>
			<line class="st18" x1="112.2" y1="58" x2="111.8" y2="60.1"/>
		</g>
	</g>
	<g>
		<polygon class="st14" points="85.5,36.1 86.1,36.6 85.8,38.2 89.1,36.6 88.7,34.6 87.1,35.3 		"/>
		<polygon class="st18" points="88.7,34.6 89.3,35 89.1,36.6 88.4,36.1 		"/>
	</g>
	<polygon class="st19" points="221,140 221.3,137.4 235.2,138.3 234.8,141.1 	"/>
	<polygon class="st19" points="221.9,134.7 222.3,132.1 235.8,133.1 235.4,135.8 	"/>
	<path class="st20" d="M222.9,133.1l11.9,0.9l-0.5,3.4l-11.9-1L222.9,133.1 M222.1,132l-0.8,5.4l13.9,1.2l0.8-5.4L222.1,132
		L222.1,132z"/>
	<g>
		<polygon class="st15" points="229.6,140.7 225.9,140.5 226.5,136.4 230.1,136.7 		"/>
	</g>
	<path class="st20" d="M161.3,95.1l46,33.2c-1.5,1.2-4,3.7-4.9,7.5c-0.5,2.3,0,4.7,1.6,7.1c2.9,4.4,9.2,8.1,16,9.3
		c2.2,0.4,4.6,0.6,7.1,0.6c6.2,0,11.6-1.2,13.2-1.6l18.1,13.1l-36.8,17.1l-30.8-23l-63.8-47.6L161.3,95.1 M161.4,93.9l-36.2,16.7
		l65.1,48.6l31.2,23.3l38.8-18l-19.9-14.4c0,0-6.2,1.6-13.4,1.6c-2.3,0-4.6-0.2-7-0.6c-10-1.8-18.3-8.7-16.8-15.2
		c1.1-5.1,5.6-7.7,5.6-7.7L161.4,93.9L161.4,93.9z"/>
	<g>
		<polygon class="st14" points="230.6,151.5 231.3,152.6 231,154.4 234.2,154.2 234.3,152.9 234.5,151 		"/>
		<polygon class="st15" points="231.1,154.4 230.9,155.8 232.4,156.5 234.3,156.1 235,155.1 234.1,154.4 		"/>
		<polygon class="st18" points="234.4,151.4 235.2,152.1 234.9,155.1 234.2,154.3 		"/>
	</g>
	<g>
		<path class="st14" d="M205.6,143.3l-0.9,0.4l-0.6,2.5c0,0-0.9-1.2-1.3-2.4c-0.1-0.3-0.4-1.3-0.4-1.3l1.2-2.3l0.8-1.4L205.6,143.3z
			"/>
		<polygon class="st18" points="203.6,140.1 202.8,140.4 202.4,142.3 203.2,142 		"/>
	</g>
	
		<rect x="257.5" y="162.3" transform="matrix(0.9102 -0.4141 0.4141 0.9102 -43.7774 123.6648)" class="st20" width="11.6" height="1"/>
	<g>
		<polygon class="st14" points="260.6,163.2 261.8,164.1 261.4,166.8 264.9,165.1 264.1,162.6 263.5,162.1 		"/>
		<polygon class="st18" points="264.3,161.9 265.2,162.5 264.8,165.1 264,164.4 		"/>
	</g>
	<polygon class="st18" points="264.2,161.7 264.2,162.4 263.6,162 	"/>
	<path class="st20" d="M424.2,66.2l-33.7-22c-0.3,0.2-0.5,0.5-0.9,0.6l34.1,22.3C423.9,66.8,424,66.5,424.2,66.2z"/>
	<path class="st20" d="M416.6,61.8l-23.5,10.9c0,0,0,0,0,0.1c0.1,0.3,0.2,0.6,0.2,0.9L418,62.3C417.6,62.1,417.1,62,416.6,61.8z"/>
	<polygon class="st19" points="403.3,55.1 403.5,52.9 243.3,127 243,129.7 	"/>
	<path class="st18" d="M365.6,69.7C365.6,69.6,365.7,69.6,365.6,69.7c0.2-0.1,0.4-0.2,0.6-0.3l-24.6-17l-0.3,2.5l22.9,16
		C364.6,70.3,365.1,69.9,365.6,69.7z"/>
	<path class="st20" d="M367.3,70l-24.6-17.3l0.4-0.2c-0.1-0.1-0.1-0.1-0.2-0.2c-0.1,0-0.2,0-0.3,0c-0.4,0-0.9-0.1-1.2-0.1l-0.7,0.3
		l25.7,18.1C366.7,70.3,367,70.1,367.3,70z"/>
	<path class="st20" d="M376.7,36.7l24.9,15.9L273,112.2l-15.5,7.2l-23.4-16.6L376.7,36.7 M376.7,35.6l-143.4,66.5l-1.1,0.5
		l25.2,17.9l16-7.4l130.2-60.4L376.7,35.6z"/>
	<path class="st18" d="M363.7,116C363.7,116,363.7,116,363.7,116c0.2-0.1,0.4-0.2,0.6-0.3l-25.2-17.5l-0.3,2.6l23.5,16.4
		C362.6,116.8,363.1,116.3,363.7,116z"/>
	<path class="st20" d="M365,116l-24.6-17.3l0.4-0.2c-0.1-0.1-0.1-0.1-0.2-0.2c-0.1,0-0.2,0-0.3,0c-0.4,0-0.9-0.1-1.2-0.1l-0.7,0.3
		l25.7,18.1C364.4,116.4,364.7,116.2,365,116z"/>
	<path class="st18" d="M292.1,149.1C292.1,149.1,292.2,149,292.1,149.1c0.2-0.1,0.4-0.2,0.6-0.3l-25.2-17.5l-0.3,2.6l23.5,16.4
		C291.1,149.8,291.6,149.4,292.1,149.1z"/>
	<path class="st20" d="M293.5,149.1l-24.6-17.3l0.4-0.2c-0.1-0.1-0.1-0.1-0.2-0.2c-0.1,0-0.2,0-0.3,0c-0.4,0-0.9-0.1-1.2-0.1
		l-0.7,0.3l25.7,18.1C292.9,149.4,293.2,149.2,293.5,149.1z"/>
	<path class="st20" d="M418.4,62.3c-0.3,0.2-0.6,0.4-0.9,0.6l25,16.1l-168.3,78.3l-6.9,3.2l-17.4-12.7l2.9-1.3
		c3.8-1.8,5.9-5.9,5.1-9.8L407.5,67l0.2-0.1c-0.4-0.1-0.8-0.3-1.1-0.6l-150,69.8c1.2,3.7-0.7,7.8-4.3,9.5l-4.5,2l19.3,14l7.5-3.4
		l170-79L418.4,62.3z"/>
	<g>
		<polygon class="st14" points="249.8,146.3 250.9,147.1 250.8,147.8 253.1,146.7 253.2,146.6 253.3,144.7 		"/>
		<polygon class="st15" points="250.8,147.8 250.7,148.5 252.6,149.9 254.5,149.2 254.1,147.4 253.2,146.7 		"/>
		<polygon class="st18" points="253.3,145.1 254.2,145.7 254,147.2 253.2,146.7 		"/>
	</g>
	<g>
		<polygon class="st15" points="323.1,88.6 324.2,89.5 323.9,91.9 327.4,90.3 326.9,87.2 326.3,86.8 		"/>
		<polygon class="st18" points="326.9,87.3 327.7,87.9 327.4,90.2 326.6,89.6 		"/>
	</g>
	<g>
		<polygon class="st15" points="367.9,67.8 369,68.7 368.7,71.2 372.2,69.5 371.7,66.4 371.2,66 		"/>
		<polygon class="st18" points="371.7,66.5 372.5,67.1 372.2,69.4 371.4,68.8 		"/>
	</g>
	<g>
		<polygon class="st14" points="274.3,127.6 275.4,128.4 275.3,129.1 277.7,128 278,125.2 276.7,125.1 		"/>
		<polygon class="st15" points="275.3,129.1 275.2,130.2 276.7,131.3 279.1,130.2 278.5,128.6 277.7,128 		"/>
		<polygon class="st18" points="277.9,126.3 278.7,126.8 278.6,128.6 277.7,128 		"/>
	</g>
	<g>
		<polygon class="st14" points="345.2,94.7 346.3,95.4 346.2,96.2 348.6,95.1 348.8,92.3 347.6,92.2 		"/>
		<polygon class="st15" points="346.2,96.2 346.1,97.3 347.5,98.3 349.9,97.2 349.4,95.6 348.6,95.1 		"/>
		<polygon class="st18" points="348.7,93.4 349.6,93.9 349.4,95.6 348.6,95.1 		"/>
	</g>
</g>
</svg>
