<?xml version="1.0" encoding="utf-8"?>
<!-- Generator: Adobe Illustrator 22.0.1, SVG Export Plug-In . SVG Version: 6.00 Build 0)  -->
<svg version="1.1" id="Layer_1" xmlns="http://www.w3.org/2000/svg" xmlns:xlink="http://www.w3.org/1999/xlink" x="0px" y="0px"
	 viewBox="0 0 472.7 347.9" style="enable-background:new 0 0 472.7 347.9;" xml:space="preserve">
<style type="text/css">
	.st0{opacity:0.69;}
	.st1{enable-background:new    ;}
	.st2{clip-path:url(#SVGID_2_);enable-background:new    ;}
	.st3{fill:#7B8487;}
	.st4{clip-path:url(#SVGID_4_);enable-background:new    ;}
	.st5{fill:#838D90;}
	.st6{clip-path:url(#SVGID_6_);enable-background:new    ;}
	.st7{fill:#808A8D;}
	.st8{fill:#7D878A;}
	.st9{fill:#788184;}
	.st10{clip-path:url(#SVGID_8_);enable-background:new    ;}
	.st11{clip-path:url(#SVGID_10_);enable-background:new    ;}
	.st12{fill:#AFBBBE;}
	.st13{fill:#B7B8AC;}
	.st14{display:none;}
	.st15{display:inline;fill:none;stroke:#58595B;stroke-miterlimit:10;}
	.st16{fill:#CBD4D5;}
	.st17{fill:#D4D4D4;}
	.st18{fill:#9D9D9E;}
	.st19{fill:#BCBCBC;}
	.st20{fill:#B9C1C3;}
	.st21{clip-path:url(#SVGID_12_);enable-background:new    ;}
	.st22{clip-path:url(#SVGID_14_);enable-background:new    ;}
	.st23{clip-path:url(#SVGID_16_);enable-background:new    ;}
	.st24{clip-path:url(#SVGID_18_);enable-background:new    ;}
	.st25{fill:#231F20;}
</style>
<g id="GAMMA.G_1_">
	<g class="st0">
		
			<image style="overflow:visible;enable-background:new    ;" width="2017" height="979" xlink:href="B3420F02DDEB24B0.png"  transform="matrix(0.2394 0 0 0.2394 2.212 141.717)">
		</image>
	</g>
	<g>
		<g>
			<g class="st1">
				<g class="st1">
					<g>
						<defs>
							<path id="SVGID_1_" d="M38.3,206.4v-0.8c0,2.6,1.2,5.2,3.3,6.9c0.5,0.4,1.1,0.8,1.7,1.1v0.8c-0.6-0.3-1.2-0.7-1.7-1.1
								C39.4,211.6,38.3,209,38.3,206.4z"/>
						</defs>
						<clipPath id="SVGID_2_">
							<use xlink:href="#SVGID_1_"  style="overflow:visible;"/>
						</clipPath>
						<g class="st2">
							<path class="st3" d="M43.2,213.6v0.8c-0.6-0.3-1.2-0.7-1.7-1.1c-2.1-1.7-3.3-4.3-3.3-6.9v-0.8c0,2.6,1.2,5.2,3.3,6.9
								C42,212.9,42.6,213.3,43.2,213.6"/>
						</g>
					</g>
				</g>
				<g class="st1">
					<g>
						<defs>
							<path id="SVGID_3_" d="M448.8,225.5v0.8c0,0.1,0,0.2,0,0.3v-0.8C448.8,225.7,448.8,225.6,448.8,225.5z"/>
						</defs>
						<clipPath id="SVGID_4_">
							<use xlink:href="#SVGID_3_"  style="overflow:visible;"/>
						</clipPath>
						<g class="st4">
							<path class="st5" d="M448.8,225.5v0.8c0,0.1,0,0.2,0,0.3v-0.8C448.8,225.7,448.8,225.6,448.8,225.5"/>
						</g>
					</g>
				</g>
				<g class="st1">
					<g>
						<defs>
							<path id="SVGID_5_" d="M448.8,225.8v0.8c-0.1,3.5-2.1,6.6-5.3,8v-0.8C446.7,232.3,448.7,229.2,448.8,225.8z"/>
						</defs>
						<clipPath id="SVGID_6_">
							<use xlink:href="#SVGID_5_"  style="overflow:visible;"/>
						</clipPath>
						<g class="st6">
							<path class="st5" d="M448.8,225.8v0.8c0,0.4,0,0.8-0.1,1.1v-0.8C448.7,226.5,448.8,226.2,448.8,225.8"/>
							<path class="st7" d="M448.7,226.9v0.8c-0.1,0.5-0.2,1-0.4,1.5v-0.8C448.5,227.9,448.6,227.4,448.7,226.9"/>
							<path class="st8" d="M448.3,228.4v0.8c-0.2,0.6-0.4,1.1-0.7,1.6V230C447.9,229.5,448.1,229,448.3,228.4"/>
							<path class="st3" d="M447.6,230v0.8c-0.9,1.6-2.3,2.9-4.1,3.7v-0.8C445.3,233,446.7,231.6,447.6,230"/>
						</g>
					</g>
				</g>
				<g>
					<polygon class="st9" points="98.6,246.8 98.6,247.7 43.2,214.4 43.2,213.6 					"/>
				</g>
				<g class="st1">
					<g>
						<defs>
							<path id="SVGID_7_" d="M99.4,247.4v0.8c-0.3-0.2-0.6-0.4-0.8-0.5v-0.8C98.9,247,99.1,247.2,99.4,247.4z"/>
						</defs>
						<clipPath id="SVGID_8_">
							<use xlink:href="#SVGID_7_"  style="overflow:visible;"/>
						</clipPath>
						<g class="st10">
							<path class="st3" d="M99.4,247.4v0.8c-0.3-0.2-0.6-0.4-0.8-0.5v-0.8C98.9,247,99.1,247.2,99.4,247.4"/>
						</g>
					</g>
				</g>
				<g>
					<polygon class="st9" points="443.5,233.7 443.5,234.6 384.4,261.2 384.4,260.3 					"/>
				</g>
				<g>
					<polygon class="st9" points="163,285.6 163,286.4 99.4,248.2 99.4,247.4 					"/>
				</g>
				<g>
					<polygon class="st9" points="384.4,260.3 384.4,261.2 324.1,288.4 324.1,287.5 					"/>
				</g>
				<g>
					<polygon class="st9" points="221.2,320.5 221.2,321.3 163,286.4 163,285.6 					"/>
				</g>
				<g>
					<polygon class="st9" points="229.8,325.6 229.8,326.5 221.2,321.3 221.2,320.5 					"/>
				</g>
				<g>
					<polygon class="st9" points="324.1,287.5 324.1,288.4 238.1,327 238.1,326.1 					"/>
				</g>
				<g class="st1">
					<g>
						<defs>
							<path id="SVGID_9_" d="M238.1,326.1v0.8c-1.2,0.5-2.4,0.8-3.7,0.8c-1.6,0-3.2-0.4-4.6-1.3v-0.8c1.4,0.9,3,1.3,4.6,1.3
								C235.7,326.9,236.9,326.7,238.1,326.1z"/>
						</defs>
						<clipPath id="SVGID_10_">
							<use xlink:href="#SVGID_9_"  style="overflow:visible;"/>
						</clipPath>
						<g class="st11">
							<path class="st3" d="M238.1,326.1v0.8c-1.2,0.5-2.4,0.8-3.7,0.8c-1.6,0-3.2-0.4-4.6-1.3v-0.8c1.4,0.9,3,1.3,4.6,1.3
								C235.7,326.9,236.9,326.7,238.1,326.1"/>
						</g>
					</g>
				</g>
				<g>
					<path class="st12" d="M118.5,166c1.6,0,3.1,0.4,4.5,1.2l117,67.2l127.7-55c1.1-0.5,2.4-0.7,3.6-0.7c1.4,0,2.9,0.3,4.2,1
						l27.7,14.5c0.4,0.2,0.8,0.3,1.2,0.6l3.5,1.9l25.7,13.4l9.7,5c0.3,0.2,0.7,0.4,1,0.6c2.5,1.5,4.1,4.2,4.3,7.1l0.1,1.9
						c0,0.4,0.1,0.8,0,1.2c-0.1,3.5-2.1,6.6-5.3,8l-59.1,26.6L324,287.7l-86,38.6c-1.2,0.5-2.4,0.8-3.7,0.8c-1.6,0-3.2-0.4-4.6-1.3
						l-8.6-5.1L163,285.6l-63.5-38.2c-0.3-0.2-0.6-0.4-0.8-0.5l-55.4-33.3c-0.6-0.3-1.2-0.7-1.7-1.1c-2.5-2.1-3.7-5.4-3.1-8.6
						l0.4-1.9c0.4-3.2,2.6-6,5.6-7.2l70.8-28.1C116.3,166.2,117.4,166,118.5,166z"/>
				</g>
			</g>
		</g>
	</g>
	<polygon class="st13" points="234.3,315.6 439.6,223 371.5,187.4 167.4,275.4 	"/>
	<polygon class="st13" points="234.5,315.4 47,203 118,174.8 307,282.7 	"/>
	<g class="st14">
		<polygon class="st15" points="404.1,94.5 432.6,78.4 446.8,86.5 418.3,102.7 		"/>
		<polygon class="st15" points="361.6,70 390.1,53.8 432.6,78.4 404.1,94.5 		"/>
		<polygon class="st15" points="312,41.4 340.5,25.2 390.1,53.8 361.6,70 		"/>
		<polygon class="st15" points="290.7,70 319,53.7 354.5,74.1 326.2,90.5 		"/>
		<polygon class="st15" points="361.6,110.9 389.9,94.5 425.2,115.1 397,131.4 		"/>
		<polygon class="st15" points="333.2,127.3 361.6,110.9 397,131.4 368.5,147.9 		"/>
		<polygon class="st15" points="283.6,98.6 312,82.3 354.5,106.8 326.2,123.2 		"/>
		<polygon class="st15" points="258.3,113.2 283.6,98.6 326.2,123.2 301,137.7 		"/>
		<polygon class="st15" points="234,127.3 258.3,113.2 301,137.7 276.6,151.8 		"/>
		<polygon class="st15" points="141.9,180.5 184.4,155.9 227,180.5 184.5,205 		"/>
		<polygon class="st15" points="308.3,141.7 333.2,127.3 368.5,147.9 343.7,162.1 		"/>
		<polygon class="st15" points="276.6,160 308.3,141.7 343.7,162.1 312,180.4 		"/>
		<polygon class="st15" points="259.1,170 276.6,160 312,180.4 294.6,190.5 		"/>
		<polygon class="st15" points="234,184.6 259.1,170 294.6,190.5 269.4,205.1 		"/>
		<polygon class="st15" points="108.7,261.1 136.7,244.9 146.1,250.3 118.1,266.5 		"/>
		<polygon class="st15" points="159.4,290.8 187.8,274.4 197.3,279.9 168.9,296.2 		"/>
		<polygon class="st15" points="118.1,266.5 146.1,250.3 187.8,274.4 159.4,290.8 		"/>
		<polygon class="st15" points="84.8,246.8 112.9,230.4 127.1,238.7 98.8,255 		"/>
		<polygon class="st15" points="70.2,238.5 98.7,222.2 112.9,230.4 84.8,246.8 		"/>
		<polygon class="st15" points="42,222.2 70.4,205.8 98.7,222.2 70.2,238.5 		"/>
		<polygon class="st15" points="64.3,274.7 92.8,258.5 177.9,307.3 149.3,323.9 		"/>
		<polygon class="st15" points="50.3,266.7 78.7,250.3 92.6,258.4 64.3,274.7 		"/>
		<polygon class="st15" points="21.5,250.3 50.1,233.8 64.3,242 36.1,258.5 		"/>
		<polygon class="st15" points="219.9,192.7 234,184.6 269.5,205 255.3,213.2 		"/>
		<polygon class="st15" points="163.3,225.6 191.6,209.3 215.4,223 187,239.3 		"/>
		<polygon class="st15" points="255.3,213.2 219.9,192.7 191.6,209.3 215.4,223 187,239.3 198.7,246.1 		"/>
		<polygon class="st15" points="375.8,94.5 382.8,90.5 354.5,74.1 333.2,86.4 347.4,94.5 361.6,86.4 		"/>
		<line class="st15" x1="417.8" y1="103" x2="411.5" y2="106.7"/>
		<line class="st15" x1="105.7" y1="226" x2="127.9" y2="213.4"/>
		<line class="st15" x1="155" y1="255.1" x2="184" y2="238.2"/>
		<path class="st15" d="M184.6,237.9"/>
		<path class="st15" d="M175.3,243.3"/>
		<line class="st15" x1="50.3" y1="233.7" x2="56.2" y2="230.3"/>
		<line class="st15" x1="164.1" y1="298.8" x2="169" y2="296.1"/>
	</g>
	<polygon class="st16" points="286.2,271 264.8,280.5 257.6,283.8 278,295.8 285.3,292.5 306.7,282.8 	"/>
	<path class="st16" d="M232.3,247.3l-0.1,14.3l-3.2,0.8c-0.5,0.1-1,0.3-1.5,0.5l-3.3,1.3l-13.2-7.7L232.3,247.3z"/>
	<polygon class="st16" points="245.7,251.4 232,250.8 232.3,247.3 239.4,244.2 246,248 	"/>
	<polygon class="st16" points="265.4,259.1 251.2,265.4 247.2,263.4 244,262.3 245.7,247.9 	"/>
	<polygon class="st17" points="279.4,267.2 279.4,267.2 293,274.9 293,274.9 	"/>
	<polygon class="st16" points="423,214 371.4,187 239.3,244 272.7,263.1 272.5,263.2 306.7,282.6 321,276.2 439.4,222.6 	"/>
	<polygon class="st16" points="64.1,196.3 82.7,188.9 203.7,259.6 167.4,275.3 154.4,267.8 47,203 	"/>
	<polygon class="st16" points="240.9,244 119.2,174.4 91.3,185.4 97.3,188.9 90.1,191.7 198.6,255.2 204.4,252.7 210.9,256.5 	"/>
	<polygon class="st18" points="371.4,187.3 371.4,185.3 439.4,220.8 439.6,222.9 	"/>
	<polygon class="st18" points="204.4,252.7 204.6,250.3 224.3,261.9 224.1,264.2 	"/>
	<polygon class="st19" points="232.2,250.8 232.4,248.6 245.6,249.1 245.3,251.4 	"/>
	<polygon class="st18" points="207,299.2 207.3,296.8 263.7,299.8 263.6,302.2 	"/>
	<polygon class="st18" points="118,174.8 118.3,172.8 265.4,257.1 263.3,257.9 	"/>
	<polygon class="st19" points="371.4,187.3 371.4,185.3 239.5,242.1 241.5,243.3 	"/>
	<polygon class="st19" points="239.4,244.3 239.4,242.1 211.4,254.2 213.5,255.4 	"/>
	<polygon class="st19" points="204.4,252.7 204.6,250.3 196.4,253.8 198.7,255.1 	"/>
	<polygon class="st19" points="98.4,189.2 98.6,187.5 89.3,190.7 91.3,192 	"/>
	<polygon class="st19" points="203.6,259.6 203.8,257.3 168.5,272.9 170.8,274.1 	"/>
	<polygon class="st18" points="265.3,259.6 265.4,257.4 306.8,280.5 306.7,282.8 	"/>
	<polygon class="st19" points="286.4,271.2 286.5,269.1 257.7,281.4 257.6,283.7 	"/>
	<polygon class="st18" points="257.6,283.7 257.7,281.5 278.2,293.4 278.1,295.8 	"/>
	<polygon class="st19" points="439.6,222.9 439.4,220.8 263.7,299.8 263.6,302.2 	"/>
	<polygon class="st19" points="118,174.8 118.3,172.8 47.5,200.9 47,203 	"/>
	<path class="st18" d="M244,262.3l0.2-2.2l1.4,0.4c2,0.6,4,1.5,5.7,2.6l0.6,0.3l-0.1,2.3l-0.3-0.2C249,264.2,246.6,263.1,244,262.3
		L244,262.3z"/>
	<polygon class="st18" points="82.7,188.9 82.9,187.6 202.1,257.4 200.7,258 	"/>
	<path class="st20" d="M231.4,246.4v12.4l-2.8,0.6l0,0l0,0c-0.6,0.2-1.3,0.4-1.8,0.6l0,0l0,0l-2.4,1l-11.8-6.8l18.3-7.5
		 M231.2,245.5l-20.6,8.5l13.7,7.9l2.9-1.3c0.5-0.2,1.2-0.4,1.7-0.5l3.5-0.7V245L231.2,245.5z"/>
	<path class="st20" d="M239.5,243.1l5.7,3.2l-0.2,2l-11.8-0.5l0.2-2.2L239.5,243.1 M239.5,242.1l-7.1,3l-0.3,3.5l13.7,0.6l0.1-3.4
		l-6.4-3.6V242.1z"/>
	<path class="st20" d="M246.9,247.3l17.1,9.8l-12.2,5.4l-3.5-1.8l0,0h-0.1l-3-1.1L246.9,247.3 M246.1,245.9l-2,14.2l3.7,1.4l4,2
		l14-6.2L246.1,245.9L246.1,245.9z"/>
	<g>
		<g>
			<polygon class="st16" points="240.6,251.2 237,251.1 237.2,247.6 240.9,247.8 			"/>
		</g>
	</g>
	<g>
		<polygon class="st16" points="230.9,256.5 232.4,256.5 232.4,255.1 231.1,255 		"/>
		<polygon class="st19" points="231.5,252.9 232.4,252.9 232.3,255.1 231.4,255 		"/>
	</g>
	<g>
		<polygon class="st16" points="245.9,257.3 244.5,257.2 244.7,255.7 246,255.8 		"/>
		<polygon class="st19" points="245.9,253.6 245.1,253.6 244.8,255.7 245.7,255.8 		"/>
	</g>
	<g>
		<g>
			<path class="st16" d="M244.1,275.9l6.3,3.7l0.4,2.5c0,0,0.8-0.5,1-0.7s0.6-0.7,0.6-0.7c2.9-3.6,2.2-9-2.5-11.8l-0.4-0.3
				c-7.1-4.1-16.1-4.6-23.7-1.3l-1,0.4c-5,2.2-6.4,7.4-3.9,11.2c0,0,0.5,0.6,0.6,0.7c0.2,0.2,0.8,0.8,0.8,0.8l0.7-2.5l7-3.1
				L244.1,275.9z"/>
		</g>
	</g>
	<g>
		<path class="st19" d="M220.8,274c0.4-2.3,2-4.5,4.7-5.7l0.9-0.4c7.2-3.1,15.7-2.7,22.4,1.2l0.4,0.2c2.8,1.6,4.1,4.2,4,6.8
			c0,0.6-0.8,2.1-2.6,3.5l0.1,0.1c1.2-0.8,2.3-1.9,2.5-3.1c0.1-0.9,1.1-1.4,1.1-2.5c-0.5-2-0.6-4.4-2.8-5.7l-1.8-1.4
			c-7.1-4.1-15-5.2-22.6-1.9l-2.4,1.1c-2.3,1-4.6,4.2-4.7,6.2c-0.1,1.1,0,0.9,0.1,1.9s1,2.7,2.8,4.2h0.1
			C221.1,276.5,220.7,274.6,220.8,274z"/>
	</g>
	<g>
		<path class="st20" d="M225.7,266.1l0.9-0.4c7.2-3.1,15.7-2.7,22.3,1.2l0.4,0.2c5.1,2.9,5.3,9.2,1,12.4l0.7,0.4
			c4.6-3.5,4.4-10.1-1-13.2l-0.4-0.3c-7.1-4.1-16.1-4.6-23.7-1.3l-1,0.4c-5.7,2.5-6.7,9.1-2.4,12.8l0.8-0.3
			C219.3,274.6,220.3,268.4,225.7,266.1z"/>
	</g>
	<path class="st20" d="M286.2,269.9l18.6,10.4l-19.3,8.7l0,0l-0.5,0.2l-6.7,3L260,281.5l6-2.7l0,0l0.5-0.2L286.2,269.9 M286.2,268.8
		l-20.2,9l0,0l-8.2,3.7l20.4,12l7.2-3.2l0,0l21.6-9.7L286.2,268.8L286.2,268.8z"/>
	<polygon class="st16" points="208.2,276.9 188.5,265.3 166.6,274.8 186.3,286.6 193,290.7 214.9,281 	"/>
	<polygon class="st19" points="223.1,280.2 223.3,278.1 222.6,278.5 222.4,280.6 	"/>
	<polygon class="st18" points="250.3,281.7 250.4,279.5 251,279.9 250.9,282.1 	"/>
	<polygon class="st18" points="188.4,266.4 188.6,264 213.7,278.5 211.3,279.8 	"/>
	<polygon class="st19" points="230.2,275.1 230.3,272.8 244.3,273.4 244.1,275.9 	"/>
	<polygon class="st19" points="230.7,270.4 230.9,268.2 244.5,268.8 244.3,271.2 	"/>
	<path class="st20" d="M231.6,269.1l12.1,0.6l-0.2,2.8l-12.1-0.7L231.6,269.1 M230.6,268.1l-0.3,4.7l14.1,0.8l0.3-4.8L230.6,268.1
		L230.6,268.1z"/>
	<g>
		<polygon class="st16" points="238.9,275.6 235.2,275.5 235.4,271.9 239.1,272.1 		"/>
	</g>
	<polygon class="st19" points="214.9,281.2 215.1,278.6 193.4,288 195.6,289.9 	"/>
	<path class="st20" d="M118.2,174l121,69l0.4,0.2l0.5-0.2l131.3-56.7l65.8,34.3l-130.5,58.9L263.5,299l-28-1.7l-28-1.4l-39.4-23.7
		L49.7,201.1L118.2,174 M118.3,172.9l-70.8,28l120.1,72.3l39.6,23.8l28.2,1.4l28.3,1.7l43.4-19.5l132.4-59.8l-68-35.5l-131.7,56.9
		L118.3,172.9L118.3,172.9z"/>
	<g>
		<polygon class="st13" points="233,300.7 226.1,300.3 226.4,296.6 233.3,297 		"/>
	</g>
	<g>
		<polygon class="st13" points="244.5,301.3 237.6,300.9 237.9,297.2 244.7,297.6 		"/>
	</g>
	<g>
		<polygon class="st13" points="83.8,186.6 84.5,187.2 84.3,188.3 87.7,187 87.1,185.3 85.4,186 		"/>
		<polygon class="st18" points="87.1,185.3 87.8,185.8 87.6,186.9 86.9,186.4 		"/>
	</g>
	<path class="st20" d="M371.3,186.4l65.8,34.3l-117.3,52.9l-13.8,6.2l-33.7-19.1l-31.4-18.1L371.3,186.4 M371.4,185.3l-132.7,57.2
		l33.1,19.1l34.2,19.3l14.3-6.4l119.2-53.8L371.4,185.3L371.4,185.3z"/>
	<g>
		<polygon class="st16" points="403.5,202 402.6,202.4 402.6,203.7 399,201.7 399.9,200.1 401.3,200.9 		"/>
		<polygon class="st19" points="399.9,200.1 399,200.5 399.1,201.7 399.9,201.2 		"/>
	</g>
	<g>
		<polygon class="st16" points="273.5,261.2 272.2,261.8 272.1,263.6 268.5,261.5 269.6,259.4 269.8,258.5 		"/>
		<polygon class="st19" points="269.6,259.4 268.7,259.9 268.6,261.5 269.5,261 		"/>
	</g>
	<g>
		<polygon class="st13" points="270.6,275.5 271.8,276.2 271.7,277.6 275.1,276.2 274.1,274.2 274.2,273.8 		"/>
		<polygon class="st18" points="274.2,274.2 275.1,274.7 275.1,276.1 274.2,275.5 		"/>
	</g>
	<path class="st19" d="M232.2,261.6l0.2-2.2l-1.4,0.3c-2.1,0.4-4.2,1.1-6.1,2l-0.6,0.3l-0.2,2.3l0.4-0.2
		C226.9,263,229.5,262.2,232.2,261.6L232.2,261.6z"/>
	<path class="st17" d="M89.9,205.8"/>
	<path class="st20" d="M82.9,187.8l118.7,69.3L167.7,272l-12.6-7.5L49.6,201.1l15.2-5.9L82.9,187.8 M83,186.7l-18.6,7.5l-17,6.7
		l107.2,64.5l13.1,7.8l36.2-15.9L83,186.7L83,186.7z"/>
	<polygon class="st18" points="91.3,185.5 91.4,184.5 96.5,187.4 95.7,188 	"/>
	<path class="st20" d="M118.1,173.9l120.3,68.6l-26.7,11l-6.6-4l-0.4-0.3l-0.5,0.2l-7.8,3.3l-106.3-62l6.5-2.6l1.9-0.8l-1.8-1
		l-4-2.3L118.1,173.9 M118.2,172.7l-27.6,11.1l5.7,3.3l-8.4,3.3l108.5,63.3l8.2-3.5l7,4.3l29.1-12L118.2,172.7L118.2,172.7z"/>
	<polygon class="st18" points="47.1,202.9 47.5,200.9 207.3,296.8 207,299.2 	"/>
	<path class="st20" d="M188.7,264.2L207,275l0.5,0.2l5.5,3.2l-19.6,8.7l-6.2-3.7l-0.5-0.3l0,0l-17.6-10.3L188.7,264.2 M188.8,263.1
		l-21.9,9.7l19.7,11.5l0,0l6.6,4l21.9-9.7l-7.6-4.5l0,0L188.8,263.1L188.8,263.1z"/>
	<g>
		<polygon class="st16" points="210.4,252.4 209,253 208.8,255.4 205.3,253.4 206.5,250.6 206.6,250.2 		"/>
		<polygon class="st19" points="206.5,250.5 205.6,251 205.4,253.3 206.3,252.8 		"/>
	</g>
	<g>
		<polygon class="st13" points="202.2,256.1 200.8,256.7 200.7,257.7 200.3,257.9 197.8,256.5 198.9,254.6 199,255.1 199.8,254.7 		
			"/>
		<polygon class="st19" points="199.9,254.6 199.1,254.9 199.2,253.7 		"/>
		<polygon class="st19" points="199,254.5 198,255 197.9,256.4 198.9,255.8 		"/>
	</g>
	<g>
		<polygon class="st16" points="95.7,185.8 94.6,186.4 94.4,187.4 92.1,186 93.2,184.8 93.6,184.6 		"/>
		<polygon class="st19" points="93.2,184.6 92.3,185 92.2,186 93,185.5 		"/>
	</g>
	<g>
		<polygon class="st13" points="88.2,189.5 86.9,190 86.7,191 86.6,191.3 84.1,189.8 85.2,188.1 85.3,188 86,188.3 		"/>
		<polygon class="st19" points="85.2,188.1 84.3,188.5 84.1,189.8 85,189.3 		"/>
	</g>
</g>
<g id="Layer_5">
	<g class="st0">
		
			<image style="overflow:visible;enable-background:new    ;" width="2017" height="979" xlink:href="B3420F02DDEB24B7.png"  transform="matrix(0.2392 0 0 0.2392 -12.6152 -6.2837)">
		</image>
	</g>
	<g>
		<g>
			<g class="st1">
				<g class="st1">
					<g>
						<defs>
							<path id="SVGID_11_" d="M23.3,58.4v-0.8c0,2.6,1.2,5.2,3.2,6.9c0.5,0.4,1.1,0.8,1.7,1.1v0.8c-0.6-0.3-1.2-0.7-1.7-1.1
								C24.4,63.5,23.3,61,23.3,58.4z"/>
						</defs>
						<clipPath id="SVGID_12_">
							<use xlink:href="#SVGID_11_"  style="overflow:visible;"/>
						</clipPath>
						<g class="st21">
							<path class="st3" d="M28.2,65.5v0.8c-0.6-0.3-1.2-0.7-1.7-1.1c-2.1-1.7-3.2-4.3-3.2-6.9v-0.8c0,2.6,1.2,5.2,3.2,6.9
								C27,64.9,27.6,65.2,28.2,65.5"/>
						</g>
					</g>
				</g>
				<g class="st1">
					<g>
						<defs>
							<path id="SVGID_13_" d="M433.8,77.6v0.8c0,0.1,0,0.1,0,0.2c-0.1,3.4-2.1,6.6-5.3,8v-0.8c3.1-1.4,5.2-4.5,5.3-8
								C433.8,77.7,433.8,77.6,433.8,77.6z"/>
						</defs>
						<clipPath id="SVGID_14_">
							<use xlink:href="#SVGID_13_"  style="overflow:visible;"/>
						</clipPath>
						<g class="st22">
							<path class="st5" d="M433.8,77.6v0.8c0,0.1,0,0.1,0,0.2c0,0.4,0,0.7-0.1,1.1v-0.8c0.1-0.4,0.1-0.7,0.1-1.1
								C433.8,77.7,433.8,77.6,433.8,77.6"/>
							<path class="st7" d="M433.7,78.9v0.8c-0.1,0.5-0.2,1-0.4,1.5v-0.8C433.5,79.9,433.6,79.4,433.7,78.9"/>
							<path class="st8" d="M433.3,80.4v0.8c-0.2,0.6-0.4,1.1-0.7,1.6V82C432.9,81.5,433.1,80.9,433.3,80.4"/>
							<path class="st3" d="M432.6,82v0.8c-0.9,1.6-2.3,2.9-4.1,3.7v-0.8C430.3,84.9,431.7,83.6,432.6,82"/>
						</g>
					</g>
				</g>
				<g>
					<polygon class="st9" points="83.6,98.8 83.6,99.7 28.2,66.4 28.2,65.5 					"/>
				</g>
				<g class="st1">
					<g>
						<defs>
							<path id="SVGID_15_" d="M84.4,99.4v0.8c-0.3-0.2-0.6-0.4-0.8-0.6v-0.8C83.9,99,84.2,99.2,84.4,99.4z"/>
						</defs>
						<clipPath id="SVGID_16_">
							<use xlink:href="#SVGID_15_"  style="overflow:visible;"/>
						</clipPath>
						<g class="st23">
							<path class="st3" d="M84.4,99.4v0.8c-0.3-0.2-0.6-0.4-0.8-0.6v-0.8C83.9,99,84.2,99.2,84.4,99.4"/>
						</g>
					</g>
				</g>
				<g>
					<polygon class="st9" points="428.5,85.7 428.5,86.6 369.4,113.1 369.4,112.3 					"/>
				</g>
				<g>
					<polygon class="st9" points="148,137.6 148,138.4 84.4,100.2 84.4,99.4 					"/>
				</g>
				<g>
					<polygon class="st9" points="369.4,112.3 369.4,113.1 309.1,140.4 309.1,139.5 					"/>
				</g>
				<g>
					<polygon class="st9" points="206.2,172.5 206.2,173.3 148,138.4 148,137.6 					"/>
				</g>
				<g>
					<polygon class="st9" points="214.8,177.6 214.8,178.5 206.2,173.3 206.2,172.5 					"/>
				</g>
				<g>
					<polygon class="st9" points="309.1,139.5 309.1,140.4 223.1,179 223.1,178.1 					"/>
				</g>
				<g>
					<path class="st12" d="M103.5,18c1.6,0,3.1,0.4,4.5,1.2l117,67.2l127.7-55c1.1-0.5,2.4-0.7,3.6-0.7c1.4,0,2.9,0.3,4.2,1
						l27.7,14.5c0.4,0.2,0.8,0.3,1.2,0.6l3.5,1.9l25.7,13.4l9.7,5c0.3,0.2,0.7,0.4,1,0.6c2.5,1.5,4.1,4.2,4.3,7.1l0.1,1.9
						c0,0.4,0.1,0.8,0,1.2c-0.1,3.4-2.1,6.6-5.3,8l-59.1,26.6L309,139.7l-86,38.6c-1.2,0.5-2.4,0.8-3.7,0.8c-1.6,0-3.2-0.4-4.6-1.3
						l-8.6-5.1L148,137.6L84.4,99.4c-0.3-0.2-0.6-0.4-0.8-0.6L28.2,65.5c-0.6-0.3-1.2-0.7-1.7-1.1c-2.5-2.1-3.7-5.4-3.1-8.6l0.4-2
						c0.4-3.2,2.6-6,5.6-7.2l70.8-28.1C101.3,18.2,102.4,18,103.5,18z"/>
				</g>
				<g class="st1">
					<g>
						<defs>
							<path id="SVGID_17_" d="M223.1,178.1v0.8c-1.2,0.5-2.4,0.8-3.7,0.8c-1.6,0-3.2-0.4-4.6-1.3v-0.8c1.4,0.9,3,1.3,4.6,1.3
								C220.7,178.9,221.9,178.6,223.1,178.1z"/>
						</defs>
						<clipPath id="SVGID_18_">
							<use xlink:href="#SVGID_17_"  style="overflow:visible;"/>
						</clipPath>
						<g class="st24">
							<path class="st3" d="M223.1,178.1v0.8c-1.2,0.5-2.4,0.8-3.7,0.8c-1.6,0-3.2-0.4-4.6-1.3v-0.8c1.4,0.9,3,1.3,4.6,1.3
								C220.7,178.9,221.9,178.6,223.1,178.1"/>
						</g>
					</g>
				</g>
			</g>
		</g>
	</g>
	<polygon class="st13" points="219.7,169.2 425.1,76.7 357,41 152.9,129.1 	"/>
	<polygon class="st13" points="220,168.6 32.6,56.3 103.5,28.1 292.5,135.9 	"/>
	<polygon class="st16" points="189.1,113.3 125.4,75.9 89.4,90.8 152.9,129.1 	"/>
	<polygon class="st17" points="224.6,97.7 160.7,61.1 132.6,72.7 196.2,110.1 	"/>
	<polygon class="st16" points="224.6,97.7 160.7,61.1 132.6,72.9 196.2,110.1 	"/>
	<path class="st16" d="M356.9,41L224,98.4l25.4,14.7l-12.2,5.4c0,0-0.6,2.5-1.4,5.4c2.2,2,3.1,4.7,2.9,6.1c-0.6,3.7-2.9,5.7-2.9,5.7
		s-4.6,2.9-11,3.1c-5.6,0.2-9.9-0.5-9.9-0.5L188,150.1l31.7,19.1l86-38.6l119.4-53.9L356.9,41z"/>
	<path class="st16" d="M217.7,101l-0.1,14.3l-3.2,0.8c-0.5,0.1-1,0.3-1.5,0.5l-3.3,1.3l-13.2-7.7L217.7,101z"/>
	<polygon class="st16" points="231.2,105.1 217.5,104.5 217.7,101 224.9,97.9 231.5,101.7 	"/>
	<polygon class="st16" points="250.9,112.8 236.7,119 232.7,117 229.5,115.9 231.2,101.6 	"/>
	<polygon class="st17" points="264.9,120.8 264.9,120.8 278.5,128.6 278.5,128.6 	"/>
	<polygon class="st19" points="356.9,41 356.9,38.9 424.9,74.5 425,76.6 	"/>
	<polygon class="st18" points="132.6,73 132.9,70.7 209.8,115.6 209.6,117.9 	"/>
	<polygon class="st18" points="125.4,77 125.7,74.6 187.6,111 185.7,112.4 	"/>
	<polygon class="st18" points="217.7,104.5 217.9,102.3 231.1,102.8 230.8,105 	"/>
	<polygon class="st18" points="103.5,28.5 103.8,26.5 250.9,110.8 248.8,111.6 	"/>
	<polygon class="st19" points="356.9,41 356.9,38.9 225,95.8 227,97 	"/>
	<polygon class="st19" points="224.9,97.9 224.9,95.8 196.9,107.9 199,109.1 	"/>
	<polygon class="st19" points="251.7,112.9 251.7,110.9 238.2,116.9 237.5,119.4 	"/>
	<path class="st19" d="M189.1,113.3l0.1-1.9c0-0.2-0.2-0.3-0.4-0.2L154,126.5l2.3,1.3L189.1,113.3z"/>
	<polygon class="st19" points="125.4,76.9 125.6,74.7 90.6,89.5 92.8,90.7 	"/>
	<polygon class="st19" points="160.8,61.2 161,59.7 134.1,70.7 136.2,71.7 	"/>
	<polygon class="st19" points="425,76.6 424.9,74.4 219.9,166.7 219.7,169.2 	"/>
	<polygon class="st19" points="103.5,28.5 103.8,26.5 33,54.6 32.5,56.7 	"/>
	<path class="st20" d="M229.5,115.9l0.2-2.2l1.4,0.4c2,0.6,4,1.5,5.7,2.6l0.6,0.3l-0.1,2.3l-0.3-0.2
		C234.5,117.9,232.1,116.8,229.5,115.9L229.5,115.9z"/>
	<path class="st20" d="M216.9,100v12.4l-2.8,0.6l0,0l0,0c-0.6,0.2-1.3,0.4-1.8,0.6l0,0l0,0l-2.4,1l-11.8-6.8l18.3-7.5 M216.7,99.2
		l-20.6,8.5l13.7,7.9l2.9-1.3c0.5-0.2,1.2-0.4,1.7-0.5l3.5-0.7V98.7L216.7,99.2z"/>
	<path class="st20" d="M224.9,96.8l5.7,3.2l-0.2,2l-11.8-0.5l0.2-2.2L224.9,96.8 M225,95.8l-7.1,3l-0.3,3.5l13.7,0.6l0.1-3.4
		L225,95.8L225,95.8z"/>
	<path class="st20" d="M232.4,101l17.1,9.8l-12.2,5.4l-3.5-1.8l0,0h-0.1l-3-1.1L232.4,101 M231.6,99.6l-2,14.2l3.7,1.4l4,2l14-6.2
		L231.6,99.6L231.6,99.6z"/>
	<g>
		<g>
			<polygon class="st16" points="226.1,104.9 222.4,104.8 222.7,101.3 226.4,101.5 			"/>
		</g>
	</g>
	<g>
		<polygon class="st16" points="216.4,110.2 217.9,110.2 217.9,108.8 216.6,108.7 		"/>
		<polygon class="st19" points="216.9,106.6 217.8,106.6 217.8,108.8 216.9,108.7 		"/>
	</g>
	<g>
		<polygon class="st16" points="231.4,111 230,110.9 230.2,109.4 231.4,109.5 		"/>
		<polygon class="st19" points="231.4,107.3 230.5,107.3 230.2,109.4 231.1,109.4 		"/>
	</g>
	<path class="st16" d="M235.4,122.7l-0.4-0.3c-7.1-4.1-16.1-4.6-23.7-1.3l-1,0.4c-5,2.2-6.4,7.4-3.9,11.2c0,0,0.5,0.6,0.6,0.7
		c0.2,0.2,0.8,0.8,0.8,0.8l0.7-2.5l7-3.1l14,0.8l6.3,3.7l0.1,0.6c-1.6,0.7-6.5,2.6-8.5,2.9c-3,0.4-12.2-0.5-12.2-0.5l-25.6,11.4
		l2.1,1.4l23.4-10.6c0,0,7.3,0.5,12.2-0.1c7.6-0.9,10.1-4.5,10.4-4.9C241.2,129.7,240.1,125.4,235.4,122.7z"/>
	<g>
		<path class="st19" d="M206.3,127.7c0.4-2.3,2-4.5,4.7-5.7l0.9-0.4c7.2-3.1,15.7-2.7,22.4,1.2l0.4,0.2c2.8,1.6,4.1,4.2,4,6.8
			c0,0.6-0.8,2.1-2.6,3.5l0.1,0.1c1.2-0.8,2.3-1.9,2.5-3.1c0.1-0.9,1.1-1.4,1.1-2.5c-0.5-2-0.6-4.4-2.8-5.7l-1.8-1.4
			c-7.1-4.1-15-5.2-22.6-1.9l-2.4,1.1c-2.3,1-4.6,4.2-4.7,6.2c-0.1,1.1,0,0.9,0.1,1.9s1,2.7,2.8,4.2h0.1
			C206.5,130.1,206.2,128.3,206.3,127.7z"/>
	</g>
	<g>
		<path class="st20" d="M211.2,119.8l0.9-0.4c7.2-3.1,15.7-2.7,22.3,1.2l0.4,0.2c5.1,2.9,5.3,9.2,1,12.4l0.7,0.4
			c4.6-3.5,4.4-10.1-1-13.2l-0.4-0.3c-7.1-4.1-16.1-4.6-23.7-1.3l-1,0.4c-5.7,2.5-6.7,9.1-2.4,12.8l0.8-0.3
			C204.8,128.3,205.8,122.1,211.2,119.8z"/>
	</g>
	<polygon class="st16" points="193.7,130.6 174,118.9 152.1,128.4 171.8,140.3 178.5,144.4 200.4,134.7 	"/>
	<polygon class="st19" points="208.6,133.9 208.8,131.8 208.1,132.1 207.9,134.3 	"/>
	<polygon class="st18" points="173.9,120 174.1,117.7 199.2,132.2 196.8,133.4 	"/>
	<path class="st18" d="M215,139.2l0.2-2.3h9.7l8.4-1.3l-0.1,1.5c0,0-3.5,2-9,2.3C219,139.7,215,139.2,215,139.2z"/>
	<polygon class="st19" points="215.7,128.8 215.8,126.5 229.8,127.1 229.6,129.6 	"/>
	<polygon class="st19" points="216.2,124.1 216.3,121.9 230,122.5 229.8,124.9 	"/>
	<path class="st20" d="M217.1,122.8l12.1,0.6l-0.2,2.8l-12.1-0.7L217.1,122.8 M216.1,121.7l-0.3,4.7l14.1,0.8l0.3-4.8L216.1,121.7
		L216.1,121.7z"/>
	<g>
		<polygon class="st16" points="224.4,129.3 220.6,129.1 220.9,125.5 224.6,125.7 		"/>
	</g>
	<polygon class="st19" points="200.4,134.6 200.6,132.3 178.9,141.6 180.9,143.3 	"/>
	<polygon class="st19" points="215,139.2 215.2,136.9 190.4,147.9 192.8,149.3 	"/>
	<path class="st20" d="M356.8,40l65.8,34.3l-117.3,52.9L220,165.5l-29.5-17.7l24.8-10.9c0.9,0.1,4,0.5,8.1,0.5c0.6,0,1.1,0,1.7,0
		c7.4-0.2,11.4-3.2,11.5-3.3l0,0l0,0c0.1-0.1,2.5-2.3,3.2-6.2c0.3-1.7-0.6-4.5-2.7-6.5c0.5-1.9,0.9-3.6,1.1-4.4l11.7-5.2l1.8-0.8
		l-1.7-1l-23.7-13.6L356.8,40 M356.9,38.9L224.1,96.2l25.4,14.6l-12.2,5.4c0,0-0.6,2.5-1.4,5.4c2.2,2,3.1,4.7,2.9,6.1
		c-0.6,3.6-2.9,5.7-2.9,5.7s-3.8,2.9-10.9,3.1c-0.6,0-1.1,0-1.7,0c-4.8,0-8.2-0.5-8.2-0.5l-26.8,11.8l31.6,19l85.8-38.5l119.2-53.8
		L356.9,38.9L356.9,38.9z"/>
	<g>
		<path class="st13" d="M214.8,117.1l0.5,0.5c0,0-1.9,0.3-2.5,0.5c-0.5,0.1-2,0.7-2,0.7l-1.3-0.7l1.2-2.1l0.1-0.8l0.3-0.1
			L214.8,117.1z"/>
		<polygon class="st13" points="210.7,115.1 209.8,115.6 209.6,117.9 210.6,117.4 		"/>
	</g>
	<path class="st19" d="M217.7,115.3l0.2-2.2l-1.4,0.3c-2.1,0.4-4.2,1.1-6.1,2l-0.6,0.3l-0.2,2.3l0.4-0.2
		C212.4,116.7,215,115.9,217.7,115.3L217.7,115.3z"/>
	<path class="st17" d="M75.4,39.6"/>
	<polygon class="st18" points="32.5,56.6 33,54.6 219.9,166.7 219.7,169.2 	"/>
	<path class="st20" d="M174.2,117.9l18.2,10.8l0.5,0.2l5.5,3.2l-19.6,8.7l-6.2-3.7l-0.5-0.3l0,0l-17.6-10.3L174.2,117.9
		 M174.3,116.8l-21.9,9.7l19.7,11.5l0,0l6.6,4l21.9-9.7l-7.6-4.5l0,0L174.3,116.8L174.3,116.8z"/>
	<g>
		<polygon class="st13" points="192.2,127 190.8,127.6 190.6,129.9 187,127.8 188.2,125.7 188.4,124.7 		"/>
		<polygon class="st19" points="188.3,125.1 187.3,125.6 187.1,127.7 188,127.2 		"/>
	</g>
	<path class="st20" d="M125.7,75l61.5,36l-33.9,14.7L92,88.9L125.7,75 M125.8,73.9l-36,14.9l63.4,38.1l36.2-15.7L125.8,73.9
		L125.8,73.9z"/>
	<path class="st20" d="M160.8,60.4l62.7,35.9L197.1,107l-62-36.2L160.8,60.4 M160.9,59.2l-28,11.4l64.1,37.5l28.7-11.8L160.9,59.2
		L160.9,59.2z"/>
	<g>
		<polygon class="st13" points="156.1,91.3 154.7,91.8 154.4,94.1 151,92.1 152.3,89.4 152.5,88 		"/>
		<polygon class="st19" points="152.3,89.4 151.3,89.9 151.1,92 152,91.5 		"/>
		<g>
			<polygon class="st25" points="154.4,94 154.7,91.8 154.8,91.9 154.6,94 			"/>
		</g>
	</g>
	<g>
		<polygon class="st16" points="162.7,86.8 161.4,87.4 161.1,89.7 157.7,87.7 158.9,86.1 159,84.7 		"/>
		<polygon class="st19" points="158.9,85 158,85.5 157.8,87.7 158.7,87.2 		"/>
		<g>
			<polygon class="st25" points="161.1,89.6 161.4,87.4 161.5,87.5 161.3,89.7 			"/>
		</g>
	</g>
	<path class="st20" d="M103.7,27.2l120.5,69.3l0.4,0.2l0.5-0.2l131.5-56.6l2.9,1.5L414.4,70l7.9,4.1l0,0l0.4,0.2l-117.3,52.9
		l-85.3,38.3l-31.2-18.7L35.3,54.4L103.7,27.2 M103.8,26.1L33,54.2l155.3,93.5l31.6,19l85.8-38.5l119.2-53.8l-0.4-0.2h0.1l-9.8-5
		l-54.9-28.6l-3.3-1.7L224.7,95.6L103.8,26.1L103.8,26.1z"/>
	<g>
		<polygon class="st16" points="389,55.7 388.1,56.1 388.1,57.3 384.5,55.4 385.4,53.8 385.4,53.8 		"/>
		<polygon class="st19" points="385.4,53.8 384.5,54.2 384.5,55.4 385.4,54.9 		"/>
	</g>
	<g>
		<polygon class="st13" points="69.3,39.8 70.1,40.3 69.8,41.9 73.1,40.6 72.5,39 72.6,38.5 		"/>
		<polygon class="st18" points="72.6,38.5 73.3,39 73.1,40.5 72.3,40.1 		"/>
	</g>
	<g>
		<path class="st13" d="M231.8,134.7l1.5,1l-0.1,1.5c0,0,1-0.4,2-1c0.3-0.2,1.2-0.8,1.2-0.8l-0.9-0.6l0.1-1.5L231.8,134.7z"/>
		<polygon class="st19" points="235.5,133.7 236.3,134.1 236.3,135.3 235.4,134.9 		"/>
	</g>
</g>
</svg>
