<?xml version="1.0" encoding="utf-8"?>
<!-- Generator: Adobe Illustrator 22.0.1, SVG Export Plug-In . SVG Version: 6.00 Build 0)  -->
<svg version="1.1" xmlns="http://www.w3.org/2000/svg" xmlns:xlink="http://www.w3.org/1999/xlink" x="0px" y="0px"
	 viewBox="0 0 472.7 347.9" style="enable-background:new 0 0 472.7 347.9;" xml:space="preserve">
<style type="text/css">
	.st0{display:none;}
	.st1{display:inline;fill:none;stroke:#58595B;stroke-miterlimit:10;}
	.st2{display:inline;fill:none;stroke:#595A5C;stroke-miterlimit:10;}
	.st3{opacity:0.69;}
	.st4{enable-background:new    ;}
	.st5{clip-path:url(#SVGID_2_);enable-background:new    ;}
	.st6{fill:#838D90;}
	.st7{fill:#808A8D;}
	.st8{fill:#7D878A;}
	.st9{fill:#7B8487;}
	.st10{fill:#788184;}
	.st11{clip-path:url(#SVGID_4_);enable-background:new    ;}
	.st12{clip-path:url(#SVGID_6_);enable-background:new    ;}
	.st13{clip-path:url(#SVGID_8_);enable-background:new    ;}
	.st14{clip-path:url(#SVGID_10_);enable-background:new    ;}
	.st15{clip-path:url(#SVGID_12_);enable-background:new    ;}
	.st16{clip-path:url(#SVGID_14_);enable-background:new    ;}
	.st17{fill:#AFBBBE;}
	.st18{fill:#B7B8AC;}
	.st19{fill:#D4D4D4;}
	.st20{fill:#B9C1C3;}
	.st21{fill:#9D9D9E;}
	.st22{fill:#BCBCBC;}
	.st23{clip-path:url(#SVGID_16_);enable-background:new    ;}
	.st24{clip-path:url(#SVGID_18_);enable-background:new    ;}
	.st25{clip-path:url(#SVGID_20_);enable-background:new    ;}
	.st26{clip-path:url(#SVGID_22_);enable-background:new    ;}
	.st27{clip-path:url(#SVGID_24_);enable-background:new    ;}
	.st28{clip-path:url(#SVGID_26_);enable-background:new    ;}
	.st29{clip-path:url(#SVGID_28_);enable-background:new    ;}
	.st30{fill:#D4D4D4;stroke:#B9C1C3;stroke-width:1.4428;stroke-miterlimit:10;}
</style>
<g id="DELTA.G">
	<g class="st0">
		<polygon class="st1" points="404.1,94.5 432.6,78.4 446.8,86.5 418.3,102.7 		"/>
		<polygon class="st1" points="361.6,70 390.1,53.8 432.6,78.4 404.1,94.5 		"/>
		<polygon class="st1" points="312,41.4 340.5,25.2 390.1,53.8 361.6,70 		"/>
		<polygon class="st1" points="290.7,70 319,53.7 354.5,74.1 326.2,90.5 		"/>
		<polygon class="st1" points="361.6,110.9 389.9,94.5 425.2,115.1 397,131.4 		"/>
		<polygon class="st1" points="333.2,127.3 361.6,110.9 397,131.4 368.5,147.9 		"/>
		<polygon class="st1" points="283.6,98.6 312,82.3 354.5,106.8 326.2,123.2 		"/>
		<polygon class="st1" points="258.3,113.2 283.6,98.6 326.2,123.2 301,137.7 		"/>
		<polygon class="st1" points="234,127.3 258.3,113.2 301,137.7 276.6,151.8 		"/>
		<polygon class="st1" points="141.9,180.5 184.4,155.9 227,180.5 184.5,205 		"/>
		<polygon class="st1" points="308.3,141.7 333.2,127.3 368.5,147.9 343.7,162.1 		"/>
		<polygon class="st1" points="276.6,160 308.3,141.7 343.7,162.1 312,180.4 		"/>
		<polygon class="st1" points="259.1,170 276.6,160 312,180.4 294.6,190.5 		"/>
		<polygon class="st1" points="234,184.6 259.1,170 294.6,190.5 269.4,205.1 		"/>
		<polygon class="st1" points="108.7,261.1 136.7,244.9 146.1,250.3 118.1,266.5 		"/>
		<polygon class="st1" points="159.4,290.8 187.8,274.4 197.3,279.9 168.9,296.2 		"/>
		<polygon class="st1" points="118.1,266.5 146.1,250.3 187.8,274.4 159.4,290.8 		"/>
		<polygon class="st1" points="84.8,246.8 112.9,230.4 127.1,238.7 98.8,255 		"/>
		<polygon class="st1" points="70.2,238.5 98.7,222.2 112.9,230.4 84.8,246.8 		"/>
		<polygon class="st1" points="42,222.2 70.4,205.8 98.7,222.2 70.2,238.5 		"/>
		<polygon class="st1" points="64.3,274.7 92.8,258.5 177.9,307.3 149.3,323.9 		"/>
		<polygon class="st1" points="50.3,266.7 78.7,250.3 92.6,258.4 64.3,274.7 		"/>
		<polygon class="st1" points="21.5,250.3 50.1,233.8 64.3,242 36.1,258.5 		"/>
		<polygon class="st1" points="219.9,192.7 234,184.6 269.5,205 255.3,213.2 		"/>
		<polygon class="st1" points="163.3,225.6 191.6,209.3 215.4,223 187,239.3 		"/>
		<polygon class="st1" points="255.3,213.2 219.9,192.7 191.6,209.3 215.4,223 187,239.3 198.7,246.1 		"/>
		<polygon class="st1" points="375.8,94.5 382.8,90.5 354.5,74.1 333.2,86.4 347.4,94.5 361.6,86.4 		"/>
		<line class="st1" x1="417.8" y1="103" x2="411.5" y2="106.7"/>
		<line class="st1" x1="105.7" y1="226" x2="127.9" y2="213.4"/>
		<line class="st1" x1="155" y1="255.1" x2="184" y2="238.2"/>
		<path class="st1" d="M184.6,237.9"/>
		<path class="st1" d="M175.3,243.3"/>
		<line class="st1" x1="50.3" y1="233.7" x2="56.2" y2="230.3"/>
		<line class="st1" x1="164.1" y1="298.8" x2="169" y2="296.1"/>
	</g>
</g>
<g id="Layer_2">
	<g class="st0">
		<polygon class="st2" points="893.9,105.3 922.4,89.1 936.6,97.3 908.1,113.4 		"/>
		<polygon class="st2" points="851.4,80.7 879.9,64.5 922.4,89.1 893.9,105.3 		"/>
		<polygon class="st2" points="801.8,52.1 830.3,35.9 879.9,64.5 851.4,80.7 		"/>
		<polygon class="st2" points="780.5,80.8 808.8,64.4 844.3,84.8 816,101.2 		"/>
		<polygon class="st2" points="851.4,121.6 879.7,105.3 915,125.8 886.8,142.1 		"/>
		<polygon class="st2" points="823,138 851.4,121.6 886.8,142.1 858.3,158.6 		"/>
		<polygon class="st2" points="773.4,109.4 801.8,93 844.3,117.5 816,133.9 		"/>
		<polygon class="st2" points="748.1,124 773.4,109.4 816,133.9 790.8,148.4 		"/>
		<polygon class="st2" points="723.8,138 748.1,124 790.8,148.4 766.4,162.5 		"/>
		<polygon class="st2" points="631.7,191.3 674.2,166.6 716.8,191.3 674.3,215.8 		"/>
		<polygon class="st2" points="798.1,152.4 823,138 858.3,158.6 833.5,172.9 		"/>
		<polygon class="st2" points="766.4,170.8 798.1,152.4 833.5,172.9 801.8,191.3 		"/>
		<polygon class="st2" points="748.9,180.8 766.4,170.8 801.8,191.3 784.4,201.3 		"/>
		<polygon class="st2" points="723.8,195.3 748.9,180.8 784.4,201.3 759.2,215.8 		"/>
		<polygon class="st2" points="598.5,271.8 626.5,255.6 635.9,261 607.9,277.3 		"/>
		<polygon class="st2" points="649.2,301.5 677.6,285.1 687.1,290.6 658.7,306.9 		"/>
		<polygon class="st2" points="607.9,277.3 635.9,261 677.6,285.1 649.2,301.5 		"/>
		<polygon class="st2" points="574.6,257.5 602.7,241.1 616.9,249.4 588.6,265.8 		"/>
		<polygon class="st2" points="560,249.3 588.5,232.9 602.7,241.1 574.6,257.5 		"/>
		<polygon class="st2" points="531.8,232.9 560.2,216.6 588.5,232.9 560,249.3 		"/>
		<polygon class="st2" points="554.1,285.5 582.6,269.3 667.7,318 639.1,334.6 		"/>
		<polygon class="st2" points="540.1,277.4 568.5,261 582.4,269.1 554.1,285.5 		"/>
		<polygon class="st2" points="511.3,261 539.9,244.5 554.1,252.8 525.9,269.3 		"/>
		<polygon class="st2" points="709.7,203.5 723.8,195.3 759.3,215.8 745.1,223.9 		"/>
		<polygon class="st2" points="653.1,236.4 681.4,220 705.2,233.8 676.8,250.1 		"/>
		<polygon class="st2" points="745.1,223.9 709.7,203.5 681.4,220 705.2,233.8 676.8,250.1 688.5,256.8 		"/>
		<polygon class="st2" points="865.6,105.3 872.6,101.2 844.3,84.8 823,97.1 837.2,105.3 851.4,97.1 		"/>
		<line class="st2" x1="907.6" y1="113.7" x2="901.3" y2="117.4"/>
		<line class="st2" x1="595.5" y1="236.8" x2="617.7" y2="224.1"/>
		<line class="st2" x1="644.8" y1="265.9" x2="673.8" y2="249"/>
		<path class="st2" d="M674.4,248.6"/>
		<path class="st2" d="M665.1,254"/>
		<line class="st2" x1="540.1" y1="244.4" x2="546" y2="241"/>
		<line class="st2" x1="653.9" y1="309.5" x2="658.8" y2="306.8"/>
	</g>
</g>
<g id="Layer_3">
	<g>
		<g class="st3">
			
				<image style="overflow:visible;" width="1792" height="1045" xlink:href="uploads/maps/60A75FCB.png"  transform="matrix(0.24 0 0 0.24 20.7882 104.4056)">
			</image>
		</g>
		<g>
			<g>
				<g class="st4">
					<g class="st4">
						<defs>
							<path id="SVGID_1_" class="st4" d="M414.7,176v0.6c0,2.8-1.7,5.4-4.2,6.6v-0.6C413,181.4,414.7,178.9,414.7,176z"/>
						</defs>
						<clipPath id="SVGID_2_">
							<use xlink:href="#SVGID_1_"  style="overflow:visible;"/>
						</clipPath>
						<g class="st5">
							<path class="st6" d="M414.7,176v0.6c0,0.4,0,0.7-0.1,1.1v-0.6C414.7,176.7,414.7,176.4,414.7,176"/>
							<path class="st7" d="M414.6,177.1v0.6c-0.1,0.4-0.2,0.8-0.3,1.2v-0.6C414.5,177.9,414.6,177.5,414.6,177.1"/>
							<path class="st8" d="M414.3,178.3v0.6c-0.1,0.4-0.3,0.9-0.6,1.3v-0.6C414,179.2,414.2,178.7,414.3,178.3"/>
							<path class="st9" d="M413.8,179.6v0.6c-0.7,1.3-1.9,2.4-3.3,3v-0.6C411.9,181.9,413,180.9,413.8,179.6"/>
						</g>
					</g>
					<g>
						<polygon class="st10" points="410.5,182.6 410.5,183.2 317.1,225.7 317.1,225 						"/>
					</g>
					<g class="st4">
						<defs>
							<path id="SVGID_3_" class="st4" d="M317.1,225v0.6c-0.3,2.4-1.9,4.6-4.1,5.6v-0.6C315.2,229.6,316.8,227.5,317.1,225z"/>
						</defs>
						<clipPath id="SVGID_4_">
							<use xlink:href="#SVGID_3_"  style="overflow:visible;"/>
						</clipPath>
						<g class="st11">
							<path class="st6" d="M317.1,225v0.6c0,0,0,0.1,0,0.1v-0.6C317.1,225.1,317.1,225.1,317.1,225"/>
							<path class="st7" d="M317.1,225.2v0.6c-0.1,0.4-0.2,0.8-0.3,1.2v-0.6C316.9,226,317,225.6,317.1,225.2"/>
							<path class="st8" d="M316.8,226.4v0.6c-0.2,0.5-0.3,0.9-0.6,1.3v-0.6C316.4,227.3,316.6,226.8,316.8,226.4"/>
							<path class="st9" d="M316.2,227.7v0.6c-0.7,1.3-1.9,2.3-3.3,3v-0.6C314.3,230,315.5,229,316.2,227.7"/>
						</g>
					</g>
					<g>
						<polygon class="st10" points="312.9,230.7 312.9,231.3 296.4,238.9 296.4,238.2 						"/>
					</g>
					<g class="st4">
						<defs>
							<path id="SVGID_5_" class="st4" d="M296.4,238.2v0.6c-0.8,0.4-1.7,0.6-2.6,0.6v-0.6C294.7,238.8,295.6,238.6,296.4,238.2z"/>
						</defs>
						<clipPath id="SVGID_6_">
							<use xlink:href="#SVGID_5_"  style="overflow:visible;"/>
						</clipPath>
						<g class="st12">
							<path class="st9" d="M296.4,238.2v0.6c-0.8,0.4-1.7,0.6-2.6,0.6v-0.6C294.7,238.8,295.6,238.6,296.4,238.2"/>
						</g>
					</g>
					<g>
						<polygon class="st10" points="293.8,238.9 293.8,239.5 271.4,249.8 271.4,249.1 						"/>
					</g>
					<g class="st4">
						<defs>
							<path id="SVGID_7_" class="st4" d="M271.4,249.1v0.6c-1,0.4-2,0.7-3,0.7c-1.1,0-2.3-0.3-3.3-0.8V249c1,0.5,2.2,0.8,3.3,0.8
								C269.4,249.8,270.4,249.6,271.4,249.1z"/>
						</defs>
						<clipPath id="SVGID_8_">
							<use xlink:href="#SVGID_7_"  style="overflow:visible;"/>
						</clipPath>
						<g class="st13">
							<path class="st9" d="M271.4,249.1v0.6c-1,0.4-2,0.7-3,0.7c-1.1,0-2.3-0.3-3.3-0.8V249c1,0.5,2.2,0.8,3.3,0.8
								C269.4,249.8,270.4,249.6,271.4,249.1"/>
						</g>
					</g>
					<g>
						<polygon class="st10" points="265.1,249 265.1,249.6 237.5,261.3 237.5,260.7 						"/>
					</g>
					<g class="st4">
						<defs>
							<path id="SVGID_9_" class="st4" d="M60.6,262.9v0.6c-2.2-1.3-3.6-3.7-3.6-6.3l0-0.6C56.9,259.3,58.3,261.6,60.6,262.9z"/>
						</defs>
						<clipPath id="SVGID_10_">
							<use xlink:href="#SVGID_9_"  style="overflow:visible;"/>
						</clipPath>
						<g class="st14">
							<path class="st9" d="M60.6,262.9v0.6c-2.2-1.3-3.6-3.7-3.6-6.3v-0.6C56.9,259.3,58.3,261.6,60.6,262.9"/>
						</g>
					</g>
					<g>
						<polygon class="st10" points="237.5,260.7 237.5,261.3 181.2,286.9 181.2,286.3 						"/>
					</g>
					<g class="st4">
						<defs>
							<path id="SVGID_11_" class="st4" d="M181.3,289.3l0,0.6c0,2.8-1.6,5.4-4.2,6.5v-0.6C179.7,294.6,181.3,292.1,181.3,289.3z"/>
						</defs>
						<clipPath id="SVGID_12_">
							<use xlink:href="#SVGID_11_"  style="overflow:visible;"/>
						</clipPath>
						<g class="st15">
							<path class="st6" d="M181.3,289.3v0.6c0,0.4,0,0.7-0.1,1.1v-0.6C181.3,290,181.3,289.6,181.3,289.3"/>
							<path class="st7" d="M181.2,290.3v0.6c-0.1,0.4-0.2,0.8-0.3,1.2v-0.6C181.1,291.1,181.2,290.7,181.2,290.3"/>
							<path class="st8" d="M181,291.5v0.6c-0.1,0.4-0.3,0.9-0.6,1.3v-0.6C180.6,292.4,180.8,292,181,291.5"/>
							<path class="st9" d="M180.4,292.8v0.6c-0.7,1.3-1.9,2.3-3.3,3v-0.6C178.5,295.2,179.7,294.1,180.4,292.8"/>
						</g>
					</g>
					<g>
						<polygon class="st10" points="141.1,309 141.1,309.6 60.6,263.5 60.6,262.9 						"/>
					</g>
					<g>
						<polygon class="st10" points="177.1,295.8 177.1,296.4 147.7,309.9 147.7,309.3 						"/>
					</g>
					<g class="st4">
						<defs>
							<path id="SVGID_13_" class="st4" d="M147.7,309.3v0.6c-1,0.4-2,0.7-3,0.7c-1.2,0-2.5-0.3-3.6-1V309c1.1,0.6,2.3,1,3.6,1
								C145.7,310,146.8,309.7,147.7,309.3z"/>
						</defs>
						<clipPath id="SVGID_14_">
							<use xlink:href="#SVGID_13_"  style="overflow:visible;"/>
						</clipPath>
						<g class="st16">
							<path class="st9" d="M147.7,309.3v0.6c-1,0.4-2,0.7-3,0.7c-1.2,0-2.5-0.3-3.6-1V309c1.1,0.6,2.3,1,3.6,1
								C145.7,310,146.8,309.7,147.7,309.3"/>
						</g>
					</g>
					<g>
						<path class="st17" d="M333,132c1,0,2.1,0.2,3.1,0.7l74.5,34.9c2.5,1.2,4.1,3.7,4.1,6.5v1.9c0,2.8-1.7,5.4-4.2,6.6L317.1,225
							c-0.3,2.4-1.9,4.6-4.1,5.6l-16.6,7.6c-0.8,0.4-1.7,0.6-2.6,0.6l-22.4,10.3c-1,0.4-2,0.7-3,0.7c-1.1,0-2.3-0.3-3.3-0.8
							l-27.5,11.7l-56.3,25.6c0.1,0.3,0.1,0.7,0.1,1v1.9c0,2.8-1.6,5.4-4.2,6.5l-29.4,13.5c-1,0.4-2,0.7-3,0.7c-1.2,0-2.5-0.3-3.6-1
							l-80.6-46.1c-2.2-1.3-3.6-3.7-3.6-6.3v-1.9c0-0.7,0.1-1,0.1-1.4c0.2-1,0.6-1.9,1.1-2.7c0.3-0.5,0.7-0.9,1.1-1.3
							c0.5-0.5,1.1-0.9,1.8-1.2l107-43.7l13.4-5.5c0.3-2.6,2-4.8,4.4-5.8l42.9-17.4c0.9-0.4,1.8-0.5,2.7-0.5c1.1,0,2.2,0.3,3.3,0.8
							l0.9,0.4l68.1-27.8c0.1-2.4,0.5-3.5,1-4.3c0.3-0.5,0.7-1,1.1-1.4c0.5-0.6,1.2-1,1.9-1.4l22.6-9.2C331.1,132.2,332,132,333,132
							z"/>
					</g>
				</g>
			</g>
		</g>
		<g>
			<polygon class="st18" points="310.8,221.8 270.2,240.2 192.8,198.6 234.2,182.1 			"/>
			<polygon class="st18" points="388.5,175 257.3,233.3 204.8,205.1 338.1,151 			"/>
			<polygon class="st19" ng-class="{'pulsate': $ctrl.company.comproom == '101'}" points="66.1,253.5 127.7,290.8 156.6,278 164.9,282.9 265.4,237.6 257.3,233.3 237.6,222.7 197.1,200.9 
							"/>
			<path class="st20" d="M127.7,291.6l-63.2-38.3l132.7-53.2l0.3,0.2l69.6,37.4l-102.2,46l-8.3-4.9L127.7,291.6z M67.7,253.6
				l60.1,36.4l28.9-12.8l8.3,4.9l98.8-44.5l-66.7-35.8L67.7,253.6z"/>
			<polygon class="st19" points="172.2,287.4 143.6,300.4 127.7,290.8 156.4,278.1 			"/>
			<path class="st20" d="M143.5,301.2l-17.3-10.5l30.3-13.4l17.3,10.2L143.5,301.2z M129.3,290.9l14.3,8.7l27-12.3l-14.2-8.4
				L129.3,290.9z"/>
			<polygon class="st19" ng-class="{'pulsate': $ctrl.company.comproom == '102'}" points="234.2,204.8 217.4,211.8 192.8,198.6 209.7,191.9 			"/>
			<path class="st20" d="M217.3,212.6l-26.2-14.1l18.7-7.4l26.1,13.8L217.3,212.6z M194.5,198.7l22.9,12.3l15.1-6.3l-22.8-12.1
				L194.5,198.7z"/>
			<path class="st20" d="M226.5,195.1l-11.5-6.1l18.1-7.2l11.5,5.9L226.5,195.1z M218.4,189.2l8.2,4.3l14.5-5.9l-8.1-4.2
				L218.4,189.2z"/>
			<polygon class="st19" ng-class="{'pulsate': $ctrl.company.comproom == '109'}" points="257.5,195.3 242.6,187.8 242.8,187.7 233,182.6 216.7,189.1 226.5,194.3 232.4,191.9 246.9,199.7 
							"/>
			<polygon class="st19" points="266.7,200.1 251.8,206.3 242.6,201.5 257.5,195.3 			"/>
			<path class="st20" d="M251.8,207.1l-10.9-5.7l16.6-6.9l10.8,5.6L251.8,207.1z M244.3,201.6l7.5,4L265,200l-7.5-3.9L244.3,201.6z"
				/>
			<polygon class="st19" ng-class="{'pulsate': $ctrl.company.comproom == '103'}" points="330.5,173.2 266.7,200.1 237.1,184.7 301.4,159 			"/>
			<path class="st20" d="M266.7,200.9l-31.3-16.2l66-26.5l30.8,15.1L266.7,200.9z M238.8,184.8l27.9,14.5l62-26.1l-27.4-13.4
				L238.8,184.8z"/>
			<polygon class="st19" ng-class="{'pulsate': $ctrl.company.comproom == '105'}" points="350.6,164.7 330.5,173.2 301.4,159 321.7,150.8 			"/>
			<path class="st20" d="M330.4,174l-30.8-15.1l22.1-8.9l30.6,14.7L330.4,174z M303.2,159l27.3,13.4l18.4-7.7l-27.2-13L303.2,159z"
				/>
			<polygon class="st19" ng-class="{'pulsate': $ctrl.company.comproom == '104'}" points="277.3,201.3 274,202.7 258,209.6 275.8,218.9 291.8,211.9 304.7,218.6 386.5,181.9 356.6,167.6 			
				"/>
			<path class="st20" d="M275.8,219.7l-19.5-10.2l100.3-42.7l31.6,15.2l-83.5,37.5l-13-6.7L275.8,219.7z M259.7,209.6l16.2,8.5l16-7
				l12.9,6.7l80-35.9l-28.2-13.5L259.7,209.6z"/>
			<polygon class="st19" ng-class="{'pulsate': $ctrl.company.comproom == '107'}" points="370.7,156.2 356.5,162.2 334.3,151.6 348.6,145.8 			"/>
			<path class="st20" d="M356.5,163l-24-11.5l16.1-6.5l23.9,11.3L356.5,163z M336.1,151.6l20.5,9.8l12.4-5.2l-20.4-9.6L336.1,151.6z
				"/>
			<path class="st19" ng-class="{'pulsate': $ctrl.company.comproom == '108'}" d="M406.3,173l-19.9,8.9l-24.5-11.8l0.6-0.7c1.8-2.3-0.7-5.3-6-7.2h0l14.2-6L406.3,173z"/>
			<path class="st20" d="M386.4,182.7l-25.6-12.3l1.1-1.5c0.4-0.5,0.5-1.1,0.3-1.7c-0.5-1.6-2.8-3.2-6-4.4l-1.8-0.6l16.2-6.8
				L408,173L386.4,182.7z M363,169.8l23.4,11.2l18.1-8.1l-33.8-16l-12.3,5.2c2.9,1.3,4.7,2.9,5.2,4.7
				C364,167.9,363.8,168.9,363,169.8L363,169.8z"/>
			<polygon class="st19" ng-class="{'pulsate': $ctrl.company.comproom == '106'}" points="335.9,139.8 315.6,147.8 325.6,152.7 328.3,154 332.7,156.1 338.6,153.7 334.3,151.6 348.6,145.8 
							"/>
			<path class="st20" d="M332.7,156.9l-18.9-9.1l22.2-8.8l14.5,6.8l-14.4,5.8l4.3,2.1L332.7,156.9z M317.4,147.9l15.4,7.4l4.1-1.7
				l-4.4-2.1l14.3-5.8l-10.9-5.2L317.4,147.9z"/>
			<polygon class="st19" points="239.2,195.7 233.5,198 226.3,194.2 232,191.9 			"/>
			<path class="st20" d="M233.5,198.8l-8.9-4.7l7.4-3l8.9,4.6L233.5,198.8z M228,194.3l5.5,2.9l3.9-1.6l-5.5-2.9L228,194.3z"/>
			<polygon class="st19" points="246.9,199.7 241.3,202.1 233.5,198 239.2,195.7 			"/>
			<path class="st20" d="M241.2,202.9l-9.4-5l7.4-3l9.4,4.9L241.2,202.9z M235.2,198.1l6.1,3.2l3.9-1.6l-6.1-3.2L235.2,198.1z"/>
			<polygon class="st19" points="234.6,214 227.2,217.1 217.4,211.8 224.8,208.7 			"/>
			<path class="st20" d="M227.2,217.9l-11.5-6.2l9.1-3.8l11.5,6.1L227.2,217.9z M219,211.9l8.2,4.4l5.7-2.4l-8.2-4.4L219,211.9z"/>
			<polygon class="st19" points="258.3,226.6 250.9,229.9 234,220.8 241.4,217.6 			"/>
			<path class="st20" d="M250.9,230.7l-18.5-10l9.1-3.9l18.5,9.9L250.9,230.7z M235.7,220.8l15.3,8.2l5.7-2.5l-15.3-8.1L235.7,220.8
				z"/>
			<polygon class="st19" points="257.9,217.9 249.1,221.7 241.4,217.6 250.3,213.8 			"/>
			<path class="st20" d="M249.1,222.5l-9.3-5l10.5-4.5l9.3,4.9L249.1,222.5z M243.1,217.7l6.1,3.2l7.1-3.1l-6-3.2L243.1,217.7z"/>
			<polygon class="st19" points="267.1,222.8 258.3,226.6 249.1,221.7 257.9,217.9 			"/>
			<path class="st20" d="M258.3,227.4l-10.8-5.8l10.5-4.5l10.8,5.7L258.3,227.4z M250.8,221.8l7.6,4l7.1-3.1l-7.5-4L250.8,221.8z"/>
			<polygon class="st19" points="244,210 234.6,214 224.8,208.7 234.2,204.8 			"/>
			<path class="st20" d="M234.6,214.8l-11.5-6.1l11.1-4.6l11.5,6.1L234.6,214.8z M226.5,208.8l8.2,4.4l7.6-3.2l-8.2-4.3L226.5,208.8
				z"/>
			<polygon class="st21" points="64.5,253.3 64.5,251.4 143.5,299.2 143.5,301.2 			"/>
			<polygon class="st21" points="197.1,201.7 197.1,199.8 263.8,235.6 261.8,236.5 			"/>
			<polygon class="st21" points="191.1,198.5 191.1,196.6 195.5,198.9 195.4,200.8 			"/>
			<polygon class="st21" points="209.7,192.7 209.7,190.7 232.5,202.8 232.5,204.7 			"/>
			<polygon class="st21" points="224.7,209.5 224.7,207.6 232.9,212 232.9,213.9 			"/>
			<polygon class="st21" points="234.1,205.6 234.1,203.7 242.3,208 242.3,210 			"/>
			<polygon class="st21" points="214.9,189 214.9,187.1 241.2,200.9 241.2,202.9 			"/>
			<polygon class="st21" points="233,183.4 233,181.5 255.8,193.3 255.8,195.4 			"/>
			<polygon class="st21" points="232,192.7 232,190.7 237.5,193.6 237.5,195.6 			"/>
			<polygon class="st21" points="239.2,196.5 239.2,194.5 245.2,197.7 245.2,199.6 			"/>
			<polygon class="st21" points="242.6,202.3 242.6,200.3 251.8,205.2 251.8,207.1 			"/>
			<polygon class="st21" points="257.5,196.1 257.5,194.2 265,198.1 265,200 			"/>
			<polygon class="st21" points="256.3,207.6 256.3,209.5 275.8,219.7 275.8,217.8 			"/>
			<polygon class="st21" points="291.7,212.7 291.7,210.8 304.7,217.5 304.7,219.4 			"/>
			<polygon class="st21" points="301.4,159.7 301.4,157.6 328.7,171.2 328.7,173.1 			"/>
			<polygon class="st21" points="321.7,151.6 321.7,149.7 348.8,162.7 348.8,164.6 			"/>
			<polygon class="st21" points="313.8,147.8 313.8,145.8 319.9,148.8 319.9,150.8 			"/>
			<polygon class="st21" points="335.9,140.6 335.9,138.6 346.8,143.8 346.8,145.7 			"/>
			<polygon class="st21" points="348.6,144.6 369,154.2 369,156.2 348.6,146.6 			"/>
			<polygon class="st21" points="370.7,155 404.4,170.9 404.6,172.9 370.7,157 			"/>
			<polygon class="st21" points="332.5,151.5 332.5,149.6 336.8,151.7 336.8,153.6 			"/>
			<polygon class="st21" points="338.6,154.4 338.6,152.5 354.8,160.2 354.8,162.2 			"/>
			<path class="st21" d="M354.5,162.3v-1.9c0,0,6.3,1.9,7.5,4.3c0.5,1.4,0.1,2.2,0.1,2.2S361.7,164.6,354.5,162.3z"/>
			<polygon class="st21" points="356.6,166.4 356.6,168.4 384.8,181.9 384.8,180 			"/>
			<polygon class="st21" points="250.2,214.6 250.2,212.7 256.3,215.9 256.3,217.8 			"/>
			<polygon class="st21" points="257.9,218.7 257.9,216.8 265.4,220.8 265.4,222.7 			"/>
			<polygon class="st21" points="241.4,218.4 241.4,216.5 256.6,224.6 256.6,226.6 			"/>
			<polygon class="st22" points="67.7,251.6 69.6,252.8 197.1,201.7 197.1,199.8 			"/>
			<polygon class="st22" points="209.7,190.7 209.7,192.7 196.6,197.9 194.5,196.8 			"/>
			<polygon class="st22" points="218.4,187.3 233,181.5 233,183.4 220.5,188.4 			"/>
			<polygon class="st22" points="238.8,182.9 301.4,157.8 301.4,159.7 240.9,184 			"/>
			<polygon class="st22" points="303.2,157.1 321.7,149.7 321.7,151.6 305.3,158.2 			"/>
			<polygon class="st22" points="317.4,146 335.9,138.6 335.9,140.6 319.6,147 			"/>
			<polygon class="st22" points="336.1,149.7 348.6,144.6 348.6,146.6 338.3,150.8 			"/>
			<polygon class="st22" points="334.5,154.2 338.6,152.5 338.6,154.4 336.8,155.3 			"/>
			<polygon class="st22" points="358.4,160.2 370.7,155 370.7,157 360.5,161.3 			"/>
			<polygon class="st22" points="408,171 408,173 304.7,219.4 304.7,217.5 			"/>
			<polygon class="st22" points="352.4,162.8 352.4,164.7 251.8,207.1 251.8,205.2 			"/>
			<polygon class="st22" points="232,190.7 232,192.7 230.2,193.5 228,192.3 			"/>
			<polyline class="st22" points="237.8,197 239.2,196.5 239.2,194.5 235.2,196.1 237.3,197.2 			"/>
			<polygon class="st22" points="241.2,200.9 242.6,200.3 242.6,202.3 241.2,202.9 			"/>
			<polygon class="st22" points="244.3,199.6 257.5,194.2 257.5,196.1 246.4,200.7 			"/>
			<polygon class="st22" points="259.7,207.7 356.6,166.4 356.6,168.4 261.7,208.8 			"/>
			<polygon class="st22" points="219,210 224.7,207.6 224.7,209.5 221.1,211.1 			"/>
			<polygon class="st22" points="234.1,203.7 234.1,205.6 228.5,207.9 226.5,206.9 			"/>
			<polygon class="st22" points="245.7,208.2 245.7,210.1 230.9,216.3 228.8,215.2 			"/>
			<polygon class="st22" points="241.4,216.5 241.4,218.4 237.7,220 235.7,218.9 			"/>
			<polygon class="st22" points="243.1,215.7 250.2,212.7 250.2,214.6 245.1,216.8 			"/>
			<polygon class="st22" points="250.8,219.8 257.9,216.8 257.9,218.7 252.8,220.9 			"/>
			<polygon class="st22" points="268.7,220.9 268.7,222.8 254.5,229 252.6,228 			"/>
			<polygon class="st22" points="275.8,217.8 291.7,210.8 291.7,212.7 275.8,219.7 			"/>
			<polygon class="st22" points="267,235.8 267,237.7 168.1,282.2 166.3,281.1 			"/>
			<polygon class="st22" points="173.7,285.5 143.5,299.3 143.5,301.2 173.7,287.4 			"/>
			<polygon class="st22" points="156.4,276.9 156.4,278.9 131.1,290.1 129.3,288.9 			"/>
			<polygon class="st21" points="156.4,278.9 156.4,276.9 170.6,285.3 170.6,287.3 			"/>
			<g>
				<path class="st20" d="M127.7,289.7l-63.2-38.3l132.7-53.2l0.3,0.2l69.6,37.4l-102.2,46l-8.3-4.9L127.7,289.7z M67.7,251.6
					l60.1,36.4l28.9-12.8l8.3,4.9l98.8-44.5l-66.7-35.8L67.7,251.6z"/>
				<path class="st20" d="M143.5,299.3l-17.3-10.5l30.3-13.4l17.3,10.2L143.5,299.3z M129.3,288.9l14.3,8.7l27-12.3l-14.2-8.4
					L129.3,288.9z"/>
				<path class="st20" d="M217.3,210.7l-26.2-14.1l18.7-7.4l26.1,13.8L217.3,210.7z M194.5,196.8l22.9,12.3l15.1-6.3l-22.8-12.1
					L194.5,196.8z"/>
				<g>
					<path class="st20" d="M242.7,184.9L242.7,184.9l-9.6-5l-18.1,7.2l11.5,6.1l5.7-2.3l14.8,7.7l12.3-5.1L242.7,184.9z M232,189.2
						l-1.8,0.7l0.2,0.1l-3.9,1.6l-8.2-4.3l14.6-5.8l7.9,4.1l0,0l14.9,7.7L247,197L232,189.2z"/>
				</g>
				<path class="st20" d="M251.8,205.2l-10.9-5.7l16.6-6.9l10.8,5.6L251.8,205.2z M244.3,199.6l7.5,4l13.1-5.5l-7.5-3.9L244.3,199.6
					z"/>
				<path class="st20" d="M266.7,198.9l-31.3-16.2l66-26.5l30.8,15.1L266.7,198.9z M238.8,182.9l27.9,14.5l62-26.1l-27.4-13.4
					L238.8,182.9z"/>
				<path class="st20" d="M330.4,172L299.6,157l22.1-8.9l30.6,14.7L330.4,172z M303.2,157.1l27.3,13.4l18.4-7.7l-27.2-13
					L303.2,157.1z"/>
				<path class="st20" d="M275.8,217.8l-19.5-10.2l100.3-42.7l31.6,15.2l-83.5,37.5l-13-6.7L275.8,217.8z M259.7,207.7l16.2,8.5
					l16-7l12.9,6.7l80-35.9l-28.2-13.5L259.7,207.7z"/>
				<path class="st20" d="M356.5,161l-24-11.5l16.1-6.5l23.9,11.3L356.5,161z M336.1,149.7l20.5,9.8l12.4-5.2l-20.4-9.6L336.1,149.7
					z"/>
				<path class="st20" d="M386.4,180.7l-25.6-12.3l1.1-1.5c0.4-0.5,0.5-1.1,0.3-1.7c-0.5-1.6-2.8-3.2-6-4.4l-1.8-0.6l16.2-6.8
					L408,171L386.4,180.7z M363,167.9l23.4,11.2l18.1-8.1l-33.8-16l-12.3,5.2c2.9,1.3,4.7,2.9,5.2,4.7C364,166,363.8,167,363,167.9
					L363,167.9z"/>
				<path class="st20" d="M332.7,154.9l-18.9-9.1l22.2-8.8l14.5,6.8l-14.4,5.8l4.3,2.1L332.7,154.9z M317.4,146l15.4,7.4l4.1-1.7
					l-4.4-2.1l14.3-5.8l-10.9-5.2L317.4,146z"/>
				<path class="st20" d="M233.5,196.8l-8.9-4.7l7.4-3l8.9,4.6L233.5,196.8z M228,192.3l5.5,2.9l3.9-1.6l-5.5-2.9L228,192.3z"/>
				<path class="st20" d="M241.2,200.9l-9.4-5l7.4-3l9.4,4.9L241.2,200.9z M235.2,196.1l6.1,3.2l3.9-1.6l-6.1-3.2L235.2,196.1z"/>
				<path class="st20" d="M227.2,216l-11.5-6.2l9.1-3.8l11.5,6.1L227.2,216z M219,210l8.2,4.4l5.7-2.4l-8.2-4.4L219,210z"/>
				<path class="st20" d="M250.9,228.7l-18.5-10l9.1-3.9l18.5,9.9L250.9,228.7z M235.7,218.9l15.3,8.2l5.7-2.5l-15.3-8.1
					L235.7,218.9z"/>
				<path class="st20" d="M249.1,220.6l-9.3-5l10.5-4.5l9.3,4.9L249.1,220.6z M243.1,215.7l6.1,3.2l7.1-3.1l-6-3.2L243.1,215.7z"/>
				<path class="st20" d="M258.3,225.5l-10.8-5.8l10.5-4.5l10.8,5.7L258.3,225.5z M250.8,219.8l7.6,4l7.1-3.1l-7.5-4L250.8,219.8z"
					/>
				<path class="st20" d="M234.6,212.8l-11.5-6.1l11.1-4.6l11.5,6.1L234.6,212.8z M226.5,206.9l8.2,4.4l7.6-3.2l-8.2-4.3
					L226.5,206.9z"/>
			</g>
		</g>
		<g>
			<polygon class="st19" points="153.1,276.8 154.8,277.6 154.9,279.5 151.8,280.9 151.9,279 150.2,278.1 			"/>
			<polygon class="st21" points="153.1,276.8 153.2,278.7 154.9,279.6 154.8,277.6 			"/>
		</g>
		<g>
			<polygon class="st18" points="238.3,216.2 240,217.1 240.1,219 237.7,220 237,219.6 237.1,218.4 235.4,217.5 			"/>
			<polygon class="st21" points="238.3,216.2 238.4,218.1 240.1,219 240,217.1 			"/>
		</g>
		<g>
			<polygon class="st19" points="231.5,212.6 233.2,213.4 233.2,215.3 230.3,216.6 230.3,214.7 228.5,213.8 			"/>
			<polygon class="st21" points="231.5,212.6 231.6,214.5 233.2,215.4 233.2,213.4 			"/>
		</g>
		<g>
			<polygon class="st18" points="247.1,212.5 248.8,213.3 248.8,215.3 245.7,216.6 245.9,214.6 244.1,213.7 			"/>
			<polygon class="st21" points="247.1,212.5 247.1,214.4 248.8,215.3 248.8,213.3 			"/>
		</g>
		<g>
			<polygon class="st19" points="262.9,198.9 264.6,199.8 264.6,201.7 261.6,203 261.7,201 260,200.2 			"/>
			<polygon class="st21" points="262.9,198.9 262.9,200.8 264.6,201.7 264.6,199.8 			"/>
		</g>
		<g>
			<polygon class="st19" points="285.8,211.8 287.6,212.6 287.6,214.5 284.5,215.9 284.6,213.9 282.9,213.1 			"/>
			<polygon class="st21" points="285.8,211.8 285.9,213.7 287.6,214.5 287.6,212.6 			"/>
		</g>
		<g>
			<polygon class="st19" points="298.6,183.8 300.4,184.7 300.4,186.6 297.4,187.9 297.5,186 295.7,185.1 			"/>
			<polygon class="st21" points="298.7,183.9 298.7,185.7 300.4,186.6 300.4,184.7 			"/>
		</g>
		<g>
			<polygon class="st18" points="318.2,181.2 319.9,182 319.9,184 316.9,185.3 317,183.3 315.3,182.4 			"/>
			<polygon class="st21" points="318.2,181.2 318.3,183.1 319.9,184 319.9,182 			"/>
		</g>
		<g>
			<polygon class="st19" points="335.3,168.4 337,169.3 337,171.2 333.9,172.5 334.1,170.6 332.3,169.7 			"/>
			<polygon class="st21" points="335.3,168.4 335.3,170.3 337,171.2 337,169.3 			"/>
		</g>
		<g>
			<polygon class="st19" points="367.2,155 368.9,155.8 369,157.7 365.8,159 366,157.1 364.3,156.2 			"/>
			<polygon class="st21" points="367.2,155 367.3,156.8 369,157.7 368.9,155.8 			"/>
		</g>
		<g>
			<polygon class="st19" points="336.2,151.9 337.9,152.7 337.9,154.8 336.8,155.3 334.9,154.4 335,154 333.2,153.1 			"/>
			<polygon class="st21" points="336.2,151.9 336.2,154 337.9,154.8 337.9,152.7 			"/>
		</g>
		<g>
			<polygon class="st18" points="230.2,216 228.5,216.7 228.5,218.6 231.2,220.1 231.3,218.1 232.8,217.4 231,216.3 230.3,216.6 
				230.2,216.6 230.2,216 230.2,216.7 			"/>
			<polygon class="st21" points="230.2,216 230.2,217.8 228.5,218.6 228.5,216.7 			"/>
		</g>
		<g>
			<polygon class="st18" points="240.6,205.5 238.9,206.2 238.9,208.1 240.3,208.9 241.6,208.3 241.6,207.6 243.2,206.9 			"/>
			<polygon class="st21" points="240.6,205.5 240.6,207.3 238.9,208.1 238.9,206.2 			"/>
		</g>
		<g>
			<polygon class="st18" points="261.2,216.9 259.6,217.6 259.5,219.6 262.2,221 262.2,219.1 263.9,218.3 			"/>
			<polygon class="st21" points="261.2,216.9 261.2,218.8 259.5,219.6 259.5,217.7 			"/>
		</g>
		<g>
			<polygon class="st19" points="237.5,197.3 235.8,198.1 235.8,200 238.3,201.3 238.4,199.4 240.1,198.7 			"/>
			<polygon class="st21" points="237.5,197.3 237.5,199.1 235.8,200 235.8,198.1 			"/>
		</g>
		<g>
			<polygon class="st19" points="229.8,193.3 228.1,194 228.1,195.9 230.8,197.4 230.9,195.5 232.4,194.6 			"/>
			<polygon class="st21" points="229.8,193.3 229.8,195.1 228.1,195.9 228.1,194 			"/>
		</g>
		<g>
			<polygon class="st19" points="222.8,189.6 221.1,190.3 221.1,192.3 223.7,193.7 223.8,191.7 225.4,191 			"/>
			<polygon class="st21" points="222.8,189.6 222.8,191.4 221.1,192.3 221.1,190.3 			"/>
		</g>
		<g>
			<polygon class="st18" points="227.2,198.4 225.5,199.1 225.5,201.1 228.2,202.5 228.3,200.6 229.8,199.8 			"/>
			<polygon class="st21" points="227.2,198.4 227.2,200.2 225.5,201.1 225.5,199.1 			"/>
		</g>
		<g>
			<path class="st19" d="M359.9,161l-1.7,0.8l0,1.9c0,0,0.9,0.5,1.2,0.7c0.3,0.2,1.2,0.8,1.2,0.8l0-1.9l1.4-0.7c0,0-0.4-0.5-0.9-0.8
				C360.9,161.5,359.9,161,359.9,161z"/>
			<polygon class="st21" points="359.9,161 359.9,162.8 358.2,163.7 358.2,161.8 			"/>
		</g>
		<polygon class="st21" points="230.8,212.7 231.5,213.2 231.5,212.4 		"/>
		<polygon class="st22" points="359.9,160.7 359.9,161.5 360.7,161.2 		"/>
		<polygon class="st21" points="366.6,155 367.2,155.3 367.2,154.9 		"/>
		<polygon class="st21" points="334.5,152.5 336.2,151.9 336.2,153.3 		"/>
		<polygon class="st22" points="229.8,193.1 229.8,193.7 230.4,193.4 		"/>
	</g>
	<g class="st3">
		
			<image style="overflow:visible;" width="1792" height="1044" xlink:href="uploads/maps/60A75FC9.png"  transform="matrix(0.24 0 0 0.24 20.068 9.9624)">
		</image>
	</g>
	<g>
		<g>
			<g class="st4">
				<g class="st4">
					<defs>
						<path id="SVGID_15_" class="st4" d="M414.1,81.6v0.6c0,2.8-1.7,5.4-4.2,6.6v-0.6C412.4,87,414.1,84.5,414.1,81.6z"/>
					</defs>
					<clipPath id="SVGID_16_">
						<use xlink:href="#SVGID_15_"  style="overflow:visible;"/>
					</clipPath>
					<g class="st23">
						<path class="st6" d="M414.1,81.6v0.6c0,0.4,0,0.7-0.1,1.1v-0.6C414,82.4,414.1,82,414.1,81.6"/>
						<path class="st7" d="M414,82.7v0.6c-0.1,0.4-0.2,0.8-0.3,1.2v-0.6C413.8,83.5,413.9,83.1,414,82.7"/>
						<path class="st8" d="M413.7,83.9v0.6c-0.1,0.4-0.3,0.9-0.6,1.3v-0.6C413.4,84.8,413.5,84.4,413.7,83.9"/>
						<path class="st9" d="M413.1,85.2v0.6c-0.7,1.3-1.9,2.4-3.3,3v-0.6C411.2,87.6,412.4,86.5,413.1,85.2"/>
					</g>
				</g>
				<g>
					<polygon class="st10" points="409.8,88.2 409.8,88.8 316.5,131.3 316.5,130.7 					"/>
				</g>
				<g class="st4">
					<defs>
						<path id="SVGID_17_" class="st4" d="M316.5,130.7v0.6c-0.3,2.4-1.9,4.6-4.1,5.6v-0.6C314.6,135.2,316.1,133.1,316.5,130.7z"/>
					</defs>
					<clipPath id="SVGID_18_">
						<use xlink:href="#SVGID_17_"  style="overflow:visible;"/>
					</clipPath>
					<g class="st24">
						<path class="st6" d="M316.5,130.7v0.6c0,0,0,0.1,0,0.1v-0.6C316.5,130.8,316.5,130.7,316.5,130.7"/>
						<path class="st7" d="M316.4,130.8v0.6c-0.1,0.4-0.2,0.8-0.3,1.2V132C316.3,131.6,316.4,131.2,316.4,130.8"/>
						<path class="st8" d="M316.2,132v0.6c-0.2,0.5-0.3,0.9-0.6,1.3v-0.6C315.8,132.9,316,132.5,316.2,132"/>
						<path class="st9" d="M315.6,133.3v0.6c-0.7,1.3-1.9,2.3-3.3,3v-0.6C313.7,135.6,314.8,134.6,315.6,133.3"/>
					</g>
				</g>
				<g>
					<polygon class="st10" points="312.3,136.3 312.3,136.9 295.8,144.5 295.8,143.9 					"/>
				</g>
				<g class="st4">
					<defs>
						<path id="SVGID_19_" class="st4" d="M295.8,143.9v0.6c-0.8,0.4-1.7,0.6-2.6,0.6v-0.6C294.1,144.5,294.9,144.2,295.8,143.9z"/>
					</defs>
					<clipPath id="SVGID_20_">
						<use xlink:href="#SVGID_19_"  style="overflow:visible;"/>
					</clipPath>
					<g class="st25">
						<path class="st9" d="M295.8,143.9v0.6c-0.8,0.4-1.7,0.6-2.6,0.6v-0.6C294.1,144.5,294.9,144.2,295.8,143.9"/>
					</g>
				</g>
				<g>
					<polygon class="st10" points="293.2,144.5 293.2,145.1 270.8,155.4 270.8,154.8 					"/>
				</g>
				<g class="st4">
					<defs>
						<path id="SVGID_21_" class="st4" d="M270.8,154.8v0.6c-1,0.4-2,0.7-3,0.7c-1.1,0-2.3-0.3-3.3-0.8v-0.6c1,0.5,2.2,0.8,3.3,0.8
							C268.8,155.4,269.8,155.2,270.8,154.8z"/>
					</defs>
					<clipPath id="SVGID_22_">
						<use xlink:href="#SVGID_21_"  style="overflow:visible;"/>
					</clipPath>
					<g class="st26">
						<path class="st9" d="M270.8,154.8v0.6c-1,0.4-2,0.7-3,0.7c-1.1,0-2.3-0.3-3.3-0.8v-0.6c1,0.5,2.2,0.8,3.3,0.8
							C268.8,155.4,269.8,155.2,270.8,154.8"/>
					</g>
				</g>
				<g>
					<polygon class="st10" points="264.4,154.6 264.4,155.2 236.9,167 236.9,166.3 					"/>
				</g>
				<g class="st4">
					<defs>
						<path id="SVGID_23_" class="st4" d="M59.9,168.5v0.6c-2.2-1.3-3.6-3.7-3.6-6.3v-0.6C56.3,164.9,57.7,167.3,59.9,168.5z"/>
					</defs>
					<clipPath id="SVGID_24_">
						<use xlink:href="#SVGID_23_"  style="overflow:visible;"/>
					</clipPath>
					<g class="st27">
						<path class="st9" d="M59.9,168.5v0.6c-2.2-1.3-3.6-3.7-3.6-6.3v-0.6C56.3,164.9,57.7,167.3,59.9,168.5"/>
					</g>
				</g>
				<g>
					<polygon class="st10" points="236.9,166.3 236.9,167 180.6,192.5 180.6,191.9 					"/>
				</g>
				<g class="st4">
					<defs>
						<path id="SVGID_25_" class="st4" d="M180.7,194.9v0.6c0,2.8-1.6,5.4-4.2,6.5v-0.6C179,200.2,180.7,197.7,180.7,194.9z"/>
					</defs>
					<clipPath id="SVGID_26_">
						<use xlink:href="#SVGID_25_"  style="overflow:visible;"/>
					</clipPath>
					<g class="st28">
						<path class="st6" d="M180.7,194.9v0.6c0,0.4,0,0.7-0.1,1.1v-0.6C180.7,195.6,180.7,195.2,180.7,194.9"/>
						<path class="st7" d="M180.6,195.9v0.6c-0.1,0.4-0.2,0.8-0.3,1.2v-0.6C180.5,196.7,180.6,196.3,180.6,195.9"/>
						<path class="st8" d="M180.3,197.1v0.6c-0.1,0.4-0.3,0.9-0.6,1.3v-0.6C180,198,180.2,197.6,180.3,197.1"/>
						<path class="st9" d="M179.8,198.4v0.6c-0.7,1.3-1.9,2.3-3.3,3v-0.6C177.9,200.8,179,199.7,179.8,198.4"/>
					</g>
				</g>
				<g>
					<polygon class="st10" points="140.5,214.6 140.5,215.2 59.9,169.2 59.9,168.5 					"/>
				</g>
				<g>
					<polygon class="st10" points="176.5,201.4 176.5,202 147.1,215.5 147.1,214.9 					"/>
				</g>
				<g class="st4">
					<defs>
						<path id="SVGID_27_" class="st4" d="M147.1,214.9v0.6c-1,0.4-2,0.7-3,0.7c-1.2,0-2.5-0.3-3.6-1v-0.6c1.1,0.6,2.3,1,3.6,1
							C145.1,215.6,146.1,215.4,147.1,214.9z"/>
					</defs>
					<clipPath id="SVGID_28_">
						<use xlink:href="#SVGID_27_"  style="overflow:visible;"/>
					</clipPath>
					<g class="st29">
						<path class="st9" d="M147.1,214.9v0.6c-1,0.4-2,0.7-3,0.7c-1.2,0-2.5-0.3-3.6-1v-0.6c1.1,0.6,2.3,1,3.6,1
							C145.1,215.6,146.1,215.4,147.1,214.9"/>
					</g>
				</g>
				<g>
					<path class="st17" d="M332.3,37.6c1,0,2.1,0.2,3.1,0.7l74.5,34.9c2.5,1.2,4.1,3.7,4.1,6.5v1.9c0,2.8-1.7,5.4-4.2,6.6
						l-93.4,42.4c-0.3,2.4-1.9,4.6-4.1,5.6l-16.6,7.6c-0.8,0.4-1.7,0.6-2.6,0.6l-22.4,10.3c-1,0.4-2,0.7-3,0.7
						c-1.1,0-2.3-0.3-3.3-0.8l-27.5,11.7l-56.3,25.6c0.1,0.3,0.1,0.7,0.1,1v1.9c0,2.8-1.6,5.4-4.2,6.5l-29.4,13.5
						c-1,0.4-2,0.7-3,0.7c-1.2,0-2.5-0.3-3.6-1l-80.6-46.1c-2.2-1.3-3.6-3.7-3.6-6.3v-1.9c0-0.7,0.1-1,0.1-1.4
						c0.2-1,0.6-1.9,1.1-2.7c0.3-0.5,0.7-0.9,1.1-1.3c0.5-0.5,1.1-0.9,1.8-1.2l107-43.7l13.4-5.5c0.3-2.6,2-4.8,4.4-5.8l42.9-17.4
						c0.9-0.4,1.8-0.5,2.7-0.5c1.1,0,2.2,0.3,3.3,0.8l0.9,0.4L303,54.4c0.1-2.5,0.5-3.5,1-4.3c0.3-0.5,0.7-1,1.1-1.4
						c0.5-0.5,1.2-1,1.9-1.4l22.6-9.2C330.5,37.8,331.4,37.6,332.3,37.6z"/>
				</g>
			</g>
		</g>
	</g>
	<polygon class="st18" points="307.9,128.2 267.8,146.6 189.5,105.8 230.6,89.2 	"/>
	<polygon class="st18" points="385.3,81.3 254.8,139.9 263.9,144.6 233.9,158.2 171.8,123.7 333.5,56.8 	"/>
	<polygon class="st19" ng-class="{'pulsate': $ctrl.company.comproom == '201'}" points="65.2,160.8 128.1,196.9 156.2,184.3 164.6,189 241.6,153.9 172.1,117.1 	"/>
	<path class="st20" d="M128,197.7l-0.3-0.2l-64.2-36.8l108.6-44.4l71.1,37.7l-78.7,35.8l-8.4-4.7L128,197.7z M66.8,160.9l61.3,35.1
		l28.1-12.6l8.4,4.7l75.4-34.3l-67.9-36L66.8,160.9z"/>
	<polygon class="st19" ng-class="{'pulsate': $ctrl.company.comproom == '209'}" points="211.2,136 232.1,126.5 262.5,142.2 240.5,152.3 	"/>
	<polygon class="st19" points="171.9,193.3 144.1,206.1 128.1,196.9 156,184.4 	"/>
	<path class="st20" d="M144.1,206.9l-17.6-10.1l29.5-13.3l17.5,9.8L144.1,206.9z M129.7,197l14.5,8.3l26.2-12l-14.4-8.1L129.7,197z"
		/>
	<polygon class="st19" points="231.3,111.9 214.6,119 189.7,105.9 206.4,99.1 	"/>
	<path class="st20" d="M214.6,119.8l-26.7-13.9l18.5-7.5L233,112L214.6,119.8z M191.4,106l23.3,12.1l14.9-6.3l-23.2-11.9L191.4,106z
		"/>
	<polygon class="st19" ng-class="{'pulsate': $ctrl.company.comproom == '203'}" points="243.1,95.4 218.8,105.5 206.4,99.1 230.8,89.2 	"/>
	<path class="st20" d="M218.8,106.3l-14.1-7.2l26.1-10.6l14,7.1L218.8,106.3z M208.2,99.2l10.7,5.5l22.5-9.3L230.8,90L208.2,99.2z"
		/>
	<polygon class="st19" ng-class="{'pulsate': $ctrl.company.comproom == '204'}" points="265.7,106.9 249.4,113.9 226.5,102.2 243,95.4 	"/>
	<path class="st20" d="M249.3,114.7l-24.5-12.5l18.2-7.5l24.4,12.3L249.3,114.7z M228.3,102.3l21.1,10.8l14.6-6.3l-21-10.6
		L228.3,102.3z"/>
	<polygon class="st19" ng-class="{'pulsate': $ctrl.company.comproom == '206'}" points="307.6,128.1 292.8,134.9 256.9,116.6 271.9,110 	"/>
	<path class="st20" d="M292.8,135.7l-37.6-19.2l16.8-7.3l37.4,18.9L292.8,135.7z M258.6,116.6l34.2,17.5l13.2-6l-34.1-17.2
		L258.6,116.6z"/>
	<polygon class="st19" ng-class="{'pulsate': $ctrl.company.comproom == '207'}" points="324.5,116.6 303.7,126.1 271.9,110 293,100.9 	"/>
	<path class="st20" d="M303.7,126.9L270.2,110l22.8-9.9l33.2,16.5L303.7,126.9z M273.6,110.1l30.1,15.2l19.1-8.7l-29.9-14.9
		L273.6,110.1z"/>
	<polygon class="st19" points="345.3,51.9 325.2,60.3 312,54 332.3,45.8 	"/>
	<path class="st20" d="M325.1,61.1L310.2,54l22.1-8.9l14.8,6.9L325.1,61.1z M313.8,54.1l11.4,5.4l18.4-7.6l-11.3-5.3L313.8,54.1z"/>
	<polygon class="st19" points="362.2,59.8 347.8,65.9 330.9,57.9 345.3,51.9 	"/>
	<path class="st20" d="M347.8,66.7l-18.7-8.8l16.2-6.7l18.6,8.7L347.8,66.7z M332.7,57.9l15.2,7.2l12.6-5.3l-15.1-7.1L332.7,57.9z"
		/>
	<polygon class="st19" points="374.5,65.6 365.8,69.4 353.4,63.6 362.2,59.8 	"/>
	<path class="st20" d="M365.7,70.2l-14.1-6.7l10.6-4.5l14.1,6.6L365.7,70.2z M355.2,63.6l10.6,5l7-3l-10.6-5L355.2,63.6z"/>
	<polygon class="st19" ng-class="{'pulsate': $ctrl.company.comproom == '208'}" points="365.8,69.4 353.4,63.6 347.8,65.9 360.2,71.8 354.1,74.5 292.9,101 324.5,116.7 405.1,80 374.5,65.6 
			"/>
	<path class="st20" d="M324.5,117.5l-33.2-16.6l67.2-29.1l-12.4-5.9l7.3-3.1l12.4,5.8l8.7-3.8L406.8,80L324.5,117.5z M294.6,101
		l29.9,14.9l78.9-35.9l-28.9-13.6l-8.7,3.8l-12.4-5.8l-3.8,1.6l12.4,5.9L294.6,101z"/>
	<path class="st19" ng-class="{'pulsate': $ctrl.company.comproom == '210'}" d="M318.2,57L289,68.9l-3.5,1.4l-14.5,5.9c0.9,0.7,1.8,1.3,2.6,1.9c0.5,0.1,0.9,0.2,1.4,0.4
		c7,3.3,14,6.7,21.1,9.7c0.8,0.4,1.5,1,1.9,1.8c0.6,0.2,1.2,0.4,1.8,0.6c0.6,0.2,1.2,0.5,1.6,0.8l14.7-6.3l6.1,3l32.3-14L318.2,57z"
		/>
	<path class="st20" d="M265.8,107.6L232.9,91l85.3-34.8l38,18.1l-34,14.7l-6.1-3L265.8,107.6z M236.4,91.2l29.4,14.9l50.3-21.6
		l6.1,3l30.5-13.2l-34.6-16.5l-28.9,11.8l-0.3-0.7l0.3,0.7L236.4,91.2z"/>
	<path class="st20" d="M224,143.5l-12.2-6.2l20.3-8.8l13.5,7.5l-0.2,0.1c0.9,0.1,1.6,0.4,2.2,0.9l1.9-0.8l-17.4-9.2l-23.7,10.3
		l15.7,8.3C224,144.9,223.9,144.2,224,143.5z"/>
	<polygon class="st19" ng-class="{'pulsate': $ctrl.company.comproom == '202'}" points="225.3,124.1 203.3,133.6 172.1,117.1 194.3,108 	"/>
	<path class="st20" d="M203.2,134.4L170.4,117l24-9.8l32.6,17L203.2,134.4z M173.8,117.2l29.5,15.6l20.4-8.7l-29.3-15.3L173.8,117.2
		z"/>
	<polygon class="st19" points="255.8,133.4 248.6,136.6 231.5,127.7 238.8,124.6 	"/>
	<path class="st20" d="M248.5,137.4l-18.7-9.7l9-3.9l18.7,9.7L248.5,137.4z M233.2,127.8l15.4,8l5.6-2.5l-15.4-8L233.2,127.8z"/>
	<polygon class="st19" points="255.3,124.8 246.6,128.6 238.8,124.6 247.6,120.8 	"/>
	<path class="st20" d="M246.6,129.4l-9.4-4.9l10.4-4.5l9.4,4.8L246.6,129.4z M240.5,124.6l6.1,3.2l7-3.1l-6.1-3.1L240.5,124.6z"/>
	<polygon class="st19" points="264.5,129.5 255.8,133.4 246.6,128.6 255.3,124.8 	"/>
	<path class="st20" d="M255.8,134.2l-10.9-5.7l10.4-4.6l10.9,5.6L255.8,134.2z M248.3,128.6l7.6,3.9l7-3.1l-7.6-3.9L248.3,128.6z"/>
	<polygon class="st19" points="232.2,121.2 224.9,124.3 214.9,119.1 222.3,116 	"/>
	<path class="st20" d="M224.9,125.1l-11.6-6.1l9.1-3.8l11.6,6L224.9,125.1z M216.6,119.2l8.3,4.3l5.6-2.4l-8.3-4.3L216.6,119.2z"/>
	<polygon class="st19" points="241.5,117.2 232.2,121.2 222.3,116 231.6,112.1 	"/>
	<path class="st20" d="M232.2,121.9l-11.6-6l11-4.7l11.6,6L232.2,121.9z M224,116.1l8.3,4.3l7.5-3.2l-8.3-4.3L224,116.1z"/>
	<path class="st20" d="M128,195.8l-0.3-0.2l-64.2-36.8l108.6-44.4l71.1,37.7l-78.7,35.8l-8.4-4.7L128,195.8z M66.8,159l61.3,35.1
		l28.1-12.6l8.4,4.7L240,152L172,116L66.8,159z"/>
	<path class="st20" d="M144.1,205l-17.6-10.1l29.5-13.3l17.5,9.8L144.1,205z M129.7,195.1l14.5,8.3l26.2-12l-14.4-8.1L129.7,195.1z"
		/>
	<path class="st20" d="M214.6,117.8l-26.7-13.9l18.5-7.5l26.5,13.7L214.6,117.8z M191.4,104.1l23.3,12.1l14.9-6.3L206.4,98
		L191.4,104.1z"/>
	<path class="st20" d="M218.8,104.4l-14.1-7.2l26.1-10.6l14,7.1L218.8,104.4z M208.2,97.3l10.7,5.5l22.5-9.3l-10.6-5.4L208.2,97.3z"
		/>
	<polygon class="st21" points="187.9,103.9 187.9,105.9 192.2,108.1 192.4,106.1 	"/>
	<polygon class="st21" points="63.5,160.7 63.5,158.8 144.1,205 144.1,206.9 	"/>
	<polygon class="st21" points="155.9,183.3 170.3,191.3 168.4,192.2 155.9,185.2 	"/>
	<polygon class="st21" points="172,117.9 172,116 240,152 238,152.8 	"/>
	<polygon class="st21" points="194.3,108.8 194.3,106.9 223.2,122.3 223.2,124.2 	"/>
	<polygon class="st21" points="222.2,116.8 222.2,114.7 230.5,119.2 230.7,121.2 228.3,119.9 	"/>
	<polygon class="st21" points="231.5,112.9 231.5,110.9 239.8,115.2 239.8,117.1 	"/>
	<polygon class="st21" points="206.4,99.9 206.4,98 229.9,110.1 229.6,111.9 	"/>
	<polygon class="st21" points="226.6,103.1 226.5,101 249.3,112.8 249.3,114.7 	"/>
	<polygon class="st21" points="230.8,90 230.8,88.1 241.3,93.5 241.3,95.4 	"/>
	<path class="st21" d="M243,96.2v-1.9c0,0,20.9,10.6,21,10.6c0.2,0,0.2,0,0.2,0l-0.2,1.9L243,96.2z"/>
	<polygon class="st21" points="318.2,57.8 318.2,55.9 352.7,72.3 352.7,74.2 	"/>
	<path class="st21" d="M310.2,52.1c0,0,6.6,3.2,6.4,3.1c-0.2-0.1-0.2-0.1-0.2-0.1v1.9l-6.2-3V52.1z"/>
	<polygon class="st21" points="332.3,46.6 332.3,44.7 343.6,50 343.6,51.9 	"/>
	<path class="st21" d="M345.3,52.7v-1.9l15.1,7.1c0,0,0,2.2,0,2.1S345.3,52.7,345.3,52.7z"/>
	<polygon class="st21" points="362.2,58.7 362.2,60.6 372.7,65.6 372.7,63.7 	"/>
	<polygon class="st21" points="374.5,66.4 374.5,64.5 403.4,78 403.4,79.9 	"/>
	<polygon class="st21" points="353.4,64.3 353.4,62.4 365.7,68.3 365.7,70.2 	"/>
	<polygon class="st21" points="330.9,58.8 330.9,56.8 358.5,69.8 358.5,71.8 	"/>
	<polygon class="st21" points="316.1,86 316.1,84.1 322.2,87.1 322.2,89 	"/>
	<polygon class="st21" points="292.9,101.7 292.9,99.8 322.9,114.7 322.9,116.6 	"/>
	<polygon class="st21" points="271.9,110.8 271.9,108.9 306,126.2 306,128.1 	"/>
	<polygon class="st21" points="255.2,116.5 255.2,114.6 292.8,133.8 292.8,135.7 	"/>
	<polygon class="st21" points="247.5,121.6 247.5,119.7 253.6,122.8 253.5,125 	"/>
	<polygon class="st21" points="255.3,125.6 255.3,123.7 263,127.7 262.9,129.5 	"/>
	<polygon class="st21" points="238.8,125.4 238.8,123.5 254.2,131.4 254.2,133.3 	"/>
	<polygon class="st21" points="231.7,128.7 231.7,126.7 248.5,135.5 248.5,137.4 	"/>
	<path class="st20" d="M249.3,112.8l-24.4-12.5l18.1-7.6l24.4,12.3L249.3,112.8z M228.3,100.4l21.1,10.8l14.6-6.3l-21-10.6
		L228.3,100.4z"/>
	<path class="st20" d="M292.8,133.8l-37.6-19.2l16.8-7.3l37.4,18.9L292.8,133.8z M258.6,114.7l34.2,17.5l13.2-6l-34.1-17.2
		L258.6,114.7z"/>
	<path class="st20" d="M303.7,125l-33.5-16.9l22.8-9.9l33.2,16.5L303.7,125z M273.6,108.2l30.1,15.2l19.1-8.7l-29.9-14.9
		L273.6,108.2z"/>
	<path class="st20" d="M325.1,59.2l-14.9-7.1l22.1-8.9l14.8,6.9L325.1,59.2z M313.8,52.2l11.4,5.4l18.4-7.6l-11.3-5.3L313.8,52.2z"
		/>
	<path class="st20" d="M347.8,64.8l-18.7-8.8l16.2-6.7l18.6,8.7L347.8,64.8z M332.7,56l15.2,7.2l12.6-5.3l-15.1-7.1L332.7,56z"/>
	<path class="st20" d="M365.7,68.3l-14.1-6.7l10.6-4.5l14.1,6.6L365.7,68.3z M355.2,61.7l10.6,5l7-3l-10.6-5L355.2,61.7z"/>
	<path class="st20" d="M324.5,115.6L291.2,99l67.3-29.2L346.1,64l7.3-3.1l12.4,5.8l8.7-3.8l32.3,15.2L324.5,115.6z M294.6,99.1
		l29.9,14.9L403.4,78l-28.9-13.6l-8.7,3.8l-12.4-5.8l-3.8,1.6l12.4,5.9L294.6,99.1z"/>
	<path class="st20" d="M226.2,142.8l-14.4-7.5l20.3-8.7l13.8,7.5c1.1-0.2,2.2-0.2,3.3-0.3l-17-8.8l-23.7,10.1l17.1,8.9
		C225.7,143.6,225.9,143.2,226.2,142.8z"/>
	<path class="st20" d="M203.2,132.5l-32.8-17.4l24-9.8l32.6,17L203.2,132.5z M173.8,115.3l29.5,15.6l20.4-8.7l-29.3-15.3
		L173.8,115.3z"/>
	<path class="st20" d="M248.5,135.5l-18.7-9.7l9-3.9l18.7,9.7L248.5,135.5z M233.2,125.9l15.4,8l5.6-2.5l-15.4-8L233.2,125.9z"/>
	<path class="st20" d="M246.6,127.5l-9.4-4.9l10.4-4.5l9.4,4.8L246.6,127.5z M240.5,122.7l6.1,3.2l7-3.1l-6.1-3.1L240.5,122.7z"/>
	<path class="st20" d="M255.8,132.3l-10.9-5.7l10.4-4.6l10.9,5.6L255.8,132.3z M248.3,126.7l7.6,3.9l7-3.1l-7.6-3.9L248.3,126.7z"/>
	<path class="st20" d="M224.9,123.2l-11.6-6.1l9.1-3.8l11.6,6L224.9,123.2z M216.6,117.2l8.3,4.3l5.6-2.4l-8.3-4.3L216.6,117.2z"/>
	<path class="st20" d="M232.2,120l-11.6-6l11-4.7l11.6,6L232.2,120z M224,114.1l8.3,4.3l7.5-3.2l-8.3-4.3L224,114.1z"/>
	<path class="st30" d="M272.3,150.5"/>
	<polygon class="st22" points="144.1,205 144.1,206.9 173.5,193.3 173.5,191.4 	"/>
	<polygon class="st22" points="131.6,196.1 129.7,195.1 155.9,183.3 155.9,185.2 	"/>
	<polygon class="st22" points="172,116 172.1,118.2 68.7,160.1 66.8,159 	"/>
	<path class="st22" d="M194.3,108.8c0,0,0.1-1.3,0.1-1.6c-0.1-0.3-0.1-0.3-0.1-0.3l-20.5,8.4l2.1,1L194.3,108.8z"/>
	<polygon class="st22" points="191.4,104.1 206.4,98 206.4,99.9 193.2,105.3 	"/>
	<polygon class="st22" points="230.8,88.1 230.8,90 210.3,98.4 208.2,97.3 	"/>
	<polygon class="st22" points="316,53.2 332.3,46.6 332.3,44.7 313.8,52.2 	"/>
	<polygon class="st22" points="332.7,56 345.3,50.8 345.3,52.7 334.8,57.1 	"/>
	<polygon class="st22" points="330.9,56.8 330.9,58.8 329,59.4 326.9,58.4 	"/>
	<polygon class="st22" points="357.3,62.7 355.2,61.7 362.2,58.7 362.2,60.6 	"/>
	<polygon class="st22" points="353.4,62.4 353.4,64.3 351.7,65 349.6,64 	"/>
	<polygon class="st22" points="365.7,68.3 374.5,64.5 374.5,66.4 365.7,70.2 	"/>
	<polygon class="st22" points="362,69.9 362,71.8 296.7,100.1 294.6,99.1 	"/>
	<polygon class="st22" points="292.9,101.7 292.9,99.8 273.6,108.2 275.7,109.2 	"/>
	<polygon class="st22" points="271.9,110.8 271.9,108.9 258.6,114.7 260.6,115.7 	"/>
	<polygon class="st22" points="240.5,122.7 247.5,119.7 247.5,121.6 242.5,123.8 	"/>
	<polygon class="st22" points="237.8,125.8 235.6,126.7 233.6,125.7 238.8,123.5 238.8,125.4 	"/>
	<polygon class="st22" points="231.7,126.7 231.7,128.7 213.8,136.4 211.8,135.4 	"/>
	<polygon class="st22" points="204.9,131.8 243.2,115.3 243.2,117.2 206.9,132.8 	"/>
	<polygon class="st22" points="231.5,112.9 226,115.2 224,114.1 231.5,110.9 	"/>
	<polygon class="st22" points="222.2,116.8 222.2,114.9 217,117.1 219,118.1 	"/>
	<polygon class="st22" points="226.6,101.1 226.6,103 222.6,104.7 220.5,103.6 	"/>
	<polygon class="st22" points="228.3,100.4 243,94.3 243,96.2 230.3,101.4 	"/>
	<polygon class="st22" points="406.8,80 406.8,78.1 305.4,124.2 307.4,125.2 	"/>
	<polygon class="st22" points="309.3,128.1 309.3,126.2 292.8,133.8 292.8,135.7 	"/>
	<polygon class="st22" points="255.3,125.6 255.3,123.7 248.3,126.7 250.3,127.8 	"/>
	<path class="st22" d="M246.7,136.2c0.6,0.4,1,0.9,1.4,1.5l18.1-8v-1.9L246.7,136.2z"/>
	<polygon class="st22" points="248.5,137.4 248.5,135.5 249,135.3 249,137.2 	"/>
	<polygon class="st22" points="243.3,154 243.3,152.1 166,187.2 167.8,188.3 	"/>
	<g>
		<polygon class="st18" points="244.6,119.4 246.4,120.2 246.4,122.1 243.3,123.5 243.4,121.5 241.7,120.6 		"/>
		<polygon class="st21" points="244.6,119.4 244.6,121.2 246.4,122.1 246.4,120.2 		"/>
	</g>
	<g>
		<polygon class="st18" points="290,99.5 291.8,100.3 291.8,102.2 288.7,103.6 288.9,101.6 287.1,100.7 		"/>
		<polygon class="st21" points="290,99.5 290,101.4 291.8,102.2 291.8,100.3 		"/>
	</g>
	<g>
		<polygon class="st18" points="318.6,87.1 320.4,87.9 320.4,89.8 317.3,91.2 317.5,89.2 315.7,88.4 		"/>
		<polygon class="st21" points="318.6,87.1 318.6,89 320.4,89.8 320.4,87.9 		"/>
	</g>
	<g>
		<polygon class="st19" points="351.5,61.7 353.2,62.5 353.2,64.4 351.7,65.1 350.4,64.4 350.4,63.7 348.7,62.9 		"/>
		<polygon class="st21" points="351.5,61.7 351.5,63.5 353.2,64.4 353.2,62.5 		"/>
	</g>
	<g>
		<polygon class="st19" points="328.5,56.2 330.3,57 330.3,59 329.1,59.5 327.3,58.6 327.3,58.3 325.6,57.4 		"/>
		<polygon class="st21" points="328.5,56.2 328.6,58.1 330.3,59 330.3,57 		"/>
	</g>
	<g>
		<polygon class="st18" points="357.8,70.1 359.6,70.9 359.6,72.8 356.6,74.1 356.6,72.2 354.9,71.3 		"/>
		<polygon class="st21" points="357.8,70.1 357.9,72 359.6,72.8 359.6,70.9 		"/>
	</g>
	<g>
		<polygon class="st19" points="224,100.6 225.8,101.4 225.8,103.3 222.8,104.6 223,102.8 221.1,101.9 		"/>
		<polygon class="st21" points="224,100.6 224,102.5 225.8,103.3 225.8,101.4 		"/>
	</g>
	<g>
		<polygon class="st19" points="211.2,127.5 213,128.3 213,130.2 209.9,131.6 210,129.6 208.3,128.7 		"/>
		<polygon class="st21" points="211.2,127.5 211.2,129.3 213,130.2 213,128.3 		"/>
	</g>
	<g>
		<polygon class="st19" points="151.7,183.6 153.4,184.4 153.5,186.3 150.4,187.7 150.5,185.7 148.8,184.8 		"/>
		<polygon class="st21" points="151.7,183.6 151.7,185.5 153.5,186.3 153.4,184.4 		"/>
	</g>
	<g>
		<polygon class="st19" points="229,119.8 230.8,120.6 230.8,122.6 227.7,123.9 227.8,121.9 226.1,121 		"/>
		<polygon class="st21" points="229,119.8 229,121.7 230.8,122.6 230.8,120.6 		"/>
	</g>
	<g>
		<polygon class="st18" points="217.3,131.4 219.1,132.2 219.1,134.1 216,135.5 216.2,133.5 214.4,132.7 		"/>
		<polygon class="st21" points="217.3,131.4 217.3,133.3 219.1,134.1 219.1,132.2 		"/>
	</g>
	<g>
		<polygon class="st18" points="206,132.3 204.3,133.1 204.3,135 207,136.4 207,134.5 208.6,133.7 		"/>
		<polygon class="st21" points="206,132.3 206,134.2 204.3,135 204.3,133.1 		"/>
	</g>
	<g>
		<polygon class="st18" points="258.8,123.8 257.1,124.6 257.1,126.5 259.7,127.9 259.8,126 261.4,125.2 		"/>
		<polygon class="st21" points="258.8,123.8 258.8,125.7 257.1,126.5 257.1,124.6 		"/>
	</g>
	<g>
		<polygon class="st19" points="268.5,119.8 266.8,120.5 266.8,122.4 269.4,123.8 269.5,121.9 271.2,121.1 		"/>
		<polygon class="st21" points="268.5,119.8 268.5,121.6 266.8,122.4 266.8,120.5 		"/>
	</g>
	<g>
		<polygon class="st19" points="362.9,65.3 361.2,66.1 361.2,68.1 363.8,69.3 363.9,67.4 365.6,66.6 		"/>
		<polygon class="st21" points="362.9,65.3 362.9,67.3 361.2,68.1 361.2,66.1 		"/>
	</g>
	<g>
		<polygon class="st18" points="234.2,110.7 232.6,111.5 232.5,113.4 235.2,114.7 235.3,112.9 236.9,112.1 		"/>
		<polygon class="st21" points="234.2,110.7 234.2,112.6 232.5,113.4 232.6,111.5 		"/>
	</g>
	<g>
		<polygon class="st18" points="222.3,104.6 220.6,105.3 220.6,107.2 223.2,108.6 223.3,106.8 225,105.9 		"/>
		<polygon class="st21" points="222.3,104.6 222.3,106.4 220.6,107.2 220.6,105.3 		"/>
	</g>
	<g>
		<polygon class="st19" points="229.7,101.1 228,101.9 228,103.8 230.7,105.1 230.8,103.3 232.4,102.5 		"/>
		<polygon class="st21" points="229.7,101.1 229.7,102.9 228,103.8 228,101.9 		"/>
	</g>
	<polygon class="st18" points="236.4,123 238.1,123.7 238.1,125.7 235.6,126.8 235,126.5 235.2,125.1 233.5,124.2 	"/>
	<polygon class="st21" points="236.4,123 236.4,124.8 238.1,125.6 238.1,123.7 	"/>
	<polygon class="st21" points="229,120.3 229,119.6 228.3,119.9 	"/>
	<polygon class="st22" points="207.1,132.7 206,133.2 206,132.3 	"/>
	<polygon class="st21" points="356.3,70.7 357.9,71.5 357.8,69.9 	"/>
	<polygon class="st22" points="229.7,101 229.7,101.7 230.6,101.3 	"/>
	<polygon class="st22" points="222.3,104.4 222.3,104.8 222.7,104.7 	"/>
	<polygon class="st19" ng-class="{'pulsate': $ctrl.company.comproom == '205'}" points="237.1,89.8 270.2,76.4 298.6,90.8 265.7,105.3 	"/>
	<polygon class="st22" points="236.4,89.3 318.2,55.9 318.2,57.8 238.5,90.3 	"/>
	<path class="st20" d="M301.3,88.9l-0.7,0.3l-28.7-14.5l1.5-0.6c-0.7-0.2-1.5-0.3-2.2-0.5c0,0-0.1,0-0.1,0l-2.6,1l32.1,16.2l0.9-0.4
		C301.4,89.9,301.3,89.4,301.3,88.9z"/>
	<polygon class="st21" points="270.4,77.3 270.4,75.5 299,89.9 299,91.8 	"/>
	<path class="st20" d="M265.8,105.7l-32.8-16.6l85.3-34.8l38,18.1l-34,14.7l-6.1-3L265.8,105.7z M236.4,89.3l29.4,14.9l50.3-21.6
		l6.1,3l30.5-13.2l-34.6-16.5l-28.9,11.8L289,67l0.3,0.7L236.4,89.3z"/>
	<polygon class="st22" points="249.3,114.7 249.3,112.8 316.1,84.1 316.1,86 	"/>
	<g>
		<polygon class="st19" points="291,93.3 292.8,94.1 292.8,96 289.7,97.4 289.8,95.4 288.1,94.6 		"/>
		<polygon class="st21" points="291,93.3 291,95.2 292.8,96 292.8,94.1 		"/>
	</g>
	<g>
		<polygon class="st19" points="309.9,85.2 311.7,86 311.7,87.8 308.6,89.2 308.8,87.3 307.1,86.4 		"/>
		<polygon class="st21" points="309.9,85.2 309.9,87 311.7,87.8 311.7,86 		"/>
	</g>
	<path class="st21" d="M234.9,128.3c-0.3,0.5-0.6,1-1,1.4l25.9,13.7l1.9-0.9L234.9,128.3z"/>
	<path class="st20" d="M251,135.1c-0.1,0.5-0.3,0.9-0.6,1.3l11.5,6l-20.4,8.7l-19-10.1c-0.9,0.1-1.7,0.2-2.6,0.2l21.5,11.4
		l23.8-10.2L251,135.1z"/>
	<polygon class="st22" points="265.4,144.5 265.2,142.6 243,152.1 243.1,154 	"/>
</g>
</svg>
