<?xml version="1.0" encoding="utf-8"?>
<!-- Generator: Adobe Illustrator 21.1.0, SVG Export Plug-In . SVG Version: 6.00 Build 0)  -->
<!DOCTYPE svg PUBLIC "-//W3C//DTD SVG 1.1//EN" "http://www.w3.org/Graphics/SVG/1.1/DTD/svg11.dtd">
<svg version="1.1" id="Layer_1" xmlns="http://www.w3.org/2000/svg" xmlns:xlink="http://www.w3.org/1999/xlink" x="0px" y="0px"
	 viewBox="0 0 472.7 347.9" style="enable-background:new 0 0 472.7 347.9;" xml:space="preserve">
<style type="text/css">
	.st0{opacity:0.69;}
	.st1{enable-background:new    ;}
	.st2{clip-path:url(#SVGID_2_);enable-background:new    ;}
	.st3{fill:#7B8487;}
	.st4{clip-path:url(#SVGID_4_);enable-background:new    ;}
	.st5{fill:#838D90;}
	.st6{fill:#808A8D;}
	.st7{clip-path:url(#SVGID_6_);enable-background:new    ;}
	.st8{fill:#7D878A;}
	.st9{fill:#788184;}
	.st10{clip-path:url(#SVGID_8_);enable-background:new    ;}
	.st11{clip-path:url(#SVGID_10_);enable-background:new    ;}
	.st12{fill:#AFBBBE;}
	.st13{fill:#B7B8AC;}
	.st14{fill:#D4D4D4;}
	.st15{display:none;}
	.st16{display:inline;fill:none;stroke:#58595B;stroke-miterlimit:10;}
	.st17{fill:#BCBCBC;}
	.st18{fill:#9D9D9E;}
	.st19{fill:#B9C1C3;}
	.st20{clip-path:url(#SVGID_12_);enable-background:new    ;}
	.st21{clip-path:url(#SVGID_14_);enable-background:new    ;}
	.st22{clip-path:url(#SVGID_16_);enable-background:new    ;}
	.st23{clip-path:url(#SVGID_18_);enable-background:new    ;}
	.st24{clip-path:url(#SVGID_20_);enable-background:new    ;}
</style>
<g id="Layer_1_1_">
	<g class="st0">
		
			<image style="overflow:visible;enable-background:new    ;" width="2067" height="1075" xlink:href="65CA076B106C395B.png"  transform="matrix(0.2393 0 0 0.2393 1.5403 119.992)">
		</image>
	</g>
	<g>
		<g>
			<g class="st1">
				<g class="st1">
					<g>
						<defs>
							<path id="SVGID_1_" d="M36.8,191.9v-0.8c0,2.8,1.3,5.5,3.6,7.2v0.8C38.1,197.4,36.8,194.7,36.8,191.9z"/>
						</defs>
						<clipPath id="SVGID_2_">
							<use xlink:href="#SVGID_1_"  style="overflow:visible;"/>
						</clipPath>
						<g class="st2">
							<path class="st3" d="M40.4,198.2v0.8c-2.3-1.7-3.6-4.4-3.6-7.2V191C36.8,193.8,38.1,196.5,40.4,198.2"/>
						</g>
					</g>
				</g>
				<g class="st1">
					<g>
						<defs>
							<path id="SVGID_3_" d="M459.4,203.4v0.8c0,0.5,0,1-0.1,1.4v-0.8C459.3,204.3,459.4,203.8,459.4,203.4z"/>
						</defs>
						<clipPath id="SVGID_4_">
							<use xlink:href="#SVGID_3_"  style="overflow:visible;"/>
						</clipPath>
						<g class="st4">
							<path class="st5" d="M459.4,203.4v0.8c0,0.4,0,0.9-0.1,1.3v-0.8C459.3,204.2,459.4,203.8,459.4,203.4"/>
							<path class="st6" d="M459.3,204.6v0.8v0.1v-0.8C459.2,204.7,459.3,204.7,459.3,204.6"/>
						</g>
					</g>
				</g>
				<g>
					<polygon class="st6" points="459.2,204.8 459.2,205.6 458.8,208.3 458.8,207.5 					"/>
				</g>
				<g class="st1">
					<g>
						<defs>
							<path id="SVGID_5_" d="M458.8,207.5v0.8c-0.2,1-0.5,1.9-0.9,2.8c-0.9,1.7-2.3,3.1-4.1,3.9v-0.8c1.8-0.9,3.2-2.2,4.1-3.9
								C458.3,209.4,458.6,208.5,458.8,207.5z"/>
						</defs>
						<clipPath id="SVGID_6_">
							<use xlink:href="#SVGID_5_"  style="overflow:visible;"/>
						</clipPath>
						<g class="st7">
							<path class="st6" d="M458.8,207.5v0.8c-0.1,0.5-0.2,0.9-0.3,1.3v-0.8C458.6,208.4,458.7,207.9,458.8,207.5"/>
							<path class="st8" d="M458.5,208.8v0.8c-0.2,0.5-0.4,1-0.6,1.4c-0.1,0.1-0.1,0.2-0.2,0.3v-0.8c0.1-0.1,0.1-0.2,0.2-0.3
								C458.1,209.8,458.3,209.3,458.5,208.8"/>
							<path class="st3" d="M457.7,210.6v0.8c-0.9,1.5-2.2,2.8-3.9,3.6v-0.8C455.4,213.4,456.8,212.1,457.7,210.6"/>
						</g>
					</g>
				</g>
				<g>
					<polygon class="st9" points="150.2,280.4 150.2,281.2 40.4,199.1 40.4,198.2 					"/>
				</g>
				<g>
					<polygon class="st9" points="210.2,325.3 210.2,326.1 150.2,281.2 150.2,280.4 					"/>
				</g>
				<g>
					<polygon class="st9" points="453.8,214.2 453.8,215 219.5,327 219.5,326.2 					"/>
				</g>
				<g class="st1">
					<g>
						<defs>
							<path id="SVGID_7_" d="M219.5,326.2v0.8c-1.1,0.5-2.2,0.8-3.4,0.9V327C217.2,327,218.4,326.7,219.5,326.2z"/>
						</defs>
						<clipPath id="SVGID_8_">
							<use xlink:href="#SVGID_7_"  style="overflow:visible;"/>
						</clipPath>
						<g class="st10">
							<path class="st3" d="M219.5,326.2v0.8c-1.1,0.5-2.2,0.8-3.4,0.9V327C217.2,327,218.4,326.7,219.5,326.2"/>
						</g>
					</g>
				</g>
				<g class="st1">
					<g>
						<defs>
							<path id="SVGID_9_" d="M216.1,327v0.8c-2.4,0-4.3-0.6-5.9-1.8v-0.8C211.8,326.4,213.7,327.1,216.1,327z"/>
						</defs>
						<clipPath id="SVGID_10_">
							<use xlink:href="#SVGID_9_"  style="overflow:visible;"/>
						</clipPath>
						<g class="st11">
							<path class="st3" d="M216.1,327v0.8c-2.4,0-4.3-0.6-5.9-1.8v-0.8C211.8,326.4,213.7,327.1,216.1,327"/>
						</g>
					</g>
				</g>
				<g>
					<path class="st12" d="M117.6,143.1c1.8,0,3.7,0.6,5.2,1.7l82.2,58.9l27.3,19.6l76.9-37.7l70.1-34.5c1.3-0.6,2.6-0.9,4-0.9
						c1.7,0,3.5,0.5,4.9,1.5l39.5,26l27.3,18c3.4,2.5,4.8,5.8,4.2,9.1l-0.5,2.7c-0.2,1-0.5,1.9-0.9,2.8c-0.9,1.7-2.3,3.1-4.1,3.9
						l-234.3,112c-1.1,0.5-2.2,0.8-3.4,0.9c-2.4,0-4.3-0.6-5.9-1.8l-60-44.9L40.4,198.2c-2.5-1.9-3.8-4.9-3.6-8
						c0-0.4,0.1-0.8,0.2-1.1l0.5-2.5c0.6-2.7,2.3-4.9,4.7-6.2l71.2-36.4C114.8,143.4,116.2,143.1,117.6,143.1z"/>
				</g>
			</g>
		</g>
	</g>
	<polygon class="st13" points="215.5,316.4 45.4,189.3 116.7,152.8 293.2,279.2 	"/>
	<polygon class="st14" points="116.7,152.8 230.6,234.6 155.2,271.6 45.4,189.3 	"/>
	<g class="st15">
		<polygon class="st16" points="404.1,94.5 432.6,78.4 446.8,86.5 418.3,102.7 		"/>
		<polygon class="st16" points="361.6,70 390.1,53.8 432.6,78.4 404.1,94.5 		"/>
		<polygon class="st16" points="312,41.4 340.5,25.2 390.1,53.8 361.6,70 		"/>
		<polygon class="st16" points="290.7,70 319,53.7 354.5,74.1 326.2,90.5 		"/>
		<polygon class="st16" points="361.6,110.9 389.9,94.5 425.2,115.1 397,131.4 		"/>
		<polygon class="st16" points="333.2,127.3 361.6,110.9 397,131.4 368.5,147.9 		"/>
		<polygon class="st16" points="283.6,98.6 312,82.3 354.5,106.8 326.2,123.2 		"/>
		<polygon class="st16" points="258.3,113.2 283.6,98.6 326.2,123.2 301,137.7 		"/>
		<polygon class="st16" points="234,127.3 258.3,113.2 301,137.7 276.6,151.8 		"/>
		<polygon class="st16" points="141.9,180.5 184.4,155.9 227,180.5 184.5,205 		"/>
		<polygon class="st16" points="308.3,141.7 333.2,127.3 368.5,147.9 343.7,162.1 		"/>
		<polygon class="st16" points="276.6,160 308.3,141.7 343.7,162.1 312,180.4 		"/>
		<polygon class="st16" points="259.1,170 276.6,160 312,180.4 294.6,190.5 		"/>
		<polygon class="st16" points="234,184.6 259.1,170 294.6,190.5 269.4,205.1 		"/>
		<polygon class="st16" points="108.7,261.1 136.7,244.9 146.1,250.3 118.1,266.5 		"/>
		<polygon class="st16" points="159.4,290.8 187.8,274.4 197.3,279.9 168.9,296.2 		"/>
		<polygon class="st16" points="118.1,266.5 146.1,250.3 187.8,274.4 159.4,290.8 		"/>
		<polygon class="st16" points="84.8,246.8 112.9,230.4 127.1,238.7 98.8,255 		"/>
		<polygon class="st16" points="70.2,238.5 98.7,222.2 112.9,230.4 84.8,246.8 		"/>
		<polygon class="st16" points="42,222.2 70.4,205.8 98.7,222.2 70.2,238.5 		"/>
		<polygon class="st16" points="64.3,274.7 92.8,258.5 177.9,307.3 149.3,323.9 		"/>
		<polygon class="st16" points="50.3,266.7 78.7,250.3 92.6,258.4 64.3,274.7 		"/>
		<polygon class="st16" points="21.5,250.3 50.1,233.8 64.3,242 36.1,258.5 		"/>
		<polygon class="st16" points="219.9,192.7 234,184.6 269.5,205 255.3,213.2 		"/>
		<polygon class="st16" points="163.3,225.6 191.6,209.3 215.4,223 187,239.3 		"/>
		<polygon class="st16" points="255.3,213.2 219.9,192.7 191.6,209.3 215.4,223 187,239.3 198.7,246.1 		"/>
		<polygon class="st16" points="375.8,94.5 382.8,90.5 354.5,74.1 333.2,86.4 347.4,94.5 361.6,86.4 		"/>
		<line class="st16" x1="417.8" y1="103" x2="411.5" y2="106.7"/>
		<line class="st16" x1="105.7" y1="226" x2="127.9" y2="213.4"/>
		<line class="st16" x1="155" y1="255.1" x2="184" y2="238.2"/>
		<path class="st16" d="M184.6,237.9"/>
		<path class="st16" d="M175.3,243.3"/>
		<line class="st16" x1="50.3" y1="233.7" x2="56.2" y2="230.3"/>
		<line class="st16" x1="164.1" y1="298.8" x2="169" y2="296.1"/>
	</g>
	<polygon class="st13" points="215.2,316.5 449.5,204.4 382.5,160.1 155.2,271.6 	"/>
	<polygon class="st14" points="256.9,281.5 289,267 300.2,275.1 269.4,290.6 	"/>
	<polygon class="st14" points="157.6,270.4 192.7,253.2 204.7,262 169.4,279.3 	"/>
	<path class="st14" d="M223,238.3l-2.2,16.9l-3.4,1c-0.5,0.2-1.1,0.4-1.6,0.6l-3.5,1.5l-12.1-8.8L223,238.3z"/>
	<polygon class="st14" points="236,243 222.2,242.5 223,238.3 230.6,234.6 236.8,239 	"/>
	<polygon class="st14" points="255.2,252.2 239.8,259.8 236.4,256.8 232.6,255.8 236.8,239 	"/>
	<polygon class="st14" points="267.7,261.2 267.7,261.2 280.2,270.3 280.2,270.3 	"/>
	<polygon class="st14" points="382.5,160.1 422.3,186.3 302.9,244.3 283.3,253.7 270.7,244.8 255.2,252.3 230.6,234.6 	"/>
	<polygon class="st17" points="200,286.4 200.5,283.8 185.5,291.1 185,293.8 	"/>
	<polygon class="st17" points="270.7,244.8 271.1,242.4 255.5,249.7 240.3,257.1 239.8,259.8 	"/>
	<polygon class="st18" points="233.7,292.6 234.2,290 246.6,299 246.1,301.8 	"/>
	<polygon class="st18" points="382.4,160.1 382.9,157.5 450,201.6 449.5,204.3 	"/>
	<polygon class="st18" points="200.3,249.5 200.7,246.9 212.8,255.7 212.3,258.3 	"/>
	<polygon class="st18" points="192.8,253.2 193.3,250.6 205.3,259.4 204.8,262 	"/>
	<polygon class="st17" points="422.3,186.3 422.8,183.7 268.2,258.6 267.7,261.2 	"/>
	<polygon class="st17" points="222.4,242.5 222.9,239.9 236.2,240.3 235.6,243 	"/>
	<polygon class="st18" points="116.7,152.8 117.2,150.3 255.5,249.5 253.2,250.8 	"/>
	<polygon class="st17" points="382.4,160.1 382.9,157.5 231.1,232.1 232.9,233.4 	"/>
	<polygon class="st17" points="230.6,234.6 231.1,232.1 200.7,246.9 202.7,248.3 	"/>
	<polygon class="st17" points="200.3,249.5 200.8,246.9 193.3,250.7 195.2,252 	"/>
	<polygon class="st18" points="267.7,261.2 268.2,258.6 280.7,267.5 280.2,270.2 	"/>
	<polygon class="st18" points="270.7,244.8 271.1,242.4 283.7,251 281.2,252.3 	"/>
	<polygon class="st18" points="275.5,257.4 275.9,254.8 300.9,273 298.7,274.1 	"/>
	<polygon class="st17" points="289,267 289.6,264.1 257.4,278.8 256.9,281.5 	"/>
	<polygon class="st18" points="256.9,281.5 257.4,278.8 269.9,287.9 269.4,290.6 	"/>
	<polygon class="st17" points="449.5,204.3 450,201.5 246.6,298.9 246.1,301.8 	"/>
	<polygon class="st17" points="204.9,261.9 205.4,259.3 167.7,277.7 167.2,280.3 	"/>
	<polygon class="st17" points="116.7,152.8 117.2,150.3 46,186.8 45.4,189.3 	"/>
	<polygon class="st18" points="45.5,189.2 46,186.8 185.5,291.1 185,293.7 	"/>
	<path class="st14" d="M237.6,263.7l-0.4-0.3c-6.5-4.7-15.5-5.2-23.6-1.3l-1.1,0.5c-6.6,3.2-8.3,12.1-3,15.9l0.6,0.4
		c6.7,4.9,15.9,5.5,24.4,1.4l0,0l0,0C241.4,277,243.1,267.7,237.6,263.7z"/>
	<path class="st18" d="M208.5,265.6c-1.3,2.3-0.4,0.4-1.3,2.7c-1.5,3.7-0.9,7.9,2.3,10.3l0.6,0.4c2.9,2.1,5.7,3.4,9.3,3.8
		c0.1-0.6,0.5-2,0.7-2.6c-1.9-0.6-10.3-2.8-11.7-7C207,268.9,208.5,265.6,208.5,265.6z"/>
	<path class="st18" d="M241.2,269.5c-0.2-2.3,0.1-5.1-2-6.6l-1.6-1.6c-6.5-4.7-14.4-6-22.4-2l-2.6,1.2c-2.4,1.2-5.1,4.9-5.6,7.2
		c-0.3,1.3-0.1,1.1-0.2,2.2c0,1.4,1,4,3.4,5.8c0,0,4,3,9.5,4c4.4,0.9,9.9,0.1,13.6-1.7c0,0,5.5-2.5,6.2-5.6
		C239.9,271.4,241,270.8,241.2,269.5z M222.1,280c-13.7-0.9-14.8-8.7-14.4-10.3c0.7-2.7,2.6-5.2,5.5-6.6l1-0.5
		c7.6-3.7,16.1-3.3,22.2,1.2l0.4,0.3c2.5,1.8,3.5,4.9,3,7.8C239.5,273.5,234.6,280.8,222.1,280z"/>
	<path class="st19" d="M238,261l-0.4-0.3c-6.5-4.7-15.5-5.2-23.6-1.2l-1,0.5c-6.6,3.2-8.3,12-3,15.9l0.6,0.4
		c6.7,4.9,15.9,5.4,24.3,1.4l0,0C241.9,274.3,243.6,265.1,238,261z M234.3,277.2L234.3,277.2c-7.9,3.8-16.7,3.3-23-1.3l-0.5-0.4
		c-5-3.7-3.4-12,2.8-15l1-0.5c7.6-3.7,16.1-3.3,22.2,1.2l0.4,0.3C242.5,265.3,240.9,274,234.3,277.2z"/>
	<g>
		<path class="st17" d="M239.6,278.1L239.6,278.1L239.6,278.1L239.6,278.1z"/>
		<path class="st17" d="M230.7,287.4c-7.7,2.8-15.8,1.9-21.7-2.5l-0.6-0.4c-0.5-0.4-1-0.8-1.4-1.3c0,0,0-0.1-0.1-0.1
			c-0.2,1.1-0.3,1.3-0.5,2.7c0.4,0.5,0.9,1,1.4,1.4l0.6,0.4c6,4.4,14,5.3,21.7,2.6C230.4,289.2,230.5,288.1,230.7,287.4z"/>
	</g>
	<g>
		<g>
			<path d="M239.6,277.5C239.6,277.5,239.6,277.6,239.6,277.5C239.6,277.6,239.6,277.6,239.6,277.5L239.6,277.5L239.6,277.5z"/>
		</g>
	</g>
	<path class="st17" d="M220.8,255.2l0.5-2.6l-1.5,0.3c-2.2,0.5-4.3,1.3-6.3,2.4l-0.6,0.3l-0.5,2.7l0.4-0.2
		C215.3,256.9,218,255.9,220.8,255.2L220.8,255.2z"/>
	<path class="st17" d="M232.6,255.8l0.5-2.6l1.3,0.5c2,0.7,3.8,1.7,5.4,3l0.5,0.4l-0.5,2.7l-0.3-0.2
		C237.4,258,235,256.8,232.6,255.8L232.6,255.8z"/>
	<polygon class="st17" points="222.9,238.4 223.4,235.8 221.2,252.6 220.7,255.3 	"/>
	<polygon class="st17" points="236.7,239 237.2,236.4 233.1,253.2 232.6,255.9 	"/>
	<path class="st19" d="M117,151.5L229.2,232l-72.8,35.8L47.7,187L117,151.5 M117.2,150.4L45.9,187L156,269l75-36.9L117.2,150.4
		L117.2,150.4z"/>
	<path class="st19" d="M192.4,251.1l11,8.2L168,276.5l-10.8-8.1L192.4,251.1 M192.6,249.9l-37.3,18.4l12.5,9.3l37.5-18.3
		L192.6,249.9L192.6,249.9z"/>
	<polygon class="st19" points="185.5,291.2 185.3,291 167.3,277.5 168,276.7 185.7,290 199.7,283.2 200.6,283.8 	"/>
	<polygon class="st19" points="246.6,299.1 246.8,299 270.3,287.6 270,286.7 246.8,297.9 235.3,289.5 234.1,290 	"/>
	<path class="st19" d="M422.6,184.9l25.3,16.7l-146.8,70.3l-23.2-17L422.6,184.9 M422.8,183.7l-146.9,71.1l24.9,18.3L450,201.6
		L422.8,183.7L422.8,183.7z"/>
	<path class="st19" d="M382.7,158.5l65.2,43l-146.8,70.3l-11.2-8.2l-0.5-0.3l-0.6,0.3l-7.1,3.5l-11.6-8.4l6.2-3l1.7-0.8l7.5-3.6
		l-14.1-10l-8.3,3.9l-7.2,3.4l-22.7-16.4L382.7,158.5 M382.9,157.4l-151.7,74.8l24.5,17.6l15.5-7.3l12.2,8.6l-15.1,7.6l13.4,9.6
		l7.7-3.7l11.6,8.5l149-71.5L382.9,157.4L382.9,157.4z"/>
	<path class="st19" d="M289.3,264.7l10.4,7.8l-29.6,14.2l-10.8-7.8L289.3,264.7 M289.5,263.5l-32.2,15.2l12.5,9.1l31.8-15.2
		L289.5,263.5L289.5,263.5z"/>
	<path class="st19" d="M222.3,236.5l-1.9,15.4l-2.8,0.7l0,0l0,0c-0.6,0.2-1.3,0.4-1.9,0.7l0,0l0,0l-2.5,1.2l-10.9-7.9L222.3,236.5
		 M223.5,234.8l-23.3,11.8l12.6,9.1l3.1-1.5c0.5-0.2,1.2-0.5,1.8-0.6l3.6-0.9L223.5,234.8L223.5,234.8z"/>
	<path class="st19" d="M230.9,233.2l5.3,3.8l-0.5,2.4l-11.9-0.4l0.5-2.6L230.9,233.2 M231.1,232.1l-7.7,3.7l-0.8,4.2l13.8,0.5
		l0.7-4.1l-5.9-4.3L231.1,232.1z"/>
	<path class="st19" d="M237.8,238.1l15.9,11.4l-13.2,6.5l-3.3-2l0,0l0,0l-2.9-1.3L237.8,238.1 M237.2,236.4l-4.2,16.8l3.5,1.6
		l3.9,2.5l15.4-7.5L237.2,236.4L237.2,236.4z"/>
	<path class="st19" d="M220.4,288.8c-4.3-0.3-8.4-1.7-11.7-4.2l-0.6-0.4c-0.6-0.4-0.9-0.8-1.2-1.3l0.9-0.4c0.4,0.4,0.6,0.5,1,0.9
		l0.6,0.4c5.8,4.3,13.2,5.4,20.7,2.7l0.7,0.8C227.3,288.6,223.8,289,220.4,288.8z"/>
	<g>
		<polygon class="st14" points="195.1,248.4 196.1,249.3 195.7,251.8 199.2,250.1 198.9,246.9 198.4,246.5 		"/>
		<polygon class="st18" points="198.9,247 199.7,247.5 199.2,250 198.5,249.5 		"/>
		<g>
			<polygon class="st19" points="195.7,251.7 195.5,251.8 196,249.4 196.1,249.3 			"/>
		</g>
	</g>
	<g>
		<g>
			<polygon class="st19" points="227.2,242.6 227,242.7 227.5,240 227.7,240 			"/>
		</g>
		<g>
			<polygon class="st19" points="231,242.8 230.8,242.9 231.3,240.2 231.5,240.2 			"/>
		</g>
		<polygon class="st14" points="230.8,242.9 227.1,242.7 227.9,238.6 231.6,238.8 		"/>
	</g>
	<g>
		<g>
			<polygon class="st19" points="223.4,283 223.3,283.1 223.8,280.3 223.9,280.4 			"/>
		</g>
		<path class="st14" d="M223.3,283c0,0-1.3,0-1.9-0.1c-0.4,0-1.8-0.2-1.8-0.2l0.8-4.1l3.7,0.2L223.3,283z"/>
	</g>
	<g>
		<g>
			<polygon class="st19" points="231.8,281.5 231.6,281.5 232.1,278.8 232.3,278.8 			"/>
		</g>
		<g>
			<polygon class="st19" points="236,279.5 235.9,279.5 236.4,276.8 236.6,276.7 			"/>
		</g>
		<path class="st14" d="M235.9,279.6c0,0-0.9,0.6-2.1,1.1c-0.4,0.2-2,0.7-2,0.7l1.2-6.3l3.7,0.2L235.9,279.6z"/>
	</g>
	<g>
		<polygon class="st14" points="220.3,249.3 221.7,249.3 222,247.5 220.7,247.5 		"/>
		<polygon class="st18" points="221.3,245 222.2,245 221.9,247.5 221,247.5 		"/>
	</g>
	<g>
		<polygon class="st14" points="235.3,250 233.8,249.9 234.3,248.2 235.5,248.2 		"/>
		<polygon class="st18" points="235.9,245.7 235,245.6 234.3,248.2 235.2,248.2 		"/>
	</g>
	<g>
		<polygon class="st14" points="184.6,268.1 185.6,269 185.1,271.7 188.6,270 188.3,266.7 187.8,266.4 		"/>
		<polygon class="st18" points="188.3,266.7 189.1,267.3 188.6,269.8 187.8,269.2 		"/>
		<g>
			<polygon class="st19" points="185.1,271.5 184.9,271.6 185.4,269.1 185.6,269 			"/>
		</g>
	</g>
	<g>
		<polygon class="st14" points="280.3,247 278.8,247.7 278.4,250.3 275,247.9 276.5,245.5 276.8,244.3 		"/>
		<polygon class="st17" points="276.6,244.9 275.5,245.4 275.1,247.9 276.2,247.3 		"/>
	</g>
	<g>
		<polygon class="st14" points="279.1,264.8 277.6,265.5 277.1,268.1 273.8,265.7 275.2,263.2 275.6,262.1 		"/>
		<polygon class="st17" points="275.4,262.6 274.3,263.2 273.8,265.6 274.9,265 		"/>
		<g>
			<polygon class="st19" points="277.1,268.1 277.6,265.5 277.8,265.6 277.3,268.2 			"/>
		</g>
	</g>
	<g>
		<polygon class="st13" points="278.9,253 280,253.8 279.9,254.4 282.3,253.3 282.4,253.2 280.5,251.8 		"/>
		<polygon class="st18" points="280.5,251.8 282.3,253.2 282.6,251.3 281.5,250.4 		"/>
		<polygon class="st14" points="279.9,254.4 279.6,255.9 281,256.9 283.5,255.7 283.2,253.9 282.4,253.3 		"/>
		<polygon class="st18" points="282.5,251.6 283.3,252.2 283.1,253.8 282.3,253.2 		"/>
	</g>
	<polygon class="st18" points="281.9,252.9 282.1,252.9 282.2,253 282.2,253.1 	"/>
	<g>
		<polygon class="st13" points="261,276.8 262.1,277.6 261.9,278.3 264.4,277.2 264.9,274.3 263.6,274.2 		"/>
		<polygon class="st14" points="261.9,278.4 261.7,279.5 263.1,280.6 265.6,279.4 265.2,277.8 264.4,277.2 		"/>
		<polygon class="st18" points="264.7,275.4 265.5,275.9 265.2,277.8 264.4,277.2 		"/>
		<g>
			<polygon class="st19" points="261.7,279.3 261.6,279.4 261.9,277.7 262.1,277.6 			"/>
		</g>
	</g>
	<polygon class="st14" points="422.3,186.2 446.4,202.3 301.1,271.9 279,255.7 	"/>
	<polygon class="st14" points="275.5,257.4 286.1,265 281.7,267.1 271.2,259.5 	"/>
</g>
<g id="Layer_2">
	<g class="st0">
		
			<image style="overflow:visible;enable-background:new    ;" width="2063" height="1075" xlink:href="65CA076B106C3959.png"  transform="matrix(0.2395 0 0 0.2395 -4.8886 4.3935)">
		</image>
	</g>
	<g>
		<g>
			<g class="st1">
				<g class="st1">
					<g>
						<defs>
							<path id="SVGID_11_" d="M30.2,76.4v-0.8c0,2.8,1.3,5.5,3.6,7.2v0.8C31.6,81.9,30.2,79.3,30.2,76.4z"/>
						</defs>
						<clipPath id="SVGID_12_">
							<use xlink:href="#SVGID_11_"  style="overflow:visible;"/>
						</clipPath>
						<g class="st20">
							<path class="st3" d="M33.9,82.8v0.8c-2.3-1.7-3.6-4.4-3.6-7.2v-0.8C30.2,78.4,31.6,81.1,33.9,82.8"/>
						</g>
					</g>
				</g>
				<g class="st1">
					<g>
						<defs>
							<path id="SVGID_13_" d="M452.8,87.9v0.8c0,0.5,0,0.9-0.1,1.4v-0.8C452.8,88.9,452.8,88.4,452.8,87.9z"/>
						</defs>
						<clipPath id="SVGID_14_">
							<use xlink:href="#SVGID_13_"  style="overflow:visible;"/>
						</clipPath>
						<g class="st21">
							<path class="st5" d="M452.8,87.9v0.8c0,0.4,0,0.9-0.1,1.3v-0.8C452.8,88.8,452.8,88.4,452.8,87.9"/>
							<path class="st6" d="M452.7,89.2V90v0.1V89.2C452.7,89.3,452.7,89.3,452.7,89.2"/>
						</g>
					</g>
				</g>
				<g>
					<polygon class="st6" points="452.7,89.4 452.7,90.2 452.2,92.9 452.2,92.1 					"/>
				</g>
				<g class="st1">
					<g>
						<defs>
							<path id="SVGID_15_" d="M452.2,92.1v0.8c-0.2,1-0.5,1.9-0.9,2.8c-0.9,1.7-2.3,3.1-4.1,3.9v-0.8c1.8-0.9,3.2-2.2,4.1-3.9
								C451.7,94,452.1,93,452.2,92.1z"/>
						</defs>
						<clipPath id="SVGID_16_">
							<use xlink:href="#SVGID_15_"  style="overflow:visible;"/>
						</clipPath>
						<g class="st22">
							<path class="st6" d="M452.2,92.1v0.8c-0.1,0.5-0.2,0.9-0.3,1.3v-0.8C452,93,452.2,92.5,452.2,92.1"/>
							<path class="st8" d="M451.9,93.4v0.8c-0.2,0.5-0.4,1-0.6,1.4c-0.1,0.1-0.1,0.2-0.2,0.3v-0.8c0.1-0.1,0.1-0.2,0.2-0.3
								C451.5,94.4,451.7,93.9,451.9,93.4"/>
							<path class="st3" d="M451.1,95.1V96c-0.9,1.5-2.2,2.8-3.9,3.6v-0.8C448.9,98,450.2,96.7,451.1,95.1"/>
						</g>
					</g>
				</g>
				<g>
					<polygon class="st9" points="143.6,165 143.6,165.8 33.9,83.6 33.9,82.8 					"/>
				</g>
				<g>
					<polygon class="st9" points="203.6,209.8 203.6,210.7 143.6,165.8 143.6,165 					"/>
				</g>
				<g>
					<polygon class="st9" points="447.2,98.8 447.2,99.6 212.9,211.6 212.9,210.8 					"/>
				</g>
				<g class="st1">
					<g>
						<defs>
							<path id="SVGID_17_" d="M212.9,210.8v0.8c-1.1,0.5-2.2,0.8-3.4,0.9v-0.8C210.7,211.6,211.8,211.3,212.9,210.8z"/>
						</defs>
						<clipPath id="SVGID_18_">
							<use xlink:href="#SVGID_17_"  style="overflow:visible;"/>
						</clipPath>
						<g class="st23">
							<path class="st3" d="M212.9,210.8v0.8c-1.1,0.5-2.2,0.8-3.4,0.9v-0.8C210.7,211.6,211.8,211.3,212.9,210.8"/>
						</g>
					</g>
				</g>
				<g class="st1">
					<g>
						<defs>
							<path id="SVGID_19_" d="M209.5,211.6v0.8c-2.4,0-4.3-0.6-5.9-1.8v-0.8C205.2,211,207.1,211.6,209.5,211.6z"/>
						</defs>
						<clipPath id="SVGID_20_">
							<use xlink:href="#SVGID_19_"  style="overflow:visible;"/>
						</clipPath>
						<g class="st24">
							<path class="st3" d="M209.5,211.6v0.8c-2.4,0-4.3-0.6-5.9-1.8v-0.8C205.2,211,207.1,211.6,209.5,211.6"/>
						</g>
					</g>
				</g>
				<g>
					<path class="st12" d="M111,27.7c1.8,0,3.7,0.6,5.2,1.7l82.2,58.9l27.3,19.6l76.9-37.7l70.1-34.5c1.3-0.6,2.6-0.9,4-0.9
						c1.7,0,3.5,0.5,5,1.5l39.5,26l27.3,18c3.4,2.5,4.8,5.8,4.2,9.1l-0.5,2.7c-0.2,1-0.5,1.9-0.9,2.8c-0.9,1.7-2.3,3.1-4.1,3.9
						l-234.3,112c-1.1,0.5-2.2,0.8-3.4,0.9c-2.4,0-4.3-0.6-5.9-1.8l-60-44.9L33.9,82.8c-2.5-1.9-3.8-4.9-3.6-8
						c0-0.4,0.1-0.8,0.2-1.1l0.5-2.5c0.5-2.7,2.3-4.9,4.7-6.2l71.2-36.4C108.2,28,109.6,27.7,111,27.7z"/>
				</g>
			</g>
		</g>
	</g>
	<polygon class="st13" points="208.7,201.5 443,89.3 375.9,45 148.7,156.5 	"/>
	<polygon class="st13" points="209,201.3 38.9,74.2 110.2,37.7 286.7,164.1 	"/>
	<path class="st18" d="M231,148.6l-0.4-0.3c-6.5-4.7-15.5-5.2-23.6-1.3l-1.1,0.5c-6.6,3.2-8.3,12.1-3,15.9l0.6,0.4
		c6.7,4.9,15.9,5.5,24.4,1.4l0,0l0,0C234.8,161.9,236.6,152.6,231,148.6z"/>
	<polygon class="st14" points="110.2,37.7 192.1,96.5 164.5,109.9 164,112.6 192.1,133.3 191.9,134.4 192.7,134.9 189.1,136.7 
		189.6,134.2 188.9,133.6 149.8,152.8 38.9,74.2 	"/>
	<path class="st14" d="M178.5,178.7l30.2,22.8l30.9-14.8l-16-11.7c0,0-15.4,3.4-25.6-5.7L178.5,178.7z"/>
	<polygon class="st14" points="250.3,166.4 282.3,152 292.1,159 262.9,175.5 	"/>
	<polygon class="st14" points="151,155.3 186.1,138.1 198.2,146.9 162.9,164.2 	"/>
	<path class="st14" d="M216.4,123.2l-2.2,16.9l-3.4,1c-0.5,0.2-1.1,0.4-1.6,0.6l-3.5,1.5l-12.1-8.8L216.4,123.2z"/>
	<polygon class="st14" points="229.4,127.9 215.6,127.4 216.4,123.2 224.1,119.5 230.2,123.9 	"/>
	<polygon class="st14" points="248.6,137.1 233.3,144.7 229.6,142.3 226,140.8 230.2,123.9 	"/>
	<polygon class="st14" points="261.1,146.2 261.1,146.2 273.7,155.2 273.7,155.2 	"/>
	<polygon class="st14" points="375.9,45 413.6,69.9 284.5,134.8 271.9,125.9 248.9,137.1 224.1,119.5 	"/>
	<polygon class="st17" points="198.7,168.9 199.2,166.3 179,176 178.5,178.7 	"/>
	<polygon class="st17" points="287.5,118.3 288,115.7 233.7,142 233.3,144.7 	"/>
	<polygon class="st18" points="223.5,175 224,172.3 240,184 239.5,186.7 	"/>
	<polygon class="st18" points="375.9,45 376.3,42.4 443.4,86.5 443,89.2 	"/>
	<polygon class="st18" points="193.7,134.4 194.2,131.8 206.3,140.6 205.8,143.2 	"/>
	<polygon class="st18" points="186.2,138.1 186.7,135.5 198.8,144.3 198.3,146.9 	"/>
	<polygon class="st17" points="415.8,71.3 416.2,68.6 261.6,143.5 261.1,146.1 	"/>
	<polygon class="st17" points="215.9,127.4 216.3,124.8 229.7,125.2 229,127.9 	"/>
	<polygon class="st18" points="110.2,37.7 110.7,35.3 249.1,134.6 246.7,135.7 	"/>
	<polygon class="st17" points="375.9,45 376.3,42.4 224.5,117 226.4,118.3 	"/>
	<polygon class="st17" points="224.1,119.5 224.5,117 194.2,131.8 196.1,133.2 	"/>
	<polygon class="st17" points="193.8,134.4 194.3,131.8 186.7,135.6 188.6,136.9 	"/>
	<polygon class="st18" points="261.1,146.2 261.6,143.5 274.2,152.4 273.7,155.3 	"/>
	<polygon class="st18" points="269.5,127.1 269.9,124.5 282.6,133.5 280.4,134.7 	"/>
	<polygon class="st17" points="322.4,124 323,121.1 276.8,143.7 278.7,145.2 	"/>
	<polygon class="st17" points="193.9,97.8 194.3,95.6 164.5,109.9 166.5,111.4 	"/>
	<polygon class="st18" points="268.9,142.3 269.4,139.7 294.3,158 292.1,159 	"/>
	<polygon class="st18" points="306.6,131.7 307.1,128.9 326.4,142.4 323.7,143.7 	"/>
	<polygon class="st18" points="262.4,100.7 262.8,99 263.5,97.9 288,115.7 285.5,116.9 	"/>
	<polygon class="st18" points="164,112.6 164.5,109.9 194.2,131.8 191.7,133 	"/>
	<polygon class="st17" points="274.9,109.5 275.5,106.6 236.7,125.8 238.4,127.3 	"/>
	<polygon class="st18" points="322.4,124 323,121.1 342.3,134.8 339.6,136.1 	"/>
	<polygon class="st17" points="282.5,151.9 283,149 250.8,163.7 250.3,166.4 	"/>
	<polygon class="st18" points="250.3,166.4 250.6,163.7 263.4,172.8 262.9,175.5 	"/>
	<polygon class="st17" points="443,89.2 443.4,86.5 209.2,198.7 208.7,201.4 	"/>
	<polygon class="st17" points="198.4,146.8 198.9,144.2 161.2,162.6 160.7,165.2 	"/>
	<polygon class="st17" points="110.2,37.7 110.7,35.3 39.4,71.7 38.9,74.2 	"/>
	<polygon class="st18" points="38.9,74.1 39.4,71.7 209.2,198.7 208.7,201.5 	"/>
	<path class="st14" d="M231,148.6l-0.4-0.3c-6.5-4.7-15.5-5.2-23.6-1.3l-1.1,0.5c-6.6,3.2-8.3,12.1-3,15.9l0.6,0.4
		c6.7,4.9,15.9,5.5,24.4,1.4l0,0l0,0C234.8,161.9,236.6,152.6,231,148.6z"/>
	<path class="st18" d="M200.7,152.8c-1.7,3.8-1.2,8.2,2.2,10.6l0.6,0.4c2.7,2,6.1,3.4,9.4,4c0-0.3,0.4-2,0.5-2.8
		c-1.9-0.5-3.1-0.7-5-1.3c-2.4-1.7-5-2.5-6.3-4.5C200.4,156.1,201.1,151.9,200.7,152.8z"/>
	<path class="st18" d="M230,161.6c0,0-0.4,1.8-0.5,2.8c2.2-1.7,3.9-4.3,4.5-6.9c0.3-1.2,0.6-2.2,0.7-3.4
		C233.4,156.7,232.8,158.3,230,161.6z"/>
	<path class="st18" d="M216.9,167.9c2.4-0.1,5.7-0.6,8.2-1.4c0.2-0.9,0.3-2,0.5-2.8l-4.2,0.9l-4,0.7
		C217.2,166.3,216.9,166.8,216.9,167.9z"/>
	<path class="st18" d="M234.7,154.4c-0.2-2.3,0.1-5.1-2-6.6l-1.6-1.6c-6.5-4.7-14.4-6-22.4-2l-2.6,1.2c-2.4,1.2-5.1,4.9-5.6,7.2
		c-0.3,1.3-0.1,1.1-0.2,2.2c0,1.4,1,4,3.4,5.8c0,0,4,3,9.5,4c4.4,0.9,9.9,0.1,13.6-1.7c0,0,5.5-2.5,6.2-5.6
		C233.4,156.3,234.4,155.7,234.7,154.4z M215.5,164.9c-13.7-0.9-14.8-8.7-14.4-10.3c0.7-2.7,2.6-5.2,5.5-6.6l1-0.5
		c7.6-3.7,16.1-3.3,22.2,1.2l0.4,0.3c2.5,1.8,3.5,4.9,3,7.8C233,158.4,228.1,165.8,215.5,164.9z"/>
	<path class="st19" d="M231.5,145.9l-0.4-0.3c-6.5-4.7-15.5-5.2-23.6-1.2l-1.1,0.5c-6.6,3.2-8.3,12-3,15.9l0.6,0.4
		c6.7,4.9,15.9,5.4,24.3,1.4l0,0C235.3,159.3,237.1,150,231.5,145.9z M227.8,162.1L227.8,162.1c-7.9,3.8-16.7,3.3-23-1.3l-0.5-0.4
		c-5-3.7-3.4-12,2.8-15l1-0.5c7.6-3.7,16.1-3.3,22.2,1.2l0.4,0.3C236,150.2,234.3,158.9,227.8,162.1z"/>
	<g>
		<path class="st17" d="M233.1,163L233.1,163L233.1,163L233.1,163z"/>
		<path class="st17" d="M224.1,172.3c-7.7,2.8-15.8,1.9-21.7-2.5l-0.6-0.4c-0.5-0.4-3.5-2.6-3.6-2.6c-0.1,0.6-0.3,1.8-0.4,2.6
			c0.4,0.5,2.9,2.3,3.5,2.7l0.6,0.4c6,4.4,14,5.3,21.7,2.6C223.8,174.1,224,173,224.1,172.3z"/>
	</g>
	<g>
		<g>
			<path d="M233.1,162.4C233.1,162.5,233.1,162.5,233.1,162.4C233.1,162.5,233.1,162.5,233.1,162.4
				C233.1,162.5,233.1,162.4,233.1,162.4L233.1,162.4z"/>
		</g>
	</g>
	<path class="st17" d="M214.2,140.1l0.5-2.6l-1.5,0.3c-2.2,0.5-4.3,1.3-6.3,2.4l-0.6,0.3l-0.5,2.7l0.4-0.2
		C208.8,141.8,211.5,140.8,214.2,140.1L214.2,140.1z"/>
	<path class="st17" d="M226,140.8l0.5-2.7l1.3,0.6c2,0.7,3.8,1.7,5.4,3l0.5,0.3l-0.4,2.7l-0.4-0.1
		C230.8,142.9,228.6,141.9,226,140.8L226,140.8z"/>
	<polygon class="st17" points="216.4,123.3 216.9,120.7 214.7,137.5 214.2,140.2 	"/>
	<polygon class="st17" points="230.2,123.9 230.6,121.3 226.5,138.1 226,140.8 	"/>
	<path class="st19" d="M110.4,36.4L222.6,117l-72.8,35.8L41.2,72L110.4,36.4 M110.6,35.3L39.4,71.9l110.1,82l75-36.9L110.6,35.3
		L110.6,35.3z"/>
	<path class="st19" d="M185.9,136l11,8.2l-35.4,17.3l-10.8-8.1L185.9,136 M186.2,134.9l-37.4,18.3l12.5,9.3l37.5-18.3L186.2,134.9
		L186.2,134.9z"/>
	<polygon class="st19" points="179,176.1 178.8,176 160.8,162.4 161.4,161.6 179.2,175 198.3,165.6 199.2,166.3 	"/>
	<polygon class="st19" points="240,184 240.3,183.9 263.8,172.5 263.4,171.6 240.2,182.8 224.5,171.3 223.4,171.9 	"/>
	<path class="st19" d="M416,69.8l25.3,16.7l-146.8,70.3l-23.2-17L416,69.8 M416.2,68.6l-146.8,71.1l24.9,18.3l149.1-71.4L416.2,68.6
		L416.2,68.6z"/>
	<path class="st19" d="M376.2,43.4l65.2,43l-146.8,70.3l-11.2-8.2l-0.5-0.3l-0.6,0.3l-7.1,3.5l-11.6-8.4l6.2-3l14.6-7.1l-14.2-10
		l-13.6,6.5l-7.2,3.4L226.7,117L376.2,43.4 M376.4,42.3L224.6,117l24.5,17.6l20.7-10.1l12.5,8.8l-20.8,10.3l13.4,9.6l7.8-3.9
		l11.6,8.5l149.1-71.4L376.4,42.3L376.4,42.3z"/>
	<path class="st19" d="M282.8,149.6l10.4,7.8l-29.6,14.2l-10.8-7.8L282.8,149.6 M283,148.4l-32.4,15.3l12.6,9.1l31.9-15.3L283,148.4
		L283,148.4z"/>
	<path class="st19" d="M215.8,121.4l-1.9,15.4l-2.8,0.7l0,0l0,0c-0.6,0.2-1.3,0.4-1.9,0.7l0,0l0,0l-2.5,1.2l-10.7-7.9L215.8,121.4
		 M217,119.7l-23.4,11.9l12.7,9l3.1-1.5c0.5-0.2,1.2-0.5,1.8-0.6l3.6-0.9L217,119.7L217,119.7z"/>
	<path class="st19" d="M224.3,118.1l5.3,3.8l-0.5,2.4l-11.9-0.4l0.5-2.6L224.3,118.1 M224.5,117l-7.7,3.7l-0.8,4.2l13.8,0.5l0.7-4.1
		l-5.9-4.3L224.5,117z"/>
	<path class="st19" d="M231.3,123.1l15.9,11.4L234,141l-3.3-2l0,0l0,0l-2.9-1.3L231.3,123.1 M230.7,121.3l-4.2,16.8l3.5,1.6l3.7,2.3
		l15.8-7.6L230.7,121.3L230.7,121.3z"/>
	<path class="st19" d="M213.9,173.7c-4.3-0.3-8.4-1.7-11.7-4.2l-0.6-0.4c-0.6-0.4-3-2-3.4-2.5l0.1-1.1c0.4,0.4,3.5,2.4,4,2.7
		l0.6,0.4c5.8,4.3,14,5.2,21.5,2.5l0.8,0.7C221.6,173.6,217.3,174,213.9,173.7z"/>
	<path class="st19" d="M307,130l17.4,12.3l-30,14.5l-16.8-12.4L307,130 M307.1,128.9l-31.4,15.4l18.6,13.7l32.1-15.5L307.1,128.9
		L307.1,128.9z"/>
	<path class="st19" d="M194.3,96.5l28.4,20.4l-28.3,13.9l-28-20.6L194.3,96.5 M194.4,95.3l-29.9,14.6l29.8,22l30.3-14.9L194.4,95.3
		L194.4,95.3z"/>
	<path class="st19" d="M263.4,99.1l10.1,7.4L236,125.1l-10.6-7.4L263.4,99.1 M263.5,97.9l-40.1,19.6l12.5,8.7l39.6-19.6L263.5,97.9
		L263.5,97.9z"/>
	<path class="st19" d="M274.5,107.1l11.5,8.4l-37.7,18.4l-11.4-8.2L274.5,107.1 M274.6,106l-39.5,19.5l13.2,9.5l39.7-19.3L274.6,106
		L274.6,106z"/>
	<path class="st19" d="M322.9,122.3l17.5,12.2l-14.8,7.2l-17.4-12.2L322.9,122.3 M323,121.1l-16.7,8.2l19.3,13.5l16.9-8.2L323,121.1
		L323,121.1z"/>
	<g>
		<polygon class="st14" points="188.6,133.3 189.6,134.2 189.1,136.7 192.7,134.9 192.3,131.8 191.8,131.4 		"/>
		<polygon class="st18" points="192.4,131.9 193.1,132.4 192.7,134.9 191.9,134.4 		"/>
		<g>
			<polygon class="st19" points="189.1,136.6 189,136.7 189.4,134.3 189.6,134.2 			"/>
		</g>
		<polygon class="st18" points="190.2,131.9 192.1,133.3 192.4,131.9 191.7,130.9 		"/>
	</g>
	<g>
		<g>
			<polygon class="st19" points="220.6,127.5 220.5,127.6 221,124.9 221.1,124.9 			"/>
		</g>
		<g>
			<polygon class="st19" points="224.4,127.7 224.3,127.8 224.8,125.1 224.9,125.1 			"/>
		</g>
		<polygon class="st14" points="224.3,127.8 220.6,127.7 221.4,123.5 225,123.7 		"/>
	</g>
	<g>
		<g>
			<polygon class="st19" points="213.1,167.7 212.9,167.8 213.4,165 213.6,165 			"/>
		</g>
		<g>
			<polygon class="st18" points="216.9,167.9 216.7,168 217.2,165.3 217.4,165.3 			"/>
		</g>
		<path class="st14" d="M216.7,168c0,0-1.4,0-1.9,0c-0.4,0-1.8-0.2-1.8-0.2l0.8-4.2l3.7,0.2L216.7,168z"/>
	</g>
	<g>
		<g>
			<polygon class="st19" points="225.2,166.4 225.1,166.5 225.6,163.7 225.7,163.7 			"/>
		</g>
		<g>
			<polygon class="st19" points="229.5,164.4 229.3,164.5 229.8,161.7 230,161.6 			"/>
		</g>
		<path class="st14" d="M229.3,164.6c0,0-0.9,0.6-2.1,1.1c-0.4,0.2-2,0.7-2,0.7l1.2-6.3l3.7,0.2L229.3,164.6z"/>
	</g>
	<g>
		<polygon class="st14" points="213.7,134.2 215.2,134.2 215.4,132.5 214.1,132.4 		"/>
		<polygon class="st18" points="214.8,129.9 215.7,129.9 215.3,132.4 214.5,132.4 		"/>
	</g>
	<g>
		<polygon class="st14" points="228.7,134.9 227.3,134.8 227.7,133.1 229,133.1 		"/>
		<polygon class="st18" points="229.3,130.6 228.4,130.5 227.8,133.1 228.7,133.1 		"/>
	</g>
	<g>
		<polygon class="st14" points="178,153 179,153.9 178.5,156.6 182.1,154.9 181.8,151.7 181.3,151.3 		"/>
		<polygon class="st18" points="181.7,151.6 182.5,152.3 182.1,154.8 181.3,154.1 		"/>
		<g>
			<polygon class="st19" points="178.6,156.4 178.4,156.5 178.9,154 179,153.9 			"/>
		</g>
	</g>
	<g>
		<polygon class="st14" points="279.1,142.1 280.2,143 279.9,144.8 283.6,143 282.7,139.9 282.7,139.3 		"/>
		<polygon class="st18" points="283,140.7 283.8,141.3 283.6,142.8 282.7,142.2 		"/>
		<g>
			<polygon class="st19" points="279.9,144.6 279.8,144.7 280,143.1 280.2,143 			"/>
		</g>
	</g>
	<g>
		<polygon class="st14" points="310.6,126.8 311.8,127.6 311.4,129.5 315.1,127.7 314.3,124.5 314.2,123.9 		"/>
		<polygon class="st18" points="314.5,125.3 315.4,125.9 315.1,127.6 314.2,126.9 		"/>
		<g>
			<polygon class="st19" points="311.5,129.3 311.3,129.3 311.6,127.7 311.8,127.7 			"/>
		</g>
	</g>
	<g>
		<polygon class="st13" points="189.9,169.4 191,170.3 190.5,173 193.9,171.3 193.7,168 193.2,167.6 		"/>
		<polygon class="st18" points="193.6,168 194.4,168.6 193.9,171.2 193.1,170.6 		"/>
		<g>
			<polygon class="st19" points="190.5,172.8 190.3,172.9 190.8,170.4 191,170.3 			"/>
		</g>
	</g>
	<g>
		<polygon class="st14" points="278.7,129 277.2,129.7 276.8,132.3 273.4,129.9 274.8,127.4 275.2,126.3 		"/>
		<polygon class="st17" points="275,126.8 273.9,127.4 273.5,129.9 274.5,129.3 		"/>
		<g>
			<polygon class="st19" points="276.8,132.3 277.2,129.7 277.4,129.8 276.9,132.4 			"/>
		</g>
	</g>
	<g>
		<polygon class="st14" points="285.9,113.6 284.4,114.4 284.1,116 280.7,113.6 282.2,111.3 282.5,110 		"/>
		<polygon class="st17" points="282.2,111.3 281.1,111.9 280.8,113.6 281.8,113 		"/>
		<g>
			<polygon class="st18" points="284.1,116 284.4,114.4 284.5,114.5 284.2,116.1 			"/>
		</g>
	</g>
	<g>
		<polygon class="st14" points="273.3,104.5 271.8,105.3 271.5,107.1 268.1,104.8 269.6,102.4 269.9,101.2 		"/>
		<polygon class="st17" points="269.6,102.3 268.5,102.9 268.2,104.7 269.3,104.1 		"/>
		<g>
			<polygon class="st18" points="271.5,107.1 271.8,105.3 272,105.4 271.6,107.2 			"/>
		</g>
	</g>
	<g>
		<polygon class="st14" points="186.4,124.3 184.9,125 184.4,127.8 181.2,125.4 182.6,123 183,121.9 		"/>
		<polygon class="st17" points="182.8,122.3 181.8,122.8 181.3,125.4 182.3,124.8 		"/>
		<g>
			<polygon class="st19" points="184.4,127.7 184.9,125.1 185.1,125.2 184.6,127.8 			"/>
		</g>
	</g>
	<g>
		<polygon class="st14" points="269.7,147.7 268.4,148.4 267.9,151.1 264.5,148.7 266,146.2 266.3,145.1 		"/>
		<polygon class="st17" points="266.2,145.5 265.1,146.1 264.5,148.7 265.7,148.1 		"/>
	</g>
	<g>
		<polygon class="st13" points="232.6,177.1 231.3,177.8 230.8,180.5 227.5,178 229,175.6 229.3,174.4 		"/>
		<polygon class="st17" points="229.1,174.9 228.1,175.5 227.6,178 228.6,177.4 		"/>
		<g>
			<polygon class="st19" points="230.8,180.5 231.3,177.8 231.5,177.9 231,180.6 			"/>
		</g>
	</g>
	<g>
		<polygon class="st13" points="261.9,158.3 262.8,159.1 262.7,159.9 265.2,158.7 265.5,155.8 264.3,155.7 		"/>
		<polygon class="st14" points="262.7,159.9 262.5,161.1 263.9,162.1 266.4,160.9 265.9,159.3 265.1,158.7 		"/>
		<polygon class="st18" points="265.4,156.9 266.3,157.4 266,159.4 265.1,158.8 		"/>
		<g>
			<polygon class="st19" points="262.5,160.9 262.3,161 262.7,159.1 262.8,159.1 			"/>
		</g>
	</g>
	<polygon class="st14" points="415.8,71.3 439.9,87 341.8,134.1 323,121.1 276.8,143.7 272.5,140.7 	"/>
	<polygon class="st14" points="306.6,131.7 322.8,143.1 294.6,156.7 278.7,145.2 	"/>
	<polygon class="st14" points="322.4,124 338.6,135.4 325.6,141.7 309.3,130.3 	"/>
	<polygon class="st14" points="268.9,142.3 279.5,149.9 275.2,152 264.6,144.3 	"/>
	<path class="st14" d="M199.9,154.2"/>
</g>
<polygon class="st14" points="193.9,97.8 221.4,117.5 194.4,130.8 167.5,111 "/>
<polygon class="st14" points="262.4,100.5 267.3,104 271.9,107.2 237.1,124.4 227.6,117.5 "/>
<polygon class="st14" points="274.9,109.5 284.5,116.2 249.4,133.4 239.9,126.5 "/>
<path class="st18" d="M223.9,280.4c0,0,5-0.2,8.2-1.6l-0.5,2.7c0,0-4.5,1.7-8.2,1.5C223.6,281.7,223.9,280.4,223.9,280.4z"/>
<path class="st18" d="M236.4,276.8c0,0,4.6-3.3,4.9-8.8l-0.7,4.4c0,0-0.8,4.7-4.7,7.1L236.4,276.8z"/>
</svg>
