<?xml version="1.0" encoding="utf-8"?>
<!-- Generator: Adobe Illustrator 22.0.1, SVG Export Plug-In . SVG Version: 6.00 Build 0)  -->
<svg version="1.1" id="Layer_1" xmlns="http://www.w3.org/2000/svg" xmlns:xlink="http://www.w3.org/1999/xlink" x="0px" y="0px"
	 viewBox="0 0 472.7 347.9" style="enable-background:new 0 0 472.7 347.9;" xml:space="preserve">
<style type="text/css">
	.st0{opacity:0.65;}
	.st1{enable-background:new    ;}
	.st2{clip-path:url(#SVGID_2_);enable-background:new    ;}
	.st3{fill:#838D90;}
	.st4{fill:#808A8D;}
	.st5{clip-path:url(#SVGID_4_);enable-background:new    ;}
	.st6{fill:#7B8487;}
	.st7{clip-path:url(#SVGID_6_);enable-background:new    ;}
	.st8{fill:#7D878A;}
	.st9{fill:#788184;}
	.st10{clip-path:url(#SVGID_8_);enable-background:new    ;}
	.st11{fill:#AFBBBE;}
	.st12{display:none;}
	.st13{display:inline;fill:none;stroke:#58595B;stroke-miterlimit:10;}
	.st14{fill:#B7B8AC;}
	.st15{fill:#D4D4D4;}
	.st16{fill:#9D9D9E;}
	.st17{fill:#BCBCBC;}
	.st18{fill:#B9C1C3;}
	.st19{clip-path:url(#SVGID_10_);enable-background:new    ;}
	.st20{clip-path:url(#SVGID_12_);enable-background:new    ;}
	.st21{clip-path:url(#SVGID_14_);enable-background:new    ;}
	.st22{clip-path:url(#SVGID_16_);enable-background:new    ;}
</style>
<g id="SCIENCE.G">
	<g class="st0">
		
			<image style="overflow:visible;enable-background:new    ;" width="1771" height="1000" xlink:href="uploads/maps/8642EFE0202546F2.png"  transform="matrix(0.2396 0 0 0.2396 36.004 136.7273)">
		</image>
	</g>
	<g>
		<g>
			<g class="st1">
				<g class="st1">
					<g>
						<defs>
							<path id="SVGID_1_" d="M424,232.3v0.8c0,0.2,0,0.5,0,0.7c0,0.7-0.1,1.4-0.3,2V235c0.1-0.6,0.2-1.3,0.3-2
								C424,232.7,424,232.5,424,232.3z"/>
						</defs>
						<clipPath id="SVGID_2_">
							<use xlink:href="#SVGID_1_"  style="overflow:visible;"/>
						</clipPath>
						<g class="st2">
							<path class="st3" d="M424,232.3v0.8c0,0.2,0,0.5,0,0.7c0,0.4-0.1,0.7-0.1,1.1v-0.8c0.1-0.4,0.1-0.7,0.1-1.1
								C424,232.7,424,232.5,424,232.3"/>
							<path class="st4" d="M423.9,234.1v0.8c0,0.3-0.1,0.6-0.2,0.9V235C423.8,234.7,423.8,234.4,423.9,234.1"/>
						</g>
					</g>
				</g>
				<g class="st1">
					<g>
						<defs>
							<path id="SVGID_3_" d="M72.1,235.7v-0.8c0,3.9,1.9,7.7,5.3,9.9v0.8C74.1,243.4,72.1,239.6,72.1,235.7z"/>
						</defs>
						<clipPath id="SVGID_4_">
							<use xlink:href="#SVGID_3_"  style="overflow:visible;"/>
						</clipPath>
						<g class="st5">
							<path class="st6" d="M77.4,244.8v0.8c-3.4-2.3-5.3-6-5.3-9.9v-0.8C72.1,238.7,74.1,242.5,77.4,244.8"/>
						</g>
					</g>
				</g>
				<g class="st1">
					<g>
						<defs>
							<path id="SVGID_5_" d="M423.7,235v0.8c-0.4,4.4-3.2,8.3-7.4,10.1v-0.8C420.5,243.3,423.3,239.4,423.7,235z"/>
						</defs>
						<clipPath id="SVGID_6_">
							<use xlink:href="#SVGID_5_"  style="overflow:visible;"/>
						</clipPath>
						<g class="st7">
							<path class="st3" d="M423.7,235v0.8c0,0.3-0.1,0.5-0.1,0.8v-0.8C423.7,235.5,423.7,235.2,423.7,235"/>
							<path class="st4" d="M423.6,235.8v0.8c-0.1,0.7-0.3,1.4-0.5,2v-0.8C423.4,237.1,423.5,236.4,423.6,235.8"/>
							<path class="st8" d="M423.1,237.7v0.8c-0.2,0.7-0.6,1.5-1,2.2v-0.8C422.6,239.2,422.9,238.5,423.1,237.7"/>
							<path class="st6" d="M422.2,239.9v0.8c-1.3,2.3-3.3,4.1-5.8,5.2v-0.8C418.9,244,420.9,242.2,422.2,239.9"/>
						</g>
					</g>
				</g>
				<g>
					<polygon class="st9" points="201.5,328.1 201.5,329 77.4,245.6 77.4,244.8 					"/>
				</g>
				<g>
					<polygon class="st9" points="416.3,245.1 416.3,245.9 212.8,330.1 212.8,329.3 					"/>
				</g>
				<g class="st1">
					<g>
						<defs>
							<path id="SVGID_7_" d="M212.8,329.3v0.8c-1.5,0.6-3,0.9-4.6,0.9c-2.4,0-4.7-0.7-6.7-2v-0.8c2,1.4,4.3,2,6.7,2
								C209.8,330.2,211.3,329.9,212.8,329.3z"/>
						</defs>
						<clipPath id="SVGID_8_">
							<use xlink:href="#SVGID_7_"  style="overflow:visible;"/>
						</clipPath>
						<g class="st10">
							<path class="st6" d="M212.8,329.3v0.8c-1.5,0.6-3,0.9-4.6,0.9c-2.4,0-4.7-0.7-6.7-2v-0.8c2,1.4,4.3,2,6.7,2
								C209.8,330.2,211.3,329.9,212.8,329.3"/>
						</g>
					</g>
				</g>
				<g>
					<path class="st11" d="M242.5,163.3c2.1,0,4.2,0.5,6,1.6l94.6,54.8l36.4-14.2c1.4-0.6,3-0.9,4.5-0.9c2,0,4,0.5,5.9,1.5l28,15.6
						c4,2.2,6.4,6.6,6.1,11.2c0,0.7-0.1,1.4-0.3,2c-0.4,4.4-3.2,8.3-7.4,10.1l-203.5,84.2c-1.5,0.6-3,0.9-4.6,0.9
						c-2.4,0-4.7-0.7-6.7-2L77.4,244.8c-3.9-2.6-5.8-7.2-5.2-11.7c0-0.4,0-0.9,0.1-1.3c0.5-4.5,3.6-8.3,7.8-9.8l158.2-57.9
						C239.7,163.6,241.1,163.3,242.5,163.3z"/>
				</g>
			</g>
		</g>
	</g>
	<g class="st12">
		<polygon class="st13" points="404.1,94.5 432.6,78.4 446.8,86.5 418.3,102.7 		"/>
		<polygon class="st13" points="361.6,70 390.1,53.8 432.6,78.4 404.1,94.5 		"/>
		<polygon class="st13" points="312,41.4 340.5,25.2 390.1,53.8 361.6,70 		"/>
		<polygon class="st13" points="290.7,70 319,53.7 354.5,74.1 326.2,90.5 		"/>
		<polygon class="st13" points="361.6,110.9 389.9,94.5 425.2,115.1 397,131.4 		"/>
		<polygon class="st13" points="333.2,127.3 361.6,110.9 397,131.4 368.5,147.9 		"/>
		<polygon class="st13" points="283.6,98.6 312,82.3 354.5,106.8 326.2,123.2 		"/>
		<polygon class="st13" points="258.3,113.2 283.6,98.6 326.2,123.2 301,137.7 		"/>
		<polygon class="st13" points="234,127.3 258.3,113.2 301,137.7 276.6,151.8 		"/>
		<polygon class="st13" points="141.9,180.5 184.4,155.9 227,180.5 184.5,205 		"/>
		<polygon class="st13" points="308.3,141.7 333.2,127.3 368.5,147.9 343.7,162.1 		"/>
		<polygon class="st13" points="276.6,160 308.3,141.7 343.7,162.1 312,180.4 		"/>
		<polygon class="st13" points="259.1,170 276.6,160 312,180.4 294.6,190.5 		"/>
		<polygon class="st13" points="234,184.6 259.1,170 294.6,190.5 269.4,205.1 		"/>
		<polygon class="st13" points="108.7,261.1 136.7,244.9 146.1,250.3 118.1,266.5 		"/>
		<polygon class="st13" points="159.4,290.8 187.8,274.4 197.3,279.9 168.9,296.2 		"/>
		<polygon class="st13" points="118.1,266.5 146.1,250.3 187.8,274.4 159.4,290.8 		"/>
		<polygon class="st13" points="84.8,246.8 112.9,230.4 127.1,238.7 98.8,255 		"/>
		<polygon class="st13" points="70.2,238.5 98.7,222.2 112.9,230.4 84.8,246.8 		"/>
		<polygon class="st13" points="42,222.2 70.4,205.8 98.7,222.2 70.2,238.5 		"/>
		<polygon class="st13" points="64.3,274.7 92.8,258.5 177.9,307.3 149.3,323.9 		"/>
		<polygon class="st13" points="50.3,266.7 78.7,250.3 92.6,258.4 64.3,274.7 		"/>
		<polygon class="st13" points="21.5,250.3 50.1,233.8 64.3,242 36.1,258.5 		"/>
		<polygon class="st13" points="219.9,192.7 234,184.6 269.5,205 255.3,213.2 		"/>
		<polygon class="st13" points="163.3,225.6 191.6,209.3 215.4,223 187,239.3 		"/>
		<polygon class="st13" points="255.3,213.2 219.9,192.7 191.6,209.3 215.4,223 187,239.3 198.7,246.1 		"/>
		<polygon class="st13" points="375.8,94.5 382.8,90.5 354.5,74.1 333.2,86.4 347.4,94.5 361.6,86.4 		"/>
		<line class="st13" x1="417.8" y1="103" x2="411.5" y2="106.7"/>
		<line class="st13" x1="105.7" y1="226" x2="127.9" y2="213.4"/>
		<line class="st13" x1="155" y1="255.1" x2="184" y2="238.2"/>
		<path class="st13" d="M184.6,237.9"/>
		<path class="st13" d="M175.3,243.3"/>
		<line class="st13" x1="50.3" y1="233.7" x2="56.2" y2="230.3"/>
		<line class="st13" x1="164.1" y1="298.8" x2="169" y2="296.1"/>
	</g>
	<polygon class="st14" points="208.6,317.9 85.3,235 242.7,177.2 342.9,235.5 384.5,218.7 411.5,233.8 	"/>
	<path class="st15" d="M185.1,275.3l-7.2-4.7c0,0-8.7,3.5-8.8,3.6c0,0.2,7.1,4.8,7.1,4.8L185.1,275.3z"/>
	<polygon class="st15" points="173.9,263.6 182,268.9 169.1,274.2 176.2,279 185.1,275.3 191.4,279.5 174.1,286.8 152,272.1 	"/>
	<polygon class="st15" ng-class="{'pulsate': $ctrl.company.comproom == '126'}" points="218.9,285.5 245.4,302.7 271.9,291.7 245.3,274.9 	"/>
	<polygon class="st15" ng-class="{'pulsate': $ctrl.company.comproom == '127'}" points="268.6,265.5 295.2,282 271.9,291.7 245.3,274.9 	"/>
	<polygon class="st15" ng-class="{'pulsate': $ctrl.company.comproom == '128'}" points="282.5,259.9 309.1,276.3 295.2,282 268.6,265.5 	"/>
	<polygon class="st15" ng-class="{'pulsate': $ctrl.company.comproom == '129'}" points="303,251.6 329.6,267.7 309.1,276.3 282.5,259.9 	"/>
	<polygon class="st15" ng-class="{'pulsate': $ctrl.company.comproom == '130'}" points="329.7,240.8 356.5,256.6 329.6,267.7 303,251.6 	"/>
	<polygon class="st15" points="336.3,238.1 349.7,245.9 356.3,243.3 369.8,251.1 356.5,256.6 329.7,240.8 	"/>
	<polygon class="st15" ng-class="{'pulsate': $ctrl.company.comproom == '131'}" points="358.8,229.1 367,233.8 351.7,240.6 342.9,235.5 	"/>
	<polygon class="st15" points="391.8,235.3 398.7,239.1 385.7,244.5 378.9,240.6 	"/>
	<polygon class="st15" ng-class="{'pulsate': $ctrl.company.comproom == '134'}" points="385,231.4 397.9,226.2 411.5,233.8 398.7,239.1 	"/>
	<polygon class="st15" ng-class="{'pulsate': $ctrl.company.comproom == '133'}" points="385,231.4 397.9,226.2 384.5,218.7 371.7,223.9 	"/>
	<polygon class="st15" ng-class="{'pulsate': $ctrl.company.comproom == '132'}" points="353.2,241.4 369.1,234.9 385.7,244.5 369.8,251.1 	"/>
	<polygon class="st15" ng-class="{'pulsate': $ctrl.company.comproom == '109'}" points="232.7,198.2 247.8,192.5 229.7,182 214.6,187.5 	"/>
	<polygon class="st15" ng-class="{'pulsate': $ctrl.company.comproom == '102'}" points="138.6,233.2 121.4,239.4 104.7,227.8 121.1,221.8 	"/>
	<polygon class="st15" ng-class="{'pulsate': $ctrl.company.comproom == '101'}" points="102.7,246.7 121.4,239.4 104.7,227.8 85.3,235 	"/>
	<polygon class="st15" ng-class="{'pulsate': $ctrl.company.comproom == '111'}" points="174.8,256.8 138.6,233.2 102.7,246.7 138.6,270.8 	"/>
	<polygon class="st15" ng-class="{'pulsate': $ctrl.company.comproom == '112'}" points="207.2,244.1 174.8,256.8 138.6,233.2 171.1,221.1 	"/>
	<polygon class="st15" ng-class="{'pulsate': $ctrl.company.comproom == '105'}" points="187.4,215 171.1,221.1 153.4,210 169.7,204 	"/>
	<polygon class="st15" ng-class="{'pulsate': $ctrl.company.comproom == '106'}" points="201,210 187.4,215 169.7,204 183.3,199.1 	"/>
	<polygon class="st15" ng-class="{'pulsate': $ctrl.company.comproom == '115'}" points="269.5,220.1 297.7,209.2 260.7,187.7 232.7,198.2 	"/>
	<polygon class="st15" ng-class="{'pulsate': $ctrl.company.comproom == '107'}" points="217.7,203.7 201,210 183.3,199.1 199.7,193 	"/>
	<polygon class="st15" ng-class="{'pulsate': $ctrl.company.comproom == '108'}" points="232.7,198.1 217.7,203.7 199.8,193 214.6,187.5 	"/>
	<polygon class="st15" ng-class="{'pulsate': $ctrl.company.comproom == '104'}" points="155.8,226.8 138.3,215.6 153.5,210 171.1,221.1 	"/>
	<polygon class="st15" ng-class="{'pulsate': $ctrl.company.comproom == '103'}" points="138.6,233.2 121.1,221.8 138.2,215.6 155.8,226.8 	"/>
	<polygon class="st15" points="166.6,266.4 144.7,274.9 138.6,270.8 160.4,262.3 	"/>
	<polygon class="st15" ng-class="{'pulsate': $ctrl.company.comproom == '113'}" points="237.7,232.5 207.2,244.1 171.1,221.1 201.3,209.9 	"/>
	<polygon class="st15" ng-class="{'pulsate': $ctrl.company.comproom == '114'}" points="269.5,220.1 237.7,232.5 201,210 232.7,198.2 	"/>
	<polygon class="st15" ng-class="{'pulsate': $ctrl.company.comproom == '116'}" points="180.9,260.8 199.6,253.6 215.4,263.9 197.4,271.5 	"/>
	<polygon class="st15" ng-class="{'pulsate': $ctrl.company.comproom == '125'}" points="323.1,236.9 303.7,225.5 316.7,220.3 336.3,231.7 	"/>
	<polygon class="st15" ng-class="{'pulsate': $ctrl.company.comproom == '124'}" points="294.8,220.3 303.7,225.5 316.8,220.3 308,215.2 	"/>
	<polygon class="st15" ng-class="{'pulsate': $ctrl.company.comproom == '123'}" points="284.6,214.3 294.8,220.3 308,215.2 297.7,209.2 	"/>
	<polygon class="st15" ng-class="{'pulsate': $ctrl.company.comproom == '121'}" points="284.3,220.6 300.4,230.1 280.2,238 264.4,228.4 	"/>
	<polygon class="st15" ng-class="{'pulsate': $ctrl.company.comproom == '122'}" points="316.5,239.6 296.4,247.7 280.2,238 300.4,230.1 	"/>
	<polygon class="st15" ng-class="{'pulsate': $ctrl.company.comproom == '119'}" points="244,236.3 264.4,228.4 283.4,239.9 263,248 	"/>
	<polygon class="st15" ng-class="{'pulsate': $ctrl.company.comproom == '120'}" points="275.9,255.9 263,248 283.4,239.9 296.4,247.7 	"/>
	<polygon class="st15" ng-class="{'pulsate': $ctrl.company.comproom == '118'}" points="206.9,250.7 244,236.3 275.9,255.9 238.7,270.9 	"/>
	<polygon class="st16" points="242.7,177.2 242.9,175.4 342.9,233.7 342.9,235.5 	"/>
	<polygon class="st17" points="242.7,177.2 242.9,175.4 85.8,232.8 85.3,234.9 	"/>
	<polygon class="st17" points="260.7,187.8 260.8,185.9 103.1,244.5 102.7,246.7 	"/>
	<polygon class="st17" points="297.7,209.3 297.8,207.3 139,268.6 138.5,270.9 	"/>
	<polygon class="st17" points="199.6,253.6 199.9,251.5 181.2,258.7 180.9,260.8 	"/>
	<path class="st16" d="M284.8,218.8l31.6,18.7c0.1,0,0.1,0.1,0.1,0.2v1.5c0,0.2-0.2,0.3-0.4,0.2l-31.7-18.8c-0.1,0-0.1-0.1-0.1-0.2
		l0.1-1.4C284.4,218.8,284.6,218.7,284.8,218.8z"/>
	<polygon class="st17" points="300.5,230.1 300.6,228.1 280.5,236 280.4,238 	"/>
	<polygon class="st17" points="284.3,220.6 284.4,218.6 207.2,248.4 206.9,250.7 	"/>
	<polyline class="st17" points="308,213.2 308,215.2 294.8,220.3 294.9,218.3 307.8,213.2 	"/>
	<polygon class="st17" points="303.8,223.5 303.7,225.5 316.8,220.3 316.8,218.3 	"/>
	<polygon class="st16" points="264.5,226.4 296.5,245.7 296.4,247.7 264.4,228.4 	"/>
	<polygon class="st17" points="283.4,239.9 283.5,237.9 263.1,245.9 263,248 	"/>
	<polygon class="st17" points="336.3,231.7 336.3,229.7 323.2,234.9 323.1,236.9 	"/>
	<polygon class="st17" points="384.4,216.8 384.5,218.7 342.9,235.5 342.9,233.5 	"/>
	<polygon class="st16" points="371.6,221.9 398.5,237.1 398.7,239.1 371.7,223.9 	"/>
	<polygon class="st16" points="244.1,234.3 276,253.8 275.9,255.9 244,236.3 	"/>
	<polygon class="st17" points="378.9,240.6 378.8,238.6 391.7,233.3 391.8,235.3 	"/>
	<polygon class="st16" points="358.8,227.1 385.6,242.4 385.7,244.5 358.8,229.1 	"/>
	<polygon class="st17" points="369,232.9 369.1,234.9 353.2,241.4 353.1,239.4 	"/>
	<polygon class="st16" points="411.3,231.8 384.4,216.8 384.5,218.7 411.5,233.8 	"/>
	<polygon class="st16" points="369.7,249 369.8,251.1 342.9,235.5 342.9,233.5 	"/>
	<polygon class="st16" points="349.6,243.9 336.3,236.1 336.3,238.1 349.7,245.9 	"/>
	<polygon class="st17" points="397.9,226.2 397.8,224.7 386.1,229.5 386.5,229.8 386.6,230.9 	"/>
	<polygon class="st16" points="206.3,248.5 238.9,268.7 238.7,270.9 206.1,250.2 	"/>
	<polygon class="st16" points="199.9,251.5 237.4,276.1 237.2,278.2 199.6,253.6 	"/>
	<polygon class="st17" points="317.4,237.7 238.9,268.7 238.7,270.9 317.4,239.3 	"/>
	<polygon class="st17" points="336.3,236.1 336.3,238.1 219.1,285.6 219.4,283.1 	"/>
	<polygon class="st17" points="217.2,264.9 217.4,262.7 198.7,270 198.4,272.2 	"/>
	<polygon class="st17" points="232.5,275.3 232.7,273.1 214.3,280.4 216.4,281.7 	"/>
	<polygon class="st17" points="356.2,241.2 356.3,243.3 349.7,245.9 349.6,243.9 	"/>
	<polygon class="st16" points="329.8,238.8 356.5,254.5 356.5,256.6 329.7,240.8 	"/>
	<polygon class="st16" points="303,249.6 329.6,265.6 329.6,267.7 303,251.6 	"/>
	<polygon class="st16" points="282.6,257.8 309.1,274.1 309.1,276.3 282.5,259.9 	"/>
	<polygon class="st16" points="180.4,258.6 245.6,300.4 245.4,302.7 180.1,260.3 	"/>
	<polygon class="st16" points="268.8,263.4 295.3,279.8 295.2,282 268.6,265.5 	"/>
	<polygon class="st16" points="160.7,260.2 166.9,264.3 166.6,266.4 160.4,262.3 	"/>
	<polygon class="st16" points="245.5,272.8 272.1,289.4 271.9,291.7 245.3,274.9 	"/>
	<polygon class="st16" points="182.3,266.7 174.2,261.4 173.9,263.6 182,268.9 	"/>
	<polygon class="st17" points="169.5,272.1 183.1,266.8 182.8,268.5 169.1,274.2 	"/>
	<polygon class="st16" points="176.6,276.8 176.2,279 168.3,273.7 168.6,272 	"/>
	<polygon class="st17" points="185.4,273.1 185.1,275.3 176.2,279 176.6,276.8 	"/>
	<polygon class="st16" points="191.7,277.3 191.4,279.5 185.1,275.3 185.4,273.1 	"/>
	<polygon class="st17" points="174.4,284.6 192.5,277.3 192.3,279.1 174.1,286.8 	"/>
	<polygon class="st17" points="166.9,264.3 152.4,269.9 152,272.1 166.6,266.4 173.9,263.6 174.2,261.4 	"/>
	<polygon class="st16" points="152.4,269.9 174.4,284.6 174.1,286.8 152,272.1 	"/>
	<polygon class="st16" points="284.7,212.4 323.2,234.9 323.1,236.9 284.6,214.3 	"/>
	<polygon class="st16" points="229.7,182 229.9,180.2 247.8,190.7 245.8,191.4 	"/>
	<polygon class="st17" points="145.1,272.7 152.4,269.9 152,272.1 144.7,274.9 	"/>
	<polygon class="st16" points="84.7,232.8 208.9,315.6 208.6,317.9 84.6,234.4 	"/>
	<polygon class="st16" points="214.8,185.7 232.9,196.2 230.8,197 214.6,187.5 	"/>
	<path class="st16" d="M199.9,191.1c0,0,18.4,10.6,18,10.7c-0.4,0.1-2.1,0.8-2.1,0.8l-16.2-9.6L199.9,191.1z"/>
	<polygon class="st16" points="153.8,208.1 171.4,219.1 169.2,219.9 153.4,210 	"/>
	<polygon class="st16" points="183.5,197.2 201.3,208 199.2,208.8 183.3,199.1 	"/>
	<polygon class="st16" points="170,202.1 187.7,213.1 185.6,213.9 169.7,204 	"/>
	<polygon class="st16" points="138.6,213.6 156.2,224.8 153.8,225.7 138.3,215.6 	"/>
	<polygon class="st16" points="121.5,219.9 139,231.2 136.8,232 121.1,221.8 	"/>
	<polygon class="st16" points="105.2,225.8 121.8,237.3 119.6,238.1 104.7,227.8 	"/>
	<polygon class="st16" points="232.9,196.2 269.7,218.4 267.5,219.1 232.7,198.2 	"/>
	<polygon class="st16" points="171.4,219.1 207.4,242 205.2,242.9 171.1,221.1 	"/>
	<polygon class="st16" points="139,231.2 175.1,254.7 172.9,255.5 138.6,233.2 	"/>
	<polygon class="st16" points="201.3,208 237.9,230.4 235.6,231.3 201,210 	"/>
	<polygon class="st17" points="208.9,315.6 208.6,317.9 412.5,233.4 412.5,231.9 	"/>
	<g>
		<path class="st18" d="M208.8,316.1L84.7,232.8l158.2-58l0.2,0.1l99.8,58l41.4-16.7l0.2,0.1l27.8,15.6L208.8,316.1z M86.9,233.1
			l122,81.9l201.3-83.3l-25.8-14.4L342.9,234l-0.2-0.1l-99.8-58L86.9,233.1z"/>
		<path class="st18" d="M122,238.1l-17.9-12.4l17.5-6.4l18.6,12L122,238.1z M106.2,226l15.9,11l15.8-5.8l-16.5-10.7L106.2,226z"/>
		<path class="st18" d="M103,245.1l-18.4-12.3l20.6-7.5l17.9,12.4L103,245.1z M86.9,233.1l16.3,11l17.8-6.7l-15.9-11L86.9,233.1z"/>
		<path class="st18" d="M138.9,269.2L102,244.5l37-13.8l0.2,0.1l36.9,24L138.9,269.2z M104.2,244.7l34.8,23.4l35-13.5l-35.1-22.8
			L104.2,244.7z"/>
		<path class="st18" d="M175.1,255.2l-0.2-0.1l-37-24l33.6-12.5l37,23.6L175.1,255.2z M140.1,231.3l35.1,22.8l31.1-12.2l-34.9-22.2
			L140.1,231.3z"/>
		<path class="st18" d="M207.3,242.6l-37-23.6l31.3-11.6l37.4,23.1L207.3,242.6z M172.6,219.3l34.9,22.2l29.3-11.1l-35.3-21.8
			L172.6,219.3z"/>
		<path class="st18" d="M171.4,219.7l-18.7-11.8l17.4-6.4l18.8,11.6L171.4,219.7z M154.9,208.2l16.6,10.4l15.1-5.6L170,202.7
			L154.9,208.2z"/>
		<path class="st18" d="M187.6,213.6L168.9,202l14.7-5.4l18.8,11.5L187.6,213.6z M171.1,202.2l16.6,10.3l12.4-4.6l-16.7-10.2
			L171.1,202.2z"/>
		<path class="st18" d="M269.6,218.7l-0.2-0.1l-37.7-22.4l29.1-10.9l38.1,22.1L269.6,218.7z M234,196.4l35.7,21.2l26.9-10.4
			l-35.9-20.8L234,196.4z"/>
		<path class="st18" d="M232.8,196.8l-19.2-11.3l16.3-5.9l19,11.1L232.8,196.8z M216,185.8l17,9.9l13.7-5.1l-16.8-9.8L216,185.8z"/>
		<path class="st18" d="M237.8,231l-37.7-23.1l32.8-12.2l37.9,22.5L237.8,231z M202.4,208.1l35.5,21.7l30.6-11.8l-35.7-21.2
			L202.4,208.1z"/>
		<path class="st18" d="M201.2,208.6L182.4,197l17.6-6.5l0.2,0.1l18.9,11.2L201.2,208.6z M184.7,197.3l16.7,10.2l15.4-5.8l-16.9-10
			L184.7,197.3z"/>
		<path class="st18" d="M217.9,202.4l-19-11.4l15.9-5.9l19.2,11.2L217.9,202.4z M201.2,191.2l16.8,10l13.7-5.1l-17-9.9L201.2,191.2z
			"/>
		<path class="st18" d="M156.1,225.3l-18.6-11.9l16.4-6l18.7,11.7L156.1,225.3z M139.8,213.7l16.5,10.5l14.1-5.2l-16.6-10.4
			L139.8,213.7z"/>
		<path class="st18" d="M138.9,231.8l-18.6-12l18.3-6.7l18.6,11.9L138.9,231.8z M122.6,220l16.5,10.7l16-6l-16.5-10.5L122.6,220z"/>
		<path class="st18" d="M145,273.3l-7.1-4.8l22.9-8.9l7.2,4.7L145,273.3z M140,268.8l5.1,3.4l20.7-8l-5.1-3.4L140,268.8z"/>
		<path class="st18" d="M174.4,285.1l-23.1-15.4l22.9-8.9l9.1,6l-12.8,5.3l6.1,4.1l8.7-3.6l7.4,4.7L174.4,285.1z M153.5,270l21,14
			l16.1-6.8l-5.4-3.4l-8.7,3.6l-8.1-5.4l12.8-5.3l-7.1-4.6L153.5,270z"/>
		<path class="st18" d="M219,283.8l-0.2-0.1l-38.7-25.1l19.8-7.6l0.2,0.1l38.2,25L219,283.8z M182.3,258.8l36.8,23.9l17.1-6.8
			l-36.4-23.8L182.3,258.8z"/>
		
			<rect x="197.8" y="266.1" transform="matrix(0.9317 -0.3633 0.3633 0.9317 -82.6556 93.7303)" class="st18" width="20.1" height="1"/>
		
			<rect x="213.4" y="276.2" transform="matrix(0.9298 -0.3682 0.3682 0.9298 -86.174 101.7361)" class="st18" width="20.2" height="1"/>
		<path class="st18" d="M245.5,301L218,283.1l27.6-10.9l27.6,17.3L245.5,301z M220.2,283.4l25.4,16.5l25.4-10.5l-25.5-16
			L220.2,283.4z"/>
		<path class="st18" d="M272,290l-0.2-0.1l-27.4-17.2l24.4-9.8l0.2,0.1l27.4,16.9L272,290z M246.6,272.9l25.5,16l22.1-9.1L268.7,264
			L246.6,272.9z"/>
		<path class="st18" d="M295.3,280.4l-27.6-17.1l15-6l27.6,16.9L295.3,280.4z M269.9,263.5l25.5,15.8L308,274l-25.5-15.6
			L269.9,263.5z"/>
		<path class="st18" d="M309.1,274.6l-27.6-16.9l21.6-8.7l0.2,0.1l27.5,16.5L309.1,274.6z M283.7,257.9l25.5,15.6l19.4-8L303,250.1
			L283.7,257.9z"/>
		<path class="st18" d="M329.6,266.2l-27.7-16.7l27.9-11.2l27.8,16.3L329.6,266.2z M304.1,249.7l25.6,15.4l25.7-10.6l-25.6-15
			L304.1,249.7z"/>
		<path class="st18" d="M356.4,255l-27.8-16.3l7.7-3.2l13.3,7.8l6.6-2.7l14.6,8.4L356.4,255z M330.9,238.9l25.6,15l12.1-5l-12.4-7.2
			l-6.6,2.7l-13.3-7.8L330.9,238.9z"/>
		<path class="st18" d="M369.7,249.5l-27.9-16.1l17-6.9l0.2,0.1l27.7,15.8L369.7,249.5z M344.1,233.6l25.7,14.9l14.7-6.1l-25.7-14.7
			L344.1,233.6z"/>
		<path class="st18" d="M385.5,243l-7.8-4.5l14-5.8l8,4.5L385.5,243z M380,238.6l5.6,3.2l11.8-4.8l-5.7-3.2L380,238.6z"/>
		<path class="st18" d="M398.5,237.7l-14.7-8.3l14-5.7l14.7,8.2L398.5,237.7z M386.1,229.5l12.5,7l11.6-4.8l-12.4-7L386.1,229.5z"/>
		<path class="st18" d="M384.9,230l-14.4-8.2l13.9-5.6l14.5,8.1L384.9,230z M372.8,222l12.2,6.9l11.6-4.7l-12.3-6.8L372.8,222z"/>
		<path class="st18" d="M369.7,249.5L352,239.3l17-6.9l17.7,10.1L369.7,249.5z M354.2,239.5l15.5,9l14.7-6.1l-15.5-8.9L354.2,239.5z
			"/>
		<path class="st18" d="M323.1,235.5l-0.2-0.1l-20.3-11.9l14.2-5.7l20.7,12L323.1,235.5z M304.9,223.6l18.3,10.7l12-4.8l-18.5-10.7
			L304.9,223.6z"/>
		<path class="st18" d="M303.7,224.1l-10-5.8l14.3-5.6l10,5.8L303.7,224.1z M296.1,218.4l7.7,4.5l11.9-4.7l-7.8-4.5L296.1,218.4z"/>
		<path class="st18" d="M294.9,218.9l-11.3-6.6l14.3-5.5l11.3,6.6L294.9,218.9z M285.9,212.5l9.1,5.3l11.9-4.6l-9.1-5.3L285.9,212.5
			z"/>
		<path class="st18" d="M280.3,236.5l-16.9-10.2l21.1-8.2l17.1,10.1L280.3,236.5z M265.6,226.5l14.8,8.9l18.9-7.4l-14.9-8.8
			L265.6,226.5z"/>
		<path class="st18" d="M296.5,246.2l-17.2-10.4l21.3-8.3l17.2,10.2L296.5,246.2z M281.5,236.1l15.1,9.1l18.9-7.6l-15-8.9
			L281.5,236.1z"/>
		<path class="st18" d="M263.1,246.5L243,234.2l21.5-8.4l20.1,12.1L263.1,246.5z M245.3,234.4l17.9,11l19.2-7.6l-18-10.8
			L245.3,234.4z"/>
		<path class="st18" d="M276,254.3l-13.9-8.5l21.5-8.5l14.1,8.5L276,254.3z M264.3,246l11.8,7.2l19.3-7.7l-11.9-7.2L264.3,246z"/>
		<path class="st18" d="M238.9,269.3l-32.8-20.8l38.1-14.8l0.2,0.1l32.7,20L238.9,269.3z M208.3,248.7l30.7,19.5l35.9-14.5
			l-30.8-18.9L208.3,248.7z"/>
	</g>
	<path class="st16" d="M178.3,268.5c0.2,0.1,7,4.7,7,4.7l-2.1,0.9l-5.2-3.4L178.3,268.5z"/>
	<path class="st18" d="M176.4,277.5l-0.2-0.1c-7.4-4.8-7.4-4.8-7.3-5.2c0.1-0.4,0.1-0.4,9.1-4l0.2-0.1l8.2,5.3L176.4,277.5z
		 M170.3,272.3c1.2,0.9,4.2,2.8,6.2,4.1l7.7-3.2l-6.2-4C175.5,270.1,171.8,271.6,170.3,272.3z"/>
	<g>
		<polygon class="st14" points="214.9,260.7 213.9,261.2 213.6,262.9 210.6,260.9 210.7,260.8 211.8,258.6 212.9,258.6 		"/>
		<polygon class="st17" points="211.7,258.8 210.8,259.3 210.6,260.9 211.5,260.4 		"/>
		<polygon class="st14" points="211.8,258.9 211.7,258.9 211.7,258.7 		"/>
	</g>
	<g>
		<polygon class="st14" points="224.4,266.8 223.4,267.4 223.1,269.1 220.1,267.1 220.1,267 221.2,264.8 222.3,264.8 		"/>
		<polygon class="st17" points="221.1,264.9 220.3,265.4 220.1,267 221,266.6 		"/>
	</g>
	<g>
		<polygon class="st14" points="237.2,275.3 236.2,275.8 236.1,276 234.6,276.6 232.8,275.5 232.9,275.4 234,273.2 235.1,273.2 		
			"/>
		<polygon class="st17" points="233.9,273.3 233,273.8 232.9,275.5 233.7,275 		"/>
	</g>
	<g>
		<polygon class="st15" points="350.1,250.2 349.2,250.6 349.1,252.3 345.9,250.4 346,250.3 346.8,248.2 347.8,248.1 		"/>
		<polygon class="st17" points="346.7,248.3 345.9,248.8 345.9,250.4 346.7,249.9 		"/>
	</g>
	<g>
		<polygon class="st15" points="301.6,221.8 300.7,222.3 300.6,223.8 297.5,222 297.6,221.9 298.5,219.8 299.5,219.8 		"/>
		<polygon class="st17" points="298.4,220 297.6,220.4 297.5,222 298.3,221.5 		"/>
	</g>
	<g>
		<polygon class="st14" points="341.7,232.3 340.8,232.8 340.8,234.3 337.6,232.5 337.7,232.4 338.4,230.3 		"/>
		<polygon class="st17" points="338.4,230.4 337.6,230.8 337.6,232.5 338.4,232 		"/>
	</g>
	<g>
		<polygon class="st15" points="292.3,216.2 291.3,216.7 291.2,218.2 288.2,216.4 288.3,216.4 289.2,214.3 290.2,214.3 		"/>
		<polygon class="st17" points="289.1,214.4 288.3,214.8 288.2,216.4 289,216 		"/>
	</g>
	<g>
		<polygon class="st14" points="291.9,222.5 291,223 290.9,224.5 287.8,222.7 287.9,222.6 288.8,220.5 289.8,220.6 		"/>
		<polygon class="st17" points="288.7,220.7 287.9,221.1 287.8,222.7 288.6,222.2 		"/>
	</g>
	<g>
		<polygon class="st14" points="313.8,235.4 312.9,235.9 312.8,237.4 309.7,235.6 309.8,235.5 310.6,233.4 311.7,233.4 		"/>
		<polygon class="st17" points="310.5,233.5 309.7,233.9 309.7,235.5 310.5,235.1 		"/>
	</g>
	<g>
		<polygon class="st14" points="366.3,230.9 365.4,231.3 365.4,233 362.2,231.1 362.3,231.1 363,228.9 364.1,229 		"/>
		<polygon class="st17" points="362.9,229.1 362.2,229.5 362.2,231.1 363,230.7 		"/>
	</g>
	<g>
		<polygon class="st14" points="375.9,236.3 375,236.8 375,238.4 371.7,236.6 371.8,236.5 372.6,234.4 373.6,234.4 		"/>
		<polygon class="st17" points="372.5,234.5 371.7,234.9 371.8,236.6 372.6,236.1 		"/>
	</g>
	<g>
		<polygon class="st15" points="380.3,226.2 379.5,226.7 379.5,228.3 376.3,226.5 376.3,226.4 377,224.3 378.1,224.3 		"/>
		<polygon class="st17" points="377,224.4 376.2,224.8 376.3,226.4 377.1,226 		"/>
	</g>
	<g>
		<polygon class="st15" points="389.9,231.6 389.1,232.1 389.1,233.7 385.8,231.9 385.9,231.8 386.6,230.9 387.8,230.4 		"/>
		<polygon class="st17" points="386.5,230.1 385.8,230.5 385.9,231.8 386.6,231.4 		"/>
	</g>
	<g>
		<polygon class="st14" points="183.5,271.3 182.5,271.9 182.2,273.5 179.2,271.5 179.3,271.5 180.3,269.7 181.5,269.2 		"/>
		<polygon class="st17" points="180.3,269.5 179.4,269.9 179.2,271.5 180.1,271.1 		"/>
		<polygon class="st15" points="180.5,269.5 180.3,269.5 180.4,269.3 		"/>
	</g>
	<g>
		<polygon class="st14" points="179.6,264.3 178.5,264.8 178.3,266.5 175.2,264.6 175.3,264.5 176.4,262.4 177.6,262.3 		"/>
		<polygon class="st17" points="176.4,262.4 175.5,262.8 175.3,264.5 176.2,264.1 		"/>
	</g>
	<g>
		<polygon class="st14" points="165.6,262.7 164.5,263.3 164.2,264.9 161.3,262.9 161.3,262.9 162.3,261.7 164,261.1 		"/>
		<polygon class="st17" points="162.4,260.8 161.6,261.2 161.3,262.9 162.2,262.5 		"/>
		<polygon class="st17" points="163.3,261.2 162.4,261.6 162.5,260.8 		"/>
	</g>
	<g>
		<polygon class="st15" points="168.5,256.1 169.9,257.1 169.6,258.9 173,257.6 172.4,255.3 171.5,254.7 		"/>
		<polygon class="st16" points="172.4,255.3 173.2,255.8 173,257.5 172.2,256.9 		"/>
	</g>
	<g>
		<polygon class="st15" points="191.7,247.1 193,248.1 192.8,249.9 196.1,248.6 195.5,246.3 195,245.5 		"/>
		<polygon class="st16" points="195.5,246.3 196.3,246.8 196.1,248.5 195.3,247.9 		"/>
	</g>
	<g>
		<polygon class="st15" points="221.7,235.6 223.1,236.6 222.9,238.3 226.2,237.1 225.5,234.8 225,234.1 		"/>
		<polygon class="st16" points="225.5,234.8 226.3,235.3 226.2,236.9 225.3,236.4 		"/>
	</g>
	<g>
		<polygon class="st15" points="251.5,224.1 252.9,225 252.8,226.7 256,225.5 255.2,223.3 254.8,222.6 		"/>
		<polygon class="st16" points="255.3,223.3 256.1,223.8 256,225.4 255.2,224.8 		"/>
	</g>
	<g>
		<polygon class="st15" points="278.8,213.6 280.2,214.5 280.2,216.2 283.3,215 282.5,212.8 282,212.1 		"/>
		<polygon class="st16" points="282.5,212.8 283.3,213.3 283.3,214.9 282.4,214.3 		"/>
	</g>
	<g>
		<polygon class="st15" points="284.7,249.3 286.1,250.3 286.1,252 289.2,250.7 288.4,248.4 287.9,247.7 		"/>
		<polygon class="st17" points="288.4,248.4 289.3,249 289.2,250.6 288.4,250.1 		"/>
	</g>
	<g>
		<polygon class="st15" points="264.5,257.3 265.9,258.3 265.8,260.1 269,258.8 268.2,256.4 267.8,255.7 		"/>
		<polygon class="st17" points="268.3,256.4 269.1,257 269.1,258.7 268.2,258.1 		"/>
	</g>
	<g>
		<polygon class="st15" points="124.5,235.6 125.8,236.6 125.4,238.3 128.8,237.1 128.3,234.8 127.9,234.1 		"/>
		<polygon class="st16" points="128.3,234.8 129.1,235.3 128.8,236.9 128,236.4 		"/>
	</g>
	<g>
		<polygon class="st15" points="114.3,239.4 115.6,240.3 115.3,242.1 118.7,240.8 118.2,238.5 117.8,237.8 		"/>
		<polygon class="st16" points="118.2,238.5 119,239.1 118.7,240.7 117.9,240.1 		"/>
	</g>
	<g>
		<polygon class="st15" points="158.3,223.1 159.6,224 159.3,225.7 162.6,224.5 162,222.3 161.6,221.5 		"/>
		<polygon class="st16" points="162.1,222.3 162.8,222.8 162.6,224.4 161.8,223.8 		"/>
	</g>
	<g>
		<polygon class="st15" points="148.4,226.7 149.7,227.7 149.4,229.4 152.7,228.1 152.2,225.9 151.8,225.2 		"/>
		<polygon class="st16" points="152.2,225.9 153,226.4 152.7,228 152,227.5 		"/>
	</g>
	<g>
		<polygon class="st15" points="189.9,211.3 191.2,212.2 191,213.9 194.2,212.7 193.6,210.5 193.2,209.8 		"/>
		<polygon class="st16" points="193.6,210.5 194.4,211 194.2,212.6 193.4,212 		"/>
	</g>
	<g>
		<polygon class="st15" points="180.3,214.9 181.6,215.8 181.4,217.5 184.6,216.3 184,214.1 183.6,213.4 		"/>
		<polygon class="st16" points="184,214.1 184.8,214.6 184.6,216.1 183.8,215.6 		"/>
	</g>
	<g>
		<polygon class="st15" points="220.1,200 221.4,200.9 221.3,202.5 224.4,201.4 223.7,199.3 223.3,198.6 		"/>
		<polygon class="st16" points="223.8,199.3 224.5,199.8 224.4,201.3 223.6,200.8 		"/>
	</g>
	<g>
		<polygon class="st15" points="210.7,203.5 212,204.4 211.8,206.1 215,204.9 214.3,202.8 213.9,202.1 		"/>
		<polygon class="st16" points="214.3,202.8 215.1,203.3 215,204.8 214.2,204.3 		"/>
	</g>
	<g>
		<polygon class="st15" points="250,189 251.3,189.9 251.2,191.4 254.3,190.3 253.5,188.2 253.1,187.6 		"/>
		<polygon class="st16" points="253.6,188.2 254.4,188.7 254.3,190.2 253.5,189.7 		"/>
	</g>
	<g>
		<polygon class="st15" points="240.7,192.4 242.1,193.3 242,194.9 245,193.7 244.3,191.6 243.9,191 		"/>
		<polygon class="st16" points="244.4,191.6 245.1,192.1 245,193.6 244.2,193.1 		"/>
	</g>
	<g>
		<polygon class="st14" points="232.7,237.6 234,238.6 233.9,240.3 237.1,239 236.2,236.4 235.9,236.1 		"/>
		<polygon class="st16" points="236.4,236.9 237.2,237.4 237.1,239 236.3,238.4 		"/>
	</g>
	<g>
		<polygon class="st14" points="238.8,274.3 240.2,275.4 240,277.2 243.3,275.8 242.4,273 242.1,272.7 		"/>
		<polygon class="st16" points="242.6,273.6 243.4,274.2 243.3,275.8 242.5,275.2 		"/>
	</g>
	<g>
		<polygon class="st14" points="259.3,266 260.6,267.1 260.5,268.9 263.8,267.5 262.8,264.8 262.5,264.5 		"/>
		<polygon class="st16" points="263,265.3 263.9,265.9 263.8,267.5 262.9,266.9 		"/>
	</g>
	<g>
		<polygon class="st14" points="272.1,260.8 273.5,261.9 273.4,263.6 276.6,262.3 275.6,259.6 275.3,259.3 		"/>
		<polygon class="st16" points="275.8,260.1 276.7,260.7 276.6,262.3 275.8,261.7 		"/>
	</g>
	<g>
		<polygon class="st14" points="288.6,254.3 290,255.3 290,257 293.2,255.7 292.1,253 291.8,252.7 		"/>
		<polygon class="st16" points="292.3,253.5 293.2,254.1 293.2,255.7 292.3,255.1 		"/>
	</g>
	<g>
		<polygon class="st14" points="308.1,246.3 309.5,247.4 309.5,249.1 312.6,247.8 311.5,245.1 311.2,244.8 		"/>
		<polygon class="st17" points="311.8,245.6 312.6,246.2 312.6,247.7 311.8,247.2 		"/>
	</g>
	<g>
		<polygon class="st14" points="363.8,224.5 364.7,225.1 364.7,226.7 367.8,225.5 366.8,223.3 		"/>
		<polygon class="st17" points="366.8,223.5 367.7,224 367.8,225.5 366.9,224.9 		"/>
	</g>
	<g>
		<polygon class="st14" points="253.4,229.6 254.8,230.6 254.6,232.2 257.8,231 256.9,228.4 256.6,228.1 		"/>
		<polygon class="st16" points="257.1,228.9 257.9,229.4 257.8,230.9 257,230.4 		"/>
	</g>
	<polygon class="st15" ng-class="{'pulsate': $ctrl.company.comproom == '110'}" points="242.7,177.2 258.3,186.3 247.9,190.1 232.3,181 	"/>
	<polygon class="st15" ng-class="{'pulsate': $ctrl.company.comproom == '117'}" points="217.2,264.9 230.1,273.6 214.5,279.7 201.5,271.3 	"/>
	<polygon class="st17" points="388.4,229.2 386.5,229.6 386.6,230.9 388.1,230.3 	"/>
</g>
<g id="Layer_5">
	<g class="st0">
		
			<image style="overflow:visible;enable-background:new    ;" width="1771" height="1000" xlink:href="uploads/maps/8642EFE0202546F6.png"  transform="matrix(0.2396 0 0 0.2396 36.004 -10.5528)">
		</image>
	</g>
	<g>
		<g>
			<g class="st1">
				<g class="st1">
					<g>
						<defs>
							<path id="SVGID_9_" d="M424,85.1v0.8c0,0.2,0,0.5,0,0.7c0,0.7-0.1,1.4-0.3,2v-0.8c0.1-0.6,0.2-1.3,0.3-2
								C424,85.5,424,85.3,424,85.1z"/>
						</defs>
						<clipPath id="SVGID_10_">
							<use xlink:href="#SVGID_9_"  style="overflow:visible;"/>
						</clipPath>
						<g class="st19">
							<path class="st3" d="M424,85.1v0.8c0,0.2,0,0.5,0,0.7c0,0.4-0.1,0.7-0.1,1.1v-0.8c0.1-0.4,0.1-0.7,0.1-1.1
								C424,85.5,424,85.3,424,85.1"/>
							<path class="st4" d="M423.9,86.9v0.8c0,0.3-0.1,0.6-0.2,0.9v-0.8C423.8,87.5,423.8,87.2,423.9,86.9"/>
						</g>
					</g>
				</g>
				<g class="st1">
					<g>
						<defs>
							<path id="SVGID_11_" d="M72.1,88.5v-0.8c0,3.9,1.9,7.7,5.3,9.9v0.8C74.1,96.1,72.1,92.4,72.1,88.5z"/>
						</defs>
						<clipPath id="SVGID_12_">
							<use xlink:href="#SVGID_11_"  style="overflow:visible;"/>
						</clipPath>
						<g class="st20">
							<path class="st6" d="M77.4,97.6v0.8c-3.4-2.3-5.3-6-5.3-9.9v-0.8C72.1,91.5,74.1,95.3,77.4,97.6"/>
						</g>
					</g>
				</g>
				<g class="st1">
					<g>
						<defs>
							<path id="SVGID_13_" d="M423.7,87.8v0.8c-0.4,4.4-3.2,8.3-7.4,10.1v-0.8C420.5,96.1,423.3,92.2,423.7,87.8z"/>
						</defs>
						<clipPath id="SVGID_14_">
							<use xlink:href="#SVGID_13_"  style="overflow:visible;"/>
						</clipPath>
						<g class="st21">
							<path class="st3" d="M423.7,87.8v0.8c0,0.3-0.1,0.5-0.1,0.8v-0.8C423.7,88.3,423.7,88,423.7,87.8"/>
							<path class="st4" d="M423.6,88.6v0.8c-0.1,0.7-0.3,1.4-0.5,2v-0.8C423.4,89.9,423.5,89.2,423.6,88.6"/>
							<path class="st8" d="M423.1,90.5v0.8c-0.2,0.7-0.6,1.5-1,2.2v-0.8C422.6,92,422.9,91.3,423.1,90.5"/>
							<path class="st6" d="M422.2,92.7v0.8c-1.3,2.3-3.3,4.1-5.8,5.2v-0.8C418.9,96.8,420.9,95,422.2,92.7"/>
						</g>
					</g>
				</g>
				<g>
					<polygon class="st9" points="201.5,180.9 201.5,181.8 77.4,98.4 77.4,97.6 					"/>
				</g>
				<g>
					<polygon class="st9" points="416.3,97.9 416.3,98.7 212.8,182.9 212.8,182.1 					"/>
				</g>
				<g class="st1">
					<g>
						<defs>
							<path id="SVGID_15_" d="M212.8,182.1v0.8c-1.5,0.6-3,0.9-4.6,0.9c-2.4,0-4.7-0.7-6.7-2V181c2,1.4,4.3,2,6.7,2
								C209.8,183,211.3,182.7,212.8,182.1z"/>
						</defs>
						<clipPath id="SVGID_16_">
							<use xlink:href="#SVGID_15_"  style="overflow:visible;"/>
						</clipPath>
						<g class="st22">
							<path class="st6" d="M212.8,182.1v0.8c-1.5,0.6-3,0.9-4.6,0.9c-2.4,0-4.7-0.7-6.7-2V181c2,1.4,4.3,2,6.7,2
								C209.8,183,211.3,182.7,212.8,182.1"/>
						</g>
					</g>
				</g>
				<g>
					<path class="st11" d="M242.5,16.1c2.1,0,4.2,0.5,6,1.6l94.6,54.8l36.4-14.2c1.4-0.6,3-0.9,4.5-0.9c2,0,4,0.5,5.9,1.5l28,15.6
						c4,2.2,6.4,6.6,6.1,11.2c0,0.7-0.1,1.4-0.3,2c-0.4,4.4-3.2,8.3-7.4,10.1L212.8,182c-1.5,0.6-3,0.9-4.6,0.9
						c-2.4,0-4.7-0.7-6.7-2L77.4,97.6c-3.9-2.6-5.8-7.2-5.2-11.7c0-0.4,0-0.9,0.1-1.3c0.5-4.5,3.6-8.3,7.8-9.8l158.2-57.9
						C239.7,16.4,241.1,16.1,242.5,16.1z"/>
				</g>
			</g>
		</g>
	</g>
	<g>
		<polygon class="st15" points="176.2,113.2 177.6,114.2 177.3,116.6 180.6,115.2 180.1,112.2 179.6,112.2 		"/>
		<polygon class="st17" points="180.1,112.4 180.9,113 180.6,115.2 179.8,114.6 		"/>
	</g>
	<polygon class="st14" points="208.6,169.4 85.3,86.4 242.7,28.7 343,87 384.5,70.2 411.5,85.3 	"/>
	<path class="st15" d="M185.6,126.6l-7.2-4.7c0,0-8.7,3.5-8.8,3.6c0,0.2,7.1,4.8,7.1,4.8L185.6,126.6z"/>
	<polygon class="st15" points="173.8,115.1 182,120.5 169.5,125.7 176.6,130.5 185.4,126.7 191.7,130.9 174.2,138.4 152,123.5 	"/>
	<polygon class="st15" points="336.3,89.6 349.7,97.4 356.3,94.7 363,98.6 349.8,104.1 329.8,92.3 	"/>
	<polygon class="st15" ng-class="{'pulsate': $ctrl.company.comproom == '201'}" points="241.1,46.5 284.6,72 169.8,116.6 127.8,88.7 	"/>
	<polygon class="st15" ng-class="{'pulsate': $ctrl.company.comproom == '202'}" points="199.8,124.5 180.9,112.2 202.3,103.9 221.3,116 	"/>
	<polygon class="st15" ng-class="{'pulsate': $ctrl.company.comproom == '203'}" points="221.3,116 202.3,103.9 219.8,97.2 238.7,109 	"/>
	<polygon class="st15" ng-class="{'pulsate': $ctrl.company.comproom == '205'}" points="257.5,82.5 289.6,101.9 336.2,83 303.9,64.3 	"/>
	<polygon class="st15" points="250.8,85.1 261.4,91.6 254.8,94.4 244,87.7 	"/>
	<polygon class="st15" points="256.6,95.5 263.5,92.8 269.8,96.7 263,99.4 	"/>
	<polygon class="st15" points="245.3,95.5 237.1,90.4 244,87.7 251.9,92.5 	"/>
	<polygon class="st15" points="246.2,96 253.1,93.3 263,99.4 256.1,102.2 	"/>
	<polygon class="st15" ng-class="{'pulsate': $ctrl.company.comproom == '204'}" points="256.1,102.2 237.1,90.4 219.8,97.2 238.7,109 	"/>
	<polygon class="st15" ng-class="{'pulsate': $ctrl.company.comproom == '207'}" points="248.1,118.5 274.3,135 253.3,143.8 226.9,127.1 	"/>
	<polygon class="st15" ng-class="{'pulsate': $ctrl.company.comproom == '208'}" points="269,110.1 248.1,118.5 274.3,135 295.4,126.5 	"/>
	<polygon class="st15" ng-class="{'pulsate': $ctrl.company.comproom == '210'}" points="329.8,92.3 302.9,103.1 322.9,115.2 349.8,104.1 	"/>
	<polygon class="st15" ng-class="{'pulsate': $ctrl.company.comproom == '209'}" points="289.4,108.6 302.9,103.1 322.9,115.2 295.4,126.5 269,110.1 282.8,104.6 	"/>
	<polygon class="st15" ng-class="{'pulsate': $ctrl.company.comproom == '206'}" points="205.3,135.7 226.9,127.1 253.3,143.8 209.3,161.9 174.2,138.4 195.7,129.3 	"/>
	<polygon class="st17" points="241.1,46.5 241.3,44.6 128.2,86.6 127.8,88.7 	"/>
	<polygon class="st17" points="241.3,44.6 284.4,69.8 284.3,72.1 241.1,46.5 	"/>
	<polygon class="st17" points="257.7,80.4 304,62.3 303.9,64.3 257.5,82.5 	"/>
	<polygon class="st16" points="356.2,92.6 356.3,94.7 303.9,64.3 304,62.3 	"/>
	<polygon class="st16" points="257.7,80.4 289.7,99.8 289.6,101.9 257.5,82.5 	"/>
	<polygon class="st17" points="152.4,121.3 257.7,80.4 257.5,82.5 152,123.5 	"/>
	<polygon class="st16" points="250.9,83 270.1,94.8 269.8,96.7 250.8,85.1 	"/>
	<polygon class="st17" points="256.8,93.4 263.6,90.7 263.5,92.8 256.6,95.5 	"/>
	<polygon class="st16" points="244.1,85.7 263.1,97.3 263,99.4 244,87.7 	"/>
	<polygon class="st17" points="246.4,93.9 253.2,91.2 253.1,93.3 246.2,96 	"/>
	<polygon class="st16" points="237.3,88.3 256.3,100 256.1,102.2 237.1,90.4 	"/>
	<polygon class="st16" points="220,95.1 238.8,106.9 238.7,109 219.8,97.2 	"/>
	<polygon class="st16" points="202.6,101.8 221.5,113.8 221.3,116 202.3,103.9 	"/>
	<polygon class="st17" points="270.9,94.9 270.8,96.4 199.8,124.5 200.1,122.3 	"/>
	<polygon class="st16" points="181.3,110.1 200.1,122.3 199.8,124.5 180.9,112.2 	"/>
	<polygon class="st17" points="185.7,124.5 185.4,126.7 176.6,130.5 176.9,128.2 	"/>
	<polygon class="st16" points="192,128.7 191.7,130.9 185.4,126.7 185.7,124.5 	"/>
	<path class="st16" d="M174.1,112.9c0.2,0.1,8.2,5.4,8.2,5.4l-0.3,2.2l-8.2-5.4L174.1,112.9z"/>
	<polygon class="st17" points="196,127.1 195.7,129.3 174.2,138.4 174.5,136.1 	"/>
	<polygon class="st17" points="169.8,123.5 183.1,118.3 182.9,120.1 169.5,125.7 	"/>
	<polygon class="st16" points="176.9,128.2 176.6,130.5 168.7,125.2 169,123.5 	"/>
	<path class="st17" d="M178.7,119.8c0.2,0.1,7,4.7,7,4.7l-2.1,0.9l-5.2-3.4L178.7,119.8z"/>
	<polygon class="st16" points="205.5,133.4 205.3,135.7 195.7,129.3 196,127.1 	"/>
	<polygon class="st17" points="282.9,102.5 205.5,133.4 205.3,135.7 282.8,104.6 	"/>
	<polygon class="st17" points="289.5,106.4 336.3,87.5 336.3,89.6 289.4,108.6 	"/>
	<polygon class="st17" points="349.7,95.3 356.2,92.6 356.3,94.7 349.7,97.4 	"/>
	<polygon class="st16" points="336.3,87.5 349.7,95.3 349.7,97.4 336.3,89.6 	"/>
	<polygon class="st17" points="356.2,92.6 362.9,96.5 363,98.6 356.3,94.7 	"/>
	<polygon class="st16" points="329.8,90.2 349.8,101.9 349.8,104.1 329.8,92.3 	"/>
	<polygon class="st16" points="303,101 322.9,113 322.9,115.2 302.9,103.1 	"/>
	<polygon class="st16" points="282.9,102.5 289.5,106.4 289.4,108.6 282.8,104.6 	"/>
	<polygon class="st16" points="269.1,108 295.5,124.2 295.4,126.5 269,110.1 	"/>
	<polygon class="st16" points="248.3,116.3 274.4,132.7 274.3,135 248.1,118.5 	"/>
	<polygon class="st16" points="227.1,124.8 253.4,141.5 253.3,143.8 226.9,127.1 	"/>
	<g>
		<path class="st18" d="M174.5,136.6l-23.2-15.4l22.9-8.9l9.2,6l-12.6,5.2l6.1,4.1l8.9-3.7l7.3,4.8L174.5,136.6z M153.5,121.4
			l21.1,14.1l16.4-6.9l-5.3-3.5l-8.9,3.7l-8.1-5.4l12.5-5.2l-7.2-4.7L153.5,121.4z"/>
		<path class="st18" d="M349.7,102.5l-21.1-12.4l7.7-3.2l13.3,7.8l6.6-2.7l7.8,4.5L349.7,102.5z M330.9,90.3l18.9,11.1l12-4.9
			l-5.6-3.3l-6.6,2.7l-13.3-7.8L330.9,90.3z"/>
		<path class="st18" d="M170.1,114.9l-43-28.4L241.3,44l44.4,26L170.1,114.9z M129.3,86.7l40.9,27.1l113.2-44l-42.2-24.7L129.3,86.7
			z"/>
		<path class="st18" d="M200,122.8L180.2,110l22.5-8.7l19.9,12.7L200,122.8z M182.3,110.2l17.8,11.5l20.2-8l-17.9-11.4L182.3,110.2z
			"/>
		<path class="st18" d="M221.4,114.4l-20-12.7l18.6-7.2l19.9,12.5L221.4,114.4z M203.7,101.9l17.8,11.4l16.2-6.5L220,95.6
			L203.7,101.9z"/>
		<path class="st18" d="M289.6,100.3l-33.1-20L304,61.8l33.4,19.4L289.6,100.3z M258.8,80.5l30.9,18.7L335.2,81L304,62.9L258.8,80.5
			z"/>
		<path class="st18" d="M263.1,97.9l-20-12.3l8-3.1l20.2,12.4L263.1,97.9z M245.3,85.8l17.9,11l5.8-2.1l-18.1-11.1L245.3,85.8z"/>
		<path class="st18" d="M263.2,98l-7.6-4.7l8-3.1l7.5,4.7L263.2,98z M257.9,93.5l5.5,3.3l5.6-2.2l-5.4-3.4L257.9,93.5z"/>
		<path class="st18" d="M256.2,100.6l-20-12.4l8-3.1l20,12.3L256.2,100.6z M238.4,88.4l17.9,11l5.7-2.3l-17.9-11L238.4,88.4z"/>
		<path class="st18" d="M256.2,100.6l-10.9-6.8l7.7-3l11.4,6.8L256.2,100.6z M247.5,94l8.8,5.5l5.8-2.2l-9.2-5.5L247.5,94z"/>
		<path class="st18" d="M238.8,107.4L218.9,95l18.5-7.2l20,12.3L238.8,107.4z M221.1,95.2l17.8,11.2l16.3-6.4l-17.9-11L221.1,95.2z"
			/>
		<path class="st18" d="M253.4,142.1l-27.3-17.4l22.3-9l27.2,17.1L253.4,142.1z M228.2,124.9l25.2,16l19.9-8.3l-25.1-15.8
			L228.2,124.9z"/>
		<path class="st18" d="M274.4,133.3l-27.2-17.1l22-8.8l27.5,16.9L274.4,133.3z M249.4,116.4l25.1,15.8l19.9-8L269,108.6
			L249.4,116.4z"/>
		<path class="st18" d="M322.8,113.5l-21-12.7l28-11.2l21.1,12.3L322.8,113.5z M304.1,101.1l18.8,11.4l25.7-10.6l-18.9-11.1
			L304.1,101.1z"/>
		<path class="st18" d="M295.5,124.8L268,107.9l14.9-5.9l6.7,4l13.5-5.5l21,12.6L295.5,124.8z M270.2,108l25.3,15.6l26.2-10.8
			l-18.8-11.4l-13.5,5.5l-6.7-4L270.2,108z"/>
		<path class="st18" d="M209.5,160.1l-0.2-0.1l-35.8-24l22.6-9.5l9.5,6.3l21.6-8.6l27.3,17.4L209.5,160.1z M175.6,136.2l34,22.8
			l42.7-17.5l-25.2-16l-21.6,8.6l-9.5-6.3L175.6,136.2z"/>
	</g>
	<polygon class="st16" points="84.9,84.3 208.9,167 208.6,169.4 84.5,85.9 	"/>
	<g>
		<g>
			<polygon class="st18" points="242.9,26.9 304,62.3 284.4,69.8 241.3,44.6 128.2,86.6 170.2,114.4 152.4,121.3 209.6,159.5 
				362.9,96.5 342.9,84.9 384.4,68.2 411.3,83.3 208.9,167 85.8,84.4 			"/>
			<path class="st18" d="M208.8,167.6L84.7,84.3l158.2-58l62.2,36.1l-20.8,8l-43.2-25.3L129.3,86.7l41.9,27.7l-17.8,6.9l56.1,37.5
				l152.2-62.5l-20-11.6l42.6-17.2l28,15.7L208.8,167.6z M86.9,84.5l122,81.9l201.3-83.3l-25.8-14.4L344.1,85l20,11.6l-154.6,63.5
				l-0.2-0.1l-58-38.7l17.8-6.9l-42-27.8L241.3,44l43.2,25.3l18.4-7l-60-34.8L86.9,84.5z"/>
		</g>
	</g>
	<polygon class="st17" points="412,83.4 412.2,85.1 208.6,169.4 208.9,167 	"/>
	<path class="st18" d="M208.8,167.6L84.7,84.3l158.2-58l100,58.1l41.4-16.7l28,15.7L208.8,167.6z M86.9,84.5l122,81.9l201.3-83.3
		l-25.8-14.4l-41.5,16.7l-100.1-58L86.9,84.5z"/>
	<polygon class="st18" points="411.2,83.8 387.6,78.7 383.9,68.4 384.8,68.1 388.4,77.8 411.4,82.8 	"/>
	<rect x="353.3" y="84.5" transform="matrix(0.927 -0.3751 0.3751 0.927 -4.772 145.4844)" class="st18" width="36" height="1"/>
	
		<rect x="233.2" y="35.2" transform="matrix(8.982757e-02 -0.996 0.996 8.982757e-02 184.7982 273.5505)" class="st18" width="17.8" height="1"/>
	
		<rect x="106.5" y="64.3" transform="matrix(5.212072e-02 -0.9986 0.9986 5.212072e-02 16.0647 187.9317)" class="st18" width="1" height="42.5"/>
	
		<rect x="205.4" y="162.8" transform="matrix(9.370357e-02 -0.9956 0.9956 9.370357e-02 27.079 356.2926)" class="st18" width="7.6" height="1"/>
	<g>
		<polygon class="st15" points="175.7,111.1 177.1,112.1 176.8,114 180.2,112.6 179.6,110.3 179.2,109.5 		"/>
		<polygon class="st17" points="179.6,110.3 180.4,110.8 180.2,112.5 179.4,111.9 		"/>
	</g>
	<g>
		<polygon class="st15" points="252.3,81.3 253.7,82.3 253.6,84 256.8,82.8 256,80.5 255.6,79.8 		"/>
		<polygon class="st17" points="256.1,80.5 256.9,81.1 256.8,82.7 256,82.1 		"/>
	</g>
	<g>
		<polygon class="st15" points="215.3,115.1 216.7,116.2 216.5,118 219.8,116.7 219,114.7 217.8,113.9 		"/>
		<polygon class="st17" points="218.5,114.2 219.1,114.5 219.1,114.2 		"/>
		<polygon class="st17" points="219.1,114.3 220,114.9 219.8,116.6 219,116 		"/>
	</g>
	<g>
		<polygon class="st15" points="232.7,108.2 234.1,109.3 234,111.1 237.3,109.7 237.2,109.6 236.5,107.8 235.9,107.4 		"/>
		<polygon class="st16" points="236.6,107.4 237.4,108 237.3,109.6 236.4,109.1 		"/>
		<polygon class="st17" points="236.1,107.4 236.5,107.6 236.5,107.3 		"/>
	</g>
	<g>
		<polygon class="st15" points="239.3,105.6 240.7,106.7 240.6,108.4 243.8,107.1 243.1,104.8 242.6,104 		"/>
		<polygon class="st16" points="243.1,104.8 243.9,105.4 243.8,107 243,106.5 		"/>
	</g>
	<g>
		<polygon class="st15" points="256,99 257.5,100 257.4,101.7 260.6,100.5 259.8,98.2 259.3,97.4 		"/>
		<polygon class="st16" points="259.8,98.2 260.7,98.7 260.6,100.3 259.7,99.8 		"/>
	</g>
	<g>
		<polygon class="st15" points="263.3,96.2 264.8,97.3 264.7,98.9 267.9,97.6 267.1,95.5 266.5,94.8 		"/>
		<polygon class="st16" points="267.1,95.5 268,96 267.9,97.5 267.1,97 		"/>
	</g>
	<g>
		<polygon class="st14" points="190.7,127.1 189.7,127.6 189.4,129.5 186.4,127.4 186.5,127.4 187.5,125.2 188.3,124.3 		"/>
		<polygon class="st17" points="187.5,125.2 186.7,125.6 186.4,127.4 187.3,127 		"/>
	</g>
	<g>
		<polygon class="st15" points="283.6,95.5 282.7,96 282.6,97.7 279.4,95.8 279.5,95.7 280.4,93.7 281,92.8 		"/>
		<polygon class="st17" points="280.4,93.7 279.5,94.1 279.5,95.8 280.3,95.3 		"/>
	</g>
	<g>
		<polygon class="st15" points="251.5,89.5 250.6,90 250.4,91.7 247.3,89.8 247.4,89.8 248.3,87.7 249,86.9 		"/>
		<polygon class="st17" points="248.3,87.7 247.5,88.1 247.4,89.8 248.2,89.4 		"/>
	</g>
	<g>
		<polygon class="st14" points="258.9,87.2 257.9,87.7 257.8,89.4 254.7,87.6 254.8,87.5 255.7,85.5 256.3,84.6 		"/>
		<polygon class="st17" points="255.7,85.5 254.9,85.9 254.7,87.6 255.6,87.1 		"/>
	</g>
	<path class="st18" d="M176.8,128.8l-0.2-0.1c-7.4-4.8-7.4-4.8-7.3-5.2c0.1-0.4,0.1-0.4,9.1-4l0.2-0.1l8.2,5.3L176.8,128.8z
		 M170.7,123.6c1.2,0.9,4.2,2.8,6.2,4.1l7.7-3.2l-6.2-4C175.9,121.4,172.2,122.9,170.7,123.6z"/>
	<g>
		<polygon class="st14" points="184,122.7 183,123.2 182.7,124.9 179.6,122.9 179.7,122.8 180.8,121.1 182,120.6 		"/>
		<polygon class="st17" points="180.8,120.8 179.9,121.3 179.7,122.9 180.6,122.4 		"/>
		<polygon class="st15" points="181,120.8 180.8,120.9 180.9,120.7 		"/>
	</g>
	<g>
		<polygon class="st14" points="220.8,126.2 222.2,127.3 222,129 225.3,127.7 224.4,124.9 224.1,124.6 		"/>
		<polygon class="st17" points="224.6,125.4 225.5,126 225.3,127.7 224.5,127.1 		"/>
	</g>
	<g>
		<polygon class="st14" points="229,122.9 230.4,124 230.2,125.8 233.6,124.4 232.6,121.6 232.4,121.3 		"/>
		<polygon class="st16" points="232.8,122.2 233.7,122.7 233.6,124.4 232.7,123.8 		"/>
	</g>
	<g>
		<polygon class="st14" points="250.6,114.2 252,115.3 251.9,117 255.2,115.7 254.2,113 253.9,112.7 		"/>
		<polygon class="st16" points="254.4,113.5 255.3,114.1 255.2,115.7 254.3,115.1 		"/>
	</g>
	<g>
		<polygon class="st14" points="271.8,105.9 273.2,106.9 273.1,108.6 276.3,107.3 275.3,104.6 275,104.3 		"/>
		<polygon class="st17" points="275.5,105.1 276.3,105.7 276.3,107.3 275.4,106.7 		"/>
	</g>
	<g>
		<polygon class="st14" points="312,96.3 313.4,97.3 313.3,99 316.5,97.7 315.4,95.1 315.1,94.8 		"/>
		<polygon class="st16" points="315.6,95.6 316.5,96.1 316.5,97.7 315.6,97.1 		"/>
	</g>
	<g>
		<polygon class="st14" points="331.2,88.5 332.7,89.5 332.7,91.1 335.8,89.9 334.6,87.3 334.3,87 		"/>
		<polygon class="st16" points="334.9,87.8 335.7,88.3 335.8,89.9 334.9,89.3 		"/>
	</g>
	<polygon class="st17" points="289.6,100.3 336.2,81.6 336.2,83 289.6,101.9 	"/>
</g>
</svg>
